
<svg width="410.878" height="257.032" xmlns="http://www.w3.org/2000/svg">

 <g>
  <title>Layer 1</title>
  <g fill="#fff8e5" id="Shape">
   <path id="svg_1" d="m35.1541,244.03169c-3.60652,0 -6.8559,-0.1371 -9.9331,-0.41907c-3.63683,-0.28804 -7.46843,-0.81361 -12.41716,-1.70303l-0.06842,-0.01233l-0.068,-0.01414c-3.4369,-0.71685 -7.94442,-1.74469 -12.33032,-3.34348l-0.12289,-0.0448l-0.10866,-0.04622l-0.02266,-0.00941l-3.08279,-1.27994l-0.0001,-3.33795l0,-163.39774l0,-8.09015l0,-60.33321l0,-5l5,0l301.6521,0l5.22079,0l75.89353,0l9.05606,0l-4.72666,7.50797l-0.02313,0.04092l-0.00195,-0.00109l-0.073,0.11599c-4.75537,7.55368 -11.08853,14.47394 -18.82364,20.56857l-0.0141,0.01111l-0.01422,0.01105c-3.70419,2.87574 -7.67542,5.39037 -11.80325,7.47405c-4.18467,2.11241 -8.54398,3.78847 -12.95765,4.98198c-2.04785,0.58775 -4.05429,0.96292 -5.99505,1.32581c-0.23645,0.04422 -0.47284,0.08842 -0.70911,0.13301l-0.16879,0.03184l-0.17056,0.02015c-0.43253,0.05116 -0.86106,0.10511 -1.31473,0.16222c-1.72586,0.21727 -3.50897,0.44173 -5.40097,0.49208c-0.85437,0.06727 -1.75583,0.09871 -2.82083,0.09871c-0.72306,0 -1.43259,-0.01437 -2.11875,-0.02827c-0.60873,-0.01237 -1.18368,-0.024 -1.7532,-0.02594l-0.13468,-0.00043l-0.13449,-0.00773c-0.74145,-0.04248 -1.45956,-0.10316 -2.15405,-0.16185c-0.39288,-0.03321 -0.76395,-0.06458 -1.13425,-0.09242l-0.01468,-0.0011l-0.01474,-0.00121l-1.59838,-0.12964l-0.16556,-0.01342l-0.16434,-0.02442l-1.56811,-0.23276c-6.73868,-0.94973 -13.60459,-2.7907 -20.47882,-5.4873c0.65515,1.73919 1.19845,3.34314 1.65737,4.89278c1.07026,3.55157 1.88895,7.13364 2.43363,10.6476l0,0c1.14227,7.21889 1.21115,14.55752 0.20477,21.81205l-0.00213,0.01532l-0.00223,0.01531c-1.02869,7.09264 -3.16229,14.07411 -6.34146,20.75047l-0.0101,0.02127l-0.01038,0.02116c-3.05948,6.27218 -7.12613,12.30763 -12.08737,17.93919c-4.91611,5.63521 -10.49042,10.31338 -16.56784,13.90413c-3.13501,1.85634 -6.44403,3.40558 -9.83521,4.60468c-3.44357,1.21764 -6.99774,2.08321 -10.5638,2.57268l-0.00341,0.00047l-0.00338,0.00047c-2.51989,0.34238 -5.11431,0.51601 -7.71121,0.51605c-4.5813,0.00011 -9.23971,-0.5344 -13.84657,-1.58888l0,0c-3.42169,-0.7789 -6.89264,-1.85611 -10.31647,-3.20158c-1.7084,-0.67018 -3.37628,-1.40216 -4.955,-2.17481c-0.79434,-0.38186 -1.60458,-0.79689 -2.40872,-1.23374c-0.37918,-0.20317 -0.77934,-0.42615 -1.16338,-0.64745c-0.09097,0.4293 -0.20271,0.91653 -0.33146,1.40114c-0.22857,0.92358 -0.49456,1.80256 -0.72982,2.5798l-0.01158,0.03832l-0.01221,0.03811c-0.5662,1.76831 -1.23416,3.5081 -1.98521,5.17105l-0.00499,0.01105l-0.00505,0.01105c-1.66916,3.64822 -3.64917,6.84395 -5.88501,9.49838c-2.50952,2.97794 -5.25723,5.45863 -8.16922,7.37569c-0.64072,0.45274 -1.25735,0.78566 -1.75809,1.05598c-0.21895,0.11821 -0.42573,0.22984 -0.58369,0.32463l-0.05151,0.03096l-0.05228,0.02968c-0.07773,0.04416 -0.15537,0.08853 -0.23299,0.13295c-0.68782,0.39349 -1.5359,0.87863 -2.55325,1.26019l-2.11601,0.89634l-0.04538,0.01921l-0.04573,0.01831c-0.75185,0.30116 -1.4731,0.49521 -2.05269,0.65117c-0.25157,0.06767 -0.48926,0.13162 -0.68331,0.19183l-0.09059,0.02811l-0.09152,0.02462c-0.23447,0.06316 -0.48936,0.13848 -0.75922,0.21826c-0.54863,0.16218 -1.17041,0.34595 -1.85325,0.49564l-0.11415,0.02499l-0.11522,0.0197l-2.42755,0.41434l-1.20313,0.21144l-0.08716,0.01532l-0.08763,0.01221c-0.47,0.06558 -0.87727,0.08726 -1.20448,0.10463c-0.11763,0.00627 -0.22873,0.01222 -0.30753,0.01863l-0.03883,0.00316l-0.03885,0.00258l-2.45879,0.16195l-0.1978,0.013l-0.19815,-0.00268c-3.26283,-0.04393 -7.11877,-0.23502 -10.99552,-1.31583c-3.68722,-0.96171 -7.15719,-2.30208 -10.31432,-3.98422l-0.01584,-0.00848l-0.01579,-0.00853c-1.79987,-0.97568 -3.34728,-1.92084 -4.7296,-2.88884c-0.66344,-0.45299 -1.33077,-0.94178 -1.98798,-1.45603c0.05983,0.98435 0.0987,1.98963 0.11553,2.98987l0.00006,0.00468l0.00004,0.00469c0.03492,2.33623 -0.00146,4.2957 -0.11445,6.16386c-0.20999,4.03568 -0.71134,8.15044 -1.49013,12.23088c-1.52426,8.04155 -4.13972,15.89647 -7.77367,23.34584c-1.62437,3.34475 -3.66891,6.84 -6.25054,10.68569l-0.01184,0.01768l-0.012,0.01752c-2.18015,3.18874 -4.69752,6.36079 -7.69584,9.69733l-0.01974,0.02194l-0.01995,0.02168c-5.38685,5.85413 -11.72676,11.2229 -18.84358,15.95726l0.00001,0c-0.11543,0.07711 -0.23963,0.16248 -0.37111,0.25279c-0.289,0.19864 -0.61652,0.4237 -0.98158,0.65127l-0.15621,0.09736l-0.16289,0.08559l-1.30858,0.68762l-2.61679,1.37674l-0.01785,0.00937l-0.01789,0.00926c-0.60605,0.31264 -1.20547,0.63216 -1.84005,0.97037c-1.13863,0.60695 -2.31605,1.23453 -3.54706,1.82643l-0.10331,0.04962l-0.10547,0.04491l-5.4819,2.33284l-2.73958,1.16899l-0.18237,0.07779l-0.18799,0.06315l-2.81443,0.9453l0,0.00003l-5.65563,1.91252l-0.17879,0.06043l-0.18284,0.04684l-5.7861,1.48137l-0.0328,0.00836l-0.03289,0.00795c-0.29816,0.07206 -0.609,0.15341 -0.93811,0.23958c-0.65394,0.17116 -1.3951,0.36516 -2.17805,0.51874l-0.04715,0.00926l-0.04737,0.00836l-2.94574,0.51927l-2.91328,0.51487c-0.92312,0.17556 -2.1336,0.38664 -3.40789,0.48904l-5.90178,0.61882l-0.15058,0.01579l-0.15131,0.00664l-5.99942,0.26369l-0.06758,0.00299l-0.06768,0.00116c-0.88969,0.01495 -1.76627,0.02258 -2.60527,0.02258z"/>
   <path id="svg_2" fill="#262262" d="m35.15409,239.03183c0.84088,0 1.68118,-0.00793 2.52088,-0.02205l5.99941,-0.26353l5.9653,-0.62558c0.99529,-0.07648 1.98088,-0.2403 2.96294,-0.42766l5.89412,-1.04029c0.97735,-0.19177 1.93588,-0.47795 2.90411,-0.71177l5.78618,-1.48146l8.47971,-2.86118l8.22617,-3.50383c1.78382,-0.85765 3.50618,-1.82852 5.26118,-2.73411l3.92765,-2.0656c0.41588,-0.25911 0.81264,-0.54617 1.2197,-0.81793c6.51412,-4.33264 12.65029,-9.43471 17.94235,-15.1856c2.61706,-2.91264 5.08324,-5.95352 7.28736,-9.17735c2.17412,-3.23912 4.20205,-6.57823 5.9047,-10.0847c3.41559,-7 5.90941,-14.44501 7.35942,-22.09766c0.72971,-3.82411 1.20853,-7.69764 1.40941,-11.57588c0.11793,-1.93852 0.13588,-3.87881 0.10705,-5.80676c-0.01617,-0.96382 -0.05412,-1.92499 -0.11352,-2.87441c-0.05206,-0.92706 -0.14853,-1.9503 -0.24736,-2.71705l-0.39882,-3.0656l-1.64147,0.83707c-0.82,0.42852 -1.73883,0.65529 -2.60736,0.97911c-1.74147,0.67059 -3.59999,0.91089 -5.42058,1.235c-3.68734,0.33914 -7.37206,0.05649 -10.83059,-0.85794c-6.86265,-1.95912 -12.90353,-5.78058 -17.28824,-10.9494c6.05795,2.91264 12.22118,4.99058 18.30235,5.735c3.0456,0.30407 6.02295,0.20147 8.89471,-0.27001c1.40324,-0.38971 2.84588,-0.57882 4.16706,-1.20059c0.66588,-0.28 1.3797,-0.4303 2.01412,-0.79118l1.92529,-1.02411c0.5453,-0.23412 1.04648,-0.5753 1.54619,-0.92177l-0.00177,-0.01706l0.01059,0.01088c0.10794,-0.07471 0.21705,-0.14676 0.32499,-0.22058l1.84059,-1.25177l1.69176,-1.42735c0.27913,-0.24236 0.57971,-0.46354 0.84354,-0.72207l0.76588,-0.79911c2.14,-2.05205 3.85382,-4.52882 5.345,-7.1847c2.98352,-5.34412 4.68912,-11.61882 5.44852,-18.28971c2.02971,6.46294 1.83884,13.74118 -0.62088,20.45794c-1.23764,3.34265 -3.02147,6.595 -5.455,9.32648l-0.88294,1.05235c-0.31028,0.33382 -0.65882,0.62999 -0.98823,0.94676l-2.015,1.86293c-0.42383,0.32589 -0.86676,0.62824 -1.30501,0.93589l2.66149,2.49853c0.44264,0.41588 1.1294,1.01059 1.75206,1.49942c0.64352,0.51294 1.30793,1.00617 1.99734,1.47588c1.36324,0.95675 2.80324,1.81177 4.26941,2.60647c2.94765,1.57059 6.07588,2.74059 9.26559,3.56942c3.18677,0.8947 6.48912,1.0997 9.76059,1.14381l2.45853,-0.16205c0.40883,-0.03325 0.82088,-0.035 1.22765,-0.09176l3.65499,-0.63001c0.80471,-0.17618 1.58765,-0.44353 2.38324,-0.65765c0.78295,-0.24323 1.60823,-0.40882 2.35883,-0.70941l2.22676,-0.94323c0.7603,-0.27266 1.45441,-0.69117 2.15617,-1.0897c0.69118,-0.41501 1.43648,-0.74619 2.08912,-1.21971c2.70176,-1.7656 5.07853,-3.98766 7.17118,-6.47089c2.09588,-2.48853 3.78618,-5.3497 5.16236,-8.35735c0.68117,-1.50853 1.27528,-3.06088 1.78029,-4.63765c0.23912,-0.79118 0.47764,-1.58323 0.67205,-2.37529c0.20441,-0.76118 0.38265,-1.64794 0.4853,-2.23471l1.05735,-6.09559l5.14441,3.25088c0.53913,0.34001 1.32382,0.79383 2.02677,1.17001c0.72177,0.39235 1.46441,0.77382 2.21588,1.1347c1.49942,0.73442 3.03853,1.40676 4.60089,2.01971c3.12382,1.22765 6.33587,2.23735 9.59764,2.98c6.52031,1.49295 13.24322,1.88092 19.7747,0.99353c6.53031,-0.89647 12.82943,-3.14912 18.5356,-6.52853c5.71207,-3.375 10.88794,-7.77618 15.35736,-12.90265c4.50559,-5.11353 8.38175,-10.74853 11.34735,-16.82794c2.90616,-6.10295 4.9347,-12.61088 5.90763,-19.31853c0.9306,-6.70882 0.87823,-13.58647 -0.19086,-20.34383c-0.52295,-3.37852 -1.29883,-6.7247 -2.28766,-10.0044c-0.48617,-1.64148 -1.04941,-3.25883 -1.65707,-4.85354c-0.59293,-1.5697 -1.28617,-3.22205 -1.97382,-4.58911l-1.00616,-2.00059c-2.48294,0.89794 -5.09943,1.15353 -7.64002,1.16l-2.09057,-0.10353l-2.04764,-0.30147c-0.68942,-0.08559 -1.35089,-0.25118 -2.01502,-0.415c-0.65969,-0.17353 -1.34381,-0.28794 -1.97912,-0.53c-2.60733,-0.80088 -5.08942,-1.91794 -7.44852,-3.34441c-1.18353,-0.70912 -2.32825,-1.50765 -3.44882,-2.46971c-0.00971,-0.0097 -0.01972,-0.01882 -0.03058,-0.02882c-0.21149,0.2547 -0.40765,0.52206 -0.6253,0.77147c-1.2197,1.37706 -2.59385,2.63412 -4.11588,3.74029c-3.00589,2.21941 -6.86603,3.7079 -10.74765,3.59294c-1.92442,-0.05941 -3.8,-0.44558 -5.5153,-1.10706c-1.69912,-0.69117 -3.27411,-1.56499 -4.66823,-2.62529c-2.84059,-2.04853 -5.07413,-4.65588 -6.94971,-7.41706c2.70088,1.96853 5.45383,3.78294 8.33647,5.03118c1.43382,0.63794 2.91236,1.0547 4.3497,1.36441c1.45352,0.24471 2.88091,0.30677 4.24912,0.11412c2.73852,-0.34177 5.20176,-1.67383 7.3303,-3.54765c1.06736,-0.935 2.03675,-2.01794 2.94294,-3.15912c0.44204,-0.58117 0.87323,-1.17353 1.26471,-1.78823c0.37265,-0.58941 0.80529,-1.295 1.04205,-1.7703l1.82266,-3.65588l4.04352,3.80971c0.08734,0.08206 0.15588,0.16647 0.20883,0.26206c0.0047,0.07735 0.25736,0.27264 0.36734,0.40588c0.24118,0.29618 0.63794,0.61 1.01883,0.92412c0.76206,0.63 1.65057,1.25029 2.59265,1.79206c1.8891,1.07352 3.90528,2.07264 6.01676,2.73235c4.18295,1.39147 8.63907,1.90706 12.5856,0.8c0.51645,-0.08618 0.97735,-0.29883 1.44617,-0.49853c0.46087,-0.21324 0.98001,-0.33471 1.41027,-0.61471c0.86502,-0.55176 1.77561,-1.0197 2.66413,-1.79264c0.93237,-0.67059 1.71176,-1.48148 2.57031,-2.24294c0.76852,-0.82795 1.56235,-1.65677 2.24203,-2.57589c2.78708,-3.61059 4.65561,-8.15735 4.8715,-13.15441l-301.65207,0l0,63.14059c0.675,0.28353 1.35088,0.55353 2.06647,0.76941c1.43088,0.51383 2.74147,0.93235 4.105,1.12235c1.36441,0.20235 2.74206,0.29707 4.11912,0.18912c5.5097,-0.35206 10.87206,-2.97294 15.43588,-6.56735c2.30941,-1.79736 4.40294,-3.87824 6.25324,-6.09294c0.91794,-1.10883 1.755,-2.28353 2.44441,-3.44618c0.70206,-1.10794 1.24206,-2.44529 1.30941,-3.01323l0.79765,-6.49883l4.65823,4.35059c0.56794,0.52735 1.405,1.18883 2.14736,1.75677c0.7697,0.58029 1.56705,1.10794 2.39058,1.63441c1.64765,0.9997 3.34883,1.87823 5.11824,2.55412c3.5253,1.33823 7.27912,1.8244 10.87117,0.91882c1.79618,-0.43294 3.56559,-1.16265 5.22618,-2.17618c0.78382,-0.56706 1.63441,-1.08 2.37765,-1.74235c0.79676,-0.60853 1.52559,-1.29677 2.25471,-2.01324c2.89087,-2.87823 5.32176,-6.35058 7.57617,-9.98559c-0.31058,1.02795 -0.66147,2.04118 -0.99911,3.06736c-0.36442,1.01323 -0.81001,1.98618 -1.21501,2.98618c-0.47323,0.97293 -0.95941,1.95911 -1.47235,2.91852c-0.595,0.91912 -1.10706,1.9053 -1.76941,2.78383c-1.25559,1.83676 -2.78177,3.52617 -4.52324,5.02558c-1.78293,1.45971 -3.82235,2.70265 -6.06441,3.56765c-4.51059,1.71618 -9.62911,1.55324 -14.09853,0.18882c-2.25529,-0.66235 -4.40264,-1.58029 -6.42853,-2.70176c-0.64794,-0.36529 -1.29617,-0.7297 -1.93147,-1.14823c-0.14853,0.28352 -0.29706,0.56676 -0.44559,0.85029c-0.90441,1.595 -1.91764,3.01324 -3.01117,4.36412c-2.16089,2.70264 -4.65941,5.05353 -7.38736,7.14794c-2.72794,2.05383 -5.72588,3.83852 -8.9947,5.10823c-3.25412,1.28265 -6.80561,2.05396 -10.41206,1.98559c-3.56471,0 -7.27912,-0.99912 -10.25,-2.55323c-0.05412,-0.02706 -0.09441,-0.04059 -0.14853,-0.06765l0,163.39764c0,0 0.03706,0.01531 0.04941,0.02089c3.79,1.38147 7.71236,2.32735 11.63883,3.14618c3.97088,0.71382 7.95264,1.32675 11.96117,1.64264c3.16265,0.29088 6.33677,0.40088 9.50471,0.40088m293.65087,-204.05735c0.85324,0 1.70618,-0.02176 2.55737,-0.09353c2.14469,-0.04617 4.26148,-0.37265 6.39176,-0.6247c2.10412,-0.39706 4.22088,-0.76589 6.28735,-1.36177c8.29529,-2.23735 16.15323,-6.24412 23.03824,-11.58941c6.83645,-5.38647 12.98529,-11.83676 17.68677,-19.305l-81.11441,0c1.55352,4.82324 0.72558,10.39147 -1.65943,15.14088c-1.18912,2.39294 -2.79471,4.59 -4.66559,6.49089c-0.85058,0.99617 -2.01971,1.87264 -3.1644,2.7547c-0.16854,0.13324 -0.35736,0.23412 -0.54,0.34471l0.3753,0.17205c7.82617,3.58471 16.08469,6.21 24.56528,7.40324l1.58853,0.23588l1.59854,0.12971c1.06558,0.08 2.13117,0.18706 3.1994,0.24823c1.28266,0.00442 2.56943,0.05412 3.85529,0.05412m55.9147,-32.885c0,0 0.00031,-0.00088 0.00119,-0.00235c-0.00088,0.00147 -0.00119,0.00235 -0.00119,0.00235m0.00119,-0.00235l0,-0.00029l0,0.00029m0,-0.00029c0.00031,-0.00059 0.00058,-0.00118 0.00089,-0.00177c-0.00031,0.00059 -0.00058,0.00118 -0.00089,0.00177m0.00089,-0.00177c0.00058,-0.00088 0.00116,-0.00206 0.00204,-0.00353c-0.00088,0.00147 -0.00146,0.00265 -0.00204,0.00353m0.00204,-0.00353c0.00098,-0.00175 0.00211,-0.0039 0.00333,-0.00634c-0.00131,0.0025 -0.00253,0.00456 -0.00333,0.00634m0.00333,-0.00634c0.00064,-0.00121 0.00131,-0.00251 0.00198,-0.00395c-0.0007,0.00139 -0.00137,0.00271 -0.00198,0.00395m0.00198,-0.00395c0.00058,-0.00118 0.00147,-0.00236 0.00205,-0.00383c-0.00058,0.00118 -0.00147,0.00265 -0.00205,0.00383m0.00205,-0.00383c0,-0.00029 0.0003,-0.00029 0.0003,-0.00058c0,0.00029 -0.0003,0.00029 -0.0003,0.00058m0.0003,-0.00058c0.00089,-0.00148 0.00177,-0.00324 0.00266,-0.00471c-0.00089,0.00147 -0.00177,0.00323 -0.00266,0.00471m0.00266,-0.00471c0,-0.00059 0.00027,-0.00088 0.00058,-0.00147c-0.00031,0.00059 -0.00058,0.00088 -0.00058,0.00147m0.00058,-0.00147c0.00088,-0.00147 0.00177,-0.00324 0.00265,-0.005c-0.00088,0.00176 -0.00177,0.00353 -0.00265,0.005m0.00265,-0.005c0.0044,-0.00824 0.00971,-0.01824 0.01587,-0.0303c-0.005,0.00942 -0.01059,0.0203 -0.01587,0.0303m0.01587,-0.0303c0.00079,-0.00146 0.00153,-0.00285 0.00223,-0.00422c-0.00076,0.00143 -0.00153,0.00283 -0.00223,0.00422m0.00223,-0.00422c0.00085,-0.00158 0.00171,-0.0032 0.00247,-0.00489c-0.00079,0.00161 -0.00162,0.00323 -0.00247,0.00489m0.00247,-0.00489c0.00061,-0.00118 0.00119,-0.00236 0.00177,-0.00353c-0.00058,0.00117 -0.00116,0.00235 -0.00177,0.00353m0.00177,-0.00353c0.00034,-0.00044 0.00061,-0.00092 0.00089,-0.00141c-0.00028,0.00045 -0.00058,0.00091 -0.00089,0.00141m0.00089,-0.00141c0.00054,-0.00089 0.00109,-0.00174 0.00146,-0.00271c-0.00055,0.00093 -0.00101,0.00185 -0.00146,0.00271m0.00146,-0.00271c0.00031,-0.00059 0.00089,-0.00147 0.00119,-0.00235c-0.00058,0.00088 -0.00088,0.00176 -0.00119,0.00235m0.00119,-0.00235c0,-0.0003 0.00028,-0.00059 0.00028,-0.00059c0,0 -0.00028,0.00029 -0.00028,0.00059m0.00028,-0.00059c0.00061,-0.00088 0.00088,-0.00147 0.00119,-0.00177c-0.00058,0.00059 -0.00089,0.00118 -0.00119,0.00177m0.00119,-0.00177c0.00051,-0.00105 0.00103,-0.00211 0.00158,-0.00337c-0.00027,0.0006 -0.00079,0.00178 -0.00158,0.00337m0.00158,-0.00337c0.00012,-0.00028 0.00019,-0.00045 0.00019,-0.00045c-0.00007,0.00016 -0.00013,0.0003 -0.00019,0.00045m-349.61217,247.03131c-3.47324,0 -6.95324,-0.12412 -10.42059,-0.44293c-4.20765,-0.3306 -8.51735,-0.98589 -12.81471,-1.75824c-3.87294,-0.80382 -8.60735,-1.885 -13.29411,-3.59323l-6.5753,-2.39678l-0.04941,-7.01941l0,-241.82117l410.87823,0l-9.64911,15.32765c-5.0603,8.03794 -11.77588,15.38353 -19.9606,21.83205c-8.03616,6.23971 -17.22293,10.85442 -26.62292,13.38971c-1.97089,0.56971 -4.15088,0.99324 -6.32941,1.40059l-1.38709,0.23677l-1.27615,0.15764c-2.02002,0.25442 -4.03796,0.4903 -6.07532,0.53412c-0.50586,0.06235 -1.6391,0.09588 -2.77264,0.09588l-3.88968,-0.05412l-5.57236,-0.41058l-2.24853,-0.31177c-3.98181,-0.56008 -8.01663,-1.41981 -12.07514,-2.57142c0.5658,2.31387 1.0308,4.63668 1.38629,6.93348c1.21384,7.67265 1.28766,15.50529 0.21384,23.24736c-1.10971,7.65146 -3.3894,15.1147 -6.78442,22.24411c-3.29764,6.76118 -7.61499,13.17206 -12.87293,19.13942c-5.23736,6.00764 -11.22882,11.03441 -17.77322,14.90117c-6.95413,4.11853 -14.44736,6.75324 -22.26267,7.82617c-7.70359,1.0465 -15.57313,0.63153 -23.36647,-1.15264c-3.65471,-0.83236 -7.36735,-1.98412 -11.02353,-3.42089c-1.20201,-0.47154 -2.39444,-0.97493 -3.57012,-1.50975c-0.50417,1.42119 -1.04583,2.76714 -1.64135,4.08594c-1.87764,4.1044 -4.10058,7.68352 -6.62735,10.68382c-2.85118,3.38323 -5.99617,6.20882 -9.3497,8.40029c-0.36647,0.28059 -1.18883,0.75795 -2.02647,1.21029c-1.94118,1.10353 -3.09148,1.70265 -4.31354,2.14089l-1.70206,0.73823c-1.01941,0.4103 -1.90205,0.67266 -2.79176,0.91236l-4.34352,-9.15972l2.83411,9.59001c-0.72911,0.21559 -1.46059,0.42264 -2.20264,0.585l-4.65912,0.81529l-4.16295,0.27824c-4.39323,-0.02765 -8.67381,-0.24559 -13.12117,-1.49441c-3.66943,-0.95144 -7.30147,-2.32685 -10.64967,-4.04958c-0.00719,0.13042 -0.01474,0.26094 -0.02268,0.39134c-0.21589,4.17971 -0.7453,8.53118 -1.56823,12.84294c-1.60501,8.47177 -4.36295,16.75559 -8.19501,24.60854c-1.71735,3.53705 -3.87529,7.23 -6.58882,11.27234c-2.35265,3.44177 -5.00324,6.78383 -8.15177,10.28795c-5.73999,6.23852 -12.38911,11.87088 -19.84294,16.82852l-1.46941,0.97883l-6.40735,3.40235c-1.23559,0.65854 -2.47265,1.31471 -3.73647,1.92236l-8.63501,3.68912l-9.20058,3.13646l-6.50941,1.69618l-3.51177,-9.42471l2.53147,9.67442c-0.82206,0.215 -1.64588,0.42381 -2.47882,0.58734l-6.07971,1.07471c-1.21441,0.23265 -2.5697,0.44589 -3.93647,0.55089l-5.68853,0.60058l-6.60353,0.30825l-2.9597,0.03175z"/>
  </g>
 </g>
</svg>