<svg xmlns="http://www.w3.org/2000/svg" xmlns:xlink="http://www.w3.org/1999/xlink" width="1893.863" height="1051.657" viewBox="0 0 1893.863 1051.657">
  <defs>
    <radialGradient id="radial-gradient" cx="0.5" cy="0.5" r="0.872" gradientTransform="translate(0.216) scale(0.568 1)" gradientUnits="objectBoundingBox">
      <stop offset="0" stop-color="#f9ed40"/>
      <stop offset="0.778" stop-color="#f9ae40"/>
      <stop offset="1" stop-color="#f9ae40"/>
    </radialGradient>
    <clipPath id="clip-path">
      <path id="Shape" d="M-215.886,1268.159V216.5H1675.837s4.816,193,0,1051.657C1688.467,1261.038-215.886,1268.159-215.886,1268.159Z" transform="translate(11046.092 -1151.429)" stroke="#262262" stroke-width="15" fill="url(#radial-gradient)"/>
    </clipPath>
  </defs>
  <g id="Mask_Group_22" data-name="Mask Group 22" transform="translate(-10830.205 934.927)" clip-path="url(#clip-path)">
    <path id="Shape-2" data-name="Shape" d="M1272.365,2197.394l-11.029-602.833,112.7,663.158Zm-430.682-43.168L1068.9,1552.388,943.356,2214.551Zm203-12.024,107.444-521.753,5.095,549.724Zm438.178-9.738-120.927-563.958,208.25,591.863Zm-42.213-622.7,326.458,545.724s-77.51,26.324-82.706,27.816a.076.076,0,0,1-.021,0C1678.568,2083.25,1440.653,1509.76,1440.653,1509.76Zm-992.768,456.1,505-549.463L547.826,2028.622ZM719.1,1925.923l288.023-441.665-208.75,474.317Zm795.551-445.134,413.58,408.641-54.6,48.974Zm-1277.8,301.169,635.994-390.683L336.788,1844.718ZM1569.32,1394.031l519.564,358.706-54.6,48.977ZM107.938,1601.852,781.6,1352.317l-589.115,329.4Zm1518.4-263.989,590.112,231.656-60.009,106.158ZM119.558,1389l581.668-108-529.07,204.348ZM1676.74,1269.045s635.994,95.042,635.482,100.062-12.436,80.718-12.436,80.718ZM0,1223.326l723.524-33.637-638.978,113.5Zm1679.463-43.646,620.432-5.853,84.546,79.862ZM62.637,1025.464l667.8,67.637L110,1098.953Zm2303.226-53.3,84.547,79.862L1677.33,1093.4ZM120.637,906.076c.514-5.018,12.436-80.717,12.436-80.717l643.281,184.308S120.126,911.1,120.637,906.076ZM2259.349,767.668l52.6,96.348-581.667,108ZM234.912,704.753,275.456,645.2,791.795,936.613ZM2230.458,581.072,2315,660.933,1641.343,910.468ZM346.374,531.031l40.544-59.557L872.23,869.252ZM1924.993,280.85l86.764,77.794L1448.1,851.473Zm113.162,197.1,50.729,65.213L1617.791,834.4ZM454.471,394.414,554.3,318.232l365.574,487.8ZM1700.033,109.5,1786.8,187.3l-369.11,579.119ZM658.666,205.829s77.513-26.323,82.707-27.817,235.878,555.91,235.878,555.91Zm194.8-104.678,101.672,60.325,120.927,563.958ZM1052.95,0l101.672,60.325,13.006,649.365Zm423.487,29.648,101.671,60.325L1350.888,691.809ZM1262.565,74.027,1375.1,102,1267.661,623.75Z" transform="translate(10552.816 -1480.41)" fill="#45b1e1" opacity="0.445"/>
  </g>
</svg>
