<svg xmlns="http://www.w3.org/2000/svg" width="770.34" height="834.113" viewBox="0 0 770.34 834.113">
  <path id="Shape" d="M121.778,403.747l38.984-269.156,3.155,270.585ZM275.99,390.583l-53.636-234.2,95.8,234.529Zm-253.5-6.238L132.061,141.464,64.625,385.773ZM-51.77,350.879,97.271,146.009-10.749,360.625ZM260.616,162.611,372.461,336.984l-38.879,12.01Zm-70.2-16.466,33.5,190.1-29.986,4.329ZM411.96,324.253,287.7,134.045,454.121,324.583ZM-91.058,280.834,59.2,138.212-56.172,301.78ZM312.206,107.025l180.355,150.03-31.413,7.34ZM-159.652,250.232,47.462,104.943-118.632,259.978ZM323.682,73.651,529.718,186.981s-17.627,22.811-18.864,24.253a.042.042,0,0,1-.034.011C507.693,211.238,323.682,73.651,323.682,73.651ZM-180.852,175.479,30.118,72.853-152.1,190.108ZM339.741,50.648l204.271,53.409L537.7,129.83Zm-527.413,75.968c-.855-1.7-12.525-28.056-12.525-28.056L26.944,37.7S-182.867,126.64-187.593,126.64C-187.637,126.64-187.664,126.632-187.672,126.617Zm526.158-113.8L564.062,30.584l-6.308,25.774Zm-532.758,1.811,211.117-3.09L-194.3,41.157ZM344.065-15.7,564.993-51.573l3.57,45.017ZM-196.224-34.977l.031-26.535L27.1-24.908ZM557.617-135.267c.856,1.7,12.525,28.056,12.525,28.056L349.691-48.992S556.761-136.964,557.617-135.267ZM-191.694-98.652l14.217-42.863L28.493-53.933Zm701.931-94.637,41.021,9.746L328.018-76.035Zm-679.425-3.484s17.628-22.811,18.864-24.253S30.981-87.6,30.981-87.6Zm658.448-73.1,41.02,9.746L310.071-103.154Zm-621.878,3.487,42.162.33L58.485-108.685Zm38.662-69.359,42.162.33L82.39-130.735Zm510.685,20.462,34.886,20.946L301.358-151.715ZM221.454-425l41.261,8.675-67.69,262Zm149.281,55.578,41.021,9.746L262.715-154.8ZM119.294-421.166l41.261,8.674,7.135,253.343ZM37.173-405.049l42.162.33,53.636,234.2ZM315.98-428.893l28.085,11.364L263.271-237.034ZM-43.137-416.927l38.879-12.01L68.709-242.554Z" transform="translate(200.197 428.936)" fill="rgba(210,38,102,0.75)"/>
</svg>
