
<svg width="184.793" height="128.117" xmlns="http://www.w3.org/2000/svg">

 <g>
  <title>Layer 1</title>
  <g fill="#fff8e5" id="Shape">
   <path id="svg_1" d="m17.20856,117.11748c-1.93085,0 -3.6813,-0.07394 -5.34996,-0.22598c-1.97231,-0.15728 -4.03204,-0.43947 -6.67224,-0.91404l-0.06877,-0.01239l-0.06836,-0.01426c-1.86333,-0.38895 -4.31278,-0.94857 -6.73496,-1.83088l-0.12625,-0.046l-0.12362,-0.05271l-0.0371,-0.01589l-3.02817,-1.29954l0.00127,-3.29469l0,-84.87091l0,-7.97333l0,-27.56676l0,-5l5,0l156.68102,0l5.21966,0l-0.22427,5.21481c-0.07123,1.65665 -0.38538,3.27907 -0.92807,4.82828l4.16266,0l-3.65738,7.04384l-0.04819,0.14459l-0.28259,0.47107l-0.13578,-0.07452l0.12528,0.07886c-0.0054,0.00856 -0.01077,0.01711 -0.01618,0.02567l0.00037,0.00023l-0.00037,-0.00023c-1.27935,2.0302 -2.68856,4.03504 -4.20611,5.98499c0.53366,1.82717 0.94644,3.67105 1.22803,5.48664c0.62905,3.98073 0.66674,8.02776 0.11193,12.02815l-0.0021,0.01514l-0.0022,0.01512c-0.56839,3.92191 -1.74661,7.77979 -3.50198,11.46643l-0.01026,0.02152l-0.01043,0.02143c-1.68265,3.44882 -3.91245,6.76075 -6.62806,9.84447c-2.71994,3.11849 -5.81253,5.71262 -9.19207,7.71041c-3.59107,2.12653 -7.45902,3.48634 -11.49311,4.03971l-0.0032,0.00043l-0.00324,0.00046c-1.41543,0.19228 -2.87167,0.28979 -4.3283,0.28981c-2.56021,0.00005 -5.16126,-0.29803 -7.73075,-0.88596c-1.89526,-0.43204 -3.81424,-1.02747 -5.69967,-1.76887c-0.69364,-0.27226 -1.37598,-0.56325 -2.03586,-0.86813c-0.27304,0.78745 -0.58139,1.56211 -0.91986,2.31036l-0.00382,0.00841l-0.00384,0.0084c-0.9556,2.09193 -2.10138,3.93738 -3.40549,5.48505c-1.44272,1.71288 -3.03335,3.14926 -4.72827,4.26975c-0.43469,0.30368 -0.8269,0.51551 -1.11954,0.67356c-0.07321,0.03955 -0.17352,0.09372 -0.2081,0.11452l-0.05368,0.03229l-0.05444,0.03093l-0.11383,0.06495c-0.401,0.22932 -0.93973,0.5374 -1.62378,0.79927l-1.05838,0.44807l-0.04416,0.01866l-0.04446,0.01786c-0.52543,0.21064 -0.99714,0.33723 -1.34153,0.42968c-0.10275,0.02758 -0.20898,0.0561 -0.26559,0.07365l-0.08707,0.02696l-0.08795,0.02375c-0.09402,0.02541 -0.21243,0.06044 -0.33783,0.09751c-0.30823,0.09116 -0.69183,0.20461 -1.13058,0.30105l-0.11548,0.02537l-0.11658,0.01991l-1.25342,0.21395l-0.61728,0.10891l-0.09695,0.01712l-0.09753,0.01326c-0.33948,0.04619 -0.6265,0.06121 -0.81644,0.07114c-0.03284,0.00171 -0.06568,0.00311 -0.09848,0.00547l-0.03531,0.00286l-0.03162,0.00205l-1.2771,0.08459l-0.19943,0.01322l-0.19983,-0.00277c-1.845,-0.02538 -4.03436,-0.13652 -6.30221,-0.76564c-2.06897,-0.54067 -4.02411,-1.29493 -5.81293,-2.24253c-0.00757,0.16194 -0.01614,0.32211 -0.0257,0.48107c-0.11529,2.20317 -0.38858,4.44651 -0.81237,6.66799c-0.83139,4.38485 -2.25663,8.66604 -4.23612,12.72521l0,0c-0.89249,1.83765 -2.00946,3.74824 -3.41473,5.84098l-0.01096,0.01628l-0.01108,0.01622c-1.18869,1.7405 -2.56045,3.47045 -4.19378,5.28871l-0.01999,0.02227l-0.02027,0.02199c-2.92691,3.18091 -6.36853,6.09619 -10.22921,8.66487c-0.06186,0.04106 -0.11899,0.08049 -0.17624,0.1198c-0.15634,0.10731 -0.35089,0.24084 -0.57703,0.38217l-0.15799,0.09873l-0.16492,0.08672l-0.67947,0.35731l-1.36102,0.7156l-0.01734,0.00914l-0.01745,0.00898c-0.30103,0.15528 -0.60633,0.31802 -0.92954,0.49031c-0.61197,0.32623 -1.24481,0.66356 -1.92746,0.99197l-0.104,0.05003l-0.1062,0.04519l-2.84125,1.2087l0,0.00001l-1.42471,0.6084l-0.18405,0.07858l-0.1897,0.06362l-1.45816,0.48905l-2.93521,0.99277l-0.17884,0.06048l-0.18286,0.04684l-3.00509,0.7695l-0.03226,0.00826l-0.03238,0.00783c-0.13119,0.03174 -0.28082,0.07098 -0.43927,0.11253c-0.37634,0.09866 -0.80286,0.21052 -1.28769,0.30507l-0.04401,0.00859l-0.04415,0.00779l-1.53,0.27002l-1.49982,0.26451c-0.53238,0.10091 -1.22766,0.22112 -1.98068,0.28312l-3.03554,0.31837l-0.15076,0.01584l-0.15146,0.00664l-3.11578,0.13681l-0.06641,0.0029l-0.06645,0.00117c-0.47981,0.00829 -0.95369,0.0125 -1.40843,0.0125z"/>
   <path id="svg_2" fill="#262262" d="m17.20853,112.11747c0.44106,0 0.88158,-0.00421 1.32211,-0.01184l3.11579,-0.13684l3.09764,-0.32474c0.51761,-0.03973 1.02972,-0.12526 1.53998,-0.22237l3.06079,-0.54c0.50763,-0.09894 1.00631,-0.24842 1.50842,-0.37l3.00528,-0.76947l4.40524,-1.48579l4.27237,-1.81974c0.92606,-0.44552 1.8216,-0.95052 2.73239,-1.42026l2.04026,-1.07289c0.21606,-0.135 0.42211,-0.28421 0.63369,-0.42474c3.38315,-2.25079 6.57105,-4.90053 9.31946,-7.88763c1.35895,-1.5129 2.64053,-3.09237 3.78449,-4.76737c1.12945,-1.6821 2.18341,-3.41632 3.06814,-5.2379c1.77396,-3.63605 3.06894,-7.50236 3.82236,-11.47763c0.37897,-1.98631 0.62738,-3.99869 0.7316,-6.01289c0.06131,-1.0071 0.07025,-2.01421 0.05578,-3.01605c-0.0079,-0.50027 -0.02789,-0.99974 -0.0592,-1.4929c-0.0271,-0.48158 -0.0766,-1.01342 -0.12869,-1.41132l-0.20633,-1.5921l-0.85315,0.43474c-0.42551,0.22237 -0.90262,0.34026 -1.35446,0.50841c-0.90448,0.34843 -1.86924,0.47343 -2.81528,0.64185c-1.91498,0.17553 -3.82843,0.02948 -5.62579,-0.44553c-3.56394,-1.01789 -6.7013,-3.00342 -8.97919,-5.6871c3.1463,1.51184 6.34762,2.59184 9.50656,2.97816c1.58212,0.15814 3.12842,0.10526 4.61975,-0.13974c0.72894,-0.20316 1.47867,-0.30053 2.16446,-0.62368c0.34552,-0.14579 0.71631,-0.22316 1.04684,-0.41132l0.99897,-0.53184c0.28341,-0.12132 0.54446,-0.29869 0.80368,-0.47869l-0.00107,-0.00895l0.00552,0.00527c0.05579,-0.03869 0.11237,-0.07553 0.16818,-0.11421l0.95682,-0.64974l0.87842,-0.74184c0.14475,-0.12579 0.30133,-0.24105 0.43817,-0.37421l0.39789,-0.41579c1.11157,-1.06579 2.00159,-2.35263 2.77658,-3.73158c1.54868,-2.77553 2.43527,-6.03526 2.82947,-9.50026c1.05475,3.35684 0.95581,7.13789 -0.32208,10.62631c-0.64371,1.73605 -1.56977,3.42527 -2.83316,4.84474l-0.45923,0.54632c-0.16104,0.17368 -0.34183,0.32657 -0.51288,0.49131l-1.04685,0.96737c-0.22027,0.16921 -0.44973,0.32684 -0.67764,0.4871l1.38159,1.29763c0.23026,0.21527 0.58683,0.52475 0.9108,0.77869c0.33392,0.26632 0.67944,0.5229 1.03763,0.76658c0.70737,0.49684 1.45526,0.94053 2.21683,1.35368c1.53079,0.81553 3.15631,1.42395 4.81317,1.85395c1.655,0.46447 3.37051,0.57079 5.06973,0.59395l1.2771,-0.08447c0.21237,-0.01711 0.42657,-0.0179 0.63815,-0.04685l1.89789,-0.32763c0.41763,-0.09184 0.82449,-0.23027 1.23764,-0.34184c0.40683,-0.12605 0.83527,-0.21158 1.2258,-0.36816l1.15631,-0.48973c0.39527,-0.14211 0.75525,-0.35895 1.11972,-0.56606c0.35922,-0.21605 0.74607,-0.38789 1.08554,-0.63342c1.4029,-0.91711 2.63788,-2.07184 3.72394,-3.36158c1.08923,-1.29237 1.96765,-2.77842 2.68134,-4.34079c0.35446,-0.78394 0.66314,-1.59026 0.92498,-2.40921c0.12421,-0.41052 0.24842,-0.82184 0.34922,-1.23316c0.10632,-0.39579 0.19894,-0.85578 0.2521,-1.16079l0.54895,-3.16631l2.67209,1.68842c0.28,0.17737 0.68765,0.4121 1.05316,0.60763c0.37528,0.20421 0.76053,0.40211 1.15107,0.58947c0.77841,0.38158 1.57763,0.7308 2.38946,1.04922c1.62265,0.63815 3.29132,1.1621 4.98502,1.54815c3.38684,0.77475 6.87875,0.97632 10.27078,0.51553c3.39209,-0.46526 6.66446,-1.63526 9.62814,-3.39026c2.96738,-1.75395 5.65579,-4.03922 7.97687,-6.70211c2.34,-2.65605 4.35315,-5.58289 5.8942,-8.74105c1.50921,-3.16974 2.56317,-6.55 3.0679,-10.03395c0.48343,-3.48474 0.4563,-7.05684 -0.09894,-10.56684c-0.27185,-1.755 -0.67423,-3.4929 -1.1879,-5.19658c-0.20923,-0.70474 -0.44528,-1.40158 -0.69897,-2.08974c2.02606,-2.4171 3.90133,-4.96763 5.58948,-7.64921l-6.05027,0c0.33713,-0.20368 0.68213,-0.41289 1.02027,-0.70737c0.48422,-0.34842 0.88922,-0.76947 1.33554,-1.16473c0.39947,-0.43027 0.81183,-0.86132 1.16446,-1.33816c1.44738,-1.87579 2.41842,-4.23737 2.53,-6.8329l-156.68105,0l0,32.79606c0.35027,0.14763 0.70105,0.28789 1.07289,0.40052c0.74342,0.26632 1.42369,0.48421 2.13211,0.58211c0.70815,0.10552 1.42473,0.15394 2.14026,0.09816c2.86185,-0.18263 5.64659,-1.54448 8.01711,-3.41106c1.19973,-0.93315 2.28685,-2.01421 3.24816,-3.16526c0.47684,-0.575 0.91158,-1.18526 1.26894,-1.78921c0.36527,-0.57579 0.64526,-1.27079 0.68027,-1.565l0.41421,-3.37579l2.42,2.25974c0.29526,0.27368 0.73,0.61737 1.11501,0.91184c0.40052,0.30237 0.81446,0.57579 1.24209,0.84947c0.85581,0.51921 1.73975,0.97553 2.65869,1.32658c1.83051,0.69473 3.78073,0.94764 5.64658,0.47711c0.93237,-0.22421 1.85211,-0.60395 2.7142,-1.12948c0.40686,-0.29526 0.8487,-0.56157 1.23502,-0.90552c0.41394,-0.31579 0.79288,-0.67395 1.17157,-1.04579c1.50131,-1.495 2.76315,-3.29842 3.935,-5.18658c-0.16105,0.53368 -0.34394,1.06 -0.51947,1.59289c-0.18894,0.52658 -0.42026,1.03237 -0.6308,1.55158c-0.24579,0.505 -0.49869,1.0179 -0.76499,1.51553c-0.30868,0.47789 -0.57501,0.99 -0.91894,1.44631c-0.65238,0.95421 -1.44449,1.83158 -2.35001,2.61001c-0.92502,0.75789 -1.98526,1.40421 -3.14895,1.85315c-2.34369,0.89106 -5.00132,0.80737 -7.32343,0.09816c-1.17157,-0.34395 -2.28683,-0.82079 -3.33894,-1.40316c-0.33658,-0.19 -0.67316,-0.37894 -1.00342,-0.59658c-0.07657,0.14764 -0.15395,0.29421 -0.23131,0.44185c-0.46974,0.82789 -0.99632,1.565 -1.56421,2.2671c-1.12237,1.40316 -2.42001,2.62447 -3.83658,3.71237c-1.41685,1.06658 -2.97474,1.99368 -4.67212,2.65342c-1.69,0.66579 -3.53497,1.06629 -5.40788,1.03132c-1.85237,0 -3.78105,-0.51948 -5.32448,-1.32658c-0.02789,-0.01369 -0.04869,-0.02158 -0.07658,-0.03527l0,84.87106c0,0 0.01895,0.00815 0.02527,0.01078c1.96921,0.71737 4.00578,1.20869 6.04526,1.63448c2.06289,0.37079 4.13105,0.68842 6.21263,0.85316c1.63894,0.15026 3.28343,0.20789 4.925,0.20789m117.63789,-117.84342l2.1008,1.97816c0.04499,0.04342 0.08078,0.08658 0.10868,0.13684c0.00183,0.03974 0.13342,0.14132 0.19,0.21053c0.12607,0.15395 0.33133,0.31684 0.5292,0.48079c0.39606,0.32658 0.85764,0.64895 1.34739,0.92973c0.66156,0.37632 1.35342,0.73448 2.07,1.03316l-9.375,0c0.30893,-0.32316 0.60236,-0.66737 0.88419,-1.02237c0.22974,-0.30157 0.4537,-0.60947 0.6571,-0.92894c0.19342,-0.30606 0.41843,-0.67237 0.54184,-0.91895l0.9458,-1.89895m-16.27737,3.84948c0.4342,0.31631 0.87106,0.625 1.31158,0.91973l-0.64999,0c-0.23001,-0.30158 -0.45026,-0.60868 -0.66159,-0.91973m38.06552,1.00894c0,0 0.00055,-0.00079 0.00107,-0.00237c-0.00079,0.00158 -0.00107,0.00237 -0.00107,0.00237m0.00107,-0.00237c0.00027,0 0.00027,-0.00026 0.00027,-0.00026c0,0 0,0.00026 -0.00027,0.00026m0.00027,-0.00026c0.00025,-0.00053 0.00052,-0.00105 0.00104,-0.00158c-0.00052,0.00053 -0.00079,0.00105 -0.00104,0.00158m0.00104,-0.00158c0.00052,-0.00105 0.00107,-0.00237 0.00183,-0.00368c-0.00076,0.00131 -0.00131,0.00263 -0.00183,0.00368m0.00183,-0.00368c0.00134,-0.00263 0.00318,-0.00605 0.00528,-0.01026c-0.0021,0.00394 -0.00394,0.00736 -0.00528,0.01026m0.00528,-0.01026c0.00079,-0.00132 0.00131,-0.00264 0.00211,-0.00395c-0.0008,0.00131 -0.00132,0.00263 -0.00211,0.00395m0.00211,-0.00395c0,-0.00027 0.00024,-0.00027 0.00024,-0.00053c0,0.00026 -0.00024,0.00026 -0.00024,0.00053m0.00024,-0.00053c0.00079,-0.00158 0.00159,-0.00316 0.00266,-0.00474c-0.00107,0.00158 -0.00187,0.00316 -0.00266,0.00474m0.00266,-0.00474c0.00024,-0.00052 0.00024,-0.00105 0.00052,-0.00131c-0.00028,0.00026 -0.00028,0.00079 -0.00052,0.00131m0.00052,-0.00131c0.00103,-0.00184 0.00183,-0.00342 0.00262,-0.005c-0.00079,0.00158 -0.00183,0.00342 -0.00262,0.005m0.00262,-0.005c0.00449,-0.00842 0.00973,-0.01842 0.01605,-0.03053c-0.005,0.00948 -0.01077,0.02027 -0.01605,0.03053m0.01605,-0.03053c0.00159,-0.00289 0.00318,-0.00579 0.00473,-0.00894c-0.00155,0.00263 -0.00314,0.00578 -0.00473,0.00894m0.00473,-0.00894c0.00019,-0.00036 0.00037,-0.00076 0.00058,-0.00116c-0.00021,0.00037 -0.00039,0.00075 -0.00058,0.00116m0.00058,-0.00116c0.00043,-0.00081 0.00092,-0.00154 0.00128,-0.00227c-0.00052,0.0007 -0.00091,0.0015 -0.00128,0.00227m0.00128,-0.00227c0.0008,-0.00157 0.00132,-0.00289 0.00211,-0.00421c-0.00079,0.00132 -0.00159,0.0029 -0.00211,0.00421m0.00211,-0.00421c0.00052,-0.00079 0.00079,-0.00158 0.00131,-0.00237c-0.00052,0.00079 -0.00079,0.00158 -0.00131,0.00237m0.00131,-0.00237c0,-0.00026 0.00028,-0.00052 0.00028,-0.00078c0,0.00026 -0.00028,0.00052 -0.00028,0.00078m0.00028,-0.00078c0.00033,-0.00034 0.00055,-0.00078 0.00073,-0.0012c-0.00025,0.00046 -0.00055,0.00083 -0.00073,0.0012m0.00073,-0.0012c0.00012,-0.0002 0.00021,-0.00041 0.0003,-0.00065c-0.00009,0.00019 -0.00018,0.00042 -0.0003,0.00065m0.0003,-0.00065c0.00052,-0.00105 0.00132,-0.00237 0.00184,-0.00342c0,0 -0.0008,0.00132 -0.00184,0.00342m-139.47105,123.0708c-1.94605,0 -3.89526,-0.07158 -5.83789,-0.24974c-2.2858,-0.18001 -4.68079,-0.53974 -7.06868,-0.96895c-2.78133,-0.57684 -5.27896,-1.19921 -7.69922,-2.08079l-6.5771,-2.39606l-0.02527,-7.01078l0,-130.41106l177.12025,0l-0.43179,10.04316l8.10471,0l-9.64948,15.32763c-0.93753,1.48907 -1.93982,2.9647 -2.99994,4.41726c0.28546,1.20619 0.52631,2.42983 0.71677,3.65985c0.70212,4.43816 0.74502,8.98158 0.12213,13.47184c-0.64871,4.47816 -1.9729,8.81816 -3.94449,12.95869c-1.92264,3.94131 -4.40472,7.63079 -7.41946,11.05263c-3.03949,3.48737 -6.54764,6.42789 -10.39185,8.70026c-4.16369,2.46553 -8.66028,4.04448 -13.35763,4.68895c-4.58698,0.6227 -9.25092,0.37987 -13.86002,-0.67474c-1.34317,-0.30617 -2.67725,-0.67991 -3.99387,-1.11478c-0.93118,1.71596 -1.97955,3.26548 -3.13665,4.63846c-1.77814,2.11158 -3.76367,3.89158 -5.89868,5.28737l-0.35105,0.22948l-1.04474,0.60315c-1.14895,0.65553 -1.9992,1.08369 -2.89816,1.40685l-1.27737,0.55789l-1.44605,0.42105c-1.14709,0.33237 -1.63632,0.46817 -2.13156,0.57711l-1.73001,0.30684c-1.37131,0.21816 -1.78449,0.25131 -2.19843,0.27316l-1.37262,0.09053c-2.85,-0.00711 -5.57394,-0.14211 -8.43185,-0.94422c-0.04776,-0.01235 -0.09555,-0.02485 -0.14337,-0.03747c-0.06156,0.3609 -0.12665,0.72128 -0.19531,1.08116c-0.91263,4.81526 -2.48053,9.52553 -4.6579,13.98842c-1.07975,2.22316 -2.36527,4.36027 -3.75342,6.42763c-1.43738,2.105 -2.99237,4.03289 -4.6471,5.87526c-3.27844,3.56395 -7.02606,6.74106 -11.22,9.53105l-0.87368,0.57948l-3.62632,1.93948l-2.11001,1.08447l-4.68027,2.005l-5.12894,1.7621l-3.72842,0.98395c-1.00446,0.26026 -1.5379,0.39316 -2.07578,0.4979l-3.23684,0.57263c-0.74317,0.14236 -1.62342,0.27684 -2.5116,0.34526l-2.82051,0.29948l-3.71974,0.18157l-1.76079,0.02159z"/>
  </g>
 </g>
</svg>