<svg xmlns="http://www.w3.org/2000/svg" xmlns:xlink="http://www.w3.org/1999/xlink" width="375" height="812" viewBox="0 0 375 812">
  <defs>
    <radialGradient id="radial-gradient" cx="0.5" cy="0.5" r="0.872" gradientTransform="translate(0.271) scale(0.458 1)" gradientUnits="objectBoundingBox">
      <stop offset="0" stop-color="#f990a1"/>
      <stop offset="1" stop-color="#d81c5c"/>
    </radialGradient>
    <clipPath id="clip-path">
      <rect id="Rectangle_2609" data-name="Rectangle 2609" width="375" height="812" transform="translate(1256 2284)" fill="#fff" stroke="#707070" stroke-width="1"/>
    </clipPath>
    <clipPath id="clip-path-2">
      <path id="Path_28696" data-name="Path 28696" d="M1990,819.343V-11.606H3677.446L3110.268,819.343" transform="translate(-1990 -1)" fill="none" stroke="#707070" stroke-width="1"/>
    </clipPath>
    <clipPath id="clip-path-3">
      <path id="Shape" d="M-152.1,828.793l-1.531-841.728L1687.446-9.872S1470.952,328.476,1113.411,830.92C1119.918,827.019-152.1,828.793-152.1,828.793Z" stroke="#262262" stroke-width="5" fill="url(#radial-gradient)"/>
    </clipPath>
  </defs>
  <g id="Mask_Group_11" data-name="Mask Group 11" transform="translate(-1256 -2284)" clip-path="url(#clip-path)">
    <g id="Mask_Group_10" data-name="Mask Group 10" transform="translate(1010 2296.606)" clip-path="url(#clip-path-2)">
      <g id="Shape-2" data-name="Shape" transform="translate(-161 0.329)">
        <g id="Shape-3" data-name="Shape" fill="url(#radial-gradient)">
          <path d="M 1113.419921875 835.9020385742188 C 1112.760986328125 835.9020385742188 1112.09912109375 835.7736206054688 1111.4775390625 835.5103149414062 L 1108.440185546875 831.254150390625 C 1108.359008789062 830.0884399414062 1108.686767578125 828.9501953125 1109.343017578125 828.0219116210938 L 1112.212158203125 828.5532836914062 L 1116.630737304688 834.7448120117188 C 1115.728271484375 835.5045776367188 1114.578857421875 835.9020385742188 1113.419921875 835.9020385742188 Z M 1111.058959960938 825.6004028320312 C 1110.62353515625 825.5767211914062 1110.140014648438 825.5534057617188 1109.60498046875 825.5302734375 C 1106.971801757812 825.4161987304688 1103.030639648438 825.3055419921875 1097.89111328125 825.2012329101562 C 1088.021118164062 825.0005493164062 1073.283447265625 824.8139038085938 1054.088012695312 824.6461791992188 C 1018.535461425781 824.3357543945312 966.4102172851562 824.0789184570312 899.1607055664062 823.8828125 C 787.114990234375 823.5562133789062 631.9456787109375 823.3905029296875 437.9636535644531 823.3905029296875 C 161.3728637695312 823.3905029296875 -107.4333190917969 823.7332763671875 -147.1138458251953 823.7860107421875 L -148.6267700195312 -7.926585674285889 L 1678.294189453125 -4.887415409088135 C 1662.802124023438 19.13760948181152 1611.3505859375 98.50898742675781 1530.329833984375 219.3577880859375 C 1472.969970703125 304.9141540527344 1412.23388671875 394.2096252441406 1349.807983398438 484.7637023925781 C 1272.324096679688 597.1610107421875 1192.01123046875 711.8150024414062 1111.058959960938 825.6004028320312 Z" stroke="none"/>
          <path d="M 1108.382934570312 820.7369384765625 C 1417.695556640625 385.8946533203125 1622.88037109375 71.54134368896484 1669.117553710938 0.09737493097782135 L -143.6174621582031 -2.918465137481689 L -142.1228942871094 818.7794189453125 C -88.8497314453125 818.7095947265625 169.3707885742188 818.3903198242188 437.9547729492188 818.3903198242188 C 631.914794921875 818.3903198242188 787.082275390625 818.5558471679688 899.1477661132812 818.8828125 C 962.96826171875 819.06884765625 1016.499755859375 819.3178100585938 1054.109741210938 819.6463623046875 C 1082.502807617188 819.8943481445312 1098.828491210938 820.036865234375 1108.382934570312 820.7369384765625 M 1113.410766601562 830.9198608398438 C 1113.437866210938 830.89697265625 1113.429809570312 830.9083862304688 1113.410766601562 830.9198608398438 Z M 1113.43505859375 830.8856811523438 C 1112.93408203125 828.8717651367188 767.6471557617188 828.3905639648438 437.9547729492188 828.3905639648438 C 136.3936614990234 828.3905639648438 -152.1047210693359 828.7928466796875 -152.1047210693359 828.7928466796875 L -153.6357116699219 -12.93515968322754 L 1687.44580078125 -9.872159957885742 C 1687.44580078125 -9.872159957885742 1470.951782226562 328.4763488769531 1113.410766601562 830.9198608398438 Z" stroke="none" fill="#262262"/>
        </g>
        <g id="Clip" clip-path="url(#clip-path-3)">
          <path id="Shape-4" data-name="Shape" d="M121.778,403.747l38.984-269.156,3.155,270.585ZM275.99,390.583l-53.636-234.2,95.8,234.529Zm-253.5-6.238L132.061,141.464,64.625,385.773ZM-51.77,350.879,97.271,146.009-10.749,360.625ZM260.616,162.611,372.461,336.984l-38.879,12.01Zm-70.2-16.466,33.5,190.1-29.986,4.329ZM411.96,324.253,287.7,134.045,454.121,324.583ZM-91.058,280.834,59.2,138.212-56.172,301.78ZM312.206,107.025l180.355,150.03-31.413,7.34ZM-159.652,250.232,47.462,104.943-118.632,259.978ZM323.682,73.651,529.718,186.981s-17.627,22.811-18.864,24.253a.042.042,0,0,1-.034.011C507.693,211.238,323.682,73.651,323.682,73.651ZM-180.852,175.479,30.118,72.853-152.1,190.108ZM339.741,50.648l204.271,53.409L537.7,129.83Zm-527.413,75.968c-.855-1.7-12.525-28.056-12.525-28.056L26.944,37.7S-182.867,126.64-187.593,126.64C-187.637,126.64-187.664,126.632-187.672,126.617Zm526.158-113.8L564.062,30.584l-6.308,25.774Zm-532.758,1.811,211.117-3.09L-194.3,41.157ZM344.065-15.7,564.993-51.573l3.57,45.017ZM-196.224-34.977l.031-26.535L27.1-24.908ZM557.617-135.267c.856,1.7,12.525,28.056,12.525,28.056L349.691-48.992S556.761-136.964,557.617-135.267ZM-191.694-98.652l14.217-42.863L28.493-53.933Zm701.931-94.637,41.021,9.746L328.018-76.035Zm-679.425-3.484s17.628-22.811,18.864-24.253S30.981-87.6,30.981-87.6Zm658.448-73.1,41.02,9.746L310.071-103.154Zm-621.878,3.487,42.162.33L58.485-108.685Zm38.662-69.359,42.162.33L82.39-130.735Zm510.685,20.462,34.886,20.946L301.358-151.715ZM221.454-425l41.261,8.675-67.69,262Zm149.281,55.578,41.021,9.746L262.715-154.8ZM119.294-421.166l41.261,8.674,7.135,253.343ZM37.173-405.049l42.162.33,53.636,234.2ZM315.98-428.893l28.085,11.364L263.271-237.034ZM-43.137-416.927l38.879-12.01L68.709-242.554Z" transform="translate(411 441)" fill="rgba(210,38,102,0.75)"/>
          <g id="Shape-5" data-name="Shape" transform="translate(175.506 -9.073)" fill="#fff8e5">
            <path d="M 248.7025604248047 124.2554779052734 C 246.7717132568359 124.2554779052734 245.0212554931641 124.1815414428711 243.3526000976562 124.0294952392578 C 241.3802947998047 123.8722229003906 239.320556640625 123.5900268554688 236.6803588867188 123.1154556274414 L 236.6115875244141 123.1030731201172 L 236.5432281494141 123.0888137817383 C 234.6799011230469 122.6998596191406 232.2304534912109 122.1402435302734 229.8082733154297 121.2579345703125 L 229.6820220947266 121.2119293212891 L 229.5583953857422 121.1592178344727 L 229.5213012695312 121.1433334350586 L 226.4931335449219 119.8437881469727 L 226.4944000244141 116.5490951538086 L 226.4944000244141 31.67819404602051 L 226.4944000244141 23.70486068725586 L 226.4944000244141 -3.861901760101318 L 226.4944000244141 -8.86190128326416 L 231.4944000244141 -8.86190128326416 L 388.1754150390625 -8.86190128326416 L 393.3950805664062 -8.86190128326416 L 393.1708068847656 -3.64709210395813 C 393.0995788574219 -1.99043595790863 392.7854309082031 -0.3680183291435242 392.2427368164062 1.181193590164185 L 396.4053955078125 1.181193590164185 L 392.7480163574219 8.225032806396484 L 392.6998291015625 8.369622230529785 L 392.417236328125 8.840693473815918 L 392.2814636230469 8.766166687011719 L 392.40673828125 8.845026969909668 C 392.4013366699219 8.853592872619629 392.3959655761719 8.862135887145996 392.3905639648438 8.870700836181641 L 392.3909301757812 8.870931625366211 L 392.3905639648438 8.870700836181641 C 391.1112060546875 10.90089893341064 389.7019958496094 12.90573596954346 388.1844482421875 14.85569286346436 C 388.7181091308594 16.68285942077637 389.1308898925781 18.5267391204834 389.4124755859375 20.34233283996582 C 390.0415344238281 24.32305526733398 390.0792236328125 28.37008857727051 389.5244140625 32.37047958374023 L 389.5223083496094 32.38562393188477 L 389.5201110839844 32.40074157714844 C 388.9517211914062 36.32264709472656 387.7734985351562 40.18052673339844 386.0181274414062 43.86716842651367 L 386.0078735351562 43.88869476318359 L 385.9974365234375 43.91012191772461 C 384.3147888183594 47.35894012451172 382.0849914550781 50.67086791992188 379.369384765625 53.75458526611328 C 376.6494445800781 56.87307739257812 373.5568542480469 59.46720504760742 370.1773071289062 61.46500396728516 C 366.5862426757812 63.59152603149414 362.7182922363281 64.95133972167969 358.6842041015625 65.50471496582031 L 358.6809997558594 65.50514221191406 L 358.6777648925781 65.50559997558594 C 357.2623291015625 65.69788360595703 355.8060913085938 65.79538726806641 354.3494567871094 65.79541015625 C 351.7892456054688 65.79545593261719 349.1882019042969 65.49738311767578 346.6187133789062 64.90945434570312 C 344.7234497070312 64.47740936279297 342.8044738769531 63.88198089599609 340.9190368652344 63.14057540893555 C 340.2254028320312 62.86832427978516 339.5430603027344 62.57733154296875 338.8831787109375 62.27245330810547 C 338.6101379394531 63.05990219116211 338.3017883300781 63.83455657958984 337.9633178710938 64.58280944824219 L 337.9595031738281 64.59121704101562 L 337.9556579589844 64.59962463378906 C 337.0000610351562 66.69155120849609 335.8542785644531 68.53700256347656 334.5501708984375 70.08467102050781 C 333.1074523925781 71.79754638671875 331.5168151855469 73.23393249511719 329.8218994140625 74.35442352294922 C 329.38720703125 74.65810394287109 328.9949951171875 74.86992645263672 328.7023620605469 75.02797698974609 C 328.629150390625 75.06752777099609 328.5288391113281 75.12169647216797 328.4942626953125 75.14250183105469 L 328.4405822753906 75.17478942871094 L 328.3861389160156 75.20571899414062 L 328.2723083496094 75.27066802978516 C 327.8713073730469 75.49999237060547 327.3325805664062 75.80807495117188 326.6485290527344 76.06993865966797 L 325.5901489257812 76.51800537109375 L 325.5459899902344 76.53666687011719 L 325.5015258789062 76.55452728271484 C 324.9761047363281 76.76516723632812 324.50439453125 76.89176177978516 324.1600036621094 76.98421478271484 C 324.0572509765625 77.01178741455078 323.9510192871094 77.04031372070312 323.8944091796875 77.057861328125 L 323.8073425292969 77.08481597900391 L 323.7193908691406 77.10857391357422 C 323.6253662109375 77.13397979736328 323.5069580078125 77.16900634765625 323.3815612792969 77.20607757568359 C 323.0733337402344 77.2972412109375 322.6897277832031 77.41069030761719 322.2509765625 77.50712585449219 L 322.135498046875 77.53250122070312 L 322.0189208984375 77.55240631103516 L 320.7655029296875 77.766357421875 L 320.1482238769531 77.87526702880859 L 320.05126953125 77.89238739013672 L 319.9537353515625 77.90564727783203 C 319.6142578125 77.95183563232422 319.3272399902344 77.96685791015625 319.1372985839844 77.97679138183594 C 319.1044616699219 77.97850036621094 319.0716247558594 77.97990417480469 319.038818359375 77.98226165771484 L 319.0035095214844 77.98512268066406 L 318.9718933105469 77.98716735839844 L 317.6947937011719 78.07176208496094 L 317.495361328125 78.08497619628906 L 317.2955322265625 78.08221435546875 C 315.4505310058594 78.05683135986328 313.2611694335938 77.94569396972656 310.9933166503906 77.31656646728516 C 308.9243469238281 76.77590179443359 306.9692077636719 76.02163696289062 305.1803894042969 75.07403564453125 C 305.1728210449219 75.23598480224609 305.1642456054688 75.39614868164062 305.1546936035156 75.55511474609375 C 305.0393981933594 77.75827789306641 304.76611328125 80.00161743164062 304.3423156738281 82.22309875488281 C 303.5109252929688 86.60794830322266 302.085693359375 90.88914489746094 300.106201171875 94.94831085205078 L 300.106201171875 94.94831085205078 C 299.2137145996094 96.78595733642578 298.0967407226562 98.69654846191406 296.6914672851562 100.7892913818359 L 296.6805114746094 100.8055725097656 L 296.66943359375 100.8217926025391 C 295.4807434082031 102.5622863769531 294.1089782714844 104.2922439575195 292.4756469726562 106.1105041503906 L 292.4556579589844 106.1327667236328 L 292.4353942871094 106.1547622680664 C 289.5084838867188 109.3356704711914 286.0668640136719 112.2509536743164 282.2061767578125 114.8196258544922 C 282.1443176269531 114.8606948852539 282.0871887207031 114.9001235961914 282.0299377441406 114.9394302368164 C 281.8735961914062 115.0467376708984 281.6790466308594 115.1802673339844 281.4529113769531 115.3216018676758 L 281.294921875 115.4203338623047 L 281.1300048828125 115.5070495605469 L 280.4505310058594 115.8643569946289 L 279.0895080566406 116.5799560546875 L 279.0721740722656 116.5890960693359 L 279.0547180175781 116.5980758666992 C 278.7536926269531 116.7533569335938 278.4483947753906 116.9160995483398 278.1251831054688 117.0883865356445 C 277.5132141113281 117.4146194458008 276.88037109375 117.751953125 276.1977233886719 118.0803604125977 L 276.0937194824219 118.1303863525391 L 275.9875183105469 118.1755752563477 L 273.1462707519531 119.3842849731445 L 273.1462707519531 119.3842926025391 L 271.7215576171875 119.9926910400391 L 271.5375061035156 120.0712661743164 L 271.3478088378906 120.1348876953125 L 269.8896484375 120.6239395141602 L 266.9544372558594 121.6167144775391 L 266.7756042480469 121.6771926879883 L 266.5927429199219 121.7240295410156 L 263.587646484375 122.4935302734375 L 263.5553894042969 122.5017852783203 L 263.5230102539062 122.5096206665039 C 263.3918151855469 122.5413589477539 263.2421875 122.5805969238281 263.083740234375 122.6221466064453 C 262.7073974609375 122.7208099365234 262.2808837890625 122.8326721191406 261.7960510253906 122.9272155761719 L 261.7520446777344 122.9358139038086 L 261.7078857421875 122.9435958862305 L 260.1778869628906 123.213623046875 L 258.6780700683594 123.4781265258789 C 258.1456909179688 123.5790405273438 257.4504089355469 123.6992492675781 256.6973876953125 123.7612457275391 L 253.6618499755859 124.0796203613281 L 253.5110931396484 124.095458984375 L 253.3596343994141 124.1020965576172 L 250.2438507080078 124.2389068603516 L 250.1774444580078 124.241813659668 L 250.1109924316406 124.2429809570312 C 249.6311798095703 124.2512664794922 249.1573028564453 124.2554779052734 248.7025604248047 124.2554779052734 Z" stroke="none"/>
            <path d="M 248.7025299072266 119.2554702758789 C 249.1435852050781 119.2554702758789 249.5841064453125 119.2512588500977 250.0246429443359 119.2436294555664 L 253.1404266357422 119.1067886352539 L 256.2380676269531 118.7820510864258 C 256.7556762695312 118.742317199707 257.2677917480469 118.6567916870117 257.7780456542969 118.559684753418 L 260.8388366699219 118.0196838378906 C 261.3464660644531 117.9207382202148 261.8451538085938 117.7712631225586 262.3472595214844 117.6496810913086 L 265.3525390625 116.8802108764648 L 269.7577819824219 115.394416809082 L 274.0301513671875 113.5746841430664 C 274.9562072753906 113.1291580200195 275.8517456054688 112.6241607666016 276.7625427246094 112.1544189453125 L 278.8027954101562 111.0815277099609 C 279.0188598632812 110.9465255737305 279.2249145507812 110.7973175048828 279.4364929199219 110.6567916870117 C 282.8196411132812 108.4059982299805 286.0075378417969 105.7562637329102 288.7559509277344 102.769157409668 C 290.1148986816406 101.2562637329102 291.396484375 99.67678833007812 292.5404357910156 98.00178527832031 C 293.6698913574219 96.31968688964844 294.7238464355469 94.58547210693359 295.6085815429688 92.76389312744141 C 297.3825378417969 89.12783813476562 298.6775207519531 85.26152801513672 299.4309387207031 81.28626251220703 C 299.8099060058594 79.29994964599609 300.0583190917969 77.28757476806641 300.1625366210938 75.27336883544922 C 300.2238464355469 74.26626586914062 300.2327880859375 73.2591552734375 300.2183227539062 72.25731658935547 C 300.2104187011719 71.75704956054688 300.1904296875 71.25757598876953 300.1591186523438 70.76441955566406 C 300.1320190429688 70.28284454345703 300.08251953125 69.75099945068359 300.0304260253906 69.35310363769531 L 299.8240966796875 67.76100158691406 L 298.970947265625 68.19573974609375 C 298.5454406738281 68.41810607910156 298.0683288574219 68.53600311279297 297.6164855957031 68.70415496826172 C 296.7120056152344 69.05258178710938 295.7472534179688 69.17758178710938 294.8012084960938 69.34600067138672 C 292.88623046875 69.52153015136719 290.9727783203125 69.37548065185547 289.1754150390625 68.90047454833984 C 285.6114807128906 67.88257598876953 282.47412109375 65.89704895019531 280.1962280273438 63.2133674621582 C 283.342529296875 64.72521209716797 286.5438537597656 65.80520629882812 289.7027893066406 66.1915283203125 C 291.284912109375 66.34967041015625 292.8312072753906 66.29679107666016 294.3225402832031 66.05178833007812 C 295.0514831542969 65.8486328125 295.8012084960938 65.75125885009766 296.4869995117188 65.42810821533203 C 296.83251953125 65.28231811523438 297.2033081054688 65.20494842529297 297.5338439941406 65.01679229736328 L 298.5328063964844 64.48494720458984 C 298.8162231445312 64.36363220214844 299.0772705078125 64.18626403808594 299.3364868164062 64.00626373291016 L 299.3354187011719 63.997314453125 L 299.3409423828125 64.00257873535156 C 299.396728515625 63.96389389038086 299.4533081054688 63.92705154418945 299.5091247558594 63.88836669921875 L 300.4659423828125 63.23863220214844 L 301.3443603515625 62.49678802490234 C 301.4891052246094 62.37099838256836 301.6456909179688 62.2557373046875 301.7825317382812 62.12257766723633 L 302.180419921875 61.706787109375 C 303.2919921875 60.64099884033203 304.1820068359375 59.35415649414062 304.9570007324219 57.9752082824707 C 306.5056762695312 55.19968414306641 307.3922729492188 51.93994522094727 307.7864685058594 48.47494506835938 C 308.8412170410156 51.831787109375 308.7422790527344 55.61284255981445 307.4643859863281 59.10126113891602 C 306.8206787109375 60.83731460571289 305.8946228027344 62.52652740478516 304.6312255859375 63.94599914550781 L 304.1719970703125 64.49231719970703 C 304.0109558105469 64.66600036621094 303.8301696777344 64.81889343261719 303.6591186523438 64.98362731933594 L 302.6122741699219 65.95099639892578 C 302.3919982910156 66.12020874023438 302.1625366210938 66.27783966064453 301.9346313476562 66.43810272216797 L 303.3162231445312 67.73573303222656 C 303.5464782714844 67.95099639892578 303.9030456542969 68.26047515869141 304.2270202636719 68.51441955566406 C 304.5609436035156 68.78073883056641 304.9064636230469 69.03731536865234 305.2646484375 69.28099822998047 C 305.9720153808594 69.77783966064453 306.7199096679688 70.22152709960938 307.4814758300781 70.63468170166016 C 309.0122680664062 71.45021057128906 310.6377868652344 72.05863189697266 312.2946472167969 72.48863220214844 C 313.9496459960938 72.95310211181641 315.6651611328125 73.05941772460938 317.3643798828125 73.08258056640625 L 318.6414794921875 72.99810791015625 C 318.8538513183594 72.98100280761719 319.0680541992188 72.98020935058594 319.2796325683594 72.95126342773438 L 321.1775207519531 72.62363433837891 C 321.5951538085938 72.53179168701172 322.0020141601562 72.39336395263672 322.4151611328125 72.28179168701172 C 322.8219909667969 72.15573883056641 323.2504272460938 72.07021331787109 323.6409606933594 71.91362762451172 L 324.7972717285156 71.42389678955078 C 325.1925354003906 71.28179168701172 325.5525207519531 71.06494903564453 325.9169921875 70.85784149169922 C 326.2762145996094 70.64179229736328 326.6630554199219 70.46994781494141 327.0025329589844 70.22441864013672 C 328.4054260253906 69.30731201171875 329.6404113769531 68.15258026123047 330.7264709472656 66.86283874511719 C 331.8157043457031 65.57047271728516 332.6941223144531 64.08441925048828 333.4078063964844 62.52205276489258 C 333.7622680664062 61.73810577392578 334.0709533691406 60.93178939819336 334.3327941894531 60.11284255981445 C 334.4570007324219 59.70231628417969 334.5812072753906 59.29100036621094 334.6820068359375 58.87968444824219 C 334.788330078125 58.48389434814453 334.8809509277344 58.02389526367188 334.9341125488281 57.71889495849609 L 335.4830627441406 54.55257797241211 L 338.1551513671875 56.24100112915039 C 338.4351501464844 56.41836929321289 338.8428039550781 56.65310287475586 339.2083129882812 56.84862899780273 C 339.5835876464844 57.05284118652344 339.9688415527344 57.25073623657227 340.359375 57.43810272216797 C 341.1377868652344 57.81968307495117 341.93701171875 58.16889572143555 342.7488403320312 58.4873161315918 C 344.3714904785156 59.12547302246094 346.0401611328125 59.64942169189453 347.7338562011719 60.03547286987305 C 351.1206970214844 60.81022262573242 354.6126098632812 61.01179122924805 358.004638671875 60.55099868774414 C 361.396728515625 60.08573532104492 364.6690979003906 58.91573715209961 367.6327819824219 57.16073608398438 C 370.6001586914062 55.40678787231445 373.28857421875 53.12152481079102 375.6096496582031 50.4586296081543 C 377.9496459960938 47.80257797241211 379.9627990722656 44.87573623657227 381.5038452148438 41.71757888793945 C 383.0130615234375 38.5478401184082 384.0670166015625 35.16757965087891 384.5717468261719 31.68362998962402 C 385.05517578125 28.19889450073242 385.0280456542969 24.62678909301758 384.4728088378906 21.11678886413574 C 384.2009582519531 19.36178970336914 383.798583984375 17.62389373779297 383.284912109375 15.92020988464355 C 383.07568359375 15.21547317504883 382.8396301269531 14.51863098144531 382.5859375 13.83047294616699 C 384.6119995117188 11.41336727142334 386.4872741699219 8.862841606140137 388.1754150390625 6.181262493133545 L 382.1251525878906 6.181262493133545 C 382.4622802734375 5.977578163146973 382.8072814941406 5.768367767333984 383.1454162597656 5.473894119262695 C 383.629638671875 5.125473022460938 384.0346374511719 4.704420566558838 384.48095703125 4.309157371520996 C 384.8804321289062 3.878894090652466 385.2927856445312 3.44784140586853 385.6454162597656 2.970999240875244 C 387.0928039550781 1.095209836959839 388.0638427734375 -1.266369104385376 388.1754150390625 -3.861895322799683 L 231.4943695068359 -3.861895322799683 L 231.4943695068359 28.93415641784668 C 231.8446350097656 29.08178901672363 232.1954193115234 29.2220516204834 232.5672607421875 29.33468437194824 C 233.3106842041016 29.60099983215332 233.9909515380859 29.81889343261719 234.6993713378906 29.91678810119629 C 235.4075164794922 30.02231407165527 236.1240997314453 30.07073402404785 236.8396301269531 30.01494598388672 C 239.7014770507812 29.83231544494629 242.4862213134766 28.47047233581543 244.8567352294922 26.6038932800293 C 246.0564727783203 25.67073631286621 247.1435852050781 24.58968353271484 248.1049041748047 23.43863105773926 C 248.5817413330078 22.8636302947998 249.0164794921875 22.25336837768555 249.3738403320312 21.6494197845459 C 249.7391052246094 21.07363128662109 250.0191040039062 20.37863159179688 250.0541076660156 20.08442115783691 L 250.4683227539062 16.70863151550293 L 252.8883209228516 18.96836853027344 C 253.1835784912109 19.24205207824707 253.6183166503906 19.58573532104492 254.0033264160156 19.88020896911621 C 254.4038543701172 20.18257904052734 254.8177947998047 20.45599937438965 255.2454223632812 20.72968292236328 C 256.1012268066406 21.24889373779297 256.9851684570312 21.70520973205566 257.9041137695312 22.0562629699707 C 259.734619140625 22.7509937286377 261.6848449707031 23.00390243530273 263.5506896972656 22.53336715698242 C 264.4830627441406 22.30915641784668 265.4028015136719 21.92942047119141 266.264892578125 21.40389442443848 C 266.6717529296875 21.1086311340332 267.1135864257812 20.84231567382812 267.4999084472656 20.49836730957031 C 267.9138488769531 20.18257904052734 268.2927856445312 19.82442092895508 268.6714782714844 19.45257759094238 C 270.1727905273438 17.95757865905762 271.4346313476562 16.1541576385498 272.6064758300781 14.26599884033203 C 272.4454345703125 14.79968357086182 272.2625427246094 15.32599925994873 272.0870056152344 15.85889434814453 C 271.8980712890625 16.38547325134277 271.666748046875 16.89126205444336 271.4562072753906 17.41047286987305 C 271.2104187011719 17.91547393798828 270.95751953125 18.42836761474609 270.6912231445312 18.92599868774414 C 270.3825378417969 19.40389442443848 270.1162109375 19.9159984588623 269.7722778320312 20.372314453125 C 269.1199035644531 21.32652473449707 268.3277893066406 22.20389366149902 267.4222717285156 22.98231506347656 C 266.4972534179688 23.74020957946777 265.43701171875 24.38652610778809 264.2733154296875 24.83547210693359 C 261.9296264648438 25.72652816772461 259.2720031738281 25.6428394317627 256.9498901367188 24.93362998962402 C 255.7783203125 24.58968353271484 254.6630554199219 24.11284065246582 253.6109466552734 23.53047370910645 C 253.2743682861328 23.34047317504883 252.9377899169922 23.15152549743652 252.6075286865234 22.93389320373535 C 252.5309600830078 23.0815258026123 252.4535827636719 23.22810363769531 252.376220703125 23.37573623657227 C 251.9064788818359 24.2036304473877 251.3798980712891 24.94073677062988 250.81201171875 25.64284133911133 C 249.6896362304688 27.04599952697754 248.3919982910156 28.26731491088867 246.9754333496094 29.35520935058594 C 245.5585784912109 30.42178916931152 244.0006866455078 31.3488941192627 242.3033142089844 32.00863265991211 C 240.6133117675781 32.67441940307617 238.7683410644531 33.07492446899414 236.8954315185547 33.03994750976562 C 235.0430603027344 33.03994750976562 233.1143798828125 32.52047348022461 231.5709533691406 31.7133674621582 C 231.5430603027344 31.69968414306641 231.5222625732422 31.6917896270752 231.4943695068359 31.67810440063477 L 231.4943695068359 116.5491561889648 C 231.4943695068359 116.5491561889648 231.5133209228516 116.5573120117188 231.5196380615234 116.559944152832 C 233.4888458251953 117.2773132324219 235.5254211425781 117.7686309814453 237.5648956298828 118.1944198608398 C 239.6277923583984 118.5652084350586 241.6959533691406 118.8828430175781 243.7775268554688 119.0475769042969 C 245.4164733886719 119.1978378295898 247.0609588623047 119.2554702758789 248.7025299072266 119.2554702758789 M 366.3404235839844 1.412051916122437 L 368.4412231445312 3.390209913253784 C 368.4862060546875 3.43363094329834 368.5220031738281 3.476788759231567 368.5498962402344 3.52705192565918 C 368.5517272949219 3.566788673400879 368.6833190917969 3.668367624282837 368.7398986816406 3.737578153610229 C 368.865966796875 3.891525745391846 369.0712280273438 4.054420471191406 369.2691040039062 4.218367576599121 C 369.6651611328125 4.544946670532227 370.1267395019531 4.867315292358398 370.6164855957031 5.148104667663574 C 371.2780456542969 5.524420261383057 371.9699096679688 5.882578372955322 372.6864929199219 6.181262493133545 L 363.3114929199219 6.181262493133545 C 363.6204223632812 5.858104705810547 363.9138488769531 5.513894081115723 364.1956787109375 5.158894062042236 C 364.4254150390625 4.857315063476562 364.6493835449219 4.549420356750488 364.852783203125 4.229946613311768 C 365.0462036132812 3.923894166946411 365.2712097167969 3.557578325271606 365.3946228027344 3.310999393463135 L 366.3404235839844 1.412051916122437 M 350.0630493164062 5.261525630950928 C 350.4972534179688 5.577841281890869 350.9341125488281 5.886525630950928 351.3746337890625 6.181262493133545 L 350.7246398925781 6.181262493133545 C 350.49462890625 5.879683494567871 350.2743835449219 5.572578430175781 350.0630493164062 5.261525630950928 M 388.1285705566406 6.270473003387451 C 388.1285705566406 6.270473003387451 388.1291198730469 6.269683361053467 388.129638671875 6.268104553222656 C 388.1288452148438 6.269683361053467 388.1285705566406 6.270473003387451 388.1285705566406 6.270473003387451 M 388.129638671875 6.268104553222656 C 388.1299133300781 6.268104553222656 388.1299133300781 6.267841339111328 388.1299133300781 6.267841339111328 C 388.1299133300781 6.267841339111328 388.1299133300781 6.268104553222656 388.129638671875 6.268104553222656 M 388.1299133300781 6.267841339111328 C 388.1301574707031 6.267314910888672 388.1304321289062 6.266788959503174 388.1309509277344 6.266262531280518 C 388.1304321289062 6.266788959503174 388.1301574707031 6.267314910888672 388.1299133300781 6.267841339111328 M 388.1309509277344 6.266262531280518 C 388.1314697265625 6.265209674835205 388.1320190429688 6.263894081115723 388.1327819824219 6.26257848739624 C 388.1320190429688 6.263894081115723 388.1314697265625 6.265209674835205 388.1309509277344 6.266262531280518 M 388.1327819824219 6.26257848739624 C 388.1341247558594 6.259946823120117 388.1359558105469 6.25652551651001 388.1380615234375 6.252315044403076 C 388.1359558105469 6.256262302398682 388.1341247558594 6.259683609008789 388.1327819824219 6.26257848739624 M 388.1380615234375 6.252315044403076 C 388.1388549804688 6.250999450683594 388.1393737792969 6.249683380126953 388.1401672363281 6.248367786407471 C 388.1393737792969 6.249683380126953 388.1388549804688 6.250999450683594 388.1380615234375 6.252315044403076 M 388.1401672363281 6.248367786407471 C 388.1401672363281 6.248104572296143 388.1404113769531 6.248104572296143 388.1404113769531 6.247841358184814 C 388.1404113769531 6.248104572296143 388.1401672363281 6.248104572296143 388.1401672363281 6.248367786407471 M 388.1404113769531 6.247841358184814 C 388.1412048339844 6.246262550354004 388.1419982910156 6.244683742523193 388.14306640625 6.243104457855225 C 388.1419982910156 6.244683742523193 388.1412048339844 6.246262550354004 388.1404113769531 6.247841358184814 M 388.14306640625 6.243104457855225 C 388.143310546875 6.242578029632568 388.143310546875 6.24205207824707 388.1435852050781 6.241788864135742 C 388.143310546875 6.24205207824707 388.143310546875 6.242578029632568 388.14306640625 6.243104457855225 M 388.1435852050781 6.241788864135742 C 388.1446228027344 6.239946842193604 388.1454162597656 6.238367557525635 388.1462097167969 6.236788749694824 C 388.1454162597656 6.238367557525635 388.1443786621094 6.240210056304932 388.1435852050781 6.241788864135742 M 388.1462097167969 6.236788749694824 C 388.1506958007812 6.228367805480957 388.1559448242188 6.218367576599121 388.1622619628906 6.206262588500977 C 388.1572570800781 6.215736389160156 388.1514892578125 6.226525783538818 388.1462097167969 6.236788749694824 M 388.1622619628906 6.206262588500977 C 388.1638488769531 6.203367710113525 388.1654357910156 6.200472831726074 388.1669921875 6.197315216064453 C 388.1654357910156 6.199946880340576 388.1638488769531 6.203104496002197 388.1622619628906 6.206262588500977 M 388.1669921875 6.197315216064453 C 388.1671752929688 6.196955680847168 388.1673583984375 6.19656229019165 388.1675720214844 6.196162700653076 C 388.1673583984375 6.196528434753418 388.1671752929688 6.196906089782715 388.1669921875 6.197315216064453 M 388.1675720214844 6.196162700653076 C 388.1679992675781 6.195351123809814 388.1684875488281 6.194619655609131 388.1688537597656 6.193893909454346 C 388.1683349609375 6.194587230682373 388.1679382324219 6.195391654968262 388.1675720214844 6.196162700653076 M 388.1688537597656 6.193893909454346 C 388.1696472167969 6.192315101623535 388.170166015625 6.190999507904053 388.1709594726562 6.189683437347412 C 388.170166015625 6.190999507904053 388.1693725585938 6.192578315734863 388.1688537597656 6.193893909454346 M 388.1709594726562 6.189683437347412 C 388.1714782714844 6.188894271850586 388.1717529296875 6.188104629516602 388.1722717285156 6.187314987182617 C 388.1717529296875 6.188104629516602 388.1714782714844 6.188894271850586 388.1709594726562 6.189683437347412 M 388.1722717285156 6.187314987182617 C 388.1722717285156 6.187051773071289 388.1725463867188 6.186788558959961 388.1725463867188 6.186525821685791 C 388.1725463867188 6.186788558959961 388.1722717285156 6.187051773071289 388.1722717285156 6.187314987182617 M 388.1725463867188 6.186525821685791 C 388.1728820800781 6.1861891746521 388.173095703125 6.185748100280762 388.1732788085938 6.185333728790283 C 388.1730346679688 6.185788154602051 388.1727294921875 6.186159610748291 388.1725463867188 6.186525821685791 M 388.1732788085938 6.185333728790283 C 388.1734008789062 6.185134887695312 388.1734924316406 6.184924125671387 388.173583984375 6.184683322906494 C 388.1734924316406 6.184873104095459 388.1734008789062 6.185100078582764 388.1732788085938 6.185333728790283 M 388.173583984375 6.184683322906494 C 388.1741027832031 6.18363094329834 388.1748962402344 6.182314872741699 388.1754150390625 6.181262493133545 C 388.1754150390625 6.181262493133545 388.1746215820312 6.182578086853027 388.173583984375 6.184683322906494 M 248.7025299072266 129.2554779052734 C 246.7564849853516 129.2554779052734 244.8072662353516 129.1838989257812 242.8646392822266 129.0057373046875 C 240.5788421630859 128.8257293701172 238.1838531494141 128.4660034179688 235.7959594726562 128.0367889404297 C 233.0146331787109 127.4599456787109 230.5169982910156 126.8375778198242 228.0967407226562 125.9560012817383 L 221.5196380615234 123.559944152832 L 221.4943695068359 116.5491561889648 L 221.4943695068359 -13.86189556121826 L 398.6146240234375 -13.86189556121826 L 398.1828308105469 -3.818737506866455 L 406.2875366210938 -3.818737506866455 L 396.6380615234375 11.5088939666748 C 395.7005310058594 12.99796009063721 394.6982421875 14.47358989715576 393.6381225585938 15.92615222930908 C 393.923583984375 17.13233757019043 394.1644287109375 18.35597991943359 394.3548889160156 19.58599853515625 C 395.0570068359375 24.02415657043457 395.0999145507812 28.56757736206055 394.4770202636719 33.05784225463867 C 393.8283081054688 37.5359992980957 392.5041198730469 41.87599945068359 390.5325317382812 46.01652526855469 C 388.6098937988281 49.95783996582031 386.1278076171875 53.64731597900391 383.1130676269531 57.06915664672852 C 380.0735778808594 60.55652618408203 376.5654296875 63.49705123901367 372.7212219238281 65.76941680908203 C 368.5575256347656 68.23494720458984 364.0609436035156 69.81389617919922 359.3635864257812 70.45836639404297 C 354.776611328125 71.08106994628906 350.1126708984375 70.83824157714844 345.5035705566406 69.78363037109375 C 344.160400390625 69.47746276855469 342.8263244628906 69.10372161865234 341.5097045898438 68.66885375976562 C 340.5785217285156 70.38481140136719 339.5301513671875 71.93433380126953 338.373046875 73.30731201171875 C 336.5949096679688 75.41889190673828 334.609375 77.19889068603516 332.474365234375 78.59468078613281 L 332.1233215332031 78.82415771484375 L 331.0785827636719 79.42731475830078 C 329.9296264648438 80.08283996582031 329.0793762207031 80.51100158691406 328.180419921875 80.83415985107422 L 326.9030456542969 81.39205169677734 L 325.4570007324219 81.81310272216797 C 324.3099060058594 82.14546966552734 323.8206787109375 82.28126525878906 323.325439453125 82.39021301269531 L 321.5954284667969 82.69705200195312 C 320.22412109375 82.91520690917969 319.8109436035156 82.9483642578125 319.3970031738281 82.97020721435547 L 318.0243835449219 83.06073760986328 C 315.1743774414062 83.05363464355469 312.450439453125 82.91863250732422 309.592529296875 82.11652374267578 C 309.5447692871094 82.10417175292969 309.4969787597656 82.0916748046875 309.4491577148438 82.07904815673828 C 309.3876037597656 82.43994903564453 309.322509765625 82.80033111572266 309.2538452148438 83.16020965576172 C 308.3412170410156 87.97547149658203 306.7733154296875 92.68573760986328 304.595947265625 97.14862823486328 C 303.5162048339844 99.37178802490234 302.2306823730469 101.5088958740234 300.842529296875 103.5762634277344 C 299.4051513671875 105.6812591552734 297.8501586914062 107.6091537475586 296.1954345703125 109.4515228271484 C 292.9169921875 113.0154724121094 289.1693725585938 116.1925811767578 284.9754333496094 118.9825744628906 L 284.1017456054688 119.5620498657227 L 280.4754333496094 121.5015258789062 L 278.3654174804688 122.5859985351562 L 273.6851501464844 124.5909957885742 L 268.5562133789062 126.3531036376953 L 264.8277893066406 127.3370513916016 C 263.8233337402344 127.5973129272461 263.2898864746094 127.7302093505859 262.7520141601562 127.8349456787109 L 259.5151672363281 128.4075775146484 C 258.7720031738281 128.5499420166016 257.8917541503906 128.6844177246094 257.0035705566406 128.7528381347656 L 254.1830596923828 129.0523223876953 L 250.4633178710938 129.23388671875 L 248.7025299072266 129.2554779052734 Z" stroke="none" fill="#262262"/>
          </g>
        </g>
      </g>
    </g>
  </g>
</svg>
