<svg xmlns="http://www.w3.org/2000/svg" width="284.09" height="251.287" viewBox="0 0 284.09 251.287">
  <g id="Group_11334" data-name="Group 11334" transform="translate(-15.592 37.741) rotate(-8)">
    <g id="Group_8022" data-name="Group 8022" transform="translate(0 0)">
      <g id="Group_7676" data-name="Group 7676" transform="translate(0 0.893)">
        <path id="Path_25688" data-name="Path 25688" d="M18.053,80.368a4.611,4.611,0,0,1-.535-2.834A5,5,0,0,1,20,73.956a5.009,5.009,0,0,1-5.168-2.786c-.187,3.33-1.453,5.019-4,5.385a4.519,4.519,0,0,1-2.792-8.413c2.229-1.248,4.319-.608,6.478,2.025A5.128,5.128,0,0,1,16.5,65.207a5.317,5.317,0,0,1-4.4-2.387c-.543,3.09-1.919,4.649-4.209,4.883a4.576,4.576,0,0,1-3.36-8.11,4.486,4.486,0,0,1,2.7-1.016,5,5,0,0,1,4.21,2.187,5.3,5.3,0,0,1,2.069-4.514A5.242,5.242,0,0,1,9.188,53.7c-.046.467-.069.776-.108,1.081a4.558,4.558,0,0,1-9.068-.234,4.517,4.517,0,0,1,2.773-4.53,4.528,4.528,0,0,1,5.12,1.1c.215.231.428.464.732.8a5.157,5.157,0,0,1,2.218-4.7C7.961,46.76,6.452,45.531,6,43.329a4.521,4.521,0,0,1,2.553-5.106c2.214-1.146,4.235-.448,6,1.47A5.327,5.327,0,0,1,16.768,35.4c-3-.595-4.474-1.962-4.74-4.329a4.713,4.713,0,0,1,2.7-4.7c2.178-.954,4.116-.39,6.11,1.866a5.233,5.233,0,0,1,2.682-4.883,4.99,4.99,0,0,1-3.418-.913,4.307,4.307,0,0,1-1.8-3.1,4.489,4.489,0,1,1,8.917.01,4.958,4.958,0,0,1-2.467,3.63,5.215,5.215,0,0,1,5.018,2.326,5.222,5.222,0,0,1,2.854-4.873,4.668,4.668,0,0,0-.8,0,4.479,4.479,0,1,1,2.357-.755c-.2.138-.406.272-.61.407a5.317,5.317,0,0,1,5.224,2.536c.215-2.929,1.451-4.622,3.653-5.122a4.643,4.643,0,0,1,2.264.061A4.267,4.267,0,0,1,47.772,20.3l.044.1c.028.079.069.145.094.227a4.339,4.339,0,0,1-.629,4.037,6.584,6.584,0,0,1-1.365,1.393,5.22,5.22,0,0,1,4.442,2.094A5.317,5.317,0,0,1,52.57,23.9c-3-.595-4.474-1.962-4.74-4.329a4.709,4.709,0,0,1,2.7-4.7c2.178-.955,4.116-.391,6.11,1.865a5.237,5.237,0,0,1,2.683-4.883,4.989,4.989,0,0,1-3.418-.912,4.311,4.311,0,0,1-1.8-3.1,4.489,4.489,0,1,1,8.917.009,4.96,4.96,0,0,1-2.468,3.63,5.218,5.218,0,0,1,5.019,2.327A5.222,5.222,0,0,1,68.425,8.94a4.669,4.669,0,0,0-.8,0A4.472,4.472,0,1,1,67.816.012,4.513,4.513,0,0,1,71.807,3.28,4.515,4.515,0,0,1,69.98,8.189c-.2.138-.407.271-.611.406a5.318,5.318,0,0,1,5.225,2.537c.215-2.928,1.451-4.622,3.652-5.121A4.653,4.653,0,0,1,83.284,8.2a4.566,4.566,0,0,1,.609,2.822,5.035,5.035,0,0,1-2.177,3.536A5.253,5.253,0,0,1,86.363,16.9c.379-2.975,1.788-4.581,4.185-4.9a4.683,4.683,0,0,1,4.811,2.8c.916,2.02.2,4.12-2.071,5.977,2.343-.076,4.139.774,5.023,2.973.953,2.374.123,4.3-1.879,5.922a5.05,5.05,0,0,1,4.808,2.947c.058-3.256,1.363-5.086,3.77-5.441a4.487,4.487,0,0,1,2.7,8.454c-2.13,1.109-4.3.357-6.258-2.292a5.078,5.078,0,0,1-2.228,5.306c2.671.145,4.422,1.3,5.023,3.814a4.514,4.514,0,0,1-2.186,4.944c-2.366,1.3-4.457.722-6.341-1.328a5.369,5.369,0,0,1-2.2,4.346,5.124,5.124,0,0,1,4.4,2.775c.291-3.278,1.631-5.1,3.829-5.35a4.54,4.54,0,0,1,5.028,2.97,4.493,4.493,0,0,1-2.05,5.458,4.34,4.34,0,0,1-2.923.515,5,5,0,0,1-3.453-2.426c.116,2.425-.766,4.289-3.015,5.195a4.664,4.664,0,0,1-5.637-1.606,13.787,13.787,0,0,1-.853,2.487,12.38,12.38,0,0,1-1.622,1.917c2.95.366,4.581,1.753,4.845,4.174a4.625,4.625,0,0,1-3.1,4.791,4.575,4.575,0,0,1-5.342-1.983c-1.288-2.117-.809-4.089,1.594-6.444a5.158,5.158,0,0,1-4.562-2.006,5.247,5.247,0,0,1-2.436,4.283c3.084.48,4.676,1.836,4.911,4.11a4.564,4.564,0,0,1-8.209,3.28,4.488,4.488,0,0,1-.822-3.584,5.011,5.011,0,0,1,2.235-3.187,5.35,5.35,0,0,1-4.74-2.131,5.1,5.1,0,0,1-3.008,4.59c2.961-.24,5.007,1.132,5.511,3.6a4.513,4.513,0,0,1-8.518,2.763c-1.075-2.221-.24-4.517,2.219-6.092-2.659.038-3.2-.192-5.249-2.337a4.724,4.724,0,0,1-3.013,4.876,4.664,4.664,0,0,1-5.637-1.606,13.74,13.74,0,0,1-.854,2.487,12.378,12.378,0,0,1-1.622,1.917c2.95.366,4.581,1.753,4.845,4.173a4.625,4.625,0,0,1-3.1,4.792,4.575,4.575,0,0,1-5.343-1.984c-1.287-2.117-.809-4.088,1.594-6.443a5.155,5.155,0,0,1-4.561-2.006,5.249,5.249,0,0,1-2.436,4.282c3.083.48,4.675,1.837,4.91,4.11a4.565,4.565,0,0,1-8.209,3.281,4.491,4.491,0,0,1-.822-3.584A5.012,5.012,0,0,1,40.54,77.3a5.351,5.351,0,0,1-4.74-2.131,5.1,5.1,0,0,1-3.008,4.59c2.961-.24,5.008,1.132,5.512,3.6a4.514,4.514,0,0,1-8.518,2.763c-1.076-2.221-.241-4.517,2.219-6.093-2.682.039-3.2-.19-5.3-2.385a5.2,5.2,0,0,1-1,3.32,4.6,4.6,0,0,1-7.656-.592ZM60.117,62.616c.084.048.17.091.251.143a5.728,5.728,0,0,1,1.593,1.516,5.3,5.3,0,0,1,1.814-4.2,14.8,14.8,0,0,1-2.144-.736,13.166,13.166,0,0,1-1.747-1.251,5.355,5.355,0,0,1-2.162,3.842,5.851,5.851,0,0,1,2.147.554C59.954,62.521,60.034,62.571,60.117,62.616ZM94.449,30.3a5.246,5.246,0,0,1-4.283-1.829,5.615,5.615,0,0,1-1.65,3.665A5.974,5.974,0,0,1,92,34.2,5.214,5.214,0,0,1,94.449,30.3ZM16.48,55.29a5.619,5.619,0,0,1,3.325,1.5q.744-1.606,1.4-3.014l-2.881-1.685A5.544,5.544,0,0,1,16.48,55.29ZM84.161,33.572,81.6,32.4l-1.04,2.279,2.216,1.247ZM72.567,35.843c-.217.45-.483,1.007-.754,1.569l1.785.8.819-1.462Zm-33.951,12.4-1.85-.9-.753,1.569,1.784.8Zm20.209,6.433A5.631,5.631,0,0,1,60.4,51.223a5.884,5.884,0,0,1-3.227-1.7,5.5,5.5,0,0,1-1.752,3.273A5.317,5.317,0,0,1,58.825,54.681Zm6.454-15.16-1.89-1.073-1.216,2.171,2.13.954Zm.875,8.206-1.224,2,2.611,1.337.916-2.172Zm-11.9-7.061a5.445,5.445,0,0,1-1.537,2.977,6.183,6.183,0,0,1,2.956,1.5c.47-1.017.916-1.978,1.331-2.873ZM48.2,54.168c-.211.421-.483.811-.744,1.245l2.4,1.481,1.512-2.828L48.7,52.948C48.557,53.311,48.411,53.755,48.2,54.168Zm-3.447-7.991,2.216,1.248,1.387-2.35L45.8,43.9C45.469,44.616,45.121,45.381,44.757,46.176Zm-3.315-8.951L44.1,38.585l1.675-2.721a5.158,5.158,0,0,1-3.075-1.6Zm11.535-.783a5.709,5.709,0,0,1,1.752-3.417,5.531,5.531,0,0,1-3.474-2.141,5.241,5.241,0,0,1-1.787,3.873A5.585,5.585,0,0,1,52.977,36.442ZM41.813,57.256l-1.976-.89L38.73,58.339l2.018,1.184ZM27.588,49.95c-.4.719-.805,1.436-1.217,2.171l2.13.954c.34-.712.66-1.386.977-2.052Zm-4.4-6.739c.356.12.826.262,1.284.437.44.168.866.37,1.3.559L27.055,41.8l-2.419-1.483C24.159,41.267,23.686,42.214,23.189,43.212ZM32.6,40.026l2.29,1.076,1.267-2.17-2.455-1.4Zm4.883-11.344a5.632,5.632,0,0,1,3.949,1.936,5.347,5.347,0,0,1,2.425-3.9A5.157,5.157,0,0,1,39.38,24.38,5.348,5.348,0,0,1,37.481,28.682Zm21.508,3.028c.357.12.827.263,1.285.437.44.168.866.371,1.3.559l1.282-2.411-2.42-1.483ZM68.4,28.525l2.29,1.076,1.268-2.171-2.456-1.4Zm8.845-2.8,2.662,1.359,1.674-2.721a5.158,5.158,0,0,1-3.074-1.6Zm9.935,16.84L84.5,41.446c-.146.363-.291.806-.5,1.219s-.482.812-.743,1.245l2.4,1.481C86.151,44.483,86.676,43.5,87.178,42.563Zm-9.565,3.19-1.975-.89c-.361.641-.736,1.309-1.109,1.973l2.019,1.184ZM72.393,57.311a5.917,5.917,0,0,1-3.412-1.678,5.557,5.557,0,0,1-2.051,3.339A5.287,5.287,0,0,1,70.8,61.118,5.459,5.459,0,0,1,72.393,57.311Zm-17.27,5.462a5.545,5.545,0,0,1-3.859-1.629A5.911,5.911,0,0,1,49.387,64.7a5.32,5.32,0,0,1,3.647,2.275A5.155,5.155,0,0,1,55.123,62.774Zm-9.645,3.282-3.065-1.372-1.649,2.888a5.3,5.3,0,0,1,3.2,2.018A5.246,5.246,0,0,1,45.478,66.055ZM30.352,59.229l-1.224,2,2.611,1.337.916-2.172Zm-5.753,3.5A5.88,5.88,0,0,1,21.237,60.9a5.463,5.463,0,0,1-2.171,3.5,5.269,5.269,0,0,1,3.939,1.9A5.709,5.709,0,0,1,24.6,62.725ZM13.112,46.459a5.32,5.32,0,0,1,4.026,1.668,5.742,5.742,0,0,1,1.789-3.6,5.539,5.539,0,0,1-3.551-2.237A5.187,5.187,0,0,1,13.112,46.459Zm6.181-11.9a5.445,5.445,0,0,1,4.015,1.711,5.551,5.551,0,0,1,1.916-3.594,13.62,13.62,0,0,1-2.082-.872A14.109,14.109,0,0,1,21.4,30.3,5.05,5.05,0,0,1,19.293,34.558Zm9.428-3.142a15.152,15.152,0,0,1,1.881.59,15.023,15.023,0,0,1,1.655,1.016,15.119,15.119,0,0,1,.772-1.785,15.18,15.18,0,0,1,1.217-1.573,5.167,5.167,0,0,1-3.84-2.348A5.209,5.209,0,0,1,28.722,31.416Zm26.373-8.36a5.442,5.442,0,0,1,4.015,1.71,5.546,5.546,0,0,1,1.915-3.594,13.524,13.524,0,0,1-2.082-.872A14.242,14.242,0,0,1,57.2,18.8,5.054,5.054,0,0,1,55.095,23.057Zm9.428-3.142A14.993,14.993,0,0,1,66.4,20.5a15.029,15.029,0,0,1,1.655,1.016,15.186,15.186,0,0,1,.772-1.785,14.919,14.919,0,0,1,1.217-1.573,5.166,5.166,0,0,1-3.84-2.347A5.211,5.211,0,0,1,64.523,19.915Zm8.759-2.735a5.631,5.631,0,0,1,3.949,1.937,5.348,5.348,0,0,1,2.424-3.9,5.157,5.157,0,0,1-4.475-2.337A5.346,5.346,0,0,1,73.282,17.179Zm11.987,6.076a5.613,5.613,0,0,1,3.889,2.109A5.193,5.193,0,0,1,91.8,21.242a5.055,5.055,0,0,1-4.726-2.229A5.331,5.331,0,0,1,85.269,23.255ZM97.183,39.386a13.989,13.989,0,0,1-2.2-.543,14.577,14.577,0,0,1-1.946-1.2,5.468,5.468,0,0,1-1.815,3.643,5.387,5.387,0,0,1,3.727,2.293A5.087,5.087,0,0,1,97.183,39.386ZM88.834,55.475a5.156,5.156,0,0,1,2.09-4.2,5.543,5.543,0,0,1-3.859-1.629A5.906,5.906,0,0,1,85.187,53.2,5.321,5.321,0,0,1,88.834,55.475Zm-7.556-.922-3.064-1.372c-.522.913-1.076,1.885-1.65,2.888a5.3,5.3,0,0,1,3.2,2.018A5.252,5.252,0,0,1,81.278,54.553ZM36.593,68.814a5.912,5.912,0,0,1-3.413-1.679,5.556,5.556,0,0,1-2.051,3.34,5.287,5.287,0,0,1,3.866,2.146A5.456,5.456,0,0,1,36.593,68.814Zm-8.618,2.76a14.844,14.844,0,0,1-2.144-.736,14.858,14.858,0,0,1-1.835-1.319,5.133,5.133,0,0,1-2.538,3.966,5.244,5.244,0,0,1,4.7,2.292A5.3,5.3,0,0,1,27.974,71.574Z" transform="translate(66.695 63.987)" fill="#9b790d"/>
        <path id="Path_25689" data-name="Path 25689" d="M3.113.248A4.4,4.4,0,0,1,8.869,3.17,4.391,4.391,0,0,1,5.9,8.832a4.478,4.478,0,0,1-5.677-2.9A4.481,4.481,0,0,1,3.113.248Z" transform="translate(69.934 92.943)" fill="#9b790d"/>
        <path id="Path_25690" data-name="Path 25690" d="M.212,5.843A4.488,4.488,0,0,1,3.073.23a4.442,4.442,0,0,1,4.82,1.361,4.3,4.3,0,0,1,.85,1.53,4.25,4.25,0,0,1,.107.525A4.407,4.407,0,0,1,5.887,8.717,4.463,4.463,0,0,1,.212,5.843Z" transform="translate(122.868 135.131)" fill="#9b790d"/>
        <path id="Path_25691" data-name="Path 25691" d="M5.826,8.732a4.459,4.459,0,0,1-5.6-2.881A4.423,4.423,0,0,1,3.051.233a4.457,4.457,0,0,1,5.684,2.89A4.507,4.507,0,0,1,5.826,8.732Z" transform="translate(63.933 104.801)" fill="#9b790d"/>
        <path id="Path_25692" data-name="Path 25692" d="M8.621,3.037A4.419,4.419,0,0,1,.246,5.859,4.383,4.383,0,0,1,3.007.234,4.4,4.4,0,0,1,8.621,3.037Z" transform="translate(76.111 81.28)" fill="#9b790d"/>
        <path id="Path_25693" data-name="Path 25693" d="M8.538,3.008A4.373,4.373,0,0,1,5.794,8.5,4.33,4.33,0,0,1,.234,5.773a4.376,4.376,0,1,1,8.3-2.765Z" transform="translate(102.947 72.727)" fill="#9b790d"/>
        <path id="Path_25694" data-name="Path 25694" d="M.2,5.692A4.388,4.388,0,0,1,3.008.222,4.338,4.338,0,0,1,8.521,3.05,4.323,4.323,0,0,1,5.738,8.508,4.371,4.371,0,0,1,.2,5.692Z" transform="translate(75.463 140.623)" fill="#9b790d"/>
        <path id="Path_25695" data-name="Path 25695" d="M.206,5.664A4.332,4.332,0,0,1,3.012.213,4.389,4.389,0,0,1,8.536,3.061,4.411,4.411,0,0,1,5.709,8.529,4.354,4.354,0,0,1,.206,5.664Z" transform="translate(87.273 146.693)" fill="#9b790d"/>
        <path id="Path_25696" data-name="Path 25696" d="M.222,5.641A4.264,4.264,0,0,1,3,.206,4.289,4.289,0,1,1,5.6,8.38,4.256,4.256,0,0,1,.222,5.641Z" transform="translate(61.225 96.045)" fill="#9b790d"/>
        <path id="Path_25697" data-name="Path 25697" d="M8.356,3.022a4.276,4.276,0,0,1-2.8,5.359A4.322,4.322,0,0,1,.188,5.549,4.3,4.3,0,0,1,3.018.192,4.255,4.255,0,0,1,8.356,3.022Z" transform="translate(67.31 84.266)" fill="#9b790d"/>
        <path id="Path_25698" data-name="Path 25698" d="M.208,5.611A4.3,4.3,0,0,1,2.96.213a4.285,4.285,0,0,1,2.651,8.15A4.322,4.322,0,0,1,.208,5.611Z" transform="translate(108.068 149.98)" fill="#9b790d"/>
        <path id="Path_25699" data-name="Path 25699" d="M8.335,2.954A4.277,4.277,0,0,1,5.623,8.36,4.323,4.323,0,0,1,.212,5.624,4.305,4.305,0,0,1,2.948.218,4.257,4.257,0,0,1,8.335,2.954Z" transform="translate(60.898 125.709)" fill="#9b790d"/>
        <path id="Path_25700" data-name="Path 25700" d="M.224,5.6A4.219,4.219,0,0,1,2.909.22,4.278,4.278,0,0,1,8.314,2.905,4.311,4.311,0,0,1,5.608,8.311,4.254,4.254,0,0,1,.224,5.6Z" transform="translate(117.029 147.144)" fill="#9b790d"/>
        <path id="Path_25701" data-name="Path 25701" d="M.22,5.629A4.3,4.3,0,0,1,2.916.223,4.24,4.24,0,0,1,8.3,2.914,4.226,4.226,0,0,1,5.631,8.306,4.282,4.282,0,0,1,.22,5.629Z" transform="translate(58.045 116.795)" fill="#9b790d"/>
        <path id="Path_25702" data-name="Path 25702" d="M.185,5.491A4.269,4.269,0,0,1,2.95.194a4.238,4.238,0,0,1,2.6,8.067A4.262,4.262,0,0,1,.185,5.491Z" transform="translate(63.818 134.686)" fill="#9b790d"/>
        <path id="Path_25703" data-name="Path 25703" d="M8.247,2.887A4.228,4.228,0,1,1,.2,5.494,4.189,4.189,0,0,1,2.928.21,4.216,4.216,0,0,1,8.247,2.887Z" transform="translate(99.197 152.912)" fill="#9b790d"/>
        <path id="Path_25704" data-name="Path 25704" d="M.211,5.473A4.147,4.147,0,0,1,2.932.193,4.179,4.179,0,1,1,5.425,8.17,4.136,4.136,0,0,1,.211,5.473Z" transform="translate(55.28 107.948)" fill="#9b790d"/>
        <path id="Path_25705" data-name="Path 25705" d="M.221,5.505A4.148,4.148,0,0,1,2.9.2,4.179,4.179,0,1,1,5.457,8.158,4.135,4.135,0,0,1,.221,5.505Z" transform="translate(126.037 144.356)" fill="#9b790d"/>
        <path id="Path_25706" data-name="Path 25706" d="M2.921.191A4.184,4.184,0,0,1,8.145,2.875a4.221,4.221,0,0,1-2.73,5.286A4.167,4.167,0,0,1,.21,5.457,4.135,4.135,0,0,1,2.921.191Z" transform="translate(82.428 69.723)" fill="#9b790d"/>
        <path id="Path_25707" data-name="Path 25707" d="M.2,5.432A4.165,4.165,0,0,1,2.973.185,4.112,4.112,0,0,1,8.138,2.933,4.142,4.142,0,0,1,5.424,8.126,4.192,4.192,0,0,1,.2,5.432Z" transform="translate(91.348 66.875)" fill="#9b790d"/>
        <path id="Path_25708" data-name="Path 25708" d="M5.444,8.117A4.2,4.2,0,0,1,.206,5.451,4.164,4.164,0,0,1,2.863.218,4.115,4.115,0,0,1,8.1,2.82,4.142,4.142,0,0,1,5.444,8.117Z" transform="translate(78.526 149.768)" fill="#9b790d"/>
        <path id="Path_25709" data-name="Path 25709" d="M2.819.209A4.095,4.095,0,1,1,5.341,8,4.062,4.062,0,0,1,.2,5.361,4.07,4.07,0,0,1,2.819.209Z" transform="translate(73.56 72.655)" fill="#9b790d"/>
        <path id="Path_25710" data-name="Path 25710" d="M.183,5.322A4.126,4.126,0,0,1,2.878.186a4.078,4.078,0,0,1,5.116,2.7A4.089,4.089,0,0,1,5.321,8.023,4.139,4.139,0,0,1,.183,5.322Z" transform="translate(66.808 143.752)" fill="#9b790d"/>
        <path id="Path_25711" data-name="Path 25711" d="M7.972,2.82A4.09,4.09,0,0,1,5.393,8,4.139,4.139,0,0,1,.206,5.4,4.125,4.125,0,0,1,2.808.212,4.079,4.079,0,0,1,7.972,2.82Z" transform="translate(90.393 155.884)" fill="#9b790d"/>
        <path id="Path_25712" data-name="Path 25712" d="M7.971,2.838A4.123,4.123,0,0,1,5.379,7.953a4.068,4.068,0,0,1-5.167-2.6A4.045,4.045,0,0,1,2.814.2,4.1,4.1,0,0,1,7.971,2.838Z" transform="translate(58.593 87.332)" fill="#9b790d"/>
        <path id="Path_25713" data-name="Path 25713" d="M5.316,7.969A4.077,4.077,0,1,1,2.9.181,4.029,4.029,0,0,1,6.619.888,3.865,3.865,0,0,1,8.144,4.254,4.015,4.015,0,0,1,5.316,7.969Z" transform="translate(100.363 64.083)" fill="#9b790d"/>
        <path id="Path_25714" data-name="Path 25714" d="M.2,5.284A4.06,4.06,0,0,1,2.778.195a4.04,4.04,0,0,1,2.5,7.685A4.052,4.052,0,0,1,.2,5.284Z" transform="translate(52.571 99.163)" fill="#9b790d"/>
        <path id="Path_25715" data-name="Path 25715" d="M2.71.209A4,4,0,0,1,7.787,2.778,4.029,4.029,0,0,1,5.2,7.783a3.972,3.972,0,0,1-5-2.559A3.943,3.943,0,0,1,2.71.209Z" transform="translate(64.756 75.635)" fill="#9b790d"/>
        <path id="Path_25716" data-name="Path 25716" d="M.193,5.184A3.991,3.991,0,0,1,2.763.178,3.956,3.956,0,0,1,5.135,7.726,3.98,3.98,0,0,1,.193,5.184Z" transform="translate(52.303 128.901)" fill="#9b790d"/>
        <path id="Path_25717" data-name="Path 25717" d="M5.187,7.66A3.908,3.908,0,0,1,.192,5.134,3.907,3.907,0,0,1,2.7.2,3.93,3.93,0,1,1,5.187,7.66Z" transform="translate(111.273 159.262)" fill="#9b790d"/>
        <path id="Path_25718" data-name="Path 25718" d="M.21,5.174A3.9,3.9,0,0,1,2.656.214a3.916,3.916,0,1,1,2.506,7.42A3.9,3.9,0,0,1,.21,5.174Z" transform="translate(49.46 120.006)" fill="#9b790d"/>
        <path id="Path_25719" data-name="Path 25719" d="M5.084,7.662A3.915,3.915,0,0,1,2.733.193a3.916,3.916,0,1,1,2.351,7.47Z" transform="translate(120.215 156.41)" fill="#9b790d"/>
        <path id="Path_25720" data-name="Path 25720" d="M.177,5.046A3.887,3.887,0,0,1,2.766.161,3.929,3.929,0,0,1,7.615,2.705,3.946,3.946,0,0,1,5.068,7.635,3.9,3.9,0,0,1,.177,5.046Z" transform="translate(81.672 158.95)" fill="#9b790d"/>
        <path id="Path_25721" data-name="Path 25721" d="M5.056,7.623A3.894,3.894,0,1,1,2.759.181,3.861,3.861,0,0,1,7.623,2.757,3.852,3.852,0,0,1,5.056,7.623Z" transform="translate(69.86 152.879)" fill="#9b790d"/>
        <path id="Path_25722" data-name="Path 25722" d="M.183,5.043A3.858,3.858,0,0,1,2.743.169,3.917,3.917,0,0,1,7.588,2.681,3.9,3.9,0,0,1,5.06,7.587,3.845,3.845,0,0,1,.183,5.043Z" transform="translate(102.407 162.168)" fill="#9b790d"/>
        <path id="Path_25723" data-name="Path 25723" d="M.179,5.032A3.86,3.86,0,0,1,2.756.166,3.918,3.918,0,0,1,7.592,2.693a3.9,3.9,0,0,1-2.543,4.9A3.845,3.845,0,0,1,.179,5.032Z" transform="translate(55.236 137.896)" fill="#9b790d"/>
        <path id="Path_25724" data-name="Path 25724" d="M.215,5.1A3.812,3.812,0,0,1,2.581.216,3.83,3.83,0,1,1,5.1,7.45,3.813,3.813,0,0,1,.215,5.1Z" transform="translate(46.685 111.162)" fill="#9b790d"/>
        <path id="Path_25725" data-name="Path 25725" d="M5.028,7.528A3.884,3.884,0,0,1,.181,5.034,3.891,3.891,0,0,1,2.669.181,3.813,3.813,0,0,1,5.626.452,3.734,3.734,0,0,1,7.511,2.627,3.677,3.677,0,0,1,7.676,4.17,3.852,3.852,0,0,1,5.028,7.528Z" transform="translate(129.227 153.613)" fill="#9b790d"/>
        <path id="Path_25726" data-name="Path 25726" d="M7.449,2.643a3.8,3.8,0,0,1-2.518,4.8A3.766,3.766,0,0,1,.189,4.976a3.776,3.776,0,0,1,2.5-4.8A3.811,3.811,0,0,1,7.449,2.643Z" transform="translate(79.919 61.149)" fill="#9b790d"/>
        <path id="Path_25727" data-name="Path 25727" d="M2.724.164A3.806,3.806,0,1,1,4.9,7.459,3.766,3.766,0,0,1,.179,4.945,3.777,3.777,0,0,1,2.724.164Z" transform="translate(49.923 90.458)" fill="#9b790d"/>
        <path id="Path_25728" data-name="Path 25728" d="M7.43,2.69A3.754,3.754,0,0,1,4.945,7.422,3.8,3.8,0,1,1,7.43,2.69Z" transform="translate(88.85 58.296)" fill="#9b790d"/>
        <path id="Path_25729" data-name="Path 25729" d="M2.621.194A3.741,3.741,0,0,1,7.385,2.608a3.769,3.769,0,0,1-2.4,4.781A3.831,3.831,0,0,1,.188,4.969,3.8,3.8,0,0,1,2.621.194Z" transform="translate(56.001 78.696)" fill="#9b790d"/>
        <path id="Path_25730" data-name="Path 25730" d="M4.952,7.346A3.8,3.8,0,0,1,.2,5,3.811,3.811,0,0,1,2.584.188,3.77,3.77,0,0,1,4.952,7.346Z" transform="translate(58.209 146.946)" fill="#9b790d"/>
        <path id="Path_25731" data-name="Path 25731" d="M7.322,2.562A3.759,3.759,0,0,1,4.936,7.351,3.8,3.8,0,0,1,.2,4.984,3.813,3.813,0,0,1,2.6.183,3.771,3.771,0,0,1,7.322,2.562Z" transform="translate(71.031 64.054)" fill="#9b790d"/>
        <path id="Path_25732" data-name="Path 25732" d="M.166,4.829A3.72,3.72,0,0,1,2.636.178,3.744,3.744,0,1,1,4.884,7.321,3.721,3.721,0,0,1,.166,4.829Z" transform="translate(93.596 165.17)" fill="#9b790d"/>
        <path id="Path_25733" data-name="Path 25733" d="M4.75,7.237A3.66,3.66,0,0,1,.174,4.8,3.674,3.674,0,0,1,2.54.182,3.7,3.7,0,1,1,4.75,7.237Z" transform="translate(43.976 102.365)" fill="#9b790d"/>
        <path id="Path_25734" data-name="Path 25734" d="M.183,4.754A3.6,3.6,0,0,1,2.564.168a3.626,3.626,0,1,1,2.15,6.926A3.6,3.6,0,0,1,.183,4.754Z" transform="translate(72.994 162.08)" fill="#9b790d"/>
        <path id="Path_25735" data-name="Path 25735" d="M7.11,2.536A3.616,3.616,0,0,1,4.773,7.073a3.6,3.6,0,0,1-4.6-2.35A3.6,3.6,0,0,1,2.5.185,3.624,3.624,0,0,1,7.11,2.536Z" transform="translate(62.232 67.055)" fill="#9b790d"/>
        <path id="Path_25736" data-name="Path 25736" d="M.166,4.661A3.586,3.586,0,0,1,2.463.188,3.535,3.535,0,0,1,6.963,2.4,3.546,3.546,0,0,1,4.718,6.957,3.593,3.593,0,0,1,.166,4.661Z" transform="translate(61.249 156.076)" fill="#9b790d"/>
        <path id="Path_25737" data-name="Path 25737" d="M.178,4.694A3.586,3.586,0,0,1,2.432.2a3.533,3.533,0,0,1,4.55,2.255,3.544,3.544,0,0,1-2.32,4.522A3.591,3.591,0,0,1,.178,4.694Z" transform="translate(84.833 168.211)" fill="#9b790d"/>
        <path id="Path_25738" data-name="Path 25738" d="M.167,4.631A3.567,3.567,0,0,1,2.466.162a3.562,3.562,0,0,1,2.157,6.79A3.562,3.562,0,0,1,.167,4.631Z" transform="translate(43.869 132.13)" fill="#9b790d"/>
        <path id="Path_25739" data-name="Path 25739" d="M.2,4.717A3.525,3.525,0,0,1,2.373.2,3.514,3.514,0,0,1,6.89,2.362,3.513,3.513,0,0,1,4.721,6.872,3.521,3.521,0,0,1,.2,4.717Z" transform="translate(114.5 168.496)" fill="#9b790d"/>
        <path id="Path_25740" data-name="Path 25740" d="M4.665,6.89A3.511,3.511,0,0,1,.185,4.657,3.517,3.517,0,0,1,2.432.184,3.534,3.534,0,1,1,4.665,6.89Z" transform="translate(41.003 123.22)" fill="#9b790d"/>
        <path id="Path_25741" data-name="Path 25741" d="M.206,4.715A3.518,3.518,0,0,1,2.373.2a3.534,3.534,0,1,1,2.35,6.666A3.507,3.507,0,0,1,.206,4.715Z" transform="translate(123.433 165.635)" fill="#9b790d"/>
        <path id="Path_25742" data-name="Path 25742" d="M6.893,2.463a3.484,3.484,0,0,1-2.309,4.43A3.522,3.522,0,1,1,2.535.153,3.494,3.494,0,0,1,6.893,2.463Z" transform="translate(47.331 81.809)" fill="#9b790d"/>
        <path id="Path_25743" data-name="Path 25743" d="M.184,4.612A3.483,3.483,0,0,1,2.353.185,3.544,3.544,0,0,1,6.84,2.43a3.528,3.528,0,0,1-2.259,4.4A3.467,3.467,0,0,1,.184,4.612Z" transform="translate(46.785 141.116)" fill="#9b790d"/>
        <path id="Path_25744" data-name="Path 25744" d="M.181,4.6A3.482,3.482,0,0,1,2.365.182,3.543,3.543,0,0,1,6.844,2.44,3.527,3.527,0,0,1,4.571,6.831,3.467,3.467,0,0,1,.181,4.6Z" transform="translate(105.628 171.394)" fill="#9b790d"/>
        <path id="Path_25745" data-name="Path 25745" d="M6.775,2.3A3.492,3.492,0,0,1,4.647,6.749,3.454,3.454,0,0,1,.2,4.643,3.442,3.442,0,0,1,2.313.2,3.485,3.485,0,0,1,6.775,2.3Z" transform="translate(41.325 93.659)" fill="#9b790d"/>
        <path id="Path_25746" data-name="Path 25746" d="M.174,4.576A3.518,3.518,0,0,1,2.4.167a3.454,3.454,0,0,1,3.16.552A3.353,3.353,0,0,1,6.77,2.369a3.313,3.313,0,0,1,.149.732,3.463,3.463,0,0,1,.008.433c0,.057.006.114,0,.171A3.463,3.463,0,0,1,4.5,6.805,3.505,3.505,0,0,1,.174,4.576Z" transform="translate(132.433 162.828)" fill="#9b790d"/>
        <path id="Path_25747" data-name="Path 25747" d="M.157,4.475A3.436,3.436,0,0,1,2.483.15,3.455,3.455,0,1,1,4.506,6.758,3.435,3.435,0,0,1,.157,4.475Z" transform="translate(38.217 114.367)" fill="#9b790d"/>
        <path id="Path_25748" data-name="Path 25748" d="M6.751,2.413a3.421,3.421,0,0,1-2.222,4.3A3.44,3.44,0,1,1,2.382.176,3.428,3.428,0,0,1,6.751,2.413Z" transform="translate(53.483 70.104)" fill="#9b790d"/>
        <path id="Path_25749" data-name="Path 25749" d="M2.368.162a3.419,3.419,0,0,1,4.3,2.218A3.447,3.447,0,0,1,4.48,6.63,3.386,3.386,0,0,1,.175,4.451,3.358,3.358,0,0,1,2.368.162Z" transform="translate(77.469 52.635)" fill="#9b790d"/>
        <path id="Path_25750" data-name="Path 25750" d="M2.282.2a3.35,3.35,0,0,1,4.3,2.038,3.356,3.356,0,0,1-2.1,4.351,3.4,3.4,0,0,1-4.3-2.1A3.392,3.392,0,0,1,2.282.2Z" transform="translate(86.393 49.79)" fill="#9b790d"/>
        <path id="Path_25751" data-name="Path 25751" d="M.155,4.411A3.422,3.422,0,0,1,2.33.164,3.386,3.386,0,0,1,4.471,6.588,3.412,3.412,0,0,1,.155,4.411Z" transform="translate(49.759 150.163)" fill="#9b790d"/>
        <path id="Path_25752" data-name="Path 25752" d="M4.424,6.554A3.341,3.341,0,0,1,.172,4.418,3.339,3.339,0,0,1,2.321.173a3.359,3.359,0,1,1,2.1,6.381Z" transform="translate(96.816 174.396)" fill="#9b790d"/>
        <path id="Path_25753" data-name="Path 25753" d="M2.389.141A3.331,3.331,0,1,1,4.282,6.529a3.291,3.291,0,0,1-4.124-2.2A3.3,3.3,0,0,1,2.389.141Z" transform="translate(68.603 55.556)" fill="#9b790d"/>
        <path id="Path_25754" data-name="Path 25754" d="M.17,4.352A3.291,3.291,0,0,1,2.262.171,3.344,3.344,0,0,1,6.5,2.332,3.372,3.372,0,0,1,4.33,6.5,3.319,3.319,0,0,1,.17,4.352Z" transform="translate(64.388 165.253)" fill="#9b790d"/>
        <path id="Path_25755" data-name="Path 25755" d="M4.37,6.479A3.321,3.321,0,1,1,2.339.156a3.3,3.3,0,0,1,4.146,2.16A3.282,3.282,0,0,1,4.37,6.479Z" transform="translate(76.161 171.317)" fill="#9b790d"/>
        <path id="Path_25756" data-name="Path 25756" d="M.154,4.3A3.3,3.3,0,0,1,2.313.155,3.345,3.345,0,0,1,6.488,2.294,3.331,3.331,0,0,1,4.273,6.5,3.282,3.282,0,0,1,.154,4.3Z" transform="translate(35.511 105.574)" fill="#9b790d"/>
        <path id="Path_25757" data-name="Path 25757" d="M2.314.156a3.267,3.267,0,0,1,2.537.23A3.2,3.2,0,0,1,6.474,2.25a3.137,3.137,0,0,1,.132,1.344A3.275,3.275,0,0,1,4.321,6.468,3.34,3.34,0,0,1,.151,4.322,3.353,3.353,0,0,1,2.314.156Z" transform="translate(95.408 46.993)" fill="#9b790d"/>
        <path id="Path_25758" data-name="Path 25758" d="M2.254.149A3.233,3.233,0,0,1,6.289,2.206,3.266,3.266,0,0,1,4.183,6.3,3.215,3.215,0,0,1,.168,4.224,3.182,3.182,0,0,1,2.254.149Z" transform="translate(59.793 58.538)" fill="#9b790d"/>
        <path id="Path_25759" data-name="Path 25759" d="M6.221,2.089A3.178,3.178,0,0,1,4.266,6.225,3.227,3.227,0,0,1,.184,4.271,3.212,3.212,0,0,1,2.135.194,3.166,3.166,0,0,1,6.221,2.089Z" transform="translate(38.719 85.006)" fill="#9b790d"/>
        <path id="Path_25760" data-name="Path 25760" d="M2.178.158A3.239,3.239,0,0,1,6.223,2.194,3.227,3.227,0,0,1,4.189,6.235,3.2,3.2,0,0,1,2.178.158Z" transform="translate(44.825 73.212)" fill="#9b790d"/>
        <path id="Path_25761" data-name="Path 25761" d="M.166,4.2A3.185,3.185,0,0,1,2.191.17a3.15,3.15,0,0,1,4.028,2A3.151,3.151,0,0,1,4.211,6.191,3.185,3.185,0,0,1,.166,4.2Z" transform="translate(52.799 159.3)" fill="#9b790d"/>
        <path id="Path_25762" data-name="Path 25762" d="M4.2,6.2A3.176,3.176,0,1,1,2.2.166,3.149,3.149,0,0,1,6.223,2.181,3.154,3.154,0,0,1,4.2,6.2Z" transform="translate(88.059 177.441)" fill="#9b790d"/>
        <path id="Path_25763" data-name="Path 25763" d="M.156,4.068A3.1,3.1,0,0,1,2.2.147a3.059,3.059,0,0,1,3.86,1.982A3.07,3.07,0,0,1,4.035,6.048,3.107,3.107,0,0,1,.156,4.068Z" transform="translate(35.366 135.456)" fill="#9b790d"/>
        <path id="Path_25764" data-name="Path 25764" d="M6.062,2.123A3.107,3.107,0,0,1,4.017,6.045,3.07,3.07,0,0,1,.159,4.056,3.061,3.061,0,0,1,2.184.143,3.1,3.1,0,0,1,6.062,2.123Z" transform="translate(32.864 96.875)" fill="#9b790d"/>
        <path id="Path_25765" data-name="Path 25765" d="M.151,4.06A3.126,3.126,0,0,1,2.19.129,3.1,3.1,0,0,1,4.032,6.044,3.12,3.12,0,0,1,.151,4.06Z" transform="translate(32.533 126.525)" fill="#9b790d"/>
        <path id="Path_25766" data-name="Path 25766" d="M.144,3.922A2.985,2.985,0,0,1,2.08.152,3.044,3.044,0,0,1,5.93,2.117,3.073,3.073,0,0,1,3.974,5.908,3.014,3.014,0,0,1,.144,3.922Z" transform="translate(38.322 144.458)" fill="#9b790d"/>
        <path id="Path_25767" data-name="Path 25767" d="M2.076.164A2.985,2.985,0,0,1,5.914,2.109a3.013,3.013,0,0,1-1.9,3.8A3.075,3.075,0,0,1,.141,3.954,3.044,3.044,0,0,1,2.076.164Z" transform="translate(51.035 61.592)" fill="#9b790d"/>
        <path id="Path_25768" data-name="Path 25768" d="M.137,3.9A3.014,3.014,0,0,1,2.115.125,3.04,3.04,0,0,1,5.842,2.062a3.028,3.028,0,0,1-1.93,3.8A3.006,3.006,0,0,1,.137,3.9Z" transform="translate(29.767 117.687)" fill="#9b790d"/>
        <path id="Path_25769" data-name="Path 25769" d="M3.906,5.825A2.98,2.98,0,1,1,2.053.16a2.961,2.961,0,0,1,3.791,1.9A2.96,2.96,0,0,1,3.906,5.825Z" transform="translate(67.563 174.521)" fill="#9b790d"/>
        <path id="Path_25770" data-name="Path 25770" d="M2.013.146a2.927,2.927,0,0,1,1.83,5.56A2.955,2.955,0,0,1,.126,3.8,2.974,2.974,0,0,1,2.013.146Z" transform="translate(79.398 180.555)" fill="#9b790d"/>
        <path id="Path_25771" data-name="Path 25771" d="M3.833,5.674A2.887,2.887,0,0,1,.14,3.778,2.871,2.871,0,0,1,2,.149,2.925,2.925,0,0,1,5.717,2.03,2.939,2.939,0,0,1,3.833,5.674Z" transform="translate(55.947 168.501)" fill="#9b790d"/>
        <path id="Path_25772" data-name="Path 25772" d="M3.844,5.68A2.937,2.937,0,0,1,.129,3.788,2.927,2.927,0,0,1,2.021.153,2.875,2.875,0,0,1,5.71,2.046,2.886,2.886,0,0,1,3.844,5.68Z" transform="translate(75.073 44.188)" fill="#9b790d"/>
        <path id="Path_25773" data-name="Path 25773" d="M3.843,5.625A2.887,2.887,0,1,1,2.02.147,2.864,2.864,0,0,1,5.658,1.979,2.864,2.864,0,0,1,3.843,5.625Z" transform="translate(41.299 153.518)" fill="#9b790d"/>
        <path id="Path_25774" data-name="Path 25774" d="M3.77,5.642A2.863,2.863,0,0,1,.146,3.785,2.863,2.863,0,0,1,1.985.151,2.887,2.887,0,1,1,3.77,5.642Z" transform="translate(84.034 41.351)" fill="#9b790d"/>
        <path id="Path_25775" data-name="Path 25775" d="M1.911.167A2.828,2.828,0,0,1,5.563,1.928,2.817,2.817,0,0,1,3.778,5.564,2.856,2.856,0,0,1,1.911.167Z" transform="translate(36.209 76.414)" fill="#9b790d"/>
        <path id="Path_25776" data-name="Path 25776" d="M5.586,2A2.813,2.813,0,0,1,3.8,5.558,2.855,2.855,0,1,1,1.982.145,2.825,2.825,0,0,1,5.586,2Z" transform="translate(66.204 47.103)" fill="#9b790d"/>
        <path id="Path_25777" data-name="Path 25777" d="M5.542,1.925A2.884,2.884,0,0,1,3.684,5.562,2.831,2.831,0,0,1,.142,3.7,2.8,2.8,0,0,1,1.951.144,2.853,2.853,0,0,1,5.542,1.925Z" transform="translate(27.06 108.921)" fill="#9b790d"/>
        <path id="Path_25778" data-name="Path 25778" d="M3.681,5.522A2.807,2.807,0,0,1,.138,3.686,2.821,2.821,0,0,1,1.954.128,2.845,2.845,0,0,1,4.41.511c.03.02.064.037.093.059A2.972,2.972,0,0,1,4.8.824c.031.03.065.057.094.089a2.73,2.73,0,0,1,.633,1.048A2.863,2.863,0,0,1,3.681,5.522Z" transform="translate(93.048 38.549)" fill="#9b790d"/>
        <path id="Path_25779" data-name="Path 25779" d="M1.887.162A2.773,2.773,0,0,1,5.463,1.886,2.768,2.768,0,0,1,3.7,5.442,2.791,2.791,0,1,1,1.887.162Z" transform="translate(30.287 88.243)" fill="#9b790d"/>
        <path id="Path_25780" data-name="Path 25780" d="M5.383,1.889A2.72,2.72,0,0,1,3.647,5.377,2.758,2.758,0,1,1,1.893.147,2.731,2.731,0,0,1,5.383,1.889Z" transform="translate(42.373 64.717)" fill="#9b790d"/>
        <path id="Path_25781" data-name="Path 25781" d="M3.645,5.278A2.738,2.738,0,0,1,.165,3.649,2.726,2.726,0,0,1,1.792.175,2.685,2.685,0,0,1,5.279,1.743,2.7,2.7,0,0,1,3.645,5.278Z" transform="translate(57.404 50.111)" fill="#9b790d"/>
        <path id="Path_25782" data-name="Path 25782" d="M1.872.13A2.719,2.719,0,0,1,3.548,5.3,2.742,2.742,0,0,1,.129,3.555,2.749,2.749,0,0,1,1.872.13Z" transform="translate(44.36 162.623)" fill="#9b790d"/>
        <path id="Path_25783" data-name="Path 25783" d="M3.338,5.161A2.634,2.634,0,0,1,1.852.108a2.678,2.678,0,0,1,3.3,1.779A2.661,2.661,0,0,1,3.338,5.161Z" transform="translate(24.415 100.2)" fill="#9b790d"/>
        <path id="Path_25784" data-name="Path 25784" d="M1.745.136A2.573,2.573,0,1,1,3.4,5.008,2.534,2.534,0,0,1,.142,3.4,2.544,2.544,0,0,1,1.745.136Z" transform="translate(59.152 177.765)" fill="#9b790d"/>
        <path id="Path_25785" data-name="Path 25785" d="M3.326,4.931A2.509,2.509,0,0,1,.138,3.339,2.5,2.5,0,0,1,1.7.143,2.538,2.538,0,0,1,4.967,1.752,2.552,2.552,0,0,1,3.326,4.931Z" transform="translate(27.019 138.887)" fill="#9b790d"/>
        <path id="Path_25786" data-name="Path 25786" d="M.118,3.29A2.541,2.541,0,0,1,1.745.114,2.56,2.56,0,0,1,4.918,1.761,2.55,2.55,0,0,1,3.281,4.935,2.53,2.53,0,0,1,.118,3.29Z" transform="translate(24.177 129.956)" fill="#9b790d"/>
        <path id="Path_25787" data-name="Path 25787" d="M3.325,4.874A2.488,2.488,0,0,1,.137,3.317,2.486,2.486,0,0,1,1.708.137,2.5,2.5,0,1,1,3.325,4.874Z" transform="translate(48.697 53.183)" fill="#9b790d"/>
        <path id="Path_25788" data-name="Path 25788" d="M1.733.118a2.444,2.444,0,0,1,3.085,1.6A2.464,2.464,0,0,1,3.272,4.83,2.517,2.517,0,0,1,.105,3.2,2.5,2.5,0,0,1,1.733.118Z" transform="translate(29.935 147.869)" fill="#9b790d"/>
        <path id="Path_25789" data-name="Path 25789" d="M.112,3.184A2.476,2.476,0,0,1,1.73.1a2.44,2.44,0,0,1,1.4,4.673A2.466,2.466,0,0,1,.112,3.184Z" transform="translate(21.396 121.114)" fill="#9b790d"/>
        <path id="Path_25790" data-name="Path 25790" d="M4.723,1.641A2.434,2.434,0,0,1,3.192,4.756,2.467,2.467,0,0,1,.132,3.24,2.477,2.477,0,0,1,1.677.117,2.445,2.445,0,0,1,4.723,1.641Z" transform="translate(27.804 79.669)" fill="#9b790d"/>
        <path id="Path_25791" data-name="Path 25791" d="M1.7.1A2.479,2.479,0,0,1,4.736,1.669a2.466,2.466,0,0,1-1.589,3.1A2.44,2.44,0,0,1,1.7.1Z" transform="translate(47.509 171.835)" fill="#9b790d"/>
        <path id="Path_25792" data-name="Path 25792" d="M3.176,4.659A2.364,2.364,0,0,1,.133,3.171,2.371,2.371,0,0,1,1.629.13,2.393,2.393,0,1,1,3.176,4.659Z" transform="translate(33.815 67.947)" fill="#9b790d"/>
        <path id="Path_25793" data-name="Path 25793" d="M1.668.1A2.322,2.322,0,1,1,3.048,4.535,2.3,2.3,0,0,1,.109,3.017,2.3,2.3,0,0,1,1.668.1Z" transform="translate(32.942 156.948)" fill="#9b790d"/>
        <path id="Path_25794" data-name="Path 25794" d="M3.01,4.538A2.326,2.326,0,0,1,1.6.1,2.342,2.342,0,0,1,4.5,1.578,2.339,2.339,0,0,1,3.01,4.538Z" transform="translate(72.838 35.849)" fill="#9b790d"/>
        <path id="Path_25795" data-name="Path 25795" d="M3.007,4.48a2.332,2.332,0,0,1-2.9-1.473A2.314,2.314,0,0,1,1.581.115,2.272,2.272,0,0,1,4.458,1.587,2.29,2.29,0,0,1,3.007,4.48Z" transform="translate(81.778 33.017)" fill="#9b790d"/>
        <path id="Path_25796" data-name="Path 25796" d="M4.473,1.607A2.334,2.334,0,0,1,2.966,4.486,2.289,2.289,0,0,1,.107,2.967,2.271,2.271,0,0,1,1.6.1,2.314,2.314,0,0,1,4.473,1.607Z" transform="translate(21.893 91.609)" fill="#9b790d"/>
        <path id="Path_25797" data-name="Path 25797" d="M.122,3A2.272,2.272,0,0,1,1.568.121,2.218,2.218,0,0,1,4.424,1.572,2.243,2.243,0,0,1,2.945,4.423,2.3,2.3,0,0,1,.122,3Z" transform="translate(18.687 112.365)" fill="#9b790d"/>
        <path id="Path_25798" data-name="Path 25798" d="M2.91,4.357a2.238,2.238,0,0,1-2.8-1.434A2.24,2.24,0,0,1,1.544.12,2.2,2.2,0,0,1,4.391,1.59,2.2,2.2,0,0,1,2.91,4.357Z" transform="translate(63.963 38.802)" fill="#9b790d"/>
        <path id="Path_25799" data-name="Path 25799" d="M2.92,4.343A2.251,2.251,0,0,1,.111,2.931,2.255,2.255,0,0,1,1.509.113,2.23,2.23,0,0,1,2.92,4.343Z" transform="translate(40.068 56.323)" fill="#9b790d"/>
        <path id="Path_25800" data-name="Path 25800" d="M2.9,4.258A2.194,2.194,0,0,1,.1,2.851,2.211,2.211,0,0,1,1.5.117a2.146,2.146,0,0,1,2.226.52,2.05,2.05,0,0,1,.542.814,1.958,1.958,0,0,1,.1.5A2.137,2.137,0,0,1,2.9,4.258Z" transform="translate(90.805 30.256)" fill="#9b790d"/>
        <path id="Path_25801" data-name="Path 25801" d="M2.746,4.07A2.076,2.076,0,0,1,.106,2.72,2.052,2.052,0,0,1,1.465.093a2.107,2.107,0,0,1,2.6,1.3A2.129,2.129,0,0,1,2.746,4.07Z" transform="translate(55.203 41.813)" fill="#9b790d"/>
        <path id="Path_25802" data-name="Path 25802" d="M1.431.113A2.051,2.051,0,0,1,4.07,1.451,2.078,2.078,0,0,1,2.716,4.09a2.132,2.132,0,0,1-2.633-1.4A2.108,2.108,0,0,1,1.431.113Z" transform="translate(36.044 166.117)" fill="#9b790d"/>
        <path id="Path_25803" data-name="Path 25803" d="M1.414.1A1.972,1.972,0,0,1,3.93,1.457,1.96,1.96,0,0,1,2.608,3.914,2.008,2.008,0,0,1,.1,2.653,2.017,2.017,0,0,1,1.414.1Z" transform="translate(50.78 181.195)" fill="#9b790d"/>
        <path id="Path_25804" data-name="Path 25804" d="M3.869,1.343A2.018,2.018,0,0,1,2.6,3.851,1.962,1.962,0,0,1,.106,2.588,1.932,1.932,0,0,1,1.357.1,1.991,1.991,0,0,1,3.869,1.343Z" transform="translate(16.129 103.723)" fill="#9b790d"/>
        <path id="Path_25805" data-name="Path 25805" d="M2.484,3.7A1.941,1.941,0,0,1,.1,2.519,1.908,1.908,0,0,1,1.328.094,1.858,1.858,0,0,1,3.683,1.273,1.887,1.887,0,0,1,2.484,3.7Z" transform="translate(25.47 71.286)" fill="#9b790d"/>
        <path id="Path_25806" data-name="Path 25806" d="M2.423,3.6A1.871,1.871,0,0,1,.108,2.479,1.877,1.877,0,0,1,1.247.094,1.85,1.85,0,0,1,2.423,3.6Z" transform="translate(19.471 83.122)" fill="#9b790d"/>
        <path id="Path_25807" data-name="Path 25807" d="M2.313,3.53A1.773,1.773,0,0,1,.079,2.317,1.785,1.785,0,0,1,1.283.074,1.831,1.831,0,0,1,3.54,1.287,1.816,1.816,0,0,1,2.313,3.53Z" transform="translate(46.555 44.952)" fill="#9b790d"/>
        <path id="Path_25808" data-name="Path 25808" d="M.085,2.35A1.836,1.836,0,0,1,1.175.106,1.785,1.785,0,0,1,2.39,3.463,1.817,1.817,0,0,1,.085,2.35Z" transform="translate(15.976 133.559)" fill="#9b790d"/>
        <path id="Path_25809" data-name="Path 25809" d="M2.318,3.443A1.748,1.748,0,0,1,.076,2.263,1.74,1.74,0,0,1,1.231.088,1.777,1.777,0,0,1,3.488,1.256,1.788,1.788,0,0,1,2.318,3.443Z" transform="translate(31.582 59.65)" fill="#9b790d"/>
        <path id="Path_25810" data-name="Path 25810" d="M1.214.1a1.744,1.744,0,0,1,2.23,1.049A1.746,1.746,0,0,1,2.358,3.435,1.784,1.784,0,0,1,.079,2.3,1.777,1.777,0,0,1,1.214.1Z" transform="translate(18.836 142.509)" fill="#9b790d"/>
        <path id="Path_25811" data-name="Path 25811" d="M1.195.1a1.711,1.711,0,0,1,2.2,1.09A1.705,1.705,0,0,1,2.3,3.378,1.731,1.731,0,1,1,1.195.1Z" transform="translate(39.255 175.397)" fill="#9b790d"/>
        <path id="Path_25812" data-name="Path 25812" d="M1.158.085A1.691,1.691,0,0,1,3.289,1.138,1.7,1.7,0,0,1,2.2,3.253,1.645,1.645,0,0,1,.088,2.189,1.64,1.64,0,0,1,1.158.085Z" transform="translate(21.807 151.538)" fill="#9b790d"/>
        <path id="Path_25813" data-name="Path 25813" d="M.1,2.221A1.682,1.682,0,0,1,1.126.081,1.661,1.661,0,0,1,2.166,3.236,1.684,1.684,0,0,1,.1,2.221Z" transform="translate(13.249 124.757)" fill="#9b790d"/>
        <path id="Path_25814" data-name="Path 25814" d="M3.082,1.082a1.621,1.621,0,0,1-.982,2A1.59,1.59,0,1,1,1.09.069,1.633,1.633,0,0,1,3.082,1.082Z" transform="translate(13.668 95.175)" fill="#9b790d"/>
        <path id="Path_25815" data-name="Path 25815" d="M1.006.078A1.56,1.56,0,0,1,2.932.991a1.541,1.541,0,0,1-.983,1.96A1.484,1.484,0,0,1,.078,1.977,1.5,1.5,0,0,1,1.006.078Z" transform="translate(24.848 160.625)" fill="#9b790d"/>
        <path id="Path_25816" data-name="Path 25816" d="M1.846,2.8A1.44,1.44,0,0,1,.057,1.846,1.449,1.449,0,0,1,1.03.063,1.406,1.406,0,0,1,2.8,1.028,1.4,1.4,0,0,1,1.846,2.8Z" transform="translate(37.98 48.187)" fill="#9b790d"/>
        <path id="Path_25817" data-name="Path 25817" d="M1.856,2.823a1.482,1.482,0,0,1-1.8-.966A1.465,1.465,0,0,1,1.022.064,1.408,1.408,0,0,1,2.8,1.029,1.43,1.43,0,0,1,1.856,2.823Z" transform="translate(70.84 27.803)" fill="#9b790d"/>
        <path id="Path_25818" data-name="Path 25818" d="M.061,1.836A1.455,1.455,0,0,1,.951.072,1.405,1.405,0,0,1,1.9,2.717,1.438,1.438,0,0,1,.061,1.836Z" transform="translate(10.631 116.08)" fill="#9b790d"/>
        <path id="Path_25819" data-name="Path 25819" d="M1.817,2.7a1.365,1.365,0,0,1-1.739-.87A1.357,1.357,0,0,1,.924.083,1.4,1.4,0,0,1,2.738.972,1.41,1.41,0,0,1,1.817,2.7Z" transform="translate(79.819 24.997)" fill="#9b790d"/>
        <path id="Path_25820" data-name="Path 25820" d="M1.689,2.653A1.343,1.343,0,0,1,.054,1.734,1.356,1.356,0,0,1,1.024.047,1.321,1.321,0,0,1,2.649.974,1.314,1.314,0,0,1,1.689,2.653Z" transform="translate(61.991 30.752)" fill="#9b790d"/>
        <path id="Path_25821" data-name="Path 25821" d="M1.728,2.482A1.3,1.3,0,0,1,.059,1.671,1.306,1.306,0,0,1,.854.065,1.3,1.3,0,0,1,2.463.851,1.292,1.292,0,0,1,1.728,2.482Z" transform="translate(88.87 22.234)" fill="#9b790d"/>
        <path id="Path_25822" data-name="Path 25822" d="M.814.065a1.268,1.268,0,0,1,1.592.8,1.256,1.256,0,0,1-.869,1.551,1.2,1.2,0,0,1-1.48-.827A1.211,1.211,0,0,1,.814.065Z" transform="translate(42.645 184.837)" fill="#9b790d"/>
        <path id="Path_25823" data-name="Path 25823" d="M1.6,2.311A1.208,1.208,0,0,1,.063,1.584,1.219,1.219,0,0,1,.808.054a1.218,1.218,0,0,1,1.471.7A1.205,1.205,0,0,1,1.6,2.311Z" transform="translate(17.266 74.847)" fill="#9b790d"/>
        <path id="Path_25824" data-name="Path 25824" d="M.765.069A1.214,1.214,0,0,1,2.3.8a1.208,1.208,0,0,1-.747,1.524,1.207,1.207,0,0,1-1.47-.7A1.212,1.212,0,0,1,.765.069Z" transform="translate(28.031 169.874)" fill="#9b790d"/>
        <path id="Path_25825" data-name="Path 25825" d="M1.5,2.213A1.156,1.156,0,0,1,.055,1.5,1.167,1.167,0,0,1,.778.061,1.119,1.119,0,0,1,2.205.78,1.108,1.108,0,0,1,1.5,2.213Z" transform="translate(23.371 63.109)" fill="#9b790d"/>
        <path id="Path_25826" data-name="Path 25826" d="M1.491,2.207A1.111,1.111,0,0,1,.063,1.5,1.12,1.12,0,0,1,.761.057a1.168,1.168,0,0,1,1.45.71A1.155,1.155,0,0,1,1.491,2.207Z" transform="translate(53.296 33.83)" fill="#9b790d"/>
        <path id="Path_25827" data-name="Path 25827" d="M.693.068A.994.994,0,0,1,2,.659a1.018,1.018,0,0,1-.559,1.325A1.072,1.072,0,0,1,.051,1.365,1.051,1.051,0,0,1,.693.068Z" transform="translate(8.129 107.526)" fill="#9b790d"/>
        <path id="Path_25828" data-name="Path 25828" d="M1.27,1.894A.967.967,0,0,1,.644.065a.951.951,0,0,1,1.24.549A.946.946,0,0,1,1.27,1.894Z" transform="translate(11.396 86.859)" fill="#9b790d"/>
        <path id="Path_25829" data-name="Path 25829" d="M1.1,1.691A.846.846,0,0,1,.055,1.15.841.841,0,0,1,.6.034.9.9,0,0,1,1.67.564.9.9,0,0,1,1.1,1.691Z" transform="translate(44.64 36.968)" fill="#9b790d"/>
        <path id="Path_25830" data-name="Path 25830" d="M1.06,1.685A.832.832,0,0,1,.04,1.1.84.84,0,0,1,.559.05.881.881,0,0,1,1.684.6.872.872,0,0,1,1.06,1.685Z" transform="translate(29.641 51.626)" fill="#9b790d"/>
        <path id="Path_25831" data-name="Path 25831" d="M.531.044A.79.79,0,0,1,1.559.589.785.785,0,0,1,1,1.534a.759.759,0,0,1-.962-.515A.767.767,0,0,1,.531.044Z" transform="translate(31.285 179.212)" fill="#9b790d"/>
        <path id="Path_25832" data-name="Path 25832" d="M.507.029A.746.746,0,0,1,1.4.5a.742.742,0,0,1-.418.919.776.776,0,0,1-.936-.4A.78.78,0,0,1,.507.029Z" transform="translate(10.968 146.407)" fill="#9b790d"/>
        <path id="Path_25833" data-name="Path 25833" d="M.5.042a.7.7,0,0,1,.908.435.7.7,0,0,1-.451.9A.734.734,0,0,1,.036.946.723.723,0,0,1,.5.042Z" transform="translate(8.101 137.498)" fill="#9b790d"/>
        <path id="Path_25834" data-name="Path 25834" d="M.479.021A.646.646,0,0,1,1.268.5a.6.6,0,0,1-.4.75A.678.678,0,0,1,.023.844.7.7,0,0,1,.479.021Z" transform="translate(5.656 98.976)" fill="#9b790d"/>
        <path id="Path_25835" data-name="Path 25835" d="M.5.012A.651.651,0,0,1,1.254.44a.666.666,0,0,1-.437.824A.632.632,0,0,1,.02.8.638.638,0,0,1,.5.012Z" transform="translate(13.921 155.422)" fill="#9b790d"/>
        <path id="Path_25836" data-name="Path 25836" d="M.439.013c.32-.056.6.074.629.4a2.933,2.933,0,0,1-.259.879C.452,1.038.188.932.054.736-.114.492.136.065.439.013Z" transform="translate(5.401 128.725)" fill="#9b790d"/>
        <path id="Path_25837" data-name="Path 25837" d="M.791.3C.835.483.678.709.56,1.051.276.821,0,.7,0,.575,0,.384.186.191.292,0,.468.1.76.169.791.3Z" transform="translate(2.718 119.909)" fill="#9b790d"/>
        <path id="Path_25838" data-name="Path 25838" d="M.532,1A.591.591,0,0,1,.015.769C-.044.592.086.351.167,0c.3.2.523.274.613.425A.367.367,0,0,1,.532,1Z" transform="translate(69.02 19.715)" fill="#9b790d"/>
        <path id="Path_25839" data-name="Path 25839" d="M0,.573C0,.382.188.19.3,0c.175.1.466.173.5.307C.835.486.676.713.555,1.053.275.822,0,.7,0,.573Z" transform="translate(9.128 78.462)" fill="#9b790d"/>
        <path id="Path_25840" data-name="Path 25840" d="M.688.764C.517.8.313.67,0,.577.179.314.26.064.408.013A.589.589,0,0,1,.939.191.357.357,0,0,1,.688.764Z" transform="translate(15.015 66.736)" fill="#9b790d"/>
        <path id="Path_25841" data-name="Path 25841" d="M.579.921A.362.362,0,0,1,0,.67C-.027.5.12.306.232,0,.494.179.748.261.788.4A.589.589,0,0,1,.579.921Z" transform="translate(36.145 40.135)" fill="#9b790d"/>
        <path id="Path_25842" data-name="Path 25842" d="M.812.436A.363.363,0,0,1,.466.96.6.6,0,0,1,.007.64C-.037.5.134.292.258,0,.516.194.748.281.812.436Z" transform="translate(17.012 164.435)" fill="#9b790d"/>
        <path id="Path_25843" data-name="Path 25843" d="M.009.449C-.03.353.073.2.136,0,.311.125.493.188.515.288S.41.531.348.656C.229.589.049.547.009.449Z" transform="translate(27.378 43.182)" fill="#9b790d"/>
        <path id="Path_25844" data-name="Path 25844" d="M0,.359C.156.187.231.046.343,0c.074-.027.291.1.288.14C.622.273.564.458.469.505S.222.436,0,.359Z" transform="translate(21.27 55.054)" fill="#9b790d"/>
        <path id="Path_25845" data-name="Path 25845" d="M.481.672C.273.549.121.5.056.4c0-.006,0-.017,0-.025L0,.359C.023.334.034.317.054.293.07.207.112.106.144.1A.8.8,0,0,1,.226.1.355.355,0,0,1,.343,0C.417-.024.634.1.631.143a.6.6,0,0,1-.1.282C.513.5.494.577.481.672Z" transform="translate(95.907 11.408)" fill="#9b790d"/>
        <path id="Path_25846" data-name="Path 25846" d="M.175.008C.261-.032.42.08.624.151.5.331.444.518.351.536A.393.393,0,0,1,.006.357.39.39,0,0,1,.175.008Z" transform="translate(3.182 90.426)" fill="#9b790d"/>
        <path id="Path_25847" data-name="Path 25847" d="M.28.632C.237.661.021.554.006.482A1.406,1.406,0,0,1,.1,0C.3.139.488.207.5.3S.387.558.28.632Z" transform="translate(78.108 17.073)" fill="#9b790d"/>
        <path id="Path_25848" data-name="Path 25848" d="M.152,0C.276.06.462.092.5.187S.442.442.377.652C.2.528.028.466,0,.368S.1.125.152,0Z" transform="translate(0 111.14)" fill="#9b790d"/>
        <path id="Path_25849" data-name="Path 25849" d="M0,.359C.156.188.231.046.343,0,.417-.024.634.1.631.143.622.272.565.457.469.5S.223.435,0,.359Z" transform="translate(60.106 22.911)" fill="#9b790d"/>
        <path id="Path_25850" data-name="Path 25850" d="M.277.709C.179.6.025.494,0,.368A.508.508,0,0,1,.186.007C.22-.025.447.056.476.129a.949.949,0,0,1-.019.39Z" transform="translate(51.298 25.77)" fill="#9b790d"/>
        <path id="Path_25851" data-name="Path 25851" d="M.513.314C.546.379.443.6.389.6.261.612.063.572.013.484S.068.228.131,0C.314.142.459.206.513.314Z" transform="translate(34.673 188.549)" fill="#9b790d"/>
        <path id="Path_25852" data-name="Path 25852" d="M.147,0C.279,0,.471.058.518.152S.437.4.348.625C.182.468.045.391,0,.279-.022.208.1,0,.147,0Z" transform="translate(20.022 173.688)" fill="#9b790d"/>
        <path id="Path_25853" data-name="Path 25853" d="M.212,5.844A4.474,4.474,0,1,1,8.736,3.118a4.427,4.427,0,0,1-2.849,5.6A4.462,4.462,0,0,1,.212,5.844Z" transform="translate(158.669 123.628)" fill="#9b790d"/>
        <path id="Path_25854" data-name="Path 25854" d="M8.759,3.135a4.417,4.417,0,0,1-2.892,5.58A4.558,4.558,0,0,1,.209,5.871,4.571,4.571,0,0,1,3.194.205,4.43,4.43,0,0,1,8.759,3.135Z" transform="translate(165.049 82.192)" fill="#9b790d"/>
        <path id="Path_25855" data-name="Path 25855" d="M8.7,3.1A4.471,4.471,0,0,1,5.8,8.693,4.412,4.412,0,0,1,.216,5.8,4.424,4.424,0,0,1,3.093.209,4.487,4.487,0,0,1,8.7,3.1Z" transform="translate(150.465 67.209)" fill="#9b790d"/>
        <path id="Path_25856" data-name="Path 25856" d="M.21,5.792A4.476,4.476,0,0,1,3.1.2,4.429,4.429,0,0,1,5.742,8.653,4.461,4.461,0,0,1,.21,5.792Z" transform="translate(170.865 100.094)" fill="#9b790d"/>
        <path id="Path_25857" data-name="Path 25857" d="M8.621,3.036A4.419,4.419,0,0,1,.247,5.858,4.383,4.383,0,0,1,3.007.233,4.405,4.405,0,0,1,8.621,3.036Z" transform="translate(111.912 69.778)" fill="#9b790d"/>
        <path id="Path_25858" data-name="Path 25858" d="M8.526,2.967A4.371,4.371,0,0,1,5.748,8.516,4.327,4.327,0,0,1,.22,5.724,4.376,4.376,0,0,1,8.526,2.967Z" transform="translate(162.332 73.359)" fill="#9b790d"/>
        <path id="Path_25859" data-name="Path 25859" d="M8.538,3.007A4.371,4.371,0,0,1,5.795,8.5,4.33,4.33,0,0,1,.234,5.772a4.376,4.376,0,1,1,8.3-2.765Z" transform="translate(138.748 61.225)" fill="#9b790d"/>
        <path id="Path_25860" data-name="Path 25860" d="M8.385,2.932A4.282,4.282,0,0,1,5.614,8.376,4.257,4.257,0,0,1,.226,5.653,4.265,4.265,0,0,1,2.989.209,4.288,4.288,0,0,1,8.385,2.932Z" transform="translate(167.782 120.95)" fill="#9b790d"/>
        <path id="Path_25861" data-name="Path 25861" d="M.208,5.611A4.3,4.3,0,0,1,2.96.213,4.285,4.285,0,0,1,5.61,8.363,4.322,4.322,0,0,1,.208,5.611Z" transform="translate(143.869 138.478)" fill="#9b790d"/>
        <path id="Path_25862" data-name="Path 25862" d="M2.975.208A4.285,4.285,0,0,1,5.6,8.368,4.322,4.322,0,0,1,.2,5.6,4.3,4.3,0,0,1,2.975.208Z" transform="translate(173.866 109.169)" fill="#9b790d"/>
        <path id="Path_25863" data-name="Path 25863" d="M.224,5.6A4.219,4.219,0,0,1,2.91.22,4.278,4.278,0,0,1,8.315,2.905,4.311,4.311,0,0,1,5.609,8.311,4.255,4.255,0,0,1,.224,5.6Z" transform="translate(152.829 135.641)" fill="#9b790d"/>
        <path id="Path_25864" data-name="Path 25864" d="M8.251,2.942A4.228,4.228,0,0,1,.218,5.581,4.271,4.271,0,0,1,2.954.193,4.249,4.249,0,0,1,8.251,2.942Z" transform="translate(159.607 64.564)" fill="#9b790d"/>
        <path id="Path_25865" data-name="Path 25865" d="M.206,5.5A4.189,4.189,0,0,1,2.916.211,4.211,4.211,0,1,1,5.49,8.229,4.188,4.188,0,0,1,.206,5.5Z" transform="translate(147.82 58.52)" fill="#9b790d"/>
        <path id="Path_25866" data-name="Path 25866" d="M2.928.209A4.211,4.211,0,1,1,5.479,8.235,4.188,4.188,0,0,1,.2,5.494,4.189,4.189,0,0,1,2.928.209Z" transform="translate(134.998 141.41)" fill="#9b790d"/>
        <path id="Path_25867" data-name="Path 25867" d="M.221,5.505A4.149,4.149,0,0,1,2.9.2,4.179,4.179,0,1,1,5.457,8.158,4.137,4.137,0,0,1,.221,5.505Z" transform="translate(161.838 132.854)" fill="#9b790d"/>
        <path id="Path_25868" data-name="Path 25868" d="M8.142,2.9A4.132,4.132,0,0,1,5.415,8.159,4.189,4.189,0,0,1,.2,5.461,4.2,4.2,0,0,1,2.948.191,4.143,4.143,0,0,1,8.142,2.9Z" transform="translate(177.173 88.551)" fill="#9b790d"/>
        <path id="Path_25869" data-name="Path 25869" d="M2.921.191A4.183,4.183,0,0,1,8.144,2.876a4.221,4.221,0,0,1-2.73,5.287A4.167,4.167,0,0,1,.21,5.457,4.134,4.134,0,0,1,2.921.191Z" transform="translate(118.23 58.22)" fill="#9b790d"/>
        <path id="Path_25870" data-name="Path 25870" d="M8.107,2.833A4.141,4.141,0,0,1,5.432,8.121,4.194,4.194,0,0,1,.2,5.439,4.163,4.163,0,0,1,2.875.214,4.115,4.115,0,0,1,8.107,2.833Z" transform="translate(174.319 79.646)" fill="#9b790d"/>
        <path id="Path_25871" data-name="Path 25871" d="M.2,5.432A4.165,4.165,0,0,1,2.973.185,4.111,4.111,0,0,1,8.137,2.933,4.141,4.141,0,0,1,5.423,8.126,4.192,4.192,0,0,1,.2,5.432Z" transform="translate(127.149 55.372)" fill="#9b790d"/>
        <path id="Path_25872" data-name="Path 25872" d="M.2,5.362A4.1,4.1,0,0,1,2.832.212a4.106,4.106,0,1,1,2.582,7.8A4.092,4.092,0,0,1,.2,5.362Z" transform="translate(180.096 97.548)" fill="#9b790d"/>
        <path id="Path_25873" data-name="Path 25873" d="M2.819.209A4.095,4.095,0,1,1,5.341,8,4.06,4.06,0,0,1,.2,5.361,4.069,4.069,0,0,1,2.819.209Z" transform="translate(109.361 61.153)" fill="#9b790d"/>
        <path id="Path_25874" data-name="Path 25874" d="M7.962,2.8A4.125,4.125,0,0,1,5.321,7.97,4.068,4.068,0,0,1,.194,5.295,4.043,4.043,0,0,1,2.872.179,4.1,4.1,0,0,1,7.962,2.8Z" transform="translate(171.56 70.793)" fill="#9b790d"/>
        <path id="Path_25875" data-name="Path 25875" d="M.19,5.324A4.1,4.1,0,0,1,2.875.189,4.05,4.05,0,0,1,7.949,2.807a4.038,4.038,0,0,1-2.6,5.153A4.085,4.085,0,0,1,.19,5.324Z" transform="translate(176.923 118.298)" fill="#9b790d"/>
        <path id="Path_25876" data-name="Path 25876" d="M.181,5.3A4.1,4.1,0,0,1,2.9.181,4.052,4.052,0,0,1,7.959,2.837,4.037,4.037,0,0,1,5.316,7.97,4.088,4.088,0,0,1,.181,5.3Z" transform="translate(136.163 52.58)" fill="#9b790d"/>
        <path id="Path_25877" data-name="Path 25877" d="M5.257,7.864A4,4,0,0,1,.2,5.271,4,4,0,0,1,2.775.206,4.025,4.025,0,1,1,5.257,7.864Z" transform="translate(170.907 130.147)" fill="#9b790d"/>
        <path id="Path_25878" data-name="Path 25878" d="M2.842.174a3.99,3.99,0,1,1,2.3,7.642A3.949,3.949,0,0,1,.191,5.192,3.961,3.961,0,0,1,2.842.174Z" transform="translate(156.984 55.872)" fill="#9b790d"/>
        <path id="Path_25879" data-name="Path 25879" d="M7.8,2.842A3.945,3.945,0,0,1,5.164,7.791,3.982,3.982,0,1,1,7.8,2.842Z" transform="translate(183.086 106.602)" fill="#9b790d"/>
        <path id="Path_25880" data-name="Path 25880" d="M5.187,7.659A3.908,3.908,0,0,1,.192,5.133,3.906,3.906,0,0,1,2.7.2,3.929,3.929,0,1,1,5.187,7.659Z" transform="translate(147.074 147.761)" fill="#9b790d"/>
        <path id="Path_25881" data-name="Path 25881" d="M2.7.2A3.915,3.915,0,1,1,5.117,7.65,3.915,3.915,0,0,1,2.7.2Z" transform="translate(168.838 62.018)" fill="#9b790d"/>
        <path id="Path_25882" data-name="Path 25882" d="M7.69,2.775A3.9,3.9,0,0,1,5.1,7.658,3.915,3.915,0,0,1,2.723.2,3.906,3.906,0,0,1,7.69,2.775Z" transform="translate(145.253 49.882)" fill="#9b790d"/>
        <path id="Path_25883" data-name="Path 25883" d="M5.084,7.662A3.916,3.916,0,0,1,2.732.192a3.916,3.916,0,1,1,2.352,7.47Z" transform="translate(156.017 144.908)" fill="#9b790d"/>
        <path id="Path_25884" data-name="Path 25884" d="M.183,5.043A3.859,3.859,0,0,1,2.744.169,3.918,3.918,0,0,1,7.589,2.681,3.9,3.9,0,0,1,5.06,7.587,3.845,3.845,0,0,1,.183,5.043Z" transform="translate(138.207 150.666)" fill="#9b790d"/>
        <path id="Path_25885" data-name="Path 25885" d="M5.027,7.528A3.882,3.882,0,0,1,.181,5.035,3.892,3.892,0,0,1,2.669.181,3.858,3.858,0,0,1,5.027,7.528Z" transform="translate(165.029 142.111)" fill="#9b790d"/>
        <path id="Path_25886" data-name="Path 25886" d="M7.435,2.6A3.8,3.8,0,0,1,5.059,7.4,3.769,3.769,0,0,1,.2,5.012,3.778,3.778,0,0,1,2.56.21,3.812,3.812,0,0,1,7.435,2.6Z" transform="translate(186.478 86.058)" fill="#9b790d"/>
        <path id="Path_25887" data-name="Path 25887" d="M4.965,7.434A3.764,3.764,0,0,1,.2,5.01,3.777,3.777,0,0,1,2.654.183,3.806,3.806,0,1,1,4.965,7.434Z" transform="translate(180.066 127.501)" fill="#9b790d"/>
        <path id="Path_25888" data-name="Path 25888" d="M7.449,2.643a3.8,3.8,0,0,1-2.519,4.8A3.764,3.764,0,0,1,.189,4.976a3.776,3.776,0,0,1,2.5-4.8A3.813,3.813,0,0,1,7.449,2.643Z" transform="translate(115.721 49.647)" fill="#9b790d"/>
        <path id="Path_25889" data-name="Path 25889" d="M2.6.191a3.828,3.828,0,0,1,4.8,2.4A3.848,3.848,0,0,1,4.941,7.441,3.793,3.793,0,0,1,.189,4.968,3.776,3.776,0,0,1,2.6.191Z" transform="translate(183.632 77.132)" fill="#9b790d"/>
        <path id="Path_25890" data-name="Path 25890" d="M5,7.43a3.85,3.85,0,0,1-4.831-2.5,3.826,3.826,0,0,1,2.5-4.75,3.775,3.775,0,0,1,4.748,2.47A3.793,3.793,0,0,1,5,7.43Z" transform="translate(186.134 115.715)" fill="#9b790d"/>
        <path id="Path_25891" data-name="Path 25891" d="M7.43,2.69A3.753,3.753,0,0,1,4.946,7.422,3.8,3.8,0,1,1,7.43,2.69Z" transform="translate(124.651 46.794)" fill="#9b790d"/>
        <path id="Path_25892" data-name="Path 25892" d="M7.322,2.562A3.759,3.759,0,0,1,4.937,7.351,3.8,3.8,0,0,1,.2,4.984,3.813,3.813,0,0,1,2.6.183,3.772,3.772,0,0,1,7.322,2.562Z" transform="translate(106.832 52.552)" fill="#9b790d"/>
        <path id="Path_25893" data-name="Path 25893" d="M7.337,2.569A3.753,3.753,0,0,1,4.884,7.32a3.721,3.721,0,0,1-4.691-2.4A3.72,3.72,0,0,1,2.63.179,3.749,3.749,0,0,1,7.337,2.569Z" transform="translate(189.392 95.048)" fill="#9b790d"/>
        <path id="Path_25894" data-name="Path 25894" d="M7.281,2.63A3.739,3.739,0,0,1,4.846,7.313,3.766,3.766,0,0,1,.167,4.853,3.765,3.765,0,0,1,2.614.168,3.736,3.736,0,0,1,7.281,2.63Z" transform="translate(180.831 68.267)" fill="#9b790d"/>
        <path id="Path_25895" data-name="Path 25895" d="M7.263,2.576A3.738,3.738,0,0,1,4.9,7.3,3.762,3.762,0,0,1,.186,4.914,3.764,3.764,0,0,1,2.556.189,3.737,3.737,0,0,1,7.263,2.576Z" transform="translate(133.66 43.992)" fill="#9b790d"/>
        <path id="Path_25896" data-name="Path 25896" d="M7.243,2.576a3.666,3.666,0,0,1-2.4,4.67,3.706,3.706,0,1,1,2.4-4.67Z" transform="translate(154.391 47.225)" fill="#9b790d"/>
        <path id="Path_25897" data-name="Path 25897" d="M7.257,2.605A3.76,3.76,0,0,1,4.888,7.253,3.724,3.724,0,1,1,7.257,2.605Z" transform="translate(166.203 53.29)" fill="#9b790d"/>
        <path id="Path_25898" data-name="Path 25898" d="M.173,4.8A3.674,3.674,0,0,1,2.543.181,3.722,3.722,0,0,1,7.233,2.592,3.707,3.707,0,0,1,4.749,7.238,3.662,3.662,0,0,1,.173,4.8Z" transform="translate(174.117 139.406)" fill="#9b790d"/>
        <path id="Path_25899" data-name="Path 25899" d="M4.761,7.077A3.6,3.6,0,0,1,.169,4.711,3.6,3.6,0,0,1,2.514.181a3.626,3.626,0,1,1,2.247,6.9Z" transform="translate(192.374 104.096)" fill="#9b790d"/>
        <path id="Path_25900" data-name="Path 25900" d="M7.284,2.593a3.635,3.635,0,0,1,.156,1.424A3.73,3.73,0,0,1,4.9,7.3,3.763,3.763,0,0,1,.186,4.912,3.765,3.765,0,0,1,2.556.187,3.668,3.668,0,0,1,5.462.446,3.609,3.609,0,0,1,7.284,2.593Z" transform="translate(97.859 55.496)" fill="#9b790d"/>
        <path id="Path_25901" data-name="Path 25901" d="M6.972,2.444A3.57,3.57,0,0,1,4.693,7,3.615,3.615,0,0,1,.186,4.739,3.633,3.633,0,0,1,2.484.173,3.583,3.583,0,0,1,6.972,2.444Z" transform="translate(142.731 41.285)" fill="#9b790d"/>
        <path id="Path_25902" data-name="Path 25902" d="M6.98,2.421A3.591,3.591,0,0,1,4.67,6.966,3.543,3.543,0,0,1,.192,4.709,3.535,3.535,0,0,1,2.481.176,3.585,3.585,0,0,1,6.98,2.421Z" transform="translate(178.125 59.508)" fill="#9b790d"/>
        <path id="Path_25903" data-name="Path 25903" d="M.2,4.717A3.526,3.526,0,0,1,2.374.2,3.513,3.513,0,0,1,6.891,2.363a3.511,3.511,0,0,1-2.17,4.51A3.521,3.521,0,0,1,.2,4.717Z" transform="translate(150.301 156.993)" fill="#9b790d"/>
        <path id="Path_25904" data-name="Path 25904" d="M.206,4.715A3.518,3.518,0,0,1,2.373.2,3.534,3.534,0,1,1,4.724,6.868,3.508,3.508,0,0,1,.206,4.715Z" transform="translate(159.234 154.132)" fill="#9b790d"/>
        <path id="Path_25905" data-name="Path 25905" d="M.15,4.544a3.532,3.532,0,0,1,2.3-4.38A3.565,3.565,0,0,1,6.9,2.486,3.57,3.57,0,0,1,4.56,6.932,3.534,3.534,0,0,1,.15,4.544Z" transform="translate(189.282 124.91)" fill="#9b790d"/>
        <path id="Path_25906" data-name="Path 25906" d="M.181,4.6A3.482,3.482,0,0,1,2.365.182,3.543,3.543,0,0,1,6.843,2.44,3.528,3.528,0,0,1,4.571,6.832,3.466,3.466,0,0,1,.181,4.6Z" transform="translate(141.43 159.891)" fill="#9b790d"/>
        <path id="Path_25907" data-name="Path 25907" d="M.157,4.566A3.544,3.544,0,0,1,2.433.172a3.481,3.481,0,0,1,4.39,2.241A3.468,3.468,0,0,1,4.632,6.824,3.529,3.529,0,0,1,.157,4.566Z" transform="translate(183.226 136.735)" fill="#9b790d"/>
        <path id="Path_25908" data-name="Path 25908" d="M.174,4.577A3.518,3.518,0,0,1,2.4.167a3.482,3.482,0,1,1,2.1,6.64A3.506,3.506,0,0,1,.174,4.577Z" transform="translate(168.235 151.325)" fill="#9b790d"/>
        <path id="Path_25909" data-name="Path 25909" d="M.168,4.529A3.477,3.477,0,0,1,2.428.149,3.468,3.468,0,0,1,4.476,6.776,3.474,3.474,0,0,1,.168,4.529Z" transform="translate(195.422 113.194)" fill="#9b790d"/>
        <path id="Path_25910" data-name="Path 25910" d="M6.728,2.484a3.437,3.437,0,0,1-2.292,4.27A3.476,3.476,0,0,1,.151,4.464,3.473,3.473,0,0,1,2.4.16,3.433,3.433,0,0,1,6.728,2.484Z" transform="translate(163.603 44.63)" fill="#9b790d"/>
        <path id="Path_25911" data-name="Path 25911" d="M6.637,2.35a3.376,3.376,0,0,1-2.181,4.3,3.429,3.429,0,0,1-4.3-2.216A3.447,3.447,0,0,1,2.325.179,3.389,3.389,0,0,1,6.637,2.35Z" transform="translate(195.801 83.593)" fill="#9b790d"/>
        <path id="Path_25912" data-name="Path 25912" d="M2.368.163a3.416,3.416,0,0,1,4.3,2.218A3.446,3.446,0,0,1,4.48,6.631,3.386,3.386,0,0,1,.175,4.45,3.357,3.357,0,0,1,2.368.163Z" transform="translate(113.27 41.133)" fill="#9b790d"/>
        <path id="Path_25913" data-name="Path 25913" d="M2.283.2a3.35,3.35,0,0,1,4.3,2.038,3.356,3.356,0,0,1-2.1,4.351,3.4,3.4,0,0,1-4.3-2.1A3.392,3.392,0,0,1,2.283.2Z" transform="translate(122.194 38.288)" fill="#9b790d"/>
        <path id="Path_25914" data-name="Path 25914" d="M6.611,2.312A3.356,3.356,0,0,1,4.4,6.61a3.405,3.405,0,0,1-4.247-2.2,3.393,3.393,0,0,1,2.2-4.24A3.346,3.346,0,0,1,6.611,2.312Z" transform="translate(192.951 74.694)" fill="#9b790d"/>
        <path id="Path_25915" data-name="Path 25915" d="M2.348.153A3.42,3.42,0,0,1,6.589,2.34,3.412,3.412,0,0,1,4.347,6.624a3.386,3.386,0,0,1-2-6.47Z" transform="translate(151.88 38.627)" fill="#9b790d"/>
        <path id="Path_25916" data-name="Path 25916" d="M6.578,2.31a3.413,3.413,0,0,1-2.2,4.3A3.386,3.386,0,0,1,2.316.164,3.422,3.422,0,0,1,6.578,2.31Z" transform="translate(175.466 50.762)" fill="#9b790d"/>
        <path id="Path_25917" data-name="Path 25917" d="M.172,4.395a3.325,3.325,0,0,1,2.07-4.2A3.344,3.344,0,1,1,4.425,6.511,3.316,3.316,0,0,1,.172,4.395Z" transform="translate(198.724 92.589)" fill="#9b790d"/>
        <path id="Path_25918" data-name="Path 25918" d="M2.389.141A3.331,3.331,0,1,1,4.281,6.53a3.292,3.292,0,0,1-4.124-2.2A3.3,3.3,0,0,1,2.389.141Z" transform="translate(104.404 44.054)" fill="#9b790d"/>
        <path id="Path_25919" data-name="Path 25919" d="M4.338,6.478A3.281,3.281,0,0,1,.173,4.367,3.3,3.3,0,0,1,2.244.175,3.343,3.343,0,0,1,6.492,2.316,3.333,3.333,0,0,1,4.338,6.478Z" transform="translate(177.329 148.622)" fill="#9b790d"/>
        <path id="Path_25920" data-name="Path 25920" d="M2.313.156A3.312,3.312,0,0,1,4.32,6.469,3.339,3.339,0,0,1,.151,4.322,3.353,3.353,0,0,1,2.313.156Z" transform="translate(131.21 35.49)" fill="#9b790d"/>
        <path id="Path_25921" data-name="Path 25921" d="M6.481,2.322A3.347,3.347,0,0,1,4.276,6.461a3.284,3.284,0,0,1-4.123-2.2A3.262,3.262,0,0,1,2.336.146,3.322,3.322,0,0,1,6.481,2.322Z" transform="translate(190.189 65.846)" fill="#9b790d"/>
        <path id="Path_25922" data-name="Path 25922" d="M6.3,2.283a3.183,3.183,0,0,1-2.051,4A3.241,3.241,0,0,1,.154,4.227,3.253,3.253,0,0,1,2.26.154,3.2,3.2,0,0,1,6.3,2.283Z" transform="translate(201.708 101.637)" fill="#9b790d"/>
        <path id="Path_25923" data-name="Path 25923" d="M4.256,6.29A3.267,3.267,0,0,1,.15,4.2,3.234,3.234,0,0,1,2.215.171,3.183,3.183,0,0,1,6.293,2.253,3.214,3.214,0,0,1,4.256,6.29Z" transform="translate(192.433 134.158)" fill="#9b790d"/>
        <path id="Path_25924" data-name="Path 25924" d="M.149,4.156A3.2,3.2,0,0,1,2.223.143,3.239,3.239,0,0,1,6.237,2.236a3.223,3.223,0,0,1-2.09,4.012A3.192,3.192,0,0,1,.149,4.156Z" transform="translate(198.551 122.39)" fill="#9b790d"/>
        <path id="Path_25925" data-name="Path 25925" d="M6.2,2.219A3.141,3.141,0,0,1,4.094,6.185,3.158,3.158,0,0,1,2.212.155,3.146,3.146,0,0,1,6.2,2.219Z" transform="translate(187.455 57.049)" fill="#9b790d"/>
        <path id="Path_25926" data-name="Path 25926" d="M2.2.158A3.158,3.158,0,1,1,4.1,6.182,3.158,3.158,0,0,1,2.2.158Z" transform="translate(140.287 32.778)" fill="#9b790d"/>
        <path id="Path_25927" data-name="Path 25927" d="M4.08,6.067A3.144,3.144,0,0,1,.142,4.062,3.156,3.156,0,0,1,2.186.139,3.112,3.112,0,0,1,4.08,6.067Z" transform="translate(186.459 145.969)" fill="#9b790d"/>
        <path id="Path_25928" data-name="Path 25928" d="M4.042,6.046A3.09,3.09,0,1,1,2.191.149,3.063,3.063,0,0,1,6.084,2.213,3.071,3.071,0,0,1,4.042,6.046Z" transform="translate(153.596 166.367)" fill="#9b790d"/>
        <path id="Path_25929" data-name="Path 25929" d="M2.141.146A3.1,3.1,0,0,1,4.08,6.03,3.121,3.121,0,0,1,.137,4.02,3.129,3.129,0,0,1,2.141.146Z" transform="translate(172.887 42.118)" fill="#9b790d"/>
        <path id="Path_25930" data-name="Path 25930" d="M2.089.168A3.07,3.07,0,1,1,4.033,5.992,3.053,3.053,0,0,1,.16,4.049,3.055,3.055,0,0,1,2.089.168Z" transform="translate(161.098 36.074)" fill="#9b790d"/>
        <path id="Path_25931" data-name="Path 25931" d="M4,6A3.05,3.05,0,0,1,.149,4.014,3.057,3.057,0,0,1,2.125.157,3.07,3.07,0,1,1,4,6Z" transform="translate(162.558 163.526)" fill="#9b790d"/>
        <path id="Path_25932" data-name="Path 25932" d="M.135,3.936A3.043,3.043,0,0,1,2.094.158,2.983,2.983,0,0,1,5.92,2.129,3.014,3.014,0,0,1,3.99,5.913,3.074,3.074,0,0,1,.135,3.936Z" transform="translate(204.763 110.768)" fill="#9b790d"/>
        <path id="Path_25933" data-name="Path 25933" d="M3.94,5.887A3.02,3.02,0,0,1,2.023.159,3.066,3.066,0,0,1,5.89,2.1,3.049,3.049,0,0,1,3.94,5.887Z" transform="translate(171.569 160.718)" fill="#9b790d"/>
        <path id="Path_25934" data-name="Path 25934" d="M3.852,5.768A2.949,2.949,0,1,1,2.118.131,2.919,2.919,0,0,1,5.778,2.093,2.908,2.908,0,0,1,3.852,5.768Z" transform="translate(149.425 30.122)" fill="#9b790d"/>
        <path id="Path_25935" data-name="Path 25935" d="M2,.152A2.99,2.99,0,0,1,5.78,2.086,3,3,0,0,1,3.851,5.793,2.968,2.968,0,0,1,2,.152Z" transform="translate(184.82 48.32)" fill="#9b790d"/>
        <path id="Path_25936" data-name="Path 25936" d="M5.711,2.05a2.888,2.888,0,0,1-1.87,3.632,2.938,2.938,0,0,1-3.713-1.9A2.927,2.927,0,0,1,2.024.152,2.874,2.874,0,0,1,5.711,2.05Z" transform="translate(205.214 81.229)" fill="#9b790d"/>
        <path id="Path_25937" data-name="Path 25937" d="M3.845,5.681A2.937,2.937,0,0,1,.13,3.789,2.927,2.927,0,0,1,2.021.153,2.875,2.875,0,0,1,5.71,2.047,2.887,2.887,0,0,1,3.845,5.681Z" transform="translate(110.874 32.686)" fill="#9b790d"/>
        <path id="Path_25938" data-name="Path 25938" d="M5.667,2.035A2.91,2.91,0,0,1,3.811,5.679,2.936,2.936,0,0,1,.148,3.839,2.95,2.95,0,0,1,2.046.126,2.922,2.922,0,0,1,5.667,2.035Z" transform="translate(202.377 72.3)" fill="#9b790d"/>
        <path id="Path_25939" data-name="Path 25939" d="M3.771,5.642A2.864,2.864,0,0,1,.146,3.785,2.865,2.865,0,0,1,1.984.151,2.887,2.887,0,1,1,3.771,5.642Z" transform="translate(119.835 29.848)" fill="#9b790d"/>
        <path id="Path_25940" data-name="Path 25940" d="M3.728,5.608A2.874,2.874,0,1,1,2.028.117,2.9,2.9,0,0,1,5.582,1.974,2.9,2.9,0,0,1,3.728,5.608Z" transform="translate(201.745 131.651)" fill="#9b790d"/>
        <path id="Path_25941" data-name="Path 25941" d="M5.561,1.919A2.9,2.9,0,0,1,3.787,5.591,2.86,2.86,0,0,1,.182,3.862,2.847,2.847,0,0,1,1.881.171,2.888,2.888,0,0,1,5.561,1.919Z" transform="translate(208.156 90.202)" fill="#9b790d"/>
        <path id="Path_25942" data-name="Path 25942" d="M5.586,2A2.813,2.813,0,0,1,3.8,5.558,2.855,2.855,0,1,1,1.982.145,2.825,2.825,0,0,1,5.586,2Z" transform="translate(102.005 35.6)" fill="#9b790d"/>
        <path id="Path_25943" data-name="Path 25943" d="M.144,3.754A2.876,2.876,0,0,1,2.018.128,2.819,2.819,0,0,1,5.551,2,2.8,2.8,0,0,1,3.73,5.55,2.858,2.858,0,0,1,.144,3.754Z" transform="translate(180.649 158.026)" fill="#9b790d"/>
        <path id="Path_25944" data-name="Path 25944" d="M1.912.144a2.878,2.878,0,0,1,3.6,1.781A2.866,2.866,0,0,1,3.721,5.512,2.809,2.809,0,0,1,.15,3.73,2.822,2.822,0,0,1,1.912.144Z" transform="translate(199.605 63.45)" fill="#9b790d"/>
        <path id="Path_25945" data-name="Path 25945" d="M3.681,5.524A2.807,2.807,0,0,1,.138,3.689,2.82,2.82,0,0,1,1.954.13,2.879,2.879,0,0,1,5.523,1.964,2.863,2.863,0,0,1,3.681,5.524Z" transform="translate(128.849 27.044)" fill="#9b790d"/>
        <path id="Path_25946" data-name="Path 25946" d="M.124,3.658A2.826,2.826,0,0,1,2.006.133,2.779,2.779,0,0,1,5.527,1.986,2.793,2.793,0,0,1,3.67,5.51,2.84,2.84,0,0,1,.124,3.658Z" transform="translate(195.664 143.403)" fill="#9b790d"/>
        <path id="Path_25947" data-name="Path 25947" d="M3.621,5.412A2.763,2.763,0,0,1,.141,3.625,2.749,2.749,0,0,1,1.9.134a2.8,2.8,0,0,1,3.5,1.774A2.814,2.814,0,0,1,3.621,5.412Z" transform="translate(207.91 119.956)" fill="#9b790d"/>
        <path id="Path_25948" data-name="Path 25948" d="M.131,3.563A2.731,2.731,0,0,1,1.971.118a2.684,2.684,0,0,1,3.367,1.81A2.692,2.692,0,0,1,3.552,5.312,2.739,2.739,0,0,1,.131,3.563Z" transform="translate(211.133 99.283)" fill="#9b790d"/>
        <path id="Path_25949" data-name="Path 25949" d="M3.6,5.294A2.741,2.741,0,0,1,.146,3.6,2.73,2.73,0,0,1,1.84.159,2.686,2.686,0,0,1,5.3,1.792,2.694,2.694,0,0,1,3.6,5.294Z" transform="translate(170.372 33.569)" fill="#9b790d"/>
        <path id="Path_25950" data-name="Path 25950" d="M3.524,5.2a2.665,2.665,0,0,1-3.4-1.741A2.643,2.643,0,0,1,1.841.127,2.692,2.692,0,0,1,5.2,1.825,2.708,2.708,0,0,1,3.524,5.2Z" transform="translate(196.904 54.685)" fill="#9b790d"/>
        <path id="Path_25951" data-name="Path 25951" d="M3.554,5.171A2.673,2.673,0,0,1,.126,3.486,2.684,2.684,0,0,1,1.832.139,2.633,2.633,0,0,1,5.18,1.807,2.62,2.62,0,0,1,3.554,5.171Z" transform="translate(137.923 24.347)" fill="#9b790d"/>
        <path id="Path_25952" data-name="Path 25952" d="M3.476,5.155A2.682,2.682,0,0,1,.128,3.463,2.656,2.656,0,0,1,1.841.136,2.6,2.6,0,0,1,5.16,1.823,2.623,2.623,0,0,1,3.476,5.155Z" transform="translate(182.247 39.716)" fill="#9b790d"/>
        <path id="Path_25953" data-name="Path 25953" d="M3.481,5.154A2.685,2.685,0,0,1,.129,3.467,2.657,2.657,0,0,1,1.836.138,2.6,2.6,0,0,1,5.158,1.819,2.623,2.623,0,0,1,3.481,5.154Z" transform="translate(158.662 27.58)" fill="#9b790d"/>
        <path id="Path_25954" data-name="Path 25954" d="M1.8.127A2.674,2.674,0,0,1,5.128,1.833,2.663,2.663,0,0,1,3.483,5.118,2.634,2.634,0,1,1,1.8.127Z" transform="translate(189.816 155.381)" fill="#9b790d"/>
        <path id="Path_25955" data-name="Path 25955" d="M3.314,4.928A2.547,2.547,0,0,1,.125,3.322a2.559,2.559,0,0,1,1.6-3.2,2.53,2.53,0,0,1,1.589,4.8Z" transform="translate(214.214 108.404)" fill="#9b790d"/>
        <path id="Path_25956" data-name="Path 25956" d="M3.217,4.741A2.439,2.439,0,1,1,1.719.1,2.475,2.475,0,0,1,4.743,1.688,2.467,2.467,0,0,1,3.217,4.741Z" transform="translate(147.103 21.713)" fill="#9b790d"/>
        <path id="Path_25957" data-name="Path 25957" d="M3.168,4.758A2.44,2.44,0,0,1,1.679.111,2.478,2.478,0,0,1,4.76,1.738,2.467,2.467,0,0,1,3.168,4.758Z" transform="translate(194.272 45.985)" fill="#9b790d"/>
        <path id="Path_25958" data-name="Path 25958" d="M1.646.133A2.414,2.414,0,1,1,3.209,4.7,2.394,2.394,0,0,1,.119,3.157,2.394,2.394,0,0,1,1.646.133Z" transform="translate(205.005 140.94)" fill="#9b790d"/>
        <path id="Path_25959" data-name="Path 25959" d="M.106,3.088A2.37,2.37,0,0,1,1.715.1,2.392,2.392,0,1,1,3.09,4.688,2.362,2.362,0,0,1,.106,3.088Z" transform="translate(211.127 129.257)" fill="#9b790d"/>
        <path id="Path_25960" data-name="Path 25960" d="M3.01,4.538A2.326,2.326,0,0,1,1.6.1,2.343,2.343,0,0,1,4.5,1.579,2.338,2.338,0,0,1,3.01,4.538Z" transform="translate(108.639 24.347)" fill="#9b790d"/>
        <path id="Path_25961" data-name="Path 25961" d="M4.509,1.6a2.27,2.27,0,0,1-1.445,2.88A2.3,2.3,0,1,1,1.563.131,2.276,2.276,0,0,1,4.509,1.6Z" transform="translate(214.761 78.975)" fill="#9b790d"/>
        <path id="Path_25962" data-name="Path 25962" d="M3.008,4.48a2.334,2.334,0,0,1-2.9-1.473A2.315,2.315,0,0,1,1.582.115,2.273,2.273,0,0,1,4.458,1.587,2.29,2.29,0,0,1,3.008,4.48Z" transform="translate(117.578 21.514)" fill="#9b790d"/>
        <path id="Path_25963" data-name="Path 25963" d="M2.953,4.5A2.332,2.332,0,0,1,.094,2.952,2.313,2.313,0,0,1,1.634.1,2.272,2.272,0,0,1,4.473,1.64,2.288,2.288,0,0,1,2.953,4.5Z" transform="translate(211.92 70.058)" fill="#9b790d"/>
        <path id="Path_25964" data-name="Path 25964" d="M1.572.122A2.252,2.252,0,0,1,4.453,1.569,2.242,2.242,0,0,1,3.016,4.452a2.3,2.3,0,0,1-2.9-1.436A2.3,2.3,0,0,1,1.572.122Z" transform="translate(199.067 152.861)" fill="#9b790d"/>
        <path id="Path_25965" data-name="Path 25965" d="M2.926,4.394A2.275,2.275,0,0,1,.109,2.954,2.288,2.288,0,0,1,1.608.087,2.252,2.252,0,0,1,2.926,4.394Z" transform="translate(179.797 31.173)" fill="#9b790d"/>
        <path id="Path_25966" data-name="Path 25966" d="M2.91,4.356a2.238,2.238,0,0,1-2.8-1.434A2.238,2.238,0,0,1,1.544.121,2.2,2.2,0,0,1,4.39,1.59,2.2,2.2,0,0,1,2.91,4.356Z" transform="translate(99.764 27.301)" fill="#9b790d"/>
        <path id="Path_25967" data-name="Path 25967" d="M.1,2.9A2.239,2.239,0,0,1,1.563.115,2.2,2.2,0,0,1,4.4,1.61,2.2,2.2,0,0,1,2.89,4.362,2.236,2.236,0,0,1,.1,2.9Z" transform="translate(217.69 87.979)" fill="#9b790d"/>
        <path id="Path_25968" data-name="Path 25968" d="M2.979,4.326A2.205,2.205,0,0,1,.138,2.993,2.2,2.2,0,0,1,1.452.145,2.226,2.226,0,1,1,2.979,4.326Z" transform="translate(168.012 25.129)" fill="#9b790d"/>
        <path id="Path_25969" data-name="Path 25969" d="M.111,2.93A2.253,2.253,0,0,1,1.509.113,2.23,2.23,0,0,1,2.92,4.343,2.252,2.252,0,0,1,.111,2.93Z" transform="translate(217.38 117.635)" fill="#9b790d"/>
        <path id="Path_25970" data-name="Path 25970" d="M2.9,4.259A2.194,2.194,0,0,1,.1,2.852,2.211,2.211,0,0,1,1.495.119a2.16,2.16,0,0,1,2.779,1.42A2.145,2.145,0,0,1,2.9,4.259Z" transform="translate(126.606 18.753)" fill="#9b790d"/>
        <path id="Path_25971" data-name="Path 25971" d="M2.879,4.278A2.186,2.186,0,0,1,.1,2.834,2.165,2.165,0,0,1,1.49.11,2.216,2.216,0,0,1,4.284,1.538,2.237,2.237,0,0,1,2.879,4.278Z" transform="translate(209.172 61.23)" fill="#9b790d"/>
        <path id="Path_25972" data-name="Path 25972" d="M2.757,4.066A2.076,2.076,0,0,1,.109,2.731,2.051,2.051,0,0,1,1.453.1,2.107,2.107,0,0,1,4.089,1.473,2.133,2.133,0,0,1,2.757,4.066Z" transform="translate(191.756 37.408)" fill="#9b790d"/>
        <path id="Path_25973" data-name="Path 25973" d="M1.5.089A2.066,2.066,0,0,1,4.062,1.432,2.053,2.053,0,0,1,2.734,4.074,2.1,2.1,0,0,1,.09,2.713,2.117,2.117,0,0,1,1.5.089Z" transform="translate(220.705 97.049)" fill="#9b790d"/>
        <path id="Path_25974" data-name="Path 25974" d="M2.763,4.064A2.1,2.1,0,0,1,.1,2.741,2.116,2.116,0,0,1,1.47.1,2.064,2.064,0,0,1,4.053,1.4,2.052,2.052,0,0,1,2.763,4.064Z" transform="translate(156.36 19.197)" fill="#9b790d"/>
        <path id="Path_25975" data-name="Path 25975" d="M2.534,3.929A1.962,1.962,0,0,1,.091,2.58,1.971,1.971,0,0,1,1.376.1,2.02,2.02,0,0,1,3.93,1.419,2.012,2.012,0,0,1,2.534,3.929Z" transform="translate(135.735 16.078)" fill="#9b790d"/>
        <path id="Path_25976" data-name="Path 25976" d="M2.582,3.914A1.96,1.96,0,0,1,.106,2.629,1.974,1.974,0,0,1,1.417.087a2.021,2.021,0,0,1,2.5,1.285A2.009,2.009,0,0,1,2.582,3.914Z" transform="translate(206.491 52.485)" fill="#9b790d"/>
        <path id="Path_25977" data-name="Path 25977" d="M1.415.085A1.972,1.972,0,0,1,3.874,1.42,1.958,1.958,0,0,1,2.561,3.885,2.013,2.013,0,0,1,.079,2.563,2.025,2.025,0,0,1,1.415.085Z" transform="translate(193.305 164.956)" fill="#9b790d"/>
        <path id="Path_25978" data-name="Path 25978" d="M1.35.088A1.861,1.861,0,0,1,3.692,1.3,1.89,1.89,0,0,1,2.461,3.71,1.935,1.935,0,0,1,.1,2.5,1.909,1.909,0,0,1,1.35.088Z" transform="translate(214.456 138.605)" fill="#9b790d"/>
        <path id="Path_25979" data-name="Path 25979" d="M1.252.093A1.85,1.85,0,0,1,2.418,3.6,1.868,1.868,0,0,1,.077,2.385,1.877,1.877,0,0,1,1.252.093Z" transform="translate(208.457 150.44)" fill="#9b790d"/>
        <path id="Path_25980" data-name="Path 25980" d="M.107,2.436A1.806,1.806,0,0,1,1.271.091,1.824,1.824,0,1,1,2.394,3.562,1.8,1.8,0,0,1,.107,2.436Z" transform="translate(223.833 106.241)" fill="#9b790d"/>
        <path id="Path_25981" data-name="Path 25981" d="M.076,2.327A1.841,1.841,0,0,1,1.2.1,1.785,1.785,0,0,1,2.365,3.471,1.818,1.818,0,0,1,.076,2.327Z" transform="translate(220.675 127.006)" fill="#9b790d"/>
        <path id="Path_25982" data-name="Path 25982" d="M2.329,3.31A1.726,1.726,0,0,1,.093,2.285,1.741,1.741,0,0,1,1.107.114,1.692,1.692,0,0,1,3.324,1.152,1.675,1.675,0,0,1,2.329,3.31Z" transform="translate(203.905 43.844)" fill="#9b790d"/>
        <path id="Path_25983" data-name="Path 25983" d="M2.269,3.337A1.709,1.709,0,0,1,.084,2.222,1.687,1.687,0,0,1,1.147.091a1.74,1.74,0,0,1,2.2,1.1A1.758,1.758,0,0,1,2.269,3.337Z" transform="translate(144.961 13.509)" fill="#9b790d"/>
        <path id="Path_25984" data-name="Path 25984" d="M2.2,3.263A1.7,1.7,0,0,1,.077,2.189,1.69,1.69,0,0,1,1.184.086a1.639,1.639,0,0,1,2.1,1.076A1.647,1.647,0,0,1,2.2,3.263Z" transform="translate(177.488 22.821)" fill="#9b790d"/>
        <path id="Path_25985" data-name="Path 25985" d="M1.059.08A1.625,1.625,0,0,1,3.1,1.141,1.615,1.615,0,0,1,2.044,3.1,1.59,1.59,0,0,1,1.059.08Z" transform="translate(202.652 162.493)" fill="#9b790d"/>
        <path id="Path_25986" data-name="Path 25986" d="M2.074,3.06a1.579,1.579,0,0,1-1.99-.974A1.579,1.579,0,0,1,1.058.1,1.545,1.545,0,0,1,3.092,1.1,1.547,1.547,0,0,1,2.074,3.06Z" transform="translate(165.799 16.854)" fill="#9b790d"/>
        <path id="Path_25987" data-name="Path 25987" d="M2,3.081A1.577,1.577,0,0,1,.061,2.018,1.58,1.58,0,0,1,1.125.075a1.545,1.545,0,0,1,1.986,1.1A1.548,1.548,0,0,1,2,3.081Z" transform="translate(189.385 28.99)" fill="#9b790d"/>
        <path id="Path_25988" data-name="Path 25988" d="M1.887,2.812A1.478,1.478,0,0,1,.068,1.888,1.463,1.463,0,0,1,.991.073,1.414,1.414,0,0,1,2.789,1,1.43,1.43,0,0,1,1.887,2.812Z" transform="translate(224.567 76.979)" fill="#9b790d"/>
        <path id="Path_25989" data-name="Path 25989" d="M1.856,2.824a1.483,1.483,0,0,1-1.8-.967A1.465,1.465,0,0,1,1.022.064,1.408,1.408,0,0,1,2.8,1.029,1.432,1.432,0,0,1,1.856,2.824Z" transform="translate(106.641 16.301)" fill="#9b790d"/>
        <path id="Path_25990" data-name="Path 25990" d="M.995.062A1.464,1.464,0,0,1,2.8,1a1.48,1.48,0,0,1-.943,1.809A1.427,1.427,0,0,1,.069,1.86,1.415,1.415,0,0,1,.995.062Z" transform="translate(227.103 115.566)" fill="#9b790d"/>
        <path id="Path_25991" data-name="Path 25991" d="M1.807,2.748A1.443,1.443,0,0,1,.061,1.833,1.449,1.449,0,0,1,1.043.044a1.406,1.406,0,0,1,.764,2.7Z" transform="translate(221.74 68.083)" fill="#9b790d"/>
        <path id="Path_25992" data-name="Path 25992" d="M1.818,2.7a1.366,1.366,0,0,1-1.74-.87A1.358,1.358,0,0,1,.925.083,1.4,1.4,0,0,1,2.739.972,1.411,1.411,0,0,1,1.818,2.7Z" transform="translate(115.62 13.495)" fill="#9b790d"/>
        <path id="Path_25993" data-name="Path 25993" d="M.053,1.732A1.362,1.362,0,0,1,.994.042a1.389,1.389,0,0,1,1.647.9A1.392,1.392,0,0,1,1.748,2.67,1.367,1.367,0,0,1,.053,1.732Z" transform="translate(227.524 85.986)" fill="#9b790d"/>
        <path id="Path_25994" data-name="Path 25994" d="M1.689,2.653A1.343,1.343,0,0,1,.054,1.734,1.358,1.358,0,0,1,1.024.047,1.32,1.32,0,0,1,2.648.974,1.313,1.313,0,0,1,1.689,2.653Z" transform="translate(97.791 19.25)" fill="#9b790d"/>
        <path id="Path_25995" data-name="Path 25995" d="M1.686,2.5a1.3,1.3,0,0,1-1.64-.871A1.3,1.3,0,0,1,.9.051,1.293,1.293,0,0,1,2.478.893,1.29,1.29,0,0,1,1.686,2.5Z" transform="translate(219.01 59.276)" fill="#9b790d"/>
        <path id="Path_25996" data-name="Path 25996" d="M1.729,2.482a1.3,1.3,0,0,1-1.67-.811A1.307,1.307,0,0,1,.854.065,1.3,1.3,0,0,1,2.464.851,1.292,1.292,0,0,1,1.729,2.482Z" transform="translate(124.671 10.732)" fill="#9b790d"/>
        <path id="Path_25997" data-name="Path 25997" d="M1.557,2.407a1.2,1.2,0,0,1-1.493-.8A1.21,1.21,0,0,1,.8.072,1.269,1.269,0,0,1,2.4.842,1.258,1.258,0,0,1,1.557,2.407Z" transform="translate(201.545 35.401)" fill="#9b790d"/>
        <path id="Path_25998" data-name="Path 25998" d="M1.616,2.388A1.2,1.2,0,0,1,.085,1.663a1.21,1.21,0,0,1,.74-1.6A1.265,1.265,0,0,1,2.409.873,1.256,1.256,0,0,1,1.616,2.388Z" transform="translate(154.376 11.129)" fill="#9b790d"/>
        <path id="Path_25999" data-name="Path 25999" d="M.839.055A1.163,1.163,0,0,1,2.32.85a1.157,1.157,0,0,1-.751,1.428A1.162,1.162,0,0,1,.061,1.542,1.161,1.161,0,0,1,.839.055Z" transform="translate(218.041 148.252)" fill="#9b790d"/>
        <path id="Path_26000" data-name="Path 26000" d="M.066,1.506A1.121,1.121,0,0,1,.751.06a1.169,1.169,0,0,1,1.456.7A1.156,1.156,0,0,1,1.5,2.2,1.11,1.11,0,0,1,.066,1.506Z" transform="translate(230.608 95.142)" fill="#9b790d"/>
        <path id="Path_26001" data-name="Path 26001" d="M.8.049a1.151,1.151,0,0,1,1.426.74,1.179,1.179,0,0,1-.761,1.427A1.124,1.124,0,0,1,.055,1.458,1.1,1.1,0,0,1,.8.049Z" transform="translate(224.165 136.508)" fill="#9b790d"/>
        <path id="Path_26002" data-name="Path 26002" d="M1.359,2.022A1.056,1.056,0,0,1,.027,1.294,1.071,1.071,0,0,1,.763.037,1.029,1.029,0,0,1,2.021.745,1.015,1.015,0,0,1,1.359,2.022Z" transform="translate(216.377 50.589)" fill="#9b790d"/>
        <path id="Path_26003" data-name="Path 26003" d="M1.3,2.021A1.014,1.014,0,0,1,.047,1.313.991.991,0,0,1,.717.049a1.047,1.047,0,0,1,1.3.635A1.061,1.061,0,0,1,1.3,2.021Z" transform="translate(133.846 8.13)" fill="#9b790d"/>
        <path id="Path_26004" data-name="Path 26004" d="M1.065,1.7A.848.848,0,0,1,.043,1.107.829.829,0,0,1,.555.05.889.889,0,0,1,1.682.6.9.9,0,0,1,1.065,1.7Z" transform="translate(175.467 14.707)" fill="#9b790d"/>
        <path id="Path_26005" data-name="Path 26005" d="M1.2,1.649a.871.871,0,0,1-1.148-.5A.879.879,0,0,1,.619.038.837.837,0,0,1,1.664.574.826.826,0,0,1,1.2,1.649Z" transform="translate(187.243 20.77)" fill="#9b790d"/>
        <path id="Path_26006" data-name="Path 26006" d="M.673.024a.84.84,0,0,1,1.009.6.828.828,0,0,1-.538,1.041A.871.871,0,0,1,.031,1.1.883.883,0,0,1,.673.024Z" transform="translate(233.726 104.347)" fill="#9b790d"/>
        <path id="Path_26007" data-name="Path 26007" d="M.518.065a.884.884,0,0,1,1.152.5A.869.869,0,0,1,1.1,1.673.824.824,0,0,1,.054,1.145.84.84,0,0,1,.518.065Z" transform="translate(230.538 125.073)" fill="#9b790d"/>
        <path id="Path_26008" data-name="Path 26008" d="M.951,1.42A.739.739,0,0,1,.044.981.754.754,0,0,1,.436.047a.777.777,0,0,1,.978.469A.766.766,0,0,1,.951,1.42Z" transform="translate(213.842 41.968)" fill="#9b790d"/>
        <path id="Path_26009" data-name="Path 26009" d="M.941,1.427A.765.765,0,0,1,.034.968.779.779,0,0,1,.462.044a.746.746,0,0,1,.925.4A.742.742,0,0,1,.941,1.427Z" transform="translate(199.178 26.969)" fill="#9b790d"/>
        <path id="Path_26010" data-name="Path 26010" d="M.962,1.416A.738.738,0,0,1,.048.989.751.751,0,0,1,.428.051a.774.774,0,0,1,.984.455A.764.764,0,0,1,.962,1.416Z" transform="translate(143.086 5.562)" fill="#9b790d"/>
        <path id="Path_26011" data-name="Path 26011" d="M.975,1.367a.691.691,0,0,1-.923-.4A.689.689,0,0,1,.465.048a.731.731,0,0,1,.936.4A.722.722,0,0,1,.975,1.367Z" transform="translate(163.805 8.786)" fill="#9b790d"/>
        <path id="Path_26012" data-name="Path 26012" d="M.532,1A.59.59,0,0,1,.015.768C-.045.591.086.35.167,0c.3.2.524.273.614.424A.367.367,0,0,1,.532,1Z" transform="translate(104.821 8.213)" fill="#9b790d"/>
        <path id="Path_26013" data-name="Path 26013" d="M.457.043A.356.356,0,0,1,.992.367.59.59,0,0,1,.659.819C.512.863.3.7,0,.587.2.334.3.116.457.043Z" transform="translate(227.571 146.131)" fill="#9b790d"/>
        <path id="Path_26014" data-name="Path 26014" d="M.489,0A.6.6,0,0,1,1,.255a.364.364,0,0,1-.338.53C.486.8.306.645,0,.51.226.263.341.025.489,0Z" transform="translate(234.345 75.17)" fill="#9b790d"/>
        <path id="Path_26015" data-name="Path 26015" d="M.484.038A.351.351,0,0,1,1,.381a.588.588,0,0,1-.35.437C.5.857.3.69,0,.562.217.318.321.106.484.038Z" transform="translate(236.864 113.708)" fill="#9b790d"/>
        <path id="Path_26016" data-name="Path 26016" d="M.254,0C.366-.022.523.078.627.165A.4.4,0,0,1,.5.457C.389.5.239.453,0,.437.12.219.168.023.254,0Z" transform="translate(231.721 66.38)" fill="#9b790d"/>
        <path id="Path_26017" data-name="Path 26017" d="M.441.532C.351.568.2.45,0,.369.133.195.2.015.3,0A.389.389,0,0,1,.63.2.391.391,0,0,1,.441.532Z" transform="translate(152.368 3.162)" fill="#9b790d"/>
        <path id="Path_26018" data-name="Path 26018" d="M.5.483A1.478,1.478,0,0,1,0,.414C.137.212.2.028.3,0S.557.1.637.2C.668.238.572.463.5.483Z" transform="translate(211.312 33.514)" fill="#9b790d"/>
        <path id="Path_26019" data-name="Path 26019" d="M.493.463C.385.507.235.452,0,.43.122.217.172.022.261,0,.37-.02.528.082.628.173A.389.389,0,0,1,.493.463Z" transform="translate(173.1 6.385)" fill="#9b790d"/>
        <path id="Path_26020" data-name="Path 26020" d="M.439.532C.337.557.2.434,0,.341.154.177.241.009.341,0a.386.386,0,0,1,.31.222A.375.375,0,0,1,.439.532Z" transform="translate(184.851 12.439)" fill="#9b790d"/>
        <path id="Path_26021" data-name="Path 26021" d="M.261,0c.11-.024.267.08.367.169a.387.387,0,0,1-.135.29C.385.507.235.452,0,.429.123.217.173.022.261,0Z" transform="translate(233.867 134.524)" fill="#9b790d"/>
        <path id="Path_26022" data-name="Path 26022" d="M.011.311C-.029.248.05.015.1.007A.492.492,0,0,1,.489.09C.546.158.468.342.435.578.228.455.076.412.011.311Z" transform="translate(131.754 0)" fill="#9b790d"/>
        <path id="Path_26023" data-name="Path 26023" d="M0,.279C-.023.208.1,0,.148,0c.131,0,.324.058.37.153S.437.4.348.625C.183.469.045.392,0,.279Z" transform="translate(226.093 48.524)" fill="#9b790d"/>
        <path id="Path_26024" data-name="Path 26024" d="M.39.6C.262.612.063.572.013.484S.068.228.131,0C.313.141.459.2.514.313.546.378.443.6.39.6Z" transform="translate(122.818 2.706)" fill="#9b790d"/>
        <path id="Path_26025" data-name="Path 26025" d="M0,.336C-.01.232.136.112.214,0,.325.078.5.137.529.241S.436.475.344.674C.181.523.011.438,0,.336Z" transform="translate(208.559 24.556)" fill="#9b790d"/>
        <path id="Path_26026" data-name="Path 26026" d="M.281.632C.238.662.022.554.006.483A1.389,1.389,0,0,1,.1,0C.3.14.488.208.5.3S.387.559.281.632Z" transform="translate(113.908 5.57)" fill="#9b790d"/>
        <path id="Path_26027" data-name="Path 26027" d="M.506.256C.537.358.419.5.367.632.243.578.061.555.014.463S.054.208.1,0C.291.113.476.16.506.256Z" transform="translate(240.413 93.054)" fill="#9b790d"/>
        <path id="Path_26028" data-name="Path 26028" d="M.281.632C.238.662.022.555.006.483A1.394,1.394,0,0,1,.1,0C.3.14.488.208.5.3S.387.559.281.632Z" transform="translate(196.799 18.392)" fill="#9b790d"/>
        <path id="Path_26029" data-name="Path 26029" d="M.359.769C.3.705.237.643.18.581a.274.274,0,0,1-.168-.1C-.035.4.067.228.131,0,.178.035.212.058.253.086.259.081.263.072.268.067.3.034.529.115.559.188A.97.97,0,0,1,.539.58Z" transform="translate(87.017 14.209)" fill="#9b790d"/>
        <path id="Path_26030" data-name="Path 26030" d="M.435.534C.344.566.2.441,0,.353.145.184.225.009.32,0A.39.39,0,0,1,.642.209.39.39,0,0,1,.435.534Z" transform="translate(228.84 57.429)" fill="#9b790d"/>
        <path id="Path_26031" data-name="Path 26031" d="M.525.369C.547.443.418.644.369.642.238.632.045.569.006.474S.1.228.2,0C.357.17.49.255.525.369Z" transform="translate(240.048 122.67)" fill="#9b790d"/>
        <path id="Path_26032" data-name="Path 26032" d="M.517.355c0,.106-.146.24-.26.3C.209.678.006.543,0,.47-.009.35.084.222.172,0,.342.167.518.262.517.355Z" transform="translate(237.549 84.091)" fill="#9b790d"/>
        <path id="Path_26033" data-name="Path 26033" d="M.351.536A.393.393,0,0,1,.006.357.39.39,0,0,1,.174.009C.261-.032.42.08.624.151.5.331.444.518.351.536Z" transform="translate(161.397 0.296)" fill="#9b790d"/>
      </g>
      <g id="Group_7679" data-name="Group 7679" transform="translate(17.415 0)">
        <path id="Path_26034" data-name="Path 26034" d="M111.163,3.364C179.5-9.012,240.855,13.827,248.2,54.378c5.4,29.8-19.975,61.676-60.8,80.174l28.916,53.143-54.038-43.447h0a210.407,210.407,0,0,1-24.519,5.963C69.42,162.587,8.067,139.748.723,99.2S42.824,15.741,111.163,3.364Z" transform="translate(3.501 20.344)" fill="#069eea"/>
        <g id="Group_7677" data-name="Group 7677" transform="translate(182.872 11.347)">
          <path id="Path_26035" data-name="Path 26035" d="M0,.006c8.5,1.96,16.873,3.975,25,6.651a139.956,139.956,0,0,1,23.415,9.935,81.871,81.871,0,0,1,20.062,15.06A55.234,55.234,0,0,1,81.31,53.416,43.474,43.474,0,0,0,71.429,29.1,67.371,67.371,0,0,0,50.82,12.213a97.766,97.766,0,0,0-24.773-9.3A107.632,107.632,0,0,0,0,.006Z" transform="translate(0 0)"/>
        </g>
        <g id="Group_7678" data-name="Group 7678" transform="translate(189.671 0)">
          <path id="Path_26036" data-name="Path 26036" d="M0,.463c5.776,1.005,11.469,1.919,17.083,3.1A154.09,154.09,0,0,1,33.6,7.963a115.481,115.481,0,0,1,15.72,6.529,130.464,130.464,0,0,1,14.771,8.94A55.869,55.869,0,0,0,50.881,11.791a69.509,69.509,0,0,0-16.019-7.62A81.237,81.237,0,0,0,17.565.489,81.3,81.3,0,0,0,0,.463Z" transform="translate(0 0)"/>
        </g>
        <path id="Path_26037" data-name="Path 26037" d="M.268,99.356c-.106-.961-.127-1.931-.19-2.9L0,95.008l.031-1.45A51.754,51.754,0,0,1,1.479,82.106a56.581,56.581,0,0,1,1.639-5.5c.581-1.826,1.363-3.561,2.11-5.312a81.257,81.257,0,0,1,12.257-18.9,112.267,112.267,0,0,1,16.134-15.35,164.083,164.083,0,0,1,38.21-21.925A211.249,211.249,0,0,1,114.01,3.082c22.36-3.766,45.373-4.327,67.791-.3a134.67,134.67,0,0,1,32.614,10.055c10.344,4.827,20.186,11.313,27.758,20.2a53.273,53.273,0,0,1,9.053,14.906,47.174,47.174,0,0,1,3.334,17.138,47.648,47.648,0,0,1-.725,8.7c-.206,1.441-.582,2.844-.9,4.258-.4,1.392-.759,2.8-1.254,4.153a67.672,67.672,0,0,1-7.634,15.4A92.678,92.678,0,0,1,233.278,110.8a115.459,115.459,0,0,1-12.771,11.158,144.862,144.862,0,0,1-28.067,16.42l29.57,51.451,0,0,6.324,11.248-10.084-8.107L165.239,150.35a214.417,214.417,0,0,1-41.44,8.4,191.374,191.374,0,0,1-43.712-.412c-14.5-1.9-28.921-5.614-42.256-12.18L35.34,144.91,32.9,143.548c-1.641-.878-3.206-1.9-4.785-2.9s-3.072-2.14-4.612-3.2l-2.2-1.762c-.738-.583-1.471-1.172-2.158-1.822l-2.1-1.9c-.688-.648-1.329-1.351-1.994-2.024-1.359-1.321-2.531-2.833-3.771-4.275-.6-.743-1.137-1.534-1.707-2.3l-.843-1.16c-.274-.391-.512-.81-.77-1.214l-1.513-2.449-1.325-2.566a24.187,24.187,0,0,1-1.2-2.629c-.356-.9-.775-1.77-1.075-2.689a48.5,48.5,0,0,1-1.6-5.575A50.473,50.473,0,0,1,.268,99.356Zm7.741,4.21a41.688,41.688,0,0,0,1.327,4.8c.247.793.611,1.547.908,2.323a19.52,19.52,0,0,0,1.017,2.281l1.125,2.238,1.306,2.148c.222.356.423.724.661,1.07l.736,1.026c.5.68.961,1.382,1.484,2.044,1.1,1.287,2.112,2.642,3.328,3.838.593.609,1.155,1.245,1.771,1.835l1.883,1.736c.612.595,1.277,1.135,1.946,1.672L27.5,132.2c1.411.988,2.754,2.063,4.217,2.986s2.889,1.9,4.414,2.727l2.259,1.291,2.323,1.186c12.444,6.274,26.223,9.994,40.185,11.944a191.187,191.187,0,0,0,42.377.87,208.952,208.952,0,0,0,41.769-8.013h0l.887-.27.842.365h0l.309.134.264.211,44.872,36.077L189.944,138.4l-.2-.393,0,0-11.475-21.477,12.9,20.009a142.5,142.5,0,0,0,27.536-16.919,112.137,112.137,0,0,0,12.166-11.13,89.152,89.152,0,0,0,10.057-12.929,64.475,64.475,0,0,0,6.933-14.641c.442-1.273.746-2.582,1.1-3.878.263-1.313.593-2.616.754-3.943a43.27,43.27,0,0,0,.521-7.966,42.667,42.667,0,0,0-3.3-15.467,48.515,48.515,0,0,0-8.49-13.414c-7.091-8.033-16.417-13.987-26.318-18.385A128.9,128.9,0,0,0,180.76,8.828c-21.635-3.485-43.9-2.549-65.441,1.481A204.273,204.273,0,0,0,74.788,22.294,156.762,156.762,0,0,0,38.307,43.036a104.783,104.783,0,0,0-15.2,14.2A74,74,0,0,0,11.794,74.3c-.673,1.552-1.392,3.089-1.911,4.69A49.684,49.684,0,0,0,8.4,83.8a44.74,44.74,0,0,0-1.342,9.886l-.043,1.246.061,1.242c.05.827.052,1.659.137,2.484A43.356,43.356,0,0,0,8.009,103.566Z" transform="translate(0 17.013)"/>
      </g>
    </g>
  </g>
</svg>
