
<svg id="Group_7228" data-name="Group 7228" xmlns="http://www.w3.org/2000/svg" width="217.086" height="276.958" viewBox="0 0 217.086 276.958">
  <path id="Path_6912" data-name="Path 6912" d="M72.4,550.724c.289,5.283,6.222,9.452,11.291,7.933a8.852,8.852,0,0,0,10.672,13.5c.992,4.153,2.619,8.282,5.573,11.364s7.439,4.941,11.583,3.914c3.749-.929,6.778-4.635,6.568-8.4a12.122,12.122,0,0,0,21.083,5.83,25.765,25.765,0,0,0,9.556,8.781c3.934,1.912,8.758,2.307,12.654.32a10.547,10.547,0,0,0,5.679-8.39,7.889,7.889,0,0,0,14.762,1.823c.234,5.032,3.9,9.854,8.811,10.967s10.548-2,11.8-6.875-2.606-10.546-7.639-10.755A8.341,8.341,0,0,0,197.011,565c-4.64-2.239-10.359.313-13.757,4.187a8.013,8.013,0,0,0-15.868-.549,26.1,26.1,0,0,0-3.944-7.871c-1.881-2.272-7.223-4.05-10.143-3.632-2.449.35-6.051,3.167-6.686,5.743a13.08,13.08,0,0,1,.608,2.573,23.213,23.213,0,0,0-1.861-3.057,11.035,11.035,0,0,0-2.4-2.373,8.624,8.624,0,0,0-6.164-1.434,13.134,13.134,0,0,0-6.119,2.509,9.845,9.845,0,0,0-3.9,5.559,6.808,6.808,0,0,1,.63-3.669,10.175,10.175,0,0,1,2.246-3.094,12.4,12.4,0,0,1,5.9-3.148l-.037-.141a14.928,14.928,0,0,0-1.72-4.043,13.415,13.415,0,0,0-2.913-3.289,10.9,10.9,0,0,0-8.082-2.635,10.551,10.551,0,0,0-8.944,8.83,15.171,15.171,0,0,0,.059,4.677,12.08,12.08,0,0,1,.69-9.443,11.432,11.432,0,0,1,3.305-3.716c.2-.143.418-.266.628-.4,1.387-3.226.084-7.519-2.825-10.016-3.723-3.2-11.028-2.329-13.487,1.916a9.628,9.628,0,0,0-1.717-2.3c.025.039.054.076.079.115a10.218,10.218,0,0,0-4.949-2.26,9.858,9.858,0,0,0-5.089.759,14.529,14.529,0,0,0-4.351,2.883,7.483,7.483,0,0,0-2.436,4.152l-.148,1.36-1.174-.43a11.286,11.286,0,0,0-4.258-.61C74.812,543.569,72.2,547.021,72.4,550.724Z" transform="translate(-26.791 -476.879)" fill="#fff9b5"/>
  <path id="Path_6913" data-name="Path 6913" d="M110.8,534.417c2.459-4.245,9.765-5.111,13.487-1.916,2.908,2.5,4.212,6.79,2.825,10.016a11.921,11.921,0,0,1,4-1.577,9.546,9.546,0,0,1,2.729-.1c.3-.555.611-1.091.934-1.613l-1.156.925a6.533,6.533,0,0,0-.057-5.775,10.689,10.689,0,0,0-4.065-4.292,15.889,15.889,0,0,0-9.679-2.364,6.43,6.43,0,0,0-2.835-7.207c-2.595-1.508-4.947-.557-7.312.683a6.7,6.7,0,0,1,.095-.9,5.042,5.042,0,0,0-.371.762l-.739,2.138-1.059-1.878c-1.193-.825-3.261-.192-4.215,1.1-1.031,1.392-1.087,3.851-1.007,5.77a8.808,8.808,0,0,1,2.156.382,8.533,8.533,0,0,1,4.545,3.552A9.629,9.629,0,0,1,110.8,534.417Z" transform="translate(-35.365 -472.809)" fill="#ffce22"/>
  <path id="Path_6914" data-name="Path 6914" d="M278.192,599.024l.031-.06c.088-.168.175-.337.262-.505-.119.089-.249.165-.372.251C278.139,598.815,278.168,598.919,278.192,599.024Z" transform="translate(-85.651 -495.332)" fill="#ffce22"/>
  <path id="Path_6915" data-name="Path 6915" d="M52.829,570.761c-1.138,3.037-.59,6.814,1.837,8.965s6.738,2,8.586-.663a10.7,10.7,0,0,0,1.675,13.964,10.256,10.256,0,0,0,6.546,2.313c2.433.016,3.861-1,5.9-1.857,1.491,3.207,3.1,6.229,7.207,6.4a7.727,7.727,0,0,0,7.631-5.961,10.379,10.379,0,0,0,5.227,6.537,8.879,8.879,0,0,0,5.973.852,6.966,6.966,0,0,0,4.713-3.638c.6,5.61,5.848,9.832,11.489,9.826a11.953,11.953,0,0,0,11.469-10.349c-.547,7.686,6.449,15.049,14.153,14.895,6.186-.124,11.713-5.074,13.213-10.984a6.122,6.122,0,0,0,4.153,4.227,6.354,6.354,0,0,0,6.931-3.448c-1.169,7.558,4.688,15.869,12.442,16.644,8.57.857,16.721-7.765,15.386-16.274a7.335,7.335,0,0,0,10.488-2.465c1.732-3.452-.613-8.432-4.183-9.953a34.224,34.224,0,0,1-4.309,3.766,66.878,66.878,0,0,0,6.078-8.3,19.279,19.279,0,0,0,1.993-4.5,7.843,7.843,0,0,0-.038-4.566,6.867,6.867,0,0,0-6.567-5.443,14.7,14.7,0,0,0-4.906.563c-.837.163-1.626.5-2.454.741-.812.286-1.608.623-2.432.919.721-.483,1.436-.994,2.2-1.43a21.819,21.819,0,0,1,2.37-1.174,13.823,13.823,0,0,1,5.267-1.2,8.567,8.567,0,0,1,5.406,1.673,7.043,7.043,0,0,1,.612.52,16.644,16.644,0,0,0-1.034-13.946,26.47,26.47,0,0,0-10.84-10.346,52.533,52.533,0,0,0-8.41-3.6c-6.6-.3-12.794.935-16.654,3.568a9.44,9.44,0,0,1,1.832,1.713,14.6,14.6,0,0,1,2.169,3.745,17,17,0,0,1,1.1,4.094,10.458,10.458,0,0,1-.2,4.175,14.452,14.452,0,0,0-.78-3.956,22.229,22.229,0,0,0-1.561-3.638A16.04,16.04,0,0,0,170.319,550a7.108,7.108,0,0,0-2.907-2.063,7.53,7.53,0,0,0-7.021.47,38.084,38.084,0,0,0-6.252,5.047,20.424,20.424,0,0,1,5.4-6.38,8.932,8.932,0,0,1,4.143-1.692,9.225,9.225,0,0,1,4.271.593h0c.122-1.883-.232-3.12-1.065-3.663-1.43-.931-4.681-.144-8.688,2.111l-2.524,1.42,1.08-2.687a10.435,10.435,0,0,0,.6-3.916,3.415,3.415,0,0,0-1.57-3.094,5.7,5.7,0,0,0-1.283-.445c-2.585-.586-6.262.35-9.7,4.776L143,542.815l-.013-2.956c-.021-5.271-1.767-8.491-5.189-9.573-7.213-2.279-15.406,2.095-20.259,10.664.084.024.172.039.256.065a13.766,13.766,0,0,1,4.472,2.359,15.2,15.2,0,0,1,4.947,6.991A28.449,28.449,0,0,1,130,548.58a17.6,17.6,0,0,1,4.483-1.838,7.257,7.257,0,0,1,4.934.313,5.833,5.833,0,0,1,2.876,3.763,6.04,6.04,0,0,0-3.222-2.935,6.673,6.673,0,0,0-4.182.276,20,20,0,0,0-3.959,1.989c-.963.617-1.9,1.3-2.816,1.994a9.779,9.779,0,0,1,2.546.347,8.723,8.723,0,0,1,3.457,1.93,9.9,9.9,0,0,1,2.263,3.1c.149.327.277.659.393.995.635-2.576,4.237-5.393,6.686-5.743,2.92-.418,8.262,1.361,10.143,3.632a26.1,26.1,0,0,1,3.944,7.871,8.013,8.013,0,0,1,15.868.549c3.4-3.874,9.116-6.426,13.757-4.187a8.341,8.341,0,0,1-2.216,15.733c5.034.208,8.9,5.876,7.639,10.755s-6.89,7.986-11.8,6.875-8.577-5.934-8.811-10.967a7.889,7.889,0,0,1-14.762-1.823,10.547,10.547,0,0,1-5.679,8.39c-3.9,1.987-8.721,1.592-12.654-.32a25.764,25.764,0,0,1-9.556-8.781,12.122,12.122,0,0,1-21.083-5.83c.21,3.768-2.818,7.474-6.568,8.4-4.144,1.027-8.628-.832-11.583-3.914s-4.58-7.211-5.573-11.364a8.852,8.852,0,0,1-10.672-13.5c-5.069,1.518-11-2.651-11.291-7.933-.2-3.7,2.412-7.155,5.783-8.566-.239.009-.478.008-.717.03a14.905,14.905,0,0,0-4.982,1.427,14.627,14.627,0,0,0-4.254,3.128,20.132,20.132,0,0,0-3.129,4.408,18.856,18.856,0,0,1,2.629-4.841,15.319,15.319,0,0,1,4.186-3.729,15.048,15.048,0,0,1,5.34-1.987,13.767,13.767,0,0,1,4.653.029,2.569,2.569,0,0,1,.146-.518c.089-.265.173-.535.272-.794l.373-.718a11.226,11.226,0,0,1,1.893-2.521,13.25,13.25,0,0,1,3.332-2.437,12,12,0,0,0-3.117-4.683c-1.6-1.281-4.136-1.639-5.618-.227-1.219,1.161-1.279,4.405-.111,5.618-1.755-1.821-8.565-8.834-15.572-10.879a24.485,24.485,0,0,0-5.772-.341c-.126.164-.276.235-.452.14-5.845.351-10.553,6.676-9.213,12.375S46.608,540.532,52,538.24a17.4,17.4,0,0,0-7.923,8.322c-1.471,3.618-1.137,8.088,1.413,11.045s9.8,2.057,12.9-.325a2.957,2.957,0,0,0,3.179,4.962,5.977,5.977,0,0,1,.836-1.776,4.9,4.9,0,0,1,1.4-1.306,3.552,3.552,0,0,1,2-.4,6.226,6.226,0,0,1,3.19,1.3,9.338,9.338,0,0,1,3.37,5.236,14.244,14.244,0,0,0-4.239-3.9,5.285,5.285,0,0,0-2.407-.709,1.687,1.687,0,0,0-.9.213,3.1,3.1,0,0,0-.765.755c-.9,1.266-1.079,3.232-1.036,5.134.049,1.931.313,3.908.518,5.943a18.306,18.306,0,0,1-2.088-5.784c-.046-.236-.056-.48-.087-.72-.446-.233-.9-.438-1.36-.623C55.122,565.31,53.4,569.249,52.829,570.761Z" transform="translate(-16.952 -472.515)" fill="#ffce22"/>
  <path id="Path_6916" data-name="Path 6916" d="M102.523,521.586c.954-1.289,3.022-1.922,4.215-1.1l-.053-.093c-1.42-2.518-2.781-3.287-3.671-3.488l-.048-.011a2.268,2.268,0,0,0-1.8.338c-.964.688-2.02,4.611-1.813,7.829l.153,2.378a10.221,10.221,0,0,1,2.009-.086C101.435,525.436,101.492,522.978,102.523,521.586Z" transform="translate(-34.498 -471.98)" fill="#f26120"/>
  <path id="Path_6917" data-name="Path 6917" d="M75.631,524.513c1.482-1.412,4.021-1.054,5.618.227a12,12,0,0,1,3.117,4.683,12.868,12.868,0,0,1,1.888-.819,10.837,10.837,0,0,1,1.481-.394l-1.446-1.741c-4.215-5.073-10.353-6.406-11.935-5.835-1.188.423-1.63,2.322-1.7,3.018l-.2,1.943-1.479-1.27a22.961,22.961,0,0,0-11.027-5.073c7.008,2.045,13.817,9.058,15.572,10.879C74.352,528.919,74.411,525.675,75.631,524.513Z" transform="translate(-23.231 -472.67)" fill="#f26120"/>
  <path id="Path_6918" data-name="Path 6918" d="M255.588,506.246l.63.05.236.585a4.155,4.155,0,0,0,2.32,2.455,6.791,6.791,0,0,0,5.244-.533c3.072-1.416,5.834-3.738,6.287-5.286a.921.921,0,0,0-.069-.827c-1.1-1.726-3.994-1.943-6.036-1.154l-1.862.718.51-1.929a2,2,0,0,0-.934-2.131c-.572-.307-1.175-.115-1.783.575l-.936,1.061-.71-1.224a1.313,1.313,0,0,0-1.318-.556,6.057,6.057,0,0,0-4.595,3.412,2.88,2.88,0,0,0,.1,2.8A4.281,4.281,0,0,0,255.588,506.246Z" transform="translate(-78.254 -466.603)" fill="#f26120"/>
  <path id="Path_6919" data-name="Path 6919" d="M99.333,496.757a3.141,3.141,0,0,0,2.418-3.686,3.331,3.331,0,0,0-2.446-2.931,2.465,2.465,0,0,0-.817-.033,3.393,3.393,0,0,0,.846,6.651Z" transform="translate(-33.557 -464.325)" fill="#f26120"/>
  <path id="Path_6920" data-name="Path 6920" d="M283.651,543c1.009-4.712.15-9.872-5.174-14.346A14.132,14.132,0,0,1,283.651,543Z" transform="translate(-85.755 -475.359)" fill="#ffce22"/>
  <path id="Path_6921" data-name="Path 6921" d="M297.232,567.358a2.074,2.074,0,0,0,1.857.191,4.7,4.7,0,0,0,3.086-4.258,1.864,1.864,0,0,0-2.617-1.9,4.459,4.459,0,0,0-2.192,1.658h0C296.232,564.617,296.171,566.588,297.232,567.358Z" transform="translate(-90.905 -484.69)" fill="#f26120"/>
  <path id="Path_6922" data-name="Path 6922" d="M34.954,811.135c.091-.529.264-1.576.368-2.153.672-3.745-.95-8.537-1.581-12.328,1.174,2.883,5.212,3.644,8,2.265s4.546-4.2,5.939-6.985A61.905,61.905,0,0,0,53.9,770.444a7.557,7.557,0,0,0,14.5,3.549q.669-3.178,1.334-6.673c-2.179,1.907-4.163,3.129-5.682,3.141-5.35.046-6.8-10.814-8.677-28.528-.265-2.49-.533-5.021-.824-7.509-.214,2-.418,4.156-.635,6.439a298.5,298.5,0,0,1-4.011,30.088c-.428,2.189-4.329,21.388-9.14,21.2-4.037-.163-6.062-4.052-7.055-7.414-1.349,4.629-4.083,11.042-8.994,11.838l5.922,14.585Z" transform="translate(-13.152 -534.233)" fill="#ffce22"/>
  <path id="Path_6923" data-name="Path 6923" d="M139.68,794.65c.854.023,1.708.025,2.564-.009a27.482,27.482,0,0,0,11.715-2.981q.767-2.584,1.7-5.114c.346-1.027.742-2.032,1.148-3.034-4.324,2.748-8.525,4.564-11.571,3.994a5,5,0,0,1-2.57-1.273C141.642,789.108,140.644,791.924,139.68,794.65Z" transform="translate(-46.044 -548.278)" fill="#ffce22"/>
  <path id="Path_6924" data-name="Path 6924" d="M162.647,807.383c-3.212-3.921,7.13-28.437,12.883-41.252a124.237,124.237,0,0,1-12.461,10.453q-1.3,2.785-2.571,5.586c-.558,1.2-1.1,2.414-1.64,3.625a18.765,18.765,0,0,0,3.35-2.736,39.5,39.5,0,0,0-4.632,5.605c-.573,1.279-1.15,2.559-1.751,3.834.13-.586.276-1.168.419-1.751a39.439,39.439,0,0,0-3.236,6.779c-1.555,4.289-2.319,9.2-.371,13.323,1.832,3.881,6.774,6.434,10.6,4.76a9.1,9.1,0,0,0-3.864,4.575h10.938c2.469-4.717,8.622-11.12,12.958-15.314C176.406,807.51,165.54,810.914,162.647,807.383Z" transform="translate(-49.418 -543.305)" fill="#ffce22"/>
  <path id="Path_6925" data-name="Path 6925" d="M38.936,823.418c-.1.577-.288,1.646-.378,2.174l2.4-.042H54.18c-.671-4.757-1.67-10.954-2.424-12.542l-1.111-2.338,2.406.954A4.772,4.772,0,0,0,56.413,811c3.737-1.782,8.656-6.525,10.084-11.081l1.453-4.636.532,4.829c.054.49.134,1,.239,1.509,1.086-3.416,2.194-7.948,3.3-13.19a7.557,7.557,0,0,1-14.5-3.549A61.905,61.905,0,0,1,51.3,806.369c-1.393,2.784-3.148,5.608-5.939,6.985s-6.829.617-8-2.265C37.986,814.88,39.608,819.672,38.936,823.418Z" transform="translate(-16.767 -548.669)" fill="#f26120"/>
  <path id="Path_6926" data-name="Path 6926" d="M141.706,805.436l-1.133,3.088a109.313,109.313,0,0,0-5.326,19.9h18.831a9.1,9.1,0,0,1,3.864-4.575c-3.829,1.673-8.772-.879-10.6-4.76-1.947-4.126-1.184-9.034.371-13.323a39.439,39.439,0,0,1,3.236-6.779c.332-1.361.691-2.717,1.09-4.061a27.482,27.482,0,0,1-11.715,2.981c-.856.034-1.71.032-2.564.009-1.741,4.923-3.37,9.541-4.8,13.6,2.018-1.343,4.08-2.76,6.069-4.176Z" transform="translate(-44.12 -551.543)" fill="#f26120"/>
  <path id="Path_6927" data-name="Path 6927" d="M161.3,792.579q-.639,1.434-1.282,2.869a39.5,39.5,0,0,1,4.632-5.605A18.733,18.733,0,0,1,161.3,792.579Z" transform="translate(-51.863 -550.089)" fill="#f26120"/>
  <path id="Path_6928" data-name="Path 6928" d="M49.711,742.261a99.51,99.51,0,0,0-1.748-9.973c-.066,3.389.04,6.749.171,10.107s.334,6.708.537,10.059c.243,3.348.491,6.7.834,10.042s.711,6.689,1.263,10.032c.3-3.377.356-6.75.324-10.118s-.181-6.733-.39-10.094C50.457,748.958,50.153,745.6,49.711,742.261Z" transform="translate(-19.796 -533.622)" fill="#1a1a1a"/>
  <path id="Path_6929" data-name="Path 6929" d="M42.376,762.3c.493,3.217,1.037,6.413,1.462,9.669a52.012,52.012,0,0,0,.118-9.843c-.2-3.273-.592-6.524-1.057-9.764-.5-3.234-1.087-6.456-1.853-9.643a56.979,56.979,0,0,0-2.945-9.39l2.786,19.335Z" transform="translate(-16.981 -533.92)" fill="#1a1a1a"/>
  <path id="Path_6930" data-name="Path 6930" d="M184.741,790.722c1.815-2.781,3.591-5.58,5.427-8.334,1.805-2.775,3.667-5.508,5.556-8.224,1.906-2.707,3.861-5.369,5.939-8.005a46.284,46.284,0,0,0-7.2,7.035,85.67,85.67,0,0,0-6,8.076c-1.825,2.811-3.545,5.686-5.094,8.654a79.815,79.815,0,0,0-4.163,9.136C181.135,796.309,182.937,793.512,184.741,790.722Z" transform="translate(-57.354 -543.313)" fill="#1a1a1a"/>
  <path id="Path_6931" data-name="Path 6931" d="M265.409,567.334a16.644,16.644,0,0,1,1.034,13.947,9.528,9.528,0,0,1,2.466,4.288c.023.082.041.164.061.246.123-.086.253-.161.372-.251,4.022-7.8,7.468-16.609-.059-23.5l-.014-.013h0c-5.8-5.493-14.785-8.293-23.11-8.665a52.533,52.533,0,0,1,8.41,3.6A26.47,26.47,0,0,1,265.409,567.334Z" transform="translate(-76.509 -482.436)" fill="#f26120"/>
  <path id="Path_6932" data-name="Path 6932" d="M192.338,769.1c1.673-2.718,3.367-5.426,5.009-8.173s3.283-5.5,4.815-8.343a80.034,80.034,0,0,0-6.137,7.459c-1.92,2.581-3.7,5.261-5.416,7.981-1.686,2.739-3.285,5.535-4.735,8.412a68.351,68.351,0,0,0-3.791,8.893c1.792-2.692,3.471-5.408,5.17-8.115Z" transform="translate(-58.175 -539.43)" fill="#1a1a1a"/>
  <path id="Path_6933" data-name="Path 6933" d="M119.924,517.43a6.43,6.43,0,0,1,2.835,7.207A15.889,15.889,0,0,1,132.437,527a10.689,10.689,0,0,1,4.065,4.292,6.533,6.533,0,0,1,.057,5.775l1.156-.925a26.168,26.168,0,0,1,7.531-8.016,9.567,9.567,0,0,0-14.1-3.675,10.175,10.175,0,0,0-2.875-14.163c-4.837-2.881-8.407-.565-11.865,2.157a27.391,27.391,0,0,0-3.7,4.766,6.7,6.7,0,0,0-.095.9C114.977,516.874,117.329,515.923,119.924,517.43Z" transform="translate(-38.299 -469.726)" fill="#ffce22"/>
  <path id="Path_6934" data-name="Path 6934" d="M97.292,497.9a4.505,4.505,0,0,0,1.481.059,5.413,5.413,0,1,0-5.542-4.727A5.367,5.367,0,0,0,97.292,497.9Zm.378-8.612a2.466,2.466,0,0,1,.817.033,3.331,3.331,0,0,1,2.446,2.931,2.9,2.9,0,1,1-3.264-2.964Z" transform="translate(-32.741 -463.509)" fill="#1a1a1a"/>
  <path id="Path_6935" data-name="Path 6935" d="M18.641,535.675a37.257,37.257,0,0,1-.046-7.2,23.8,23.8,0,0,1,.508-2.958,19.317,19.317,0,0,1,1.4-4.05,13.681,13.681,0,0,0-3.47,6.746,24.949,24.949,0,0,0-.42,7.649c.084.854.208,1.7.351,2.544a35.535,35.535,0,0,0,1.171,4.888,33.526,33.526,0,0,0,3.005,6.91l-1.464-7.3C19.242,540.491,18.843,538.085,18.641,535.675Z" transform="translate(-10.801 -473.303)" fill="#1a1a1a"/>
  <path id="Path_6936" data-name="Path 6936" d="M12.154,539.261c-.206-.929-.388-1.865-.558-2.8-.4-2.226-.7-4.47-.885-6.723a73.769,73.769,0,0,1-.228-9.634,60.56,60.56,0,0,1,1.183-9.657,30.586,30.586,0,0,0-2.759,9.513,45.908,45.908,0,0,0-.223,9.954,44.333,44.333,0,0,0,1.939,9.771c.059.179.13.356.192.535a25.346,25.346,0,0,0,3.334,6.709,16.382,16.382,0,0,0,1.189,1.467,27.549,27.549,0,0,1-1.164-2.538A44.128,44.128,0,0,1,12.154,539.261Z" transform="translate(-8.516 -470.15)" fill="#1a1a1a"/>
  <path id="Path_6937" data-name="Path 6937" d="M300.493,605.716a14.551,14.551,0,0,0-2.135-5.56c-.171-.262-.328-.535-.519-.782.076.261.135.52.2.78a25.868,25.868,0,0,1,.875,5.725,28.854,28.854,0,0,1-.549,6.425,48.021,48.021,0,0,1-1.68,6.314c-.7,2.091-1.5,4.161-2.294,6.3a25.188,25.188,0,0,0,3.764-5.7,26.159,26.159,0,0,0,2.21-6.54A19.989,19.989,0,0,0,300.493,605.716Z" transform="translate(-90.31 -495.593)" fill="#1a1a1a"/>
  <path id="Path_6938" data-name="Path 6938" d="M308.238,609.808l-2.309,6c-.795,1.961-1.6,3.906-2.5,5.8-.867,1.913-1.83,3.779-2.831,5.635-.138.251-.288.5-.428.748-.895,1.592-1.83,3.166-2.826,4.77a18.386,18.386,0,0,0,2.234-1.926,24.775,24.775,0,0,0,2.356-2.731,32.187,32.187,0,0,0,3.342-5.641,34.4,34.4,0,0,0,2.159-6.18A25.712,25.712,0,0,0,308.238,609.808Z" transform="translate(-91.155 -498.579)" fill="#1a1a1a"/>
  <path id="Path_6939" data-name="Path 6939" d="M56.185,667.846a19.834,19.834,0,0,0,7.026,3.428,24.383,24.383,0,0,0,7.619.807c-2.45-.712-4.843-1.4-7.115-2.314a25.559,25.559,0,0,1-6.276-3.524,20.669,20.669,0,0,1-4.794-5.283,39.982,39.982,0,0,1-3.245-6.688,19.356,19.356,0,0,0,1.86,7.456A17.277,17.277,0,0,0,56.185,667.846Z" transform="translate(-20.213 -511.3)" fill="#1a1a1a"/>
  <path id="Path_6940" data-name="Path 6940" d="M59.047,679.028a24.38,24.38,0,0,0,7.618.806c-2.449-.711-4.842-1.4-7.114-2.314A25.583,25.583,0,0,1,53.275,674a20.684,20.684,0,0,1-4.794-5.284,39.976,39.976,0,0,1-3.245-6.688,19.346,19.346,0,0,0,1.86,7.456,17.277,17.277,0,0,0,4.924,6.119A19.836,19.836,0,0,0,59.047,679.028Z" transform="translate(-19.022 -513.519)" fill="#1a1a1a"/>
  <path id="Path_6941" data-name="Path 6941" d="M263.139,691.6a42.926,42.926,0,0,1-5.573,2.644c-1.907.775-3.884,1.393-5.887,1.986l-6.137,1.68a25.455,25.455,0,0,0,6.465-.131,28.092,28.092,0,0,0,6.307-1.642,23.542,23.542,0,0,0,5.71-3.217,17.222,17.222,0,0,0,4.363-4.816A50.142,50.142,0,0,1,263.139,691.6Z" transform="translate(-76.332 -520.982)" fill="#1a1a1a"/>
  <path id="Path_6942" data-name="Path 6942" d="M251,705.6a43.36,43.36,0,0,1-5.048-.185c-1.695-.159-3.393-.415-5.179-.629a16.4,16.4,0,0,0,4.9,2.187,18.876,18.876,0,0,0,5.376.662,19.328,19.328,0,0,0,5.338-.873,17.358,17.358,0,0,0,4.831-2.315l-5.171.762A47.473,47.473,0,0,1,251,705.6Z" transform="translate(-74.968 -525.656)" fill="#1a1a1a"/>
  <g id="Group_5709" data-name="Group 5709" transform="translate(138.441)">
    <path id="Path_6943" data-name="Path 6943" d="M217.6,468.951a9.369,9.369,0,0,0,7.773,1.5,10.513,10.513,0,0,0,6.169-3.583,7.2,7.2,0,0,0,1.244-6.851,5.426,5.426,0,0,0-.672-1.208,10.473,10.473,0,0,0-3.973-1.7,12.6,12.6,0,0,0-1.744-.235c-6.128-.4-9.982,5.516-10.02,5.576l0,0a7.594,7.594,0,0,0-.764,1.813A5.175,5.175,0,0,0,217.6,468.951Z" transform="translate(-206.21 -454.817)" fill="#ffce22"/>
    <path id="Path_6944" data-name="Path 6944" d="M229.839,460.8a7.2,7.2,0,0,1-1.244,6.851,10.513,10.513,0,0,1-6.169,3.583,9.369,9.369,0,0,1-7.773-1.5,5.175,5.175,0,0,1-1.988-4.688,6.468,6.468,0,0,0-.181,2.741,4.856,4.856,0,0,0,.978,2.279,4.349,4.349,0,0,0,2.15,1.441,4.606,4.606,0,0,1-2.512-1.083,5.633,5.633,0,0,1-1.6-2.372,8.069,8.069,0,0,1-.284-4.208c-2.731.512-5.6,2.347-5.894,3.975-.254,1.407,1.856,2.438,3.138,2.927l.792.3-.154.835a6.351,6.351,0,0,0,1.273,5.428c1.606,1.91,4.452,2.984,7.811,2.946,4.4-.05,11.531-3.372,14.118-7.58a5.085,5.085,0,0,0,.42-5.16l-.142-.288.049-.317a7.287,7.287,0,0,0-1.642-5.609,9.1,9.1,0,0,0-1.817-1.711A5.427,5.427,0,0,1,229.839,460.8Z" transform="translate(-203.26 -455.6)" fill="#f26120"/>
    <path id="Path_6945" data-name="Path 6945" d="M202.5,465.856c-.253,1.4.208,3.341,3.657,4.879a8.163,8.163,0,0,0,1.838,6.286,10.574,10.574,0,0,0,6.037,3.358,15.632,15.632,0,0,0,3.355.314c5.027-.056,12.864-3.726,15.83-8.551a7.114,7.114,0,0,0,.648-6.836,9.381,9.381,0,0,0-2.111-6.88,11.2,11.2,0,0,0-2.626-2.36,13.108,13.108,0,0,0-6.362-2.042c-5.785-.375-9.72,3.728-11.207,5.605-.134.169-.256.328-.35.456C207.567,460.337,203.047,462.83,202.5,465.856Zm10.113-4.225c.038-.06,3.892-5.972,10.02-5.575a12.591,12.591,0,0,1,1.744.235,10.474,10.474,0,0,1,3.973,1.7,9.106,9.106,0,0,1,1.817,1.711,7.287,7.287,0,0,1,1.642,5.609l-.049.317.142.288a5.085,5.085,0,0,1-.42,5.16c-2.586,4.208-9.713,7.53-14.118,7.58-3.36.038-6.205-1.036-7.811-2.946a6.351,6.351,0,0,1-1.273-5.428l.154-.835-.792-.3c-1.281-.489-3.392-1.52-3.138-2.927.294-1.628,3.163-3.463,5.894-3.975a8.069,8.069,0,0,0,.284,4.208,5.634,5.634,0,0,0,1.6,2.372,4.606,4.606,0,0,0,2.512,1.083,4.349,4.349,0,0,1-2.15-1.441,4.856,4.856,0,0,1-.978-2.279,6.468,6.468,0,0,1,.181-2.741,7.6,7.6,0,0,1,.764-1.813Z" transform="translate(-202.442 -454)" fill="#1a1a1a"/>
  </g>
  <path id="Path_6946" data-name="Path 6946" d="M295.224,568.19a3.681,3.681,0,0,0,1.421.627,4.462,4.462,0,0,0,2.234-.139,6.734,6.734,0,0,0,4.52-6.237,3.885,3.885,0,0,0-5.256-3.808,6.439,6.439,0,0,0-3.239,2.408h0C293.091,563.541,293.235,566.748,295.224,568.19Zm1.329-5.955h0a4.459,4.459,0,0,1,2.192-1.658,1.864,1.864,0,0,1,2.617,1.9,4.7,4.7,0,0,1-3.086,4.258,2.074,2.074,0,0,1-1.857-.191C295.358,565.772,295.419,563.8,296.553,562.235Z" transform="translate(-90.092 -483.873)" fill="#1a1a1a"/>
  <path id="Path_6947" data-name="Path 6947" d="M253.985,507.36a6.071,6.071,0,0,0,3.219,3.053,6.315,6.315,0,0,0,1.042.311,9.443,9.443,0,0,0,5.806-.887c3.043-1.4,6.654-4.056,7.389-6.563a2.958,2.958,0,0,0-.307-2.5c-1.418-2.217-4.453-2.869-7.08-2.358a4.048,4.048,0,0,0-2-2.836,3.163,3.163,0,0,0-3.442.271,3.608,3.608,0,0,0-2.363-.652,8.057,8.057,0,0,0-6.349,4.6,4.868,4.868,0,0,0,.193,4.677A6.442,6.442,0,0,0,253.985,507.36Zm-2.229-6.712a6.057,6.057,0,0,1,4.595-3.412,1.313,1.313,0,0,1,1.318.556l.71,1.224.936-1.061c.608-.69,1.211-.882,1.783-.575a2,2,0,0,1,.934,2.131l-.51,1.929,1.862-.718c2.042-.79,4.932-.573,6.036,1.154a.921.921,0,0,1,.069.827c-.453,1.548-3.215,3.871-6.287,5.286a6.791,6.791,0,0,1-5.243.533,4.155,4.155,0,0,1-2.32-2.455l-.236-.585-.63-.05a4.281,4.281,0,0,1-2.918-1.984A2.88,2.88,0,0,1,251.756,500.648Z" transform="translate(-77.436 -465.787)" fill="#1a1a1a"/>
  <path id="Path_6948" data-name="Path 6948" d="M48.45,592.07c0-.009.006-.019.008-.028l-.03.029Z" transform="translate(-19.935 -493.496)" fill="#f26120"/>
  <path id="Path_6949" data-name="Path 6949" d="M55.441,561.489a3.081,3.081,0,0,1,.509-4.188c-3.095,2.382-10.349,3.282-12.9.325s-2.883-7.427-1.413-11.045a17.4,17.4,0,0,1,7.923-8.322c-5.388,2.292-12.422-1.27-13.764-6.969s3.368-12.025,9.213-12.375c.176.1.326.024.452-.14A21.591,21.591,0,0,0,35.35,521.94a8.2,8.2,0,0,0-.9.67c-.072.061-.143.121-.213.185a9.908,9.908,0,0,0-.832.83l-.009.011a12.076,12.076,0,0,0-.76.975c-.058.082-.116.165-.173.248-.243.358-.478.731-.7,1.13v0c-.221.4-.428.825-.627,1.261-.044.094-.086.189-.128.285a23.342,23.342,0,0,0-1.032,2.894c-.029.1-.059.2-.087.308-.144.525-.279,1.062-.4,1.615h0a21.9,21.9,0,0,0,.977,5.662,11.41,11.41,0,0,0,7.21,7.073,14.7,14.7,0,0,0,7.138,22.121c.115-.15.218-.308.342-.451a9.63,9.63,0,0,1,10.617-2.775,11.05,11.05,0,0,1,3.089,1.768,12.549,12.549,0,0,1-.023-1.989,7.813,7.813,0,0,1,.287-1.5A3.105,3.105,0,0,1,55.441,561.489Z" transform="translate(-14.517 -472.533)" fill="#f26120"/>
  <path id="Path_6950" data-name="Path 6950" d="M202.944,634.117a14.787,14.787,0,0,0,3.17.126,17.646,17.646,0,0,0,3.1-.464,16.29,16.29,0,0,0,2.66-.887l.155-.075c4.147-1.994,4.984-3.938,5.114-4.919a5.085,5.085,0,0,0-.984-3.644,4.09,4.09,0,0,0-3.082-1.329l-2.1-.1,1.379-1.588c5.962-6.861,6.937-11.7,6.575-17.3-.407-6.466-5.154-7.689-7.953-7.843l-.649-.036.018.124,0,.745c0,.247,0,.5-.009.742l-.119.712-.124.71-.213.67a18.11,18.11,0,0,1-2.509,4.819,33.238,33.238,0,0,1-3.1,3.669c3.569,1.521,5.915,6.5,4.183,9.953a7.335,7.335,0,0,1-10.488,2.465c1.336,8.509-6.815,17.131-15.386,16.274-7.754-.775-13.611-9.086-12.442-16.644a6.354,6.354,0,0,1-6.931,3.448,6.122,6.122,0,0,1-4.153-4.227c-1.5,5.91-7.027,10.86-13.213,10.984-7.7.154-14.7-7.209-14.153-14.894a11.952,11.952,0,0,1-11.469,10.348c-5.641.006-10.892-4.216-11.489-9.826a6.966,6.966,0,0,1-4.713,3.638,8.879,8.879,0,0,1-5.973-.852,10.38,10.38,0,0,1-5.227-6.537,7.727,7.727,0,0,1-7.631,5.961c-4.106-.168-5.716-3.19-7.207-6.4-2.042.854-3.47,1.872-5.9,1.857a10.256,10.256,0,0,1-6.546-2.313,10.7,10.7,0,0,1-1.675-13.964c-1.848,2.665-6.159,2.815-8.586.663s-2.975-5.928-1.837-8.965c.567-1.512,2.294-5.451,7.17-5.155a11.42,11.42,0,0,0-2.068-.632,9.121,9.121,0,0,0-4.892.331,8.486,8.486,0,0,0-3.825,2.765,7.609,7.609,0,0,0-1.6,4.292l-.056,1.2-1.214-.111a8.34,8.34,0,0,0-1.132-.012q-.238.013-.473.04c-.188.021-.372.054-.557.088a7.573,7.573,0,0,0-1.394.395,11.188,11.188,0,0,0,11.916,18.408,5.071,5.071,0,1,0,5.139,8.674c-.8,3.721,1.244,7.684,4.393,9.823a16.046,16.046,0,0,0,10.955,2.2,43.629,43.629,0,0,0,10.457-3.048c.091-.124.177-.251.272-.372a11.107,11.107,0,0,1,2.989-2.673,11.141,11.141,0,0,0-2.459,3.035,13.788,13.788,0,0,0-1.449,3.55c0,.009,0,.018-.006.027a5.957,5.957,0,0,0,4.418,3.434,8.02,8.02,0,0,0,6.087-1.307,10.156,10.156,0,0,1-.179-1.278c-.012-.141-.025-.283-.031-.424s-.009-.3-.007-.451a9.3,9.3,0,0,1,5.274-8.409,10.12,10.12,0,0,0-3.632,7.5c0,.307.016.613.044.919.014.149.036.3.057.446s.04.281.065.422q.055.3.126.589c.018.073.038.145.057.217.062.229.128.458.206.681,4.747,5.5,14.13,6.054,19.487.973a11.082,11.082,0,0,0,9.612,8.247c3.257.266,5.76-.153,7.906-1.829l0,0c.547-.548,1.079-1.111,1.6-1.684l.1-.109q.792-.874,1.549-1.78a47,47,0,0,1-4.908,5.829,25.025,25.025,0,0,1-6.2,4.557c-.475.245-.964.465-1.459.67-.453.192-.914.363-1.381.525a27.558,27.558,0,0,0,38.166-.862,9.933,9.933,0,0,0,18.984-1.622,15.624,15.624,0,0,0,16.9,1.908,14.8,14.8,0,0,0,8.1-13.922c-.151-.011-.3-.009-.455-.024a15.494,15.494,0,0,1-3.26-.647,15.133,15.133,0,0,1-3.008-1.3A14.894,14.894,0,0,0,202.944,634.117Z" transform="translate(-17.561 -490.981)" fill="#f26120"/>
  <path id="Path_6951" data-name="Path 6951" d="M161.457,673.454c.049-.021.095-.048.143-.069-.123.054-.251.1-.376.158C161.3,673.511,161.381,673.487,161.457,673.454Z" transform="translate(-52.208 -516.769)" fill="#f26120"/>
  <path id="Path_6952" data-name="Path 6952" d="M256.345,543.805a15.227,15.227,0,0,0-11.257-2.938,28.311,28.311,0,0,0-11.123,4.106,6.9,6.9,0,0,0-6.856-2.388c-3.2.759-4.542,3.145-5.133,5.867a5.448,5.448,0,0,1,.5,1.382,7.837,7.837,0,0,1,.154,1.092c.462-.259.952-.5,1.456-.728,9.316-4.24,25.4-3.265,36.062,3.912A10.57,10.57,0,0,0,256.345,543.805Z" transform="translate(-69.59 -478.823)" fill="#ffce22"/>
  <path id="Path_6953" data-name="Path 6953" d="M205.105,531.352a14.345,14.345,0,0,0-2.861-4.54,6.1,6.1,0,0,0-4.864-1.888c-3.14.389-5.631,3.693-7.306,6.1a55.678,55.678,0,0,0-3.178,5.317c.125.4.236.82.329,1.256q.153.719.248,1.5c.072-.072.146-.134.218-.2,4.292-4.13,8.8-4.2,11.608-2.8,2.7,1.348,2.984,4.665,2.571,7.249a20.639,20.639,0,0,1,3.408-1.283,6.586,6.586,0,0,0,1.294-2.755C207.113,536.62,206.215,533.858,205.105,531.352Z" transform="translate(-59.553 -474.283)" fill="#ffce22"/>
  <path id="Path_6954" data-name="Path 6954" d="M229.344,669.916a15.624,15.624,0,0,1-16.9-1.908,9.933,9.933,0,0,1-18.984,1.622,27.558,27.558,0,0,1-38.166.862,25,25,0,0,1-4.571,1.142c-.871.131-1.747.209-2.624.266l1.814,1.843c3.544,3.6,7.348,7.349,12.247,8.575,1.8.451,3.918.67,4.976,2.2a3.934,3.934,0,0,1,.5,2.987c.787.2,1.579.391,2.379.558,6.121,1.274,20.136.807,27.5-4.384a11.16,11.16,0,0,1-.961-1.262,12.468,12.468,0,0,1-1.3-2.5,12.3,12.3,0,0,1-.842-5.366,11.782,11.782,0,0,0,1.754,4.913,11.161,11.161,0,0,0,1.578,1.992,12.072,12.072,0,0,0,1.819,1.51l.025.016c6.751,4.432,11.344.64,13.046-1.258a6.314,6.314,0,0,0,.87-4.1,14.655,14.655,0,0,0-.365-2.394,7.289,7.289,0,0,0-.86-2.286,7.488,7.488,0,0,1,1.341,2.117,15.421,15.421,0,0,1,.889,2.391,9.918,9.918,0,0,1,.4,2.614,7.075,7.075,0,0,1-.115,1.36c10.068.617,17.031-1.989,23.086-8.618,6.576-7.209,6.212-14,4.919-17.17a18.253,18.253,0,0,1-5.358.359A14.8,14.8,0,0,1,229.344,669.916Z" transform="translate(-48.454 -511.691)" fill="#842424"/>
  <path id="Path_6955" data-name="Path 6955" d="M103.7,651.6a9.948,9.948,0,0,0-.264,3.645A8.307,8.307,0,0,0,104.6,658.4l.009.012a11.617,11.617,0,0,0,1.183,1.4c.146.149.3.285.446.421,1.135-.614,2.334-1.141,3.494-1.628a26.216,26.216,0,0,1,5.6-1.843,10.571,10.571,0,0,1-1.13-3.03,8.02,8.02,0,0,1-6.087,1.307A5.957,5.957,0,0,1,103.7,651.6Z" transform="translate(-35.654 -510.537)" fill="#842424"/>
  <path id="Path_6956" data-name="Path 6956" d="M150.42,664.1a11.082,11.082,0,0,1-9.612-8.247c-5.357,5.081-14.74,4.522-19.487-.973a9.412,9.412,0,0,0,1.457,2.674,8.464,8.464,0,0,1,1.042.113,12.76,12.76,0,0,1,6.229,3.545c.536.061,1.077.106,1.622.124a20.223,20.223,0,0,0,4.315-.393,14.278,14.278,0,0,0,4.185-1.418,10.945,10.945,0,0,1-3.911,2.367,16.758,16.758,0,0,1-4.47,1.01c.073.073.148.147.221.221l6.718,6.821a31.163,31.163,0,0,0,4.156-.044,22.735,22.735,0,0,0,6.923-1.653h0c.124-.053.253-.1.376-.158h0a24.363,24.363,0,0,0,6.142-3.942c.692-.6,1.352-1.231,2-1.88h0C156.18,663.945,153.677,664.364,150.42,664.1Z" transform="translate(-40.791 -511.474)" fill="#842424"/>
  <path id="Path_6957" data-name="Path 6957" d="M34.869,564.166a14.97,14.97,0,0,1,1.563-13.632,11.41,11.41,0,0,1-7.21-7.073,21.9,21.9,0,0,1-.977-5.662,41.455,41.455,0,0,0,4.246,27.6l.715,1.274-1.443.229c-3.983.633-6.394,2.751-6.612,5.811-.249,3.483,2.526,8.013,7.618,9.953a11.748,11.748,0,0,1,3.574-4.413,8.873,8.873,0,0,1,3.142-1.45,9.246,9.246,0,0,1,2.279-.254l.03-.029a9.439,9.439,0,0,1,1.777-3.868A15.018,15.018,0,0,1,34.869,564.166Z" transform="translate(-13.271 -477.976)" fill="#842424"/>
  <path id="Path_6958" data-name="Path 6958" d="M63.357,633.005c-3.148-2.14-5.2-6.1-4.393-9.823a5.071,5.071,0,1,1-5.139-8.674A11.188,11.188,0,0,1,41.909,596.1a6.928,6.928,0,0,0-1.418.744,11.584,11.584,0,0,0-3.464,4.2h0c-2.533,6.027-2.782,11.057-.716,14.548,1.733,2.931,5.111,4.793,9.515,5.253l1.917.2-1.245,1.471a4.077,4.077,0,0,0-.908,4.012c.672,2.019,2.9,3.642,5.953,4.344l.675.155.1.685c1.566,10.331,7.568,13.8,12.327,14.89l.248.055c5.854,1.219,14.238-1.262,17.942-3.774a7.266,7.266,0,0,1-.74-3.427,11.422,11.422,0,0,1,.885-4.136,14.667,14.667,0,0,1,1.787-3.167A43.624,43.624,0,0,1,74.312,635.2,16.046,16.046,0,0,1,63.357,633.005Z" transform="translate(-16.071 -494.657)" fill="#842424"/>
  <path id="Path_6959" data-name="Path 6959" d="M219.171,542.305a3.927,3.927,0,0,1,1.339,1.536c.591-2.721,1.936-5.108,5.133-5.867a6.9,6.9,0,0,1,6.856,2.388,28.31,28.31,0,0,1,11.123-4.106,15.227,15.227,0,0,1,11.257,2.938,10.57,10.57,0,0,1,3.8,10.3c.7.471,1.376.967,2.026,1.492.241.2.485.39.72.592.075-.106.151-.216.227-.325a26.888,26.888,0,0,0,4.366-9.408,14.132,14.132,0,0,0-5.174-14.346c-8.424-7.1-22.134.643-27.457,5.5l-1.43,1.306-.265-1.918a1.975,1.975,0,0,0-1.115-1.6,4.953,4.953,0,0,0-4.377.625l-.54.309a26.045,26.045,0,0,0-8.808,9.878A4.658,4.658,0,0,1,219.171,542.305Z" transform="translate(-68.124 -474.212)" fill="#f26120"/>
  <path id="Path_6960" data-name="Path 6960" d="M184.3,531a55.679,55.679,0,0,1,3.178-5.317c1.675-2.406,4.166-5.71,7.306-6.1a6.1,6.1,0,0,1,4.864,1.888,14.345,14.345,0,0,1,2.861,4.54c1.11,2.506,2.008,5.268,1.468,7.955a6.587,6.587,0,0,1-1.294,2.755c.264-.071.528-.141.788-.194,1.043-3.617,6.107-9.593,10.2-11.942,1.608-4.961,1.437-10.2-.487-13.744a8.46,8.46,0,0,0-5.543-4.35c-7.218-1.821-17.171,6.233-19.428,10.943l-3.074,6.422,1.151-7.026c.6-3.677.438-6.34-.461-7.5a1.744,1.744,0,0,0-1.312-.683c-2.145-.177-5.343,3.816-6.7,6.745a35.122,35.122,0,0,1,1.857,9.881A8.99,8.99,0,0,1,184.3,531Z" transform="translate(-56.953 -468.944)" fill="#f26120"/>
  <path id="Path_6961" data-name="Path 6961" d="M129.792,508.551a10.175,10.175,0,0,1,2.875,14.163,9.567,9.567,0,0,1,14.1,3.675,16.937,16.937,0,0,1,13.68-2.784,32.114,32.114,0,0,0-1.808-8.8l-.257-.543c-1.72-3.634-2.96-6.252-5.295-8.214a14.469,14.469,0,0,1-1.985,1.3,17.154,17.154,0,0,1-11.781,1.711,18.425,18.425,0,0,1-1.981-.53,18.683,18.683,0,0,1-8.413-5.638,32.4,32.4,0,0,0-11,7.824C121.384,507.985,124.955,505.669,129.792,508.551Z" transform="translate(-39.82 -467.986)" fill="#f26120"/>
  <path id="Path_6962" data-name="Path 6962" d="M112.573,833.024a101.642,101.642,0,0,1,4.413-17.6c-5.763,3.995-16.328,10.98-19.222,10.607-3.844-.5-5.5-3.143-5.75-9.291C86.4,820.38,82.445,820,80.042,818.952c-3.278-1.427-5.246-4.667-6.214-7.947a24.8,24.8,0,0,1-9.81,9.3,8.969,8.969,0,0,1-3.143.925,118.426,118.426,0,0,1,2.094,11.789Z" transform="translate(-23.497 -556.144)" fill="#fff9b5"/>
  <path id="Path_6963" data-name="Path 6963" d="M137.458,715.828a3.727,3.727,0,0,0-2.586.238,4.88,4.88,0,0,0-.984,1.055l-.613.691c-.827,2.194-1.671,4.382-2.583,6.544-1.231,2.954-2.531,5.882-4.021,8.741.693-3.15,1.577-6.229,2.528-9.284.563-1.835,1.173-3.652,1.8-5.463a1.11,1.11,0,0,1-.029-.2,2.93,2.93,0,0,1,.244-1.029,18.992,18.992,0,0,0,1.1-7.339c-.028-.573-.173-1.265-.718-1.441a1.306,1.306,0,0,0-1.236.481,4.886,4.886,0,0,0-1.328,2.6,8.455,8.455,0,0,1-.438,1.443q-.459,1.781-.954,3.55c-.885,3.2-1.884,6.363-2.9,9.519-1.057,3.145-2.138,6.281-3.332,9.38s-2.431,6.182-3.873,9.2c.637-3.284,1.466-6.5,2.364-9.7s1.883-6.359,2.906-9.512c1.058-3.14,2.139-6.274,3.332-9.372.057-.15.117-.3.174-.448a1.648,1.648,0,0,0-.093-.141,1.745,1.745,0,0,0-2.482.111c.644-2.163,1.353-4.3,1.848-6.5a54.125,54.125,0,0,0,1.029-6.269c.142-1.366.094-3.024-1.076-3.742-1.932-1.186-4.335,1.332-5.214,2.829a62.316,62.316,0,0,0-3.183,6.214c-.311,1.089-.613,2.18-.929,3.267-2.878,9.84-5.807,19.673-9.21,29.344,2.268-7.2,4.273-14.47,6.191-21.766.058-.5.131-1,.176-1.5a5.267,5.267,0,0,0-.413-2.945,2.431,2.431,0,0,0-2.461-1.366,3.363,3.363,0,0,0-2.043,1.86,21.07,21.07,0,0,0-1.833,5.356c-.008,0-.016-.006-.024-.008-.889,3.334-1.8,6.661-2.751,9.976-1.655,5.882-3.467,11.716-5.268,17.565,1.032-6.035,2.332-12.016,3.729-17.963,1.256-5.438,2.606-10.85,3.953-16.261a58.861,58.861,0,0,0,.621-13.513,8.467,8.467,0,0,0-.819-3.554,3.184,3.184,0,0,0-2.982-1.765,4.232,4.232,0,0,0-2.5,1.649,21.728,21.728,0,0,0-3.816,6.853l-.41,1.1c-.041.313-.081.62-.122.934-.017.127-.034.256-.051.383q-.177,1.339-.358,2.7l-.008.059c-.123.919-.248,1.848-.374,2.783q-.032.238-.065.477-.377,2.781-.775,5.634-.042.3-.084.6-.195,1.4-.4,2.806c-.012.086-.025.172-.037.258q-.182,1.282-.368,2.569-.05.343-.1.685-.2,1.391-.407,2.783-.032.214-.064.428-.184,1.24-.37,2.482c-.031.207-.062.414-.094.62q-.21,1.392-.423,2.778l-.084.538q-.187,1.221-.378,2.437c-.029.183-.058.368-.086.55q-.214,1.358-.43,2.7c-.036.223-.072.446-.109.67q-.193,1.193-.388,2.376l-.073.442q-.22,1.33-.443,2.641l-.118.692q-.208,1.217-.417,2.418c-.016.09-.031.181-.046.271q-.227,1.3-.456,2.564c-.039.217-.078.433-.117.649-.154.852-.309,1.7-.465,2.531l-.03.159c-.147.786-.295,1.559-.443,2.326-.039.2-.079.408-.118.61-.155.793-.309,1.578-.464,2.347l-.073.357q-.208,1.024-.415,2.016c-.038.178-.075.358-.112.534q-.233,1.1-.466,2.159c-.031.143-.063.282-.094.424q-.2.915-.408,1.795c-.034.146-.067.293-.1.438q-.233,1-.468,1.952c-.034.141-.069.278-.1.417q-.209.835-.416,1.63c-.027.1-.054.21-.081.311-.157.593-.313,1.163-.47,1.716-.036.128-.072.253-.109.38-.145.505-.29,1-.435,1.466-.017.056-.034.116-.051.172-.157.505-.313.983-.47,1.445-.037.11-.074.218-.111.325-.158.458-.316.9-.474,1.311a8.928,8.928,0,0,0,4.377,4.747c3.049,1.328,7.042.263,11.535-3.084l1.634-1.218-.008,2.037c-.028,8.008,1.88,8.922,4.008,9.193,1.2.154,5.945-2.49,11.5-6.059l.582-1.653.161-.459q.289-.823.59-1.676l.22-.624.475-1.349.119-.335q.3-.847.605-1.718l.259-.735c.211-.6.425-1.207.643-1.823.034-.1.068-.194.1-.291q.3-.836.6-1.69c.095-.27.19-.538.286-.81l1.451-4.106.212-.6.725-2.046.094-.266.818-2.309c.032-.09.064-.181.1-.271l.749-2.109.112-.316.83-2.336.117-.329q.851-2.394,1.714-4.817c.038-.1.075-.211.113-.316l.867-2.429c.023-.065.046-.129.069-.193q.886-2.48,1.772-4.955c.034-.1.069-.194.1-.291l.847-2.364.1-.281.831-2.313.043-.118q.43-1.2.859-2.388l.1-.268q.865-2.4,1.713-4.742l.086-.239.833-2.3c.019-.051.037-.1.055-.152q.837-2.305,1.645-4.515l.093-.255.783-2.139.031-.085q.723-1.971,1.409-3.826A3.62,3.62,0,0,0,137.458,715.828Zm-24.327,12.25c2.04-6.474,3.778-13,5.728-19.494a.183.183,0,0,1,.358.074,175.468,175.468,0,0,1-4.455,20.743c-1.6,6.217-3.045,12.794-5.658,18.669-.31.7-1.246.239-1.174-.416C108.656,741.032,111.136,734.412,113.13,728.077Zm-12.874-1.264a.167.167,0,0,1,.328.068,237.984,237.984,0,0,1-7.6,35.862.541.541,0,0,1-1.059-.221C93.506,750.617,96.839,738.317,100.257,726.814Zm2.06,43.855a.35.35,0,0,1-.685-.143,42.076,42.076,0,0,1,3.338-12.412.391.391,0,0,1,.728.257C104.93,762.512,103.458,766.614,102.316,770.669Zm16.9-7.018c-.181.5-.984.188-.862-.3,2.85-11.573,7.217-22.712,11.432-33.832.1-.26.547-.1.461.163C126.528,740.979,123.3,752.469,119.217,763.651Z" transform="translate(-29.75 -522.865)" fill="#ffce22"/>
  <path id="Path_6964" data-name="Path 6964" d="M161.691,688.835c-4.9-1.225-8.7-4.976-12.247-8.575l-1.814-1.843c-.395.026-.788.056-1.183.069,2.066,8.843,11.934,13.238,20,15.366.234.061.478.108.714.168a3.934,3.934,0,0,0-.5-2.987C165.609,689.5,163.5,689.286,161.691,688.835Z" transform="translate(-47.98 -518.209)" fill="#842424"/>
  <path id="Path_6965" data-name="Path 6965" d="M107.391,662.3c3.213,2.931,7.327,2.93,11.256.006.18-.133.358-.283.537-.428-.184-.133-.373-.255-.55-.4a9.839,9.839,0,0,1-2.148-2.648,26.216,26.216,0,0,0-5.6,1.843C109.725,661.157,108.526,661.685,107.391,662.3Z" transform="translate(-36.805 -512.604)" fill="#842424"/>
  <path id="Path_6966" data-name="Path 6966" d="M123.362,658.624a8.176,8.176,0,0,0,1.167,1.251,9.633,9.633,0,0,0,3.563,1.885,13.079,13.079,0,0,0,2.541.523,12.76,12.76,0,0,0-6.229-3.545A8.464,8.464,0,0,0,123.362,658.624Z" transform="translate(-41.375 -512.546)" fill="#842424"/>
  <path id="Path_6967" data-name="Path 6967" d="M133.572,665.815c-.024,0-.046.006-.069.008a13.955,13.955,0,0,1-5.95-.762,16.239,16.239,0,0,0,9.836,7.528c1.038.128,2.08.216,3.122.269l-6.718-6.821C133.72,665.962,133.645,665.888,133.572,665.815Z" transform="translate(-42.574 -514.387)" fill="#842424"/>
  <path id="Path_6968" data-name="Path 6968" d="M118,708.129a3.362,3.362,0,0,1,2.043-1.86,2.431,2.431,0,0,1,2.461,1.366,5.267,5.267,0,0,1,.413,2.945c-.045.5-.118,1-.176,1.5q1.031-3.919,2.037-7.846,2.3-9.032,4.464-18.1c.835-3.473,1.671-6.945,2.486-10.422a17.756,17.756,0,0,1-6.759-4.6c-.613,5.629-1.573,11.219-2.708,16.76-.258,1.282-.53,2.561-.806,3.838q-.729,3.38-1.528,6.743-.1.422-.2.844-.768,3.233-1.566,6.457-.986,3.869-2.019,7.725c.008,0,.016.006.024.008A21.07,21.07,0,0,1,118,708.129Z" transform="translate(-39.311 -516.118)" fill="#842424"/>
  <path id="Path_6969" data-name="Path 6969" d="M106.031,688.157a4.232,4.232,0,0,1,2.5-1.649,3.184,3.184,0,0,1,2.982,1.765,8.467,8.467,0,0,1,.819,3.554,58.861,58.861,0,0,1-.621,13.513q.192-.769.382-1.538l3.654-14.306.877-3.432c1.384-5.514,2.818-11.012,4.12-16.559a20.61,20.61,0,0,1-2.524-3.469c-4.33,3.2-9.024,3.417-12.8.655-.022.192-.046.4-.07.617-.008.066-.016.139-.024.208-.019.171-.039.343-.06.528-.009.073-.018.153-.026.228-.019.161-.037.324-.057.495l-.051.44-.048.415c-.023.2-.046.4-.071.605l-.021.186q-.048.414-.1.855l0,.029q-.052.442-.106.91c-.007.054-.014.11-.02.166-.036.3-.073.615-.11.936l0,.041c-.289,2.447-.635,5.332-1.031,8.55l-.04.324c-.044.355-.089.716-.133,1.078l-.046.377q-.145,1.164-.3,2.377c-.008.063-.016.129-.024.192q-.148,1.179-.3,2.4l-.019.151q-.161,1.272-.33,2.586c-.011.088-.022.176-.034.264q-.158,1.238-.324,2.508l-.026.2c-.075.574-.152,1.161-.228,1.745l.41-1.1A21.728,21.728,0,0,1,106.031,688.157Z" transform="translate(-35.207 -514.667)" fill="#842424"/>
  <path id="Path_6970" data-name="Path 6970" d="M155.128,717.254a3.727,3.727,0,0,1,2.586-.238,3.62,3.62,0,0,1,2.229,2.014h0c.045-.121.091-.247.136-.368l.079-.214q.739-2,1.427-3.836l.054-.144q.346-.924.677-1.8l.022-.059c.225-.6.445-1.181.66-1.746q.29-.765.566-1.485c.021-.055.042-.109.063-.163q.54-1.41,1.023-2.645l.082-.209q.464-1.185.869-2.187l.086-.215c.129-.317.254-.624.372-.91l.007-.017c.119-.286.23-.551.337-.8l.079-.186c.1-.246.206-.48.3-.692a50.223,50.223,0,0,1-6.9-2.5c-.672,2.935-1.5,5.817-2.387,8.675-.185.6-.39,1.2-.583,1.8q-1.18,3.669-2.479,7.294c-.3.8-.6,1.6-.9,2.394l.613-.691A4.88,4.88,0,0,1,155.128,717.254Z" transform="translate(-50.007 -524.052)" fill="#842424"/>
  <path id="Path_6971" data-name="Path 6971" d="M139.318,694.275c1.17.718,1.218,2.377,1.076,3.742a54.119,54.119,0,0,1-1.029,6.269c-.495,2.2-1.2,4.34-1.848,6.5a1.745,1.745,0,0,1,2.482-.111,1.651,1.651,0,0,1,.093.141c1.131-2.95,2.327-5.88,3.7-8.754-.4,2.067-.887,4.108-1.411,6.138a8.456,8.456,0,0,0,.438-1.443,4.885,4.885,0,0,1,1.328-2.6,1.306,1.306,0,0,1,1.236-.481c.545.176.69.869.718,1.441a18.992,18.992,0,0,1-1.1,7.339,2.93,2.93,0,0,0-.244,1.029,1.109,1.109,0,0,0,.029.2q.625-1.815,1.268-3.624,1.321-3.564,2.744-7.091c.249-.614.485-1.233.743-1.843,1.154-2.766,2.373-5.51,3.746-8.2-6.189-2.826-11.8-7.245-13.328-14.146a15.531,15.531,0,0,1-2.1-.389q-1.391,5.161-2.823,10.311-1.139,4.13-2.307,8.251-.9,3.182-1.808,6.361A62.319,62.319,0,0,1,134.1,697.1C134.983,695.607,137.386,693.088,139.318,694.275Z" transform="translate(-43.538 -518.203)" fill="#842424"/>
  <path id="Path_6972" data-name="Path 6972" d="M140.25,720.306c-.057.149-.117.3-.174.448-1.194,3.1-2.274,6.232-3.332,9.372-1.022,3.153-2.02,6.314-2.906,9.512s-1.727,6.412-2.364,9.7c1.441-3.013,2.691-6.093,3.873-9.2s2.274-6.235,3.332-9.38c1.021-3.156,2.02-6.319,2.9-9.519q.5-1.769.954-3.55c.524-2.03,1.008-4.071,1.411-6.138C142.576,714.427,141.38,717.357,140.25,720.306Z" transform="translate(-43.696 -527.689)" fill="#842424"/>
  <path id="Path_6973" data-name="Path 6973" d="M96.661,775.568a237.981,237.981,0,0,0,7.6-35.862.167.167,0,0,0-.328-.068c-3.418,11.5-6.751,23.8-8.336,35.709A.541.541,0,0,0,96.661,775.568Z" transform="translate(-33.43 -535.689)" fill="#fff9b5"/>
  <path id="Path_6974" data-name="Path 6974" d="M119.2,753.582c2.613-5.875,4.06-12.452,5.658-18.669a175.467,175.467,0,0,0,4.455-20.743.183.183,0,0,0-.358-.074c-1.95,6.494-3.689,13.02-5.728,19.494-1.995,6.334-4.475,12.954-5.2,19.576C117.954,753.821,118.891,754.278,119.2,753.582Z" transform="translate(-39.847 -528.377)" fill="#fff9b5"/>
  <path id="Path_6975" data-name="Path 6975" d="M113.27,783.707a.391.391,0,0,0-.728-.257,42.076,42.076,0,0,0-3.338,12.412.35.35,0,0,0,.685.143C111.031,791.951,112.5,787.848,113.27,783.707Z" transform="translate(-37.323 -548.201)" fill="#fff9b5"/>
  <path id="Path_6976" data-name="Path 6976" d="M107.117,837.653a6.267,6.267,0,0,1,.618-2.511,11.158,11.158,0,0,1-14.986-2.029,10.349,10.349,0,0,1-15.062-5.928,4.334,4.334,0,1,1-8.317,2.4c.618,2.671,1.471,5.367,1.89,8.073Z" transform="translate(-25.927 -560.773)" fill="#ffce22"/>
  <path id="Path_6977" data-name="Path 6977" d="M144.059,743.419c-4.215,11.12-8.582,22.259-11.432,33.832-.122.493.682.8.862.3,4.08-11.182,7.311-22.672,11.031-33.974C144.606,743.32,144.158,743.159,144.059,743.419Z" transform="translate(-44.022 -536.769)" fill="#fff9b5"/>
  <g id="Group_5710" data-name="Group 5710" transform="translate(8.518 2.65)">
    <path id="Path_6978" data-name="Path 6978" d="M122.09,472.323a6.256,6.256,0,0,0,6.763,1.887,5.765,5.765,0,0,0-.131,3.207,4.472,4.472,0,0,1,.523.551,4.238,4.238,0,0,0-.477-.349,7.95,7.95,0,0,0,3.6,4.7c2.753,1.616,6.17,1.683,9.3,1.079a24.321,24.321,0,0,0,7.22-2.629,7.125,7.125,0,0,1,.737-.352l-1.82-.308,2.48-1.412c2.818-1.606,4.553-2.8,5.546-4.083,1.206-1.564,1.314-3.272.891-6.047-.359-2.359-3.165-5.458-7.241-6.558-2.792-.757-8.265-1.047-13.514,5.469l-1.846,2.29.034-2.941c.032-2.743-1.154-4.925-3.173-5.835-2.1-.951-4.712-.276-7,1.79a14.036,14.036,0,0,0-2.963,3.856A6.266,6.266,0,0,0,122.09,472.323Zm15.793-1.978c1.882-4.829,11.329-9.246,12.994-1.756a6.4,6.4,0,0,1-2.674,6.367,9.067,9.067,0,0,1-7,1.264,4.777,4.777,0,0,1-3.347-2.026A4.58,4.58,0,0,1,137.882,470.344Z" transform="translate(-49.149 -458.53)" fill="#f26120"/>
    <path id="Path_6979" data-name="Path 6979" d="M141.6,489.943c-3.135.6-6.552.537-9.3-1.079a7.95,7.95,0,0,1-3.6-4.7,5.082,5.082,0,0,0-3.956-.544,6.113,6.113,0,0,0-.885.3,5.211,5.211,0,0,0-2.451,2l-.005.009c-1.085,1.938-1.194,3.959-.285,5.278,1.112,1.613,3.724,2.2,7.348,1.672a17.793,17.793,0,0,0,4.669-2.071c.19-.119.385-.227.57-.354-.084.112-.18.218-.267.328a18.761,18.761,0,0,1-3.488,3.381,15.855,15.855,0,0,0,8.768,6.868,15.251,15.251,0,0,0,12.156-1.035c3.435-1.868,5.059-4.509,4.57-7.437-.441-2.652-2.6-5.05-4.887-5.423l-.993-.168a7.125,7.125,0,0,0-.737.352A24.32,24.32,0,0,1,141.6,489.943Z" transform="translate(-49.073 -465.076)" fill="#842424"/>
    <path id="Path_6980" data-name="Path 6980" d="M124.079,478.5a6.307,6.307,0,0,1,2.558.423,4.9,4.9,0,0,1,1.484.928,5.765,5.765,0,0,1,.131-3.207,6.063,6.063,0,0,1-7.822-7.572,14.32,14.32,0,0,0-1.735,7.5,5.609,5.609,0,0,0,1.271,3.4A7.128,7.128,0,0,1,124.079,478.5Z" transform="translate(-48.548 -460.962)" fill="#842424"/>
    <path id="Path_6981" data-name="Path 6981" d="M207.007,841.534l1.219-1.06-2.635,1.06Z" transform="translate(-73.419 -567.226)" fill="#1a1a1a"/>
    <path id="Path_6982" data-name="Path 6982" d="M209.416,585.282c5.374-6.68,6.278-11.826,5.918-17.387-.246-3.9-1.917-6.777-4.747-8.362a10.826,10.826,0,0,0-3.6-1.219c3.206-6.259,7.7-16.475-.248-24.488.329-.456.625-.908.924-1.361,6.567-9.924,6-19.189-1.706-25.668-8.193-6.908-21.415-1.707-28.995,4.56a3.953,3.953,0,0,0-1.685-1.54,5.893,5.893,0,0,0-4.2-.2c1.214-4.954.817-10.021-1.136-13.623a10.553,10.553,0,0,0-6.835-5.353c-7.13-1.777-15.276,3.914-19.45,8.712a8.075,8.075,0,0,0-1.253-5.145,3.8,3.8,0,0,0-2.748-1.463c-3.123-.258-6.233,3.519-7.937,6.434-1.482-3.092-2.792-5.523-5.019-7.449a8.133,8.133,0,0,0,2.217-5.972,8.252,8.252,0,0,0-.1-.9,9.2,9.2,0,0,0-3.158-5.448,8.2,8.2,0,0,0-1.21-.856c2.948-1.823,4.65-3.382,5.385-5.5a9.283,9.283,0,0,0,.408-3.412,19.083,19.083,0,0,0-.2-2.193c-.53-3.486-4.28-7.02-8.724-8.219-2.978-.8-8.574-1.19-14.074,4.4a7.5,7.5,0,0,0-4.119-5.311c-2.856-1.288-6.3-.489-9.2,2.137a16.92,16.92,0,0,0-5.236,9.91,13.692,13.692,0,0,0-.126,3.123,7.405,7.405,0,0,0,2.035,4.859,7.938,7.938,0,0,0-.715,3.989,6.157,6.157,0,0,0,.263,1.281,5.15,5.15,0,0,0,.66,1.378,6.221,6.221,0,0,0,3.887,2.464,13.812,13.812,0,0,0,4.727.161c.117.216.262.423.393.635a32.087,32.087,0,0,0-8.146,5.192c-.877.752-1.688,1.513-2.43,2.268-.7.712-1.352,1.417-1.922,2.089a30.246,30.246,0,0,0-2.389,3.18,8.388,8.388,0,0,0-2.664-2.449,5.268,5.268,0,0,0-1.371-.53,4.336,4.336,0,0,0-3.472.652c-1.523,1.087-2.374,4.277-2.621,7.074-4.369-3.99-10.073-5.478-12.437-4.619a4.653,4.653,0,0,0-2.647,3.033,24.882,24.882,0,0,0-7.829-3.9,26.086,26.086,0,0,0-8.521-1.048,23.847,23.847,0,0,0-11.688,3.548c-3.155,1.982-5.493,6.2-6.693,11.507a42.908,42.908,0,0,0,3.734,28.014c-4.121,1.065-6.683,3.757-6.942,7.391-.348,4.87,3.391,9.854,8.834,11.973-1.811,4.67-2.305,8.823-1.475,12.24a11.547,11.547,0,0,0,1.276,3.169c1.844,3.115,5.18,5.218,9.43,6.007a5.824,5.824,0,0,0-.331,4.535c.845,2.535,3.347,4.565,6.76,5.516,1.5,8.567,6.37,14.2,13.777,15.9.09.02.179.04.27.059,6.117,1.274,15.17-1.092,19.557-4.1.132.157.266.292.4.437-.024.212-.056.5-.1.861-.276,2.421-.93,8.09-1.861,15.623-.048.388-.095.774-.144,1.171-.375,3.015-.79,6.3-1.241,9.784-2.055,15.868-4.843,35.75-7.8,51.975-2.632,2.688-4.9,4.435-6.317,4.447-3.8.034-5.371-14.795-6.636-26.707-.543-5.106-1.1-10.388-1.833-15.142l-.922-6.022-1.087,5.994c-.69,3.814-1.144,8.59-1.67,14.122a297.154,297.154,0,0,1-3.981,29.889c-2.491,12.721-5.876,19.391-7.06,19.552-5.217-.208-6.017-10.294-6.027-10.4l-.657-8.852-1.364,8.769c-.672,4.318-3.685,15.425-9.49,14.969l-1.643-.128,6.8,16.662,2.172.021L23.5,717.4c4.912-.8,7.645-7.21,8.994-11.838.993,3.362,3.018,7.251,7.055,7.414,4.811.193,8.712-19.006,9.14-21.2A298.5,298.5,0,0,0,52.7,661.692c.217-2.282.421-4.435.635-6.439.291,2.488.559,5.019.824,7.509,1.88,17.714,3.327,28.575,8.677,28.528,1.519-.012,3.5-1.234,5.682-3.141q-.664,3.5-1.334,6.673c-1.1,5.242-2.212,9.774-3.3,13.19-.1-.512-.186-1.019-.239-1.509l-.532-4.829-1.453,4.636c-1.428,4.556-6.346,9.3-10.084,11.081a4.772,4.772,0,0,1-3.362.626l-2.406-.954,1.111,2.338c.755,1.588,1.753,7.785,2.424,12.542H51.4a118.426,118.426,0,0,0-2.094-11.789,8.969,8.969,0,0,0,3.143-.925,24.8,24.8,0,0,0,9.81-9.3c.968,3.28,2.936,6.52,6.214,7.947,2.4,1.046,6.362,1.428,11.971-2.209.253,6.148,1.907,8.793,5.75,9.291,2.894.373,13.459-6.612,19.222-10.607a101.642,101.642,0,0,0-4.413,17.6h2.051a109.313,109.313,0,0,1,5.326-19.9l1.134-3.088-2.68,1.907c-1.99,1.416-4.051,2.833-6.069,4.176,1.429-4.063,3.058-8.681,4.8-13.6.964-2.726,1.962-5.542,2.983-8.417a5,5,0,0,0,2.57,1.273c3.046.57,7.247-1.246,11.571-3.994-.4,1-.8,2.007-1.147,3.034q-.936,2.526-1.7,5.114c-.4,1.344-.758,2.7-1.09,4.061-.143.583-.289,1.165-.419,1.751.6-1.276,1.179-2.555,1.751-3.834q.643-1.436,1.282-2.869c.54-1.211,1.082-2.422,1.64-3.625q1.275-2.8,2.571-5.586a124.237,124.237,0,0,0,12.461-10.453c-5.753,12.815-16.095,37.331-12.883,41.252,2.893,3.532,13.759.127,20.625-2.511-4.335,4.193-10.489,10.6-12.958,15.314h2.286c3.068-4.968,10.739-12.766,16.12-17.624l4.733-4.273-5.828,2.586c-8.428,3.74-21.255,7.833-23.4,5.218-2-2.438,6.282-24.341,15.436-44.108l2.536-5.474-4.192,4.338a140.535,140.535,0,0,1-13.057,11.778c.109-.226.213-.455.323-.682,1.6-3.4,3.272-6.771,4.937-10.149l5.046-10.152a80.558,80.558,0,0,0-6.44,9.39c-1,1.618-1.89,3.292-2.814,4.95-.877,1.683-1.743,3.374-2.566,5.085-.642,1.346-1.246,2.711-1.845,4.077-4.878,3.47-9.612,5.946-12.6,5.386a3.121,3.121,0,0,1-2.159-1.483c6.272-17.649,13.188-36.885,17.607-48.515.413-1.087.806-2.112,1.173-3.058,1.112-2.867,2-5.065,2.594-6.364.786.195,1.574.391,2.37.557,6.539,1.361,21.711.8,29.493-4.977,7.5,4.518,12.841.315,14.76-1.669,7.54.588,17.138-.046,25.528-9.23a25.453,25.453,0,0,0,4.435-6.589,16.916,16.916,0,0,0,1.119-12.007c-.075-.236-.153-.463-.237-.675,4.028-2.16,5.147-4.449,5.357-6.04a7.113,7.113,0,0,0-1.446-5.215A5.536,5.536,0,0,0,209.416,585.282ZM170.008,512.27a4.953,4.953,0,0,1,4.377-.625,1.975,1.975,0,0,1,1.115,1.6l.265,1.918,1.43-1.306c5.323-4.858,19.033-12.6,27.457-5.5,5.324,4.474,6.184,9.634,5.174,14.346a26.894,26.894,0,0,1-4.366,9.408c-.076.109-.152.219-.227.325-.234-.2-.478-.4-.72-.593-.65-.525-1.327-1.021-2.026-1.492-10.66-7.177-26.746-8.152-36.062-3.912-.5.229-.994.469-1.456.728a7.836,7.836,0,0,0-.154-1.091,5.448,5.448,0,0,0-.5-1.382,3.932,3.932,0,0,0-1.339-1.536,4.658,4.658,0,0,0-2.317-.7,26.052,26.052,0,0,1,8.808-9.879Zm-30.52-17.5a1.743,1.743,0,0,1,1.312.683c.9,1.157,1.064,3.82.461,7.5l-1.151,7.026,3.074-6.422c2.257-4.71,12.21-12.764,19.428-10.943a8.46,8.46,0,0,1,5.543,4.35c1.924,3.547,2.095,8.783.487,13.744-4.091,2.349-9.155,8.325-10.2,11.942-.261.053-.524.123-.788.194a20.64,20.64,0,0,0-3.408,1.283c.413-2.584.126-5.9-2.571-7.249-2.809-1.4-7.316-1.334-11.608,2.8-.073.07-.146.132-.218.2q-.094-.778-.248-1.5c-.094-.436-.2-.854-.329-1.256a8.99,8.99,0,0,0-4.63-5.725,35.122,35.122,0,0,0-1.857-9.881C134.145,498.586,137.342,494.593,139.488,494.77Zm-47-10.932c-.909-1.319-.8-3.34.285-5.278l0-.009a5.207,5.207,0,0,1,2.451-2,6.025,6.025,0,0,1,.885-.3,5.082,5.082,0,0,1,3.956.544,4.238,4.238,0,0,1,.477.349,4.419,4.419,0,0,0-.523-.551,4.9,4.9,0,0,0-1.484-.928,6.307,6.307,0,0,0-2.558-.423,7.128,7.128,0,0,0-4.113,1.472,5.61,5.61,0,0,1-1.271-3.4,14.32,14.32,0,0,1,1.735-7.5,14.036,14.036,0,0,1,2.963-3.856c2.284-2.066,4.9-2.741,7-1.79,2.019.909,3.205,3.091,3.173,5.835l-.034,2.941,1.846-2.29c5.249-6.516,10.722-6.227,13.514-5.469,4.076,1.1,6.882,4.2,7.241,6.558.423,2.775.316,4.482-.891,6.047-.993,1.287-2.728,2.477-5.546,4.083l-2.48,1.412,1.82.308.993.168c2.288.373,4.446,2.771,4.887,5.423.488,2.927-1.135,5.568-4.57,7.437a15.251,15.251,0,0,1-12.156,1.035,15.854,15.854,0,0,1-8.768-6.868,18.761,18.761,0,0,0,3.488-3.381c.087-.111.183-.216.267-.328-.186.127-.381.235-.57.354a17.792,17.792,0,0,1-4.669,2.071C96.208,486.043,93.6,485.451,92.485,483.838Zm35.923,149.207-.079.186c-.107.253-.218.518-.337.8l-.007.017c-.118.286-.243.592-.372.91l-.086.215c-.269.666-.56,1.4-.869,2.187l-.082.209q-.483,1.232-1.023,2.645c-.021.054-.042.109-.063.163q-.276.722-.566,1.485c-.215.565-.435,1.149-.66,1.746l-.022.059q-.332.88-.677,1.8l-.054.144q-.687,1.837-1.427,3.836l-.079.214c-.045.121-.091.247-.136.368q-.687,1.859-1.409,3.826l-.031.085-.783,2.139-.093.255q-.806,2.206-1.645,4.515c-.018.051-.036.1-.055.152l-.833,2.3-.086.239q-.846,2.337-1.713,4.742c-.032.089-.064.179-.1.268l-.859,2.388-.043.118-.831,2.313-.1.281q-.423,1.179-.847,2.364c-.035.1-.07.194-.1.291q-.886,2.471-1.772,4.955c-.024.064-.046.128-.069.193l-.867,2.429q-.056.159-.113.316-.862,2.419-1.714,4.817l-.117.329-.83,2.336-.112.316-.749,2.109c-.031.09-.064.181-.1.271l-.818,2.309-.094.266L104.261,699l-.212.6L102.6,703.71c-.1.272-.191.54-.286.81q-.3.853-.6,1.69c-.034.1-.069.194-.1.291-.218.616-.432,1.222-.643,1.823l-.259.735q-.307.871-.605,1.718l-.119.335-.475,1.349-.22.624q-.3.853-.59,1.676l-.161.459-.582,1.653c-5.557,3.569-10.306,6.213-11.5,6.059-2.128-.271-4.036-1.186-4.008-9.193l.008-2.037-1.634,1.217c-4.493,3.347-8.486,4.413-11.535,3.085a8.928,8.928,0,0,1-4.377-4.747c.158-.41.316-.854.474-1.311.037-.107.074-.215.111-.325.156-.462.313-.939.47-1.445.017-.056.034-.116.051-.172.145-.47.29-.96.435-1.466.036-.126.073-.251.109-.38.157-.553.313-1.124.47-1.716.027-.1.054-.208.081-.311q.208-.793.416-1.63c.034-.139.069-.276.1-.417q.235-.951.468-1.952c.034-.144.068-.292.1-.438q.2-.88.408-1.795c.031-.142.063-.281.094-.424q.233-1.058.466-2.159c.037-.176.074-.356.112-.534q.208-.993.415-2.016c.024-.12.049-.237.073-.357.155-.77.309-1.554.464-2.347.039-.2.079-.406.118-.61.148-.767.3-1.54.443-2.326l.03-.159c.156-.832.311-1.678.465-2.531.039-.216.078-.432.117-.649q.229-1.27.456-2.564c.016-.09.031-.181.046-.271q.21-1.2.417-2.418c.039-.231.079-.461.118-.692q.223-1.313.443-2.641l.073-.442q.195-1.182.388-2.376c.036-.223.072-.446.109-.67q.216-1.347.43-2.7c.029-.183.057-.367.086-.55q.191-1.215.378-2.437l.084-.538q.213-1.387.423-2.778c.031-.206.062-.413.094-.62q.186-1.241.37-2.482.031-.214.064-.428.206-1.393.407-2.783.049-.343.1-.685.185-1.287.368-2.569c.012-.086.025-.172.037-.258q.2-1.408.4-2.806.043-.3.084-.6.4-2.849.775-5.634.033-.239.065-.477c.126-.935.251-1.864.374-2.783l.008-.059q.183-1.364.358-2.7c.017-.127.034-.256.051-.383.041-.315.081-.622.122-.935.076-.584.153-1.171.228-1.745l.026-.2q.165-1.271.324-2.508c.011-.088.023-.176.034-.264q.169-1.314.33-2.586l.019-.151q.155-1.222.3-2.4c.009-.064.016-.129.024-.192q.152-1.214.3-2.377l.046-.377c.045-.362.09-.723.133-1.078.013-.109.026-.216.04-.324.4-3.217.742-6.1,1.031-8.549l0-.041c.038-.321.074-.632.11-.937.006-.055.013-.111.02-.165q.055-.468.106-.909l0-.029q.051-.44.1-.855l.021-.186c.024-.206.048-.41.071-.605l.048-.415.051-.44c.02-.171.039-.334.057-.495.009-.076.018-.156.026-.229.021-.185.041-.358.06-.528l.024-.208c.024-.218.048-.425.07-.618,3.779,2.763,8.472,2.542,12.8-.655a20.573,20.573,0,0,0,2.524,3.469c-1.3,5.548-2.737,11.045-4.121,16.559l-.877,3.432L88.812,644.2q-.192.769-.382,1.538c-1.346,5.411-2.7,10.823-3.953,16.261-1.4,5.947-2.7,11.928-3.729,17.963,1.8-5.848,3.613-11.682,5.268-17.565.954-3.315,1.863-6.642,2.751-9.976q1.028-3.857,2.019-7.725.8-3.224,1.566-6.457.1-.422.2-.844.793-3.363,1.528-6.743c.276-1.277.548-2.556.806-3.838,1.134-5.54,2.095-11.131,2.708-16.76a17.756,17.756,0,0,0,6.759,4.6c-.815,3.477-1.651,6.949-2.486,10.422q-2.18,9.061-4.464,18.1-1.009,3.926-2.037,7.846c-1.917,7.3-3.923,14.568-6.191,21.766,3.4-9.67,6.332-19.5,9.21-29.344.316-1.087.618-2.178.929-3.267q.906-3.179,1.808-6.361,1.163-4.123,2.307-8.251,1.422-5.152,2.823-10.311a15.532,15.532,0,0,0,2.1.389c1.529,6.9,7.139,11.32,13.328,14.146-1.373,2.689-2.591,5.433-3.746,8.2-.258.61-.494,1.229-.743,1.843q-1.43,3.525-2.744,7.091-.646,1.808-1.268,3.624c-.624,1.812-1.234,3.629-1.8,5.463-.951,3.055-1.835,6.134-2.528,9.284,1.49-2.858,2.79-5.787,4.021-8.741.912-2.162,1.756-4.35,2.583-6.544.3-.8.607-1.594.9-2.394q1.292-3.628,2.479-7.294c.193-.6.4-1.194.583-1.8.89-2.858,1.715-5.74,2.387-8.675a50.215,50.215,0,0,0,6.9,2.5C128.614,632.565,128.512,632.8,128.407,633.046Zm83.107-41.066c-.13.981-.967,2.925-5.114,4.919l-.155.075a16.29,16.29,0,0,1-2.66.887,17.646,17.646,0,0,1-3.1.464,15.157,15.157,0,0,1-6.289-.927,15.133,15.133,0,0,0,3.008,1.3,15.494,15.494,0,0,0,3.26.647c.151.015.3.013.455.024a18.253,18.253,0,0,0,5.358-.359c1.294,3.173,1.657,9.961-4.919,17.17-6.055,6.629-13.018,9.236-23.086,8.618a7.075,7.075,0,0,0,.115-1.36,9.918,9.918,0,0,0-.4-2.614,15.418,15.418,0,0,0-.889-2.391,7.488,7.488,0,0,0-1.341-2.117,7.272,7.272,0,0,1,.86,2.286,14.653,14.653,0,0,1,.365,2.394,6.315,6.315,0,0,1-.87,4.1c-1.7,1.9-6.3,5.69-13.046,1.258l-.025-.016a12.072,12.072,0,0,1-1.819-1.51,11.163,11.163,0,0,1-1.578-1.993,11.781,11.781,0,0,1-1.754-4.913,12.3,12.3,0,0,0,.842,5.366,12.468,12.468,0,0,0,1.3,2.5,11.16,11.16,0,0,0,.961,1.262c-7.365,5.191-21.38,5.658-27.5,4.384-.8-.167-1.591-.362-2.379-.558-.236-.059-.48-.106-.714-.168-8.07-2.128-17.939-6.524-20-15.366.394-.012.788-.043,1.183-.068.877-.056,1.753-.134,2.624-.266a25.008,25.008,0,0,0,4.571-1.142c.466-.163.927-.333,1.381-.525.5-.2.984-.425,1.459-.67a25.025,25.025,0,0,0,6.2-4.557,47,47,0,0,0,4.908-5.829q-.756.9-1.549,1.78l-.1.109c-.523.573-1.055,1.136-1.6,1.684l0,0c-.647.649-1.308,1.283-2,1.88a24.363,24.363,0,0,1-6.142,3.942h0c-.049.021-.095.049-.143.069-.076.033-.156.056-.233.089a22.736,22.736,0,0,1-6.923,1.653,31.173,31.173,0,0,1-4.156.044q-1.563-.08-3.122-.269a16.239,16.239,0,0,1-9.836-7.528,13.955,13.955,0,0,0,5.95.762c.024,0,.046-.006.069-.008a16.758,16.758,0,0,0,4.47-1.01,10.947,10.947,0,0,0,3.911-2.367,14.278,14.278,0,0,1-4.185,1.418,20.223,20.223,0,0,1-4.315.393c-.545-.019-1.086-.063-1.622-.124a13.08,13.08,0,0,1-2.541-.523,9.632,9.632,0,0,1-3.563-1.885,8.174,8.174,0,0,1-1.167-1.251,9.412,9.412,0,0,1-1.457-2.674c-.078-.223-.143-.452-.206-.681-.019-.072-.039-.144-.057-.217-.048-.195-.09-.392-.126-.589-.025-.141-.046-.281-.065-.422s-.043-.3-.057-.446c-.027-.306-.045-.612-.044-.919a10.12,10.12,0,0,1,3.632-7.5,9.3,9.3,0,0,0-5.274,8.409c0,.151,0,.3.007.45s.019.283.031.425a10.156,10.156,0,0,0,.179,1.278,10.572,10.572,0,0,0,1.13,3.03,9.837,9.837,0,0,0,2.148,2.648c.178.146.366.268.55.4-.178.146-.357.295-.537.428-3.929,2.923-8.043,2.925-11.256-.006-.15-.136-.3-.272-.446-.421a11.617,11.617,0,0,1-1.183-1.4l-.009-.013a8.311,8.311,0,0,1-1.166-3.153,9.948,9.948,0,0,1,.264-3.645l.006-.027a13.813,13.813,0,0,1,1.449-3.55,11.141,11.141,0,0,1,2.459-3.035,11.107,11.107,0,0,0-2.989,2.673c-.095.121-.181.248-.272.372a14.668,14.668,0,0,0-1.787,3.167,11.422,11.422,0,0,0-.885,4.136,7.266,7.266,0,0,0,.74,3.427c-3.7,2.511-12.088,4.993-17.942,3.774l-.248-.055c-4.759-1.091-10.762-4.559-12.327-14.89l-.1-.685-.675-.155c-3.056-.7-5.281-2.325-5.953-4.344a4.076,4.076,0,0,1,.908-4.012l1.245-1.471-1.917-.2c-4.4-.46-7.782-2.322-9.515-5.253-2.066-3.491-1.817-8.522.716-14.548h0a11.584,11.584,0,0,1,3.464-4.2,6.928,6.928,0,0,1,1.418-.744,7.573,7.573,0,0,1,1.394-.395c.185-.034.369-.068.557-.088q.235-.027.473-.04a8.34,8.34,0,0,1,1.132.012l1.214.111.056-1.2a7.609,7.609,0,0,1,1.6-4.292,8.48,8.48,0,0,1,3.825-2.765,9.121,9.121,0,0,1,4.892-.331,11.42,11.42,0,0,1,2.068.632c.459.185.914.39,1.36.623.031.24.041.485.087.72a18.306,18.306,0,0,0,2.088,5.784c-.2-2.035-.468-4.012-.518-5.943-.044-1.9.137-3.867,1.036-5.133a3.1,3.1,0,0,1,.765-.755,1.687,1.687,0,0,1,.9-.213,5.286,5.286,0,0,1,2.407.709,14.245,14.245,0,0,1,4.239,3.9,9.338,9.338,0,0,0-3.37-5.236,6.226,6.226,0,0,0-3.19-1.3,3.551,3.551,0,0,0-2,.4,4.9,4.9,0,0,0-1.4,1.306,5.977,5.977,0,0,0-.836,1.776,7.815,7.815,0,0,0-.287,1.5,12.549,12.549,0,0,0,.023,1.989,11.048,11.048,0,0,0-3.089-1.768,9.63,9.63,0,0,0-10.617,2.775c-.124.142-.227.3-.342.45a9.456,9.456,0,0,0-1.778,3.869c0,.009,0,.019-.007.028h-.022a9.246,9.246,0,0,0-2.279.254A8.873,8.873,0,0,0,35,555.342a11.748,11.748,0,0,0-3.574,4.413c-5.091-1.94-7.867-6.47-7.618-9.953.218-3.06,2.629-5.178,6.612-5.811l1.443-.229-.715-1.274a41.455,41.455,0,0,1-4.246-27.6h0c.119-.553.253-1.089.4-1.615.029-.1.058-.206.087-.308a23.342,23.342,0,0,1,1.032-2.894c.042-.1.084-.191.128-.285.2-.437.405-.862.627-1.261v0c.221-.4.457-.772.7-1.13.057-.083.115-.166.173-.248a12.078,12.078,0,0,1,.76-.975l.009-.011a9.908,9.908,0,0,1,.832-.83c.071-.064.141-.124.213-.185a8.2,8.2,0,0,1,.9-.67A21.6,21.6,0,0,1,42.874,501.3a24.527,24.527,0,0,1,5.772.342,22.961,22.961,0,0,1,11.027,5.073l1.479,1.27.2-1.943c.071-.7.513-2.6,1.7-3.018,1.582-.571,7.719.762,11.935,5.835l1.446,1.741a10.833,10.833,0,0,0-1.481.394,12.868,12.868,0,0,0-1.888.819,13.249,13.249,0,0,0-3.332,2.436,11.228,11.228,0,0,0-1.893,2.521l-.373.718c-.1.258-.183.529-.272.794a2.57,2.57,0,0,0-.146.518,13.77,13.77,0,0,0-4.653-.029,15.049,15.049,0,0,0-5.34,1.987,15.321,15.321,0,0,0-4.186,3.729,18.858,18.858,0,0,0-2.629,4.841,20.13,20.13,0,0,1,3.129-4.407,14.615,14.615,0,0,1,4.254-3.128,14.9,14.9,0,0,1,4.982-1.427c.238-.022.478-.021.717-.03a11.286,11.286,0,0,1,4.258.61l1.174.43.148-1.36a7.483,7.483,0,0,1,2.436-4.152,14.529,14.529,0,0,1,4.351-2.883,9.858,9.858,0,0,1,5.089-.759,10.218,10.218,0,0,1,4.949,2.26c-.024-.039-.054-.076-.079-.115A8.533,8.533,0,0,0,81.1,510.82a8.807,8.807,0,0,0-2.156-.382,10.223,10.223,0,0,0-2.009.086l-.153-2.378c-.207-3.218.849-7.141,1.813-7.829a2.268,2.268,0,0,1,1.8-.338l.048.01c.89.2,2.251.971,3.671,3.489l.053.093,1.059,1.878.739-2.138a5.046,5.046,0,0,1,.371-.762,27.392,27.392,0,0,1,3.7-4.766,32.4,32.4,0,0,1,11-7.824,18.683,18.683,0,0,0,8.413,5.638,18.425,18.425,0,0,0,1.981.53,17.154,17.154,0,0,0,11.781-1.711,14.542,14.542,0,0,0,1.985-1.3c2.335,1.962,3.575,4.58,5.295,8.214l.257.543a32.114,32.114,0,0,1,1.808,8.8,16.937,16.937,0,0,0-13.68,2.784,26.168,26.168,0,0,0-7.532,8.015c-.323.523-.636,1.059-.934,1.613a9.546,9.546,0,0,0-2.729.1,11.92,11.92,0,0,0-4,1.577c-.211.13-.426.253-.628.4a11.432,11.432,0,0,0-3.305,3.716,12.08,12.08,0,0,0-.69,9.443,15.171,15.171,0,0,1-.059-4.677,10.551,10.551,0,0,1,8.944-8.83,10.9,10.9,0,0,1,8.082,2.635,13.416,13.416,0,0,1,2.913,3.289,14.928,14.928,0,0,1,1.72,4.043l.037.141a12.4,12.4,0,0,0-5.9,3.147,10.174,10.174,0,0,0-2.246,3.094,6.809,6.809,0,0,0-.63,3.669,9.845,9.845,0,0,1,3.9-5.559,13.132,13.132,0,0,1,6.119-2.509A8.623,8.623,0,0,1,128.1,538.2a11.034,11.034,0,0,1,2.4,2.373,23.207,23.207,0,0,1,1.861,3.057,13.08,13.08,0,0,0-.608-2.573c-.116-.336-.244-.667-.393-.994a9.9,9.9,0,0,0-2.263-3.1,8.722,8.722,0,0,0-3.457-1.93,9.782,9.782,0,0,0-2.546-.347c.92-.7,1.853-1.376,2.816-1.994a20.006,20.006,0,0,1,3.959-1.989,6.673,6.673,0,0,1,4.182-.276,6.04,6.04,0,0,1,3.222,2.935A5.833,5.833,0,0,0,134.4,529.6a7.257,7.257,0,0,0-4.934-.313,17.593,17.593,0,0,0-4.483,1.838,28.449,28.449,0,0,0-2.788,1.787,15.2,15.2,0,0,0-4.947-6.991,13.757,13.757,0,0,0-4.472-2.359c-.084-.026-.172-.041-.256-.065,4.852-8.569,13.046-12.943,20.259-10.664,3.422,1.082,5.169,4.3,5.189,9.573l.013,2.956,1.81-2.336c3.433-4.426,7.11-5.362,9.7-4.776a5.7,5.7,0,0,1,1.283.446,3.415,3.415,0,0,1,1.57,3.094,10.435,10.435,0,0,1-.6,3.916l-1.08,2.687,2.524-1.42c4.007-2.255,7.258-3.042,8.688-2.111.833.543,1.187,1.78,1.065,3.663h0a9.226,9.226,0,0,0-4.271-.593,8.932,8.932,0,0,0-4.143,1.692,20.424,20.424,0,0,0-5.4,6.38,38.084,38.084,0,0,1,6.252-5.047,7.527,7.527,0,0,1,7.021-.47,7.108,7.108,0,0,1,2.907,2.063,16.04,16.04,0,0,1,2.192,3.163,22.234,22.234,0,0,1,1.561,3.638,14.452,14.452,0,0,1,.78,3.956,10.457,10.457,0,0,0,.2-4.175,17,17,0,0,0-1.1-4.094,14.6,14.6,0,0,0-2.169-3.745,9.442,9.442,0,0,0-1.832-1.713c3.859-2.633,10.05-3.864,16.654-3.569,8.325.373,17.307,3.173,23.11,8.666h0l.014.013c7.527,6.89,4.081,15.7.059,23.5-.087.169-.174.338-.262.506l-.031.06c-.024-.106-.053-.21-.079-.315-.021-.082-.039-.164-.061-.246a9.52,9.52,0,0,0-2.466-4.288,7.054,7.054,0,0,0-.612-.521,8.566,8.566,0,0,0-5.406-1.673,13.823,13.823,0,0,0-5.267,1.2,21.83,21.83,0,0,0-2.37,1.174c-.762.435-1.477.947-2.2,1.43.825-.3,1.621-.634,2.432-.92.827-.246,1.617-.578,2.454-.741a14.7,14.7,0,0,1,4.906-.563,6.867,6.867,0,0,1,6.567,5.443,7.841,7.841,0,0,1,.038,4.565,19.269,19.269,0,0,1-1.993,4.5,66.944,66.944,0,0,1-6.077,8.3,34.267,34.267,0,0,0,4.308-3.766,33.178,33.178,0,0,0,3.1-3.67,18.094,18.094,0,0,0,2.509-4.819l.213-.67.124-.71.119-.712c.011-.245.007-.495.009-.742l0-.745-.018-.124.649.036c2.8.154,7.546,1.376,7.953,7.843.362,5.591-.613,10.436-6.575,17.3l-1.379,1.587,2.1.1a4.09,4.09,0,0,1,3.082,1.329A5.085,5.085,0,0,1,211.514,591.979Z" transform="translate(-20.447 -457.713)" fill="#1a1a1a"/>
    <path id="Path_6983" data-name="Path 6983" d="M147.883,477.826a9.067,9.067,0,0,0,7-1.264,6.4,6.4,0,0,0,2.674-6.367c-1.665-7.489-11.112-3.073-12.994,1.756a4.58,4.58,0,0,0-.029,3.849A4.777,4.777,0,0,0,147.883,477.826Z" transform="translate(-55.832 -460.136)" fill="#ffce22"/>
  </g>
</svg>
