
<svg xmlns="http://www.w3.org/2000/svg" width="159.902" height="130.965" viewBox="0 0 159.902 130.965">
  <g id="Layer_3" data-name="Layer 3" transform="translate(-17.41 -205.083)">
    <g id="Group_7219" data-name="Group 7219">
      <g id="Group_7214" data-name="Group 7214">
        <path id="Path_7660" data-name="Path 7660" d="M84.772,305.723,99.7,336.049l6.7-36.823,26.856,21.655-11.811-26.014L165.4,315.947l-26.379-34.034,38.288-7.4-30.986-13.355L160.47,224.4l-39.537,19.116,6.274-19.26L106.141,239.67,92.2,205.083,80.186,238.2,57.222,226.49,69.4,242.671,17.715,230.76l31.229,33.949-30.56,6.411,37.988,8.935L17.41,307.062l39.695-8,9.363,32.178Z" fill="#1a1a1a"/>
      </g>
      <g id="Group_7215" data-name="Group 7215">
        <path id="Path_7661" data-name="Path 7661" d="M29.05,237.066l24.316,27.8L32.652,271.4l30.422,7.022L31.837,301.1l28.017-6.88,8.93,29.367,17.427-23.469L97.91,325,102.8,290.05l20.277,18.237-5.338-18.7,33,14.861-19.544-23.918,32.6-7.549-22.9-10.4,9.339-27.542-33.046,13.132,4.194-15.671-16.615,13.693L92.224,215.764l-9.067,29.249-16.206-10.28,6.542,9.962Z" fill="#fff"/>
      </g>
      <g id="Group_7216" data-name="Group 7216">
        <path id="Path_7662" data-name="Path 7662" d="M68.247,264.179q-3.043.459-3.677.46-2.145,0-2.144-1.489a1.7,1.7,0,0,1,1.214-1.7,25.843,25.843,0,0,1,5.985-.711,56.076,56.076,0,0,1,3.108-6.729q1.443-2.55,2.669-2.55,1.006,0,1.007.526a4.228,4.228,0,0,1-.23,1.433q-.229.646-.952,2.155-.854,1.816-2.1,4.924,4.991-.174,7.573-.175,2.516-6.084,3.621-7.495t1.937-1.411q1.246,0,1.247.9a10.829,10.829,0,0,1-.941,2.363q-.942,2.013-2.363,5.558h2.867q1.969,0,1.969,1.62a1.445,1.445,0,0,1-1.072,1.456,11.027,11.027,0,0,1-3.414.383h-1.6q-.986,2.6-2.386,7.221,1.773-.043,4.836-.044,1.707,0,1.707,1.6,0,1.838-2.473,1.838-3.195,0-5.011.044a76.357,76.357,0,0,0-1.663,7.616,1.663,1.663,0,0,1-1.882,1.531,1.952,1.952,0,0,1-1.39-.5,1.694,1.694,0,0,1-.536-1.291,30.863,30.863,0,0,1,1.532-7.31l-7.178.132q-1.161,4.026-1.838,7.484a1.525,1.525,0,0,1-.853,1.072,2.984,2.984,0,0,1-1.467.416q-1.62,0-1.619-1.707a36.907,36.907,0,0,1,1.794-7.068l-3.851.306q-1.271,0-1.27-2.013,0-.789,1.018-1.225a19.588,19.588,0,0,1,5.263-.569Q67.459,266,68.247,264.179Zm11.117-.438q-5.1.087-7.441.219-1.292,3.523-2.385,7.178l7.221-.175q.963-2.933,2.517-6.959a.712.712,0,0,0,.043-.131A.68.68,0,0,1,79.364,263.741Z" fill="#1a1a1a"/>
      </g>
      <g id="Group_7218" data-name="Group 7218">
        <path id="Path_7663" data-name="Path 7663" d="M133.926,252.944l1.809-16a2.022,2.022,0,0,0-2.14-2.246l-33.338,2.158a2.033,2.033,0,0,0-1.842,1.573c-3.4,15.051-5.641,25.7-7.065,33.511a2.021,2.021,0,0,0,2.372,2.348l5.434-1.05c3.169-.309,5.275-.44,7.042-.44,6,0,7.094,1.282,7.112,1.3a3.59,3.59,0,0,1,.772,2.068,4.059,4.059,0,0,1-.643,1.931,8.894,8.894,0,0,1-4.51,3.428,12.111,12.111,0,0,1,.443-1.9,2.021,2.021,0,0,0-1.81-2.605l-15.911-.989a2.05,2.05,0,0,0-2.122,1.727,40.11,40.11,0,0,0-.5,7.522c-.107,4.344.465,7.631,1.741,10.039,2.363,4.672,5.982,7.04,10.757,7.04,6.566,0,13.628-3.476,20.989-10.327A43.338,43.338,0,0,0,130.68,282c2.741-4.4,3.963-8.681,3.635-12.7-.517-8.4-7.695-13.031-21.342-13.761l19.021-.809A2.01,2.01,0,0,0,133.926,252.944Z" fill="#1a1a1a"/>
        <g id="Group_7217" data-name="Group 7217">
          <path id="Path_7664" data-name="Path 7664" d="M131.916,252.717l-20.574.808-.857,3.955c14,.269,21.336,4.223,21.812,11.952.286,3.505-.762,7.369-3.333,11.5a41.314,41.314,0,0,1-7.811,9.616c-7.049,6.56-13.621,9.8-19.622,9.8-4,0-6.953-1.977-8.954-5.931-1.143-2.157-1.619-5.213-1.524-9.077a39.307,39.307,0,0,1,.477-7.279l15.907.988a10.9,10.9,0,0,0-.572,3.056c0,1.078.476,1.618,1.334,1.618a5.175,5.175,0,0,0,1.047-.18,10.857,10.857,0,0,0,5.811-4.224,6.155,6.155,0,0,0,1.048-3.145,5.582,5.582,0,0,0-1.144-3.235c-1.142-1.439-4.1-2.157-8.763-2.157-2.1,0-4.477.18-7.239.449l-5.619,1.078c1.523-8.357,3.905-19.5,7.048-33.429l33.338-2.157Z" fill="#ff1948"/>
        </g>
      </g>
    </g>
  </g>
</svg>
