<svg xmlns="http://www.w3.org/2000/svg" width="537.411" height="522.908" viewBox="0 0 537.411 522.908">
  <g id="Group_5722" data-name="Group 5722" transform="translate(137.631 111.846) rotate(19)">
    <g id="Group_5714" data-name="Group 5714" transform="translate(-23.894 -134.775)">
      <path id="Path_6984" data-name="Path 6984" d="M530.026,725.6a8.061,8.061,0,0,0-9.907-12.718,8.061,8.061,0,1,0,9.907,12.718Z" transform="translate(-296.02 -595.487)" fill="#1a1a1a"/>
      <path id="Path_6985" data-name="Path 6985" d="M540.65,726.8a7.985,7.985,0,1,0-11.21-1.311A8.051,8.051,0,0,0,540.65,726.8Z" transform="translate(-283.166 -593.905)" fill="#1a1a1a"/>
      <path id="Path_6986" data-name="Path 6986" d="M509.333,711.606a7.861,7.861,0,1,0,11.083,1.545A7.864,7.864,0,0,0,509.333,711.606Z" transform="translate(-308.584 -596.909)" fill="#1a1a1a"/>
      <path id="Path_6987" data-name="Path 6987" d="M560.706,739.695a7.837,7.837,0,0,0-10.9-1.324,7.792,7.792,0,1,0,10.9,1.324Z" transform="translate(-260.637 -565.265)" fill="#1a1a1a"/>
      <path id="Path_6988" data-name="Path 6988" d="M548.48,749.18a7.807,7.807,0,1,0,10.872,1.3A7.737,7.737,0,0,0,548.48,749.18Z" transform="translate(-262.167 -552.531)" fill="#1a1a1a"/>
      <path id="Path_6989" data-name="Path 6989" d="M526.052,708.286a7.66,7.66,0,1,0,10.821,1.329A7.658,7.658,0,0,0,526.052,708.286Z" transform="translate(-288.599 -600.874)" fill="#1a1a1a"/>
      <path id="Path_6990" data-name="Path 6990" d="M515.211,707.015a7.654,7.654,0,0,0,9.578,11.941,7.654,7.654,0,1,0-9.578-11.941Z" transform="translate(-301.31 -602.376)" fill="#1a1a1a"/>
      <path id="Path_6991" data-name="Path 6991" d="M550.569,776.8a7.653,7.653,0,1,0-9.406-12.076,7.654,7.654,0,0,0,9.406,12.076Z" transform="translate(-270.742 -534.098)" fill="#1a1a1a"/>
      <path id="Path_6992" data-name="Path 6992" d="M546.358,721.593a7.653,7.653,0,0,0,9.366,12.107,7.653,7.653,0,1,0-9.366-12.107Z" transform="translate(-264.624 -585.05)" fill="#1a1a1a"/>
      <path id="Path_6993" data-name="Path 6993" d="M544.457,781.549a7.617,7.617,0,1,0-10.706-1.4A7.7,7.7,0,0,0,544.457,781.549Z" transform="translate(-277.867 -528.487)" fill="#1a1a1a"/>
      <path id="Path_6994" data-name="Path 6994" d="M541.658,715.534a7.614,7.614,0,1,0,10.695,1.42A7.672,7.672,0,0,0,541.658,715.534Z" transform="translate(-270.218 -592.171)" fill="#1a1a1a"/>
      <path id="Path_6995" data-name="Path 6995" d="M551.026,727.692a7.569,7.569,0,1,0,10.6,1.211A7.585,7.585,0,0,0,551.026,727.692Z" transform="translate(-258.97 -577.869)" fill="#1a1a1a"/>
      <path id="Path_6996" data-name="Path 6996" d="M556.543,771.842a7.521,7.521,0,1,0-10.682-1.257A7.48,7.48,0,0,0,556.543,771.842Z" transform="translate(-263.562 -539.655)" fill="#1a1a1a"/>
      <path id="Path_6997" data-name="Path 6997" d="M536.806,709.646a7.464,7.464,0,1,0,9.307,11.67,7.464,7.464,0,0,0-9.307-11.67Z" transform="translate(-275.748 -599.234)" fill="#1a1a1a"/>
      <path id="Path_6998" data-name="Path 6998" d="M498.44,710.513a7.459,7.459,0,1,0,10.5,1.259A7.385,7.385,0,0,0,498.44,710.513Z" transform="translate(-321.086 -598.205)" fill="#1a1a1a"/>
      <path id="Path_6999" data-name="Path 6999" d="M492.362,715.307a7.421,7.421,0,0,0,9.294,11.57,7.421,7.421,0,1,0-9.294-11.57Z" transform="translate(-328.206 -592.583)" fill="#1a1a1a"/>
      <path id="Path_7000" data-name="Path 7000" d="M565.007,745.807a7.434,7.434,0,0,0-10.4-1.307,7.421,7.421,0,1,0,9.1,11.722A7.488,7.488,0,0,0,565.007,745.807Z" transform="translate(-254.836 -557.931)" fill="#1a1a1a"/>
      <path id="Path_7001" data-name="Path 7001" d="M504.582,705.734a7.313,7.313,0,1,0,10.239,1.285A7.31,7.31,0,0,0,504.582,705.734Z" transform="translate(-313.888 -603.744)" fill="#1a1a1a"/>
      <path id="Path_7002" data-name="Path 7002" d="M564.922,745.267a7.33,7.33,0,0,0-9.148-11.454,7.33,7.33,0,0,0,9.148,11.454Z" transform="translate(-253.239 -570.606)" fill="#1a1a1a"/>
      <path id="Path_7003" data-name="Path 7003" d="M562.229,766.908a7.33,7.33,0,0,0-8.939-11.62,7.33,7.33,0,0,0,8.939,11.62Z" transform="translate(-256.297 -545.13)" fill="#1a1a1a"/>
      <path id="Path_7004" data-name="Path 7004" d="M521.362,702.311a7.294,7.294,0,1,0,10.232,1.311A7.224,7.224,0,0,0,521.362,702.311Z" transform="translate(-293.989 -607.795)" fill="#1a1a1a"/>
      <path id="Path_7005" data-name="Path 7005" d="M532.127,703.6a7.216,7.216,0,1,0,10.112,1.27A7.236,7.236,0,0,0,532.127,703.6Z" transform="translate(-281.195 -606.21)" fill="#1a1a1a"/>
      <path id="Path_7006" data-name="Path 7006" d="M509.375,711.1a7.2,7.2,0,0,0,9.99,1.187,7.123,7.123,0,1,0-9.99-1.187Z" transform="translate(-306.634 -609.232)" fill="#1a1a1a"/>
      <path id="Path_7007" data-name="Path 7007" d="M552.35,717.042a7.065,7.065,0,1,0,9.977,1.206A7.079,7.079,0,0,0,552.35,717.042Z" transform="translate(-257.168 -590.332)" fill="#1a1a1a"/>
      <path id="Path_7008" data-name="Path 7008" d="M554.551,782.043a7.019,7.019,0,1,0-9.82-1.209A6.976,6.976,0,0,0,554.551,782.043Z" transform="translate(-264.819 -526.644)" fill="#1a1a1a"/>
      <path id="Path_7009" data-name="Path 7009" d="M547.795,710.935a6.994,6.994,0,1,0,9.785,1.344A6.978,6.978,0,0,0,547.795,710.935Z" transform="translate(-262.764 -597.453)" fill="#1a1a1a"/>
      <path id="Path_7010" data-name="Path 7010" d="M548.611,786.65a6.993,6.993,0,1,0-9.822-1.019A6.964,6.964,0,0,0,548.611,786.65Z" transform="translate(-271.939 -521.025)" fill="#1a1a1a"/>
      <path id="Path_7011" data-name="Path 7011" d="M569.017,751.82a6.945,6.945,0,0,0-9.818-1.06,6.984,6.984,0,1,0,9.818,1.06Z" transform="translate(-248.98 -550.551)" fill="#1a1a1a"/>
      <path id="Path_7012" data-name="Path 7012" d="M569.255,750.8a6.955,6.955,0,1,0-8.71-10.846,6.955,6.955,0,0,0,8.71,10.846Z" transform="translate(-247.451 -563.285)" fill="#1a1a1a"/>
      <path id="Path_7013" data-name="Path 7013" d="M560.552,777.125a6.939,6.939,0,1,0-8.655-10.848,6.939,6.939,0,0,0,8.655,10.848Z" transform="translate(-257.629 -532.197)" fill="#1a1a1a"/>
      <path id="Path_7014" data-name="Path 7014" d="M557.055,723.174A6.94,6.94,0,0,0,565.745,734a6.94,6.94,0,1,0-8.69-10.824Z" transform="translate(-251.512 -583.149)" fill="#1a1a1a"/>
      <path id="Path_7015" data-name="Path 7015" d="M543.084,704.925a6.84,6.84,0,1,0,9.591,1.383A6.849,6.849,0,0,0,543.084,704.925Z" transform="translate(-268.286 -604.507)" fill="#1a1a1a"/>
      <path id="Path_7016" data-name="Path 7016" d="M492.621,714.163a6.81,6.81,0,1,0,1.106-9.51A6.79,6.79,0,0,0,492.621,714.163Z" transform="translate(-326.344 -604.992)" fill="#1a1a1a"/>
      <path id="Path_7017" data-name="Path 7017" d="M526.288,707.313a6.81,6.81,0,1,0,1.021-9.521A6.789,6.789,0,0,0,526.288,707.313Z" transform="translate(-286.599 -613.142)" fill="#1a1a1a"/>
      <path id="Path_7018" data-name="Path 7018" d="M487.787,709.309a6.78,6.78,0,1,0,9.51,1.161A6.819,6.819,0,0,0,487.787,709.309Z" transform="translate(-333.461 -599.37)" fill="#1a1a1a"/>
      <path id="Path_7019" data-name="Path 7019" d="M515.49,705.852a6.734,6.734,0,0,0,9.478,1.231,6.762,6.762,0,1,0-8.28-10.693A6.683,6.683,0,0,0,515.49,705.852Z" transform="translate(-299.309 -614.639)" fill="#1a1a1a"/>
      <path id="Path_7020" data-name="Path 7020" d="M570.162,739.8a6.733,6.733,0,1,0-9.467-1.3A6.713,6.713,0,0,0,570.162,739.8Z" transform="translate(-245.781 -575.883)" fill="#1a1a1a"/>
      <path id="Path_7021" data-name="Path 7021" d="M498.628,709.194a6.716,6.716,0,0,0,9.471,1.263,6.732,6.732,0,1,0-9.471-1.263Z" transform="translate(-319.151 -610.535)" fill="#1a1a1a"/>
      <path id="Path_7022" data-name="Path 7022" d="M566.338,772.045a6.687,6.687,0,1,0-9.484-1.117A6.646,6.646,0,0,0,566.338,772.045Z" transform="translate(-250.374 -537.672)" fill="#1a1a1a"/>
      <path id="Path_7023" data-name="Path 7023" d="M537.1,708.363a6.621,6.621,0,0,0,9.36.98,6.6,6.6,0,0,0-8.227-10.328A6.647,6.647,0,0,0,537.1,708.363Z" transform="translate(-273.749 -611.5)" fill="#1a1a1a"/>
      <path id="Path_7024" data-name="Path 7024" d="M574.507,747.183a6.5,6.5,0,1,0-1.071,9.043A6.434,6.434,0,0,0,574.507,747.183Z" transform="translate(-241.593 -555.902)" fill="#1a1a1a"/>
      <path id="Path_7025" data-name="Path 7025" d="M505.932,695.166a6.476,6.476,0,1,0,9.043,1.093A6.471,6.471,0,0,0,505.932,695.166Z" transform="translate(-311.905 -616.029)" fill="#1a1a1a"/>
      <path id="Path_7026" data-name="Path 7026" d="M574.512,745.389a6.372,6.372,0,1,0-7.758-10.11,6.372,6.372,0,1,0,7.758,10.11Z" transform="translate(-240.008 -568.575)" fill="#1a1a1a"/>
      <path id="Path_7027" data-name="Path 7027" d="M572.007,766.878a6.371,6.371,0,0,0-7.793-10.08,6.371,6.371,0,1,0,7.793,10.08Z" transform="translate(-243.066 -543.099)" fill="#1a1a1a"/>
      <path id="Path_7028" data-name="Path 7028" d="M558.4,712.511a6.362,6.362,0,1,0,8.912,1.069A6.392,6.392,0,0,0,558.4,712.511Z" transform="translate(-249.724 -595.501)" fill="#1a1a1a"/>
      <path id="Path_7029" data-name="Path 7029" d="M559.687,778.29a6.333,6.333,0,1,0-1.333,8.845A6.3,6.3,0,0,0,559.687,778.29Z" transform="translate(-258.889 -519.2)" fill="#1a1a1a"/>
      <path id="Path_7030" data-name="Path 7030" d="M552.578,715.325a6.333,6.333,0,1,0,1.178-8.867A6.283,6.283,0,0,0,552.578,715.325Z" transform="translate(-255.334 -602.632)" fill="#1a1a1a"/>
      <path id="Path_7031" data-name="Path 7031" d="M553.645,783.042a6.333,6.333,0,1,0-1.333,8.838A6.281,6.281,0,0,0,553.645,783.042Z" transform="translate(-266.025 -513.595)" fill="#1a1a1a"/>
      <path id="Path_7032" data-name="Path 7032" d="M522.611,691.872a6.291,6.291,0,1,0,8.9.888A6.3,6.3,0,0,0,522.611,691.872Z" transform="translate(-291.929 -619.998)" fill="#1a1a1a"/>
      <path id="Path_7033" data-name="Path 7033" d="M563.271,718.495a6.257,6.257,0,1,0,7.6,9.944,6.257,6.257,0,0,0-7.6-9.944Z" transform="translate(-244.077 -588.324)" fill="#1a1a1a"/>
      <path id="Path_7034" data-name="Path 7034" d="M565.52,773.484a6.219,6.219,0,0,0-8.723-1.191,6.257,6.257,0,1,0,7.629,9.918A6.193,6.193,0,0,0,565.52,773.484Z" transform="translate(-251.708 -524.763)" fill="#1a1a1a"/>
      <path id="Path_7035" data-name="Path 7035" d="M533.669,692.994a6.2,6.2,0,1,0,8.677,1.322A6.149,6.149,0,0,0,533.669,692.994Z" transform="translate(-279.148 -618.428)" fill="#1a1a1a"/>
      <path id="Path_7036" data-name="Path 7036" d="M548.877,700.575a6.171,6.171,0,1,0,8.725.888A6.18,6.18,0,0,0,548.877,700.575Z" transform="translate(-260.862 -609.689)" fill="#1a1a1a"/>
      <path id="Path_7037" data-name="Path 7037" d="M511.991,690.508a6.145,6.145,0,1,0,8.692,1.15A6.126,6.126,0,0,0,511.991,690.508Z" transform="translate(-304.592 -621.453)" fill="#1a1a1a"/>
      <path id="Path_7038" data-name="Path 7038" d="M489.1,698.755a6.076,6.076,0,0,0,7.455,9.6,6.076,6.076,0,1,0-7.455-9.6Z" transform="translate(-331.551 -611.729)" fill="#1a1a1a"/>
      <path id="Path_7039" data-name="Path 7039" d="M481.923,711.8a6,6,0,0,0,8.542,1.243,6.034,6.034,0,1,0-7.248-9.65A5.983,5.983,0,0,0,481.923,711.8Z" transform="translate(-338.67 -606.104)" fill="#1a1a1a"/>
      <path id="Path_7040" data-name="Path 7040" d="M576.4,725.66a6.03,6.03,0,0,0-9.517,7.407,6.03,6.03,0,1,0,9.517-7.407Z" transform="translate(-238.347 -581.062)" fill="#1a1a1a"/>
      <path id="Path_7041" data-name="Path 7041" d="M571.263,768.731a6.03,6.03,0,1,0-1.1,8.426A5.966,5.966,0,0,0,571.263,768.731Z" transform="translate(-244.454 -530.239)" fill="#1a1a1a"/>
      <path id="Path_7042" data-name="Path 7042" d="M495.044,694.114a5.949,5.949,0,1,0,7.555,9.192,5.949,5.949,0,0,0-7.555-9.192Z" transform="translate(-324.353 -617.27)" fill="#1a1a1a"/>
      <path id="Path_7043" data-name="Path 7043" d="M579.791,742.5a5.877,5.877,0,0,0-8.275-1.089,5.946,5.946,0,1,0,8.275,1.089Z" transform="translate(-234.155 -561.203)" fill="#1a1a1a"/>
      <path id="Path_7044" data-name="Path 7044" d="M577.453,761.585a5.93,5.93,0,1,0-7.322-9.329,5.93,5.93,0,0,0,7.322,9.329Z" transform="translate(-235.682 -548.46)" fill="#1a1a1a"/>
      <path id="Path_7045" data-name="Path 7045" d="M544.216,694.523a5.93,5.93,0,1,0,7.425,9.248,5.93,5.93,0,0,0-7.425-9.248Z" transform="translate(-266.324 -616.685)" fill="#1a1a1a"/>
      <path id="Path_7046" data-name="Path 7046" d="M486.618,713.614c.02-.179.009-.36.013-.541a5.614,5.614,0,0,0-2.151-4.728,5.891,5.891,0,0,0-7.573-.011,5.966,5.966,0,0,0-.89,8.328,5.9,5.9,0,0,0,6.864,1.767,5.971,5.971,0,0,0,1.534-.849,5.882,5.882,0,0,0,.9-.892c.055-.068.092-.144.144-.214a6.063,6.063,0,0,0,.48-.711,5.791,5.791,0,0,0,.679-2.131Z" transform="translate(-345.786 -600.464)" fill="#1a1a1a"/>
      <path id="Path_7047" data-name="Path 7047" d="M501.171,689.362a5.776,5.776,0,0,0-.995,8.029,5.836,5.836,0,0,0,8.168.984,5.742,5.742,0,0,0,.943-8.02A5.682,5.682,0,0,0,501.171,689.362Z" transform="translate(-317.108 -622.762)" fill="#1a1a1a"/>
      <path id="Path_7048" data-name="Path 7048" d="M528.974,687.065a5.712,5.712,0,1,0,6.79,9.187,5.712,5.712,0,0,0-6.79-9.187Z" transform="translate(-284.483 -625.286)" fill="#1a1a1a"/>
      <path id="Path_7049" data-name="Path 7049" d="M518.035,685.842a5.717,5.717,0,0,0,6.98,9.056,5.717,5.717,0,0,0-6.98-9.056Z" transform="translate(-297.198 -626.804)" fill="#1a1a1a"/>
      <path id="Path_7050" data-name="Path 7050" d="M580.769,731.789a5.688,5.688,0,0,0-7.983-1.036,5.672,5.672,0,1,0,6.886,9.015A5.687,5.687,0,0,0,580.769,731.789Z" transform="translate(-232.57 -573.747)" fill="#1a1a1a"/>
      <path id="Path_7051" data-name="Path 7051" d="M576.885,764a5.687,5.687,0,0,0-7.99-1,5.673,5.673,0,1,0,6.927,8.985A5.69,5.69,0,0,0,576.885,764Z" transform="translate(-237.142 -535.663)" fill="#1a1a1a"/>
      <path id="Path_7052" data-name="Path 7052" d="M564.51,708.013a5.519,5.519,0,1,0,6.888,8.625,5.519,5.519,0,1,0-6.888-8.625Z" transform="translate(-242.163 -600.669)" fill="#1a1a1a"/>
      <path id="Path_7053" data-name="Path 7053" d="M539.5,688.619a5.519,5.519,0,1,0,7.815.919A5.466,5.466,0,0,0,539.5,688.619Z" transform="translate(-271.716 -623.603)" fill="#1a1a1a"/>
      <path id="Path_7054" data-name="Path 7054" d="M562.342,791.987a5.518,5.518,0,1,0-6.868-8.638,5.518,5.518,0,1,0,6.868,8.638Z" transform="translate(-252.852 -511.631)" fill="#1a1a1a"/>
      <path id="Path_7055" data-name="Path 7055" d="M559.7,701.976a5.533,5.533,0,1,0,7.857.916A5.545,5.545,0,0,0,559.7,701.976Z" transform="translate(-247.748 -607.788)" fill="#1a1a1a"/>
      <path id="Path_7056" data-name="Path 7056" d="M556.275,796.676a5.483,5.483,0,1,0-7.708-.805A5.449,5.449,0,0,0,556.275,796.676Z" transform="translate(-259.971 -506.012)" fill="#1a1a1a"/>
      <path id="Path_7057" data-name="Path 7057" d="M569.321,714.028a5.41,5.41,0,1,0,6.617,8.561,5.38,5.38,0,0,0,.894-7.651A5.326,5.326,0,0,0,569.321,714.028Z" transform="translate(-236.489 -593.471)" fill="#1a1a1a"/>
      <path id="Path_7058" data-name="Path 7058" d="M568.151,787.154a5.413,5.413,0,1,0-6.565-8.609,5.413,5.413,0,0,0,6.565,8.609Z" transform="translate(-245.647 -517.168)" fill="#1a1a1a"/>
      <path id="Path_7059" data-name="Path 7059" d="M506.368,692.253a5.382,5.382,0,0,0,7.523.98,5.411,5.411,0,1,0-6.56-8.607A5.333,5.333,0,0,0,506.368,692.253Z" transform="translate(-309.786 -628.173)" fill="#1a1a1a"/>
      <path id="Path_7060" data-name="Path 7060" d="M554.976,695.974a5.371,5.371,0,0,0,6.694,8.4,5.371,5.371,0,1,0-6.694-8.4Z" transform="translate(-253.263 -614.836)" fill="#1a1a1a"/>
      <path id="Path_7061" data-name="Path 7061" d="M583.732,748.484a5.352,5.352,0,1,0-.89,7.536A5.33,5.33,0,0,0,583.732,748.484Z" transform="translate(-228.233 -553.745)" fill="#1a1a1a"/>
      <path id="Path_7062" data-name="Path 7062" d="M582.224,759.212a5.309,5.309,0,0,0-7.3-.868,5.228,5.228,0,0,0,6.395,8.271A5.272,5.272,0,0,0,582.224,759.212Z" transform="translate(-229.743 -541.008)" fill="#1a1a1a"/>
      <path id="Path_7063" data-name="Path 7063" d="M573.871,782.211a5.2,5.2,0,1,0-6.12-8.4,5.2,5.2,0,1,0,6.12,8.4Z" transform="translate(-238.412 -522.663)" fill="#1a1a1a"/>
      <path id="Path_7064" data-name="Path 7064" d="M584.776,737.805a5.13,5.13,0,0,0-7.235-.877,5.2,5.2,0,1,0,6.342,8.238A5.159,5.159,0,0,0,584.776,737.805Z" transform="translate(-226.705 -566.358)" fill="#1a1a1a"/>
      <path id="Path_7065" data-name="Path 7065" d="M484.47,692.894a5.2,5.2,0,1,0,6.353,8.227,5.2,5.2,0,1,0-6.353-8.227Z" transform="translate(-336.685 -618.387)" fill="#1a1a1a"/>
      <path id="Path_7066" data-name="Path 7066" d="M581.313,720.968a5.172,5.172,0,0,0-7.246-.829,5.156,5.156,0,0,0,6.281,8.177A5.171,5.171,0,0,0,581.313,720.968Z" transform="translate(-230.762 -586.206)" fill="#1a1a1a"/>
      <path id="Path_7067" data-name="Path 7067" d="M477.537,704.992a5.171,5.171,0,0,0,7.252.783,5.157,5.157,0,0,0-6.336-8.138A5.175,5.175,0,0,0,477.537,704.992Z" transform="translate(-343.8 -612.769)" fill="#1a1a1a"/>
      <path id="Path_7068" data-name="Path 7068" d="M523.18,688.364a5.032,5.032,0,0,0,7.165,1,5.1,5.1,0,0,0-6.118-8.162A5.049,5.049,0,0,0,523.18,688.364Z" transform="translate(-289.753 -632.089)" fill="#1a1a1a"/>
      <path id="Path_7069" data-name="Path 7069" d="M489.629,695.363a5.026,5.026,0,0,0,7.054.919,5.1,5.1,0,1,0-6.19-8.105A5.047,5.047,0,0,0,489.629,695.363Z" transform="translate(-329.495 -623.939)" fill="#1a1a1a"/>
      <path id="Path_7070" data-name="Path 7070" d="M549.415,697.058a5.15,5.15,0,0,0,7.239.892,5.061,5.061,0,0,0,.794-7.1,5.005,5.005,0,0,0-7.075-.881A5.091,5.091,0,0,0,549.415,697.058Z" transform="translate(-258.727 -621.824)" fill="#1a1a1a"/>
      <path id="Path_7071" data-name="Path 7071" d="M480.442,707.579a5.034,5.034,0,0,0-.881-4.261,5.12,5.12,0,0,0-7.2-.919,5.1,5.1,0,0,0,6.19,8.1c.015-.011.028-.028.044-.039s.05-.028.074-.048a5.3,5.3,0,0,0,.648-.622l0-.006a4.949,4.949,0,0,0,.982-1.663c.009-.026.022-.048.031-.072C480.379,707.9,480.405,707.738,480.442,707.579Z" transform="translate(-350.928 -607.133)" fill="#1a1a1a"/>
      <path id="Path_7072" data-name="Path 7072" d="M533.92,689.609a5.016,5.016,0,1,0,1.03-7.019A4.949,4.949,0,0,0,533.92,689.609Z" transform="translate(-277.032 -630.446)" fill="#1a1a1a"/>
      <path id="Path_7073" data-name="Path 7073" d="M519.37,687.833a4.927,4.927,0,1,0-6.9-.925A4.861,4.861,0,0,0,519.37,687.833Z" transform="translate(-302.395 -633.525)" fill="#1a1a1a"/>
      <path id="Path_7074" data-name="Path 7074" d="M502.413,691.234a4.848,4.848,0,1,0-5.694-7.848,4.848,4.848,0,1,0,5.694,7.848Z" transform="translate(-322.232 -629.407)" fill="#1a1a1a"/>
      <path id="Path_7075" data-name="Path 7075" d="M584.776,733.878a4.856,4.856,0,1,0-6.79-.855A4.9,4.9,0,0,0,584.776,733.878Z" transform="translate(-224.964 -578.886)" fill="#1a1a1a"/>
      <path id="Path_7076" data-name="Path 7076" d="M579.539,776.886a4.807,4.807,0,1,0-6.763-.9A4.781,4.781,0,0,0,579.539,776.886Z" transform="translate(-231.069 -528.063)" fill="#1a1a1a"/>
      <path id="Path_7077" data-name="Path 7077" d="M551.537,691.316a4.7,4.7,0,0,0-5.989-7.257,4.7,4.7,0,1,0,5.989,7.257Z" transform="translate(-264.113 -628.744)" fill="#1a1a1a"/>
      <path id="Path_7078" data-name="Path 7078" d="M586.648,761.052a4.594,4.594,0,0,0-5.625-7.265,4.594,4.594,0,1,0,5.625,7.265Z" transform="translate(-222.284 -546.288)" fill="#1a1a1a"/>
      <path id="Path_7079" data-name="Path 7079" d="M588.775,743.981a4.542,4.542,0,0,0-6.434-.895,4.595,4.595,0,1,0,5.55,7.324A4.524,4.524,0,0,0,588.775,743.981Z" transform="translate(-220.77 -558.898)" fill="#1a1a1a"/>
      <path id="Path_7080" data-name="Path 7080" d="M560.254,789.6a4.547,4.547,0,0,0,5.618,7.15,4.547,4.547,0,1,0-5.618-7.15Z" transform="translate(-246.7 -503.953)" fill="#1a1a1a"/>
      <path id="Path_7081" data-name="Path 7081" d="M569.864,709.862a4.554,4.554,0,0,0,6.344.753,4.514,4.514,0,0,0-5.456-7.191A4.532,4.532,0,0,0,569.864,709.862Z" transform="translate(-234.487 -605.731)" fill="#1a1a1a"/>
      <path id="Path_7082" data-name="Path 7082" d="M565.136,703.773a4.5,4.5,0,1,0,.74-6.342A4.552,4.552,0,0,0,565.136,703.773Z" transform="translate(-240.064 -612.844)" fill="#1a1a1a"/>
      <path id="Path_7083" data-name="Path 7083" d="M554.26,794.317a4.519,4.519,0,0,0,5.559,7.126,4.519,4.519,0,0,0-5.559-7.126Z" transform="translate(-253.811 -498.331)" fill="#1a1a1a"/>
      <path id="Path_7084" data-name="Path 7084" d="M508.057,685.954a4.47,4.47,0,1,0-6.29-.846A4.442,4.442,0,0,0,508.057,685.954Z" transform="translate(-314.894 -634.814)" fill="#1a1a1a"/>
      <path id="Path_7085" data-name="Path 7085" d="M574.653,715.7a4.4,4.4,0,0,0,6.157.833,4.427,4.427,0,1,0-5.43-6.992A4.365,4.365,0,0,0,574.653,715.7Z" transform="translate(-228.814 -598.531)" fill="#1a1a1a"/>
      <path id="Path_7086" data-name="Path 7086" d="M566.321,784.9a4.425,4.425,0,1,0,5.588,6.864,4.425,4.425,0,0,0-5.588-6.864Z" transform="translate(-239.503 -509.494)" fill="#1a1a1a"/>
      <path id="Path_7087" data-name="Path 7087" d="M566.6,698.232a4.359,4.359,0,1,0-6.052-.572A4.352,4.352,0,0,0,566.6,698.232Z" transform="translate(-245.582 -619.889)" fill="#1a1a1a"/>
      <path id="Path_7088" data-name="Path 7088" d="M585.81,765.393a4.362,4.362,0,0,0-6.159-.733,4.357,4.357,0,0,0,5.35,6.877A4.348,4.348,0,0,0,585.81,765.393Z" transform="translate(-223.661 -533.403)" fill="#1a1a1a"/>
      <path id="Path_7089" data-name="Path 7089" d="M535.474,683.633a4.357,4.357,0,1,0-6.142-.849A4.349,4.349,0,0,0,535.474,683.633Z" transform="translate(-282.267 -637.214)" fill="#1a1a1a"/>
      <path id="Path_7090" data-name="Path 7090" d="M589.7,733.187a4.363,4.363,0,0,0-6.157-.77,4.358,4.358,0,0,0,5.444,6.807A4.349,4.349,0,0,0,589.7,733.187Z" transform="translate(-219.088 -571.488)" fill="#1a1a1a"/>
      <path id="Path_7091" data-name="Path 7091" d="M524.637,682.244a4.273,4.273,0,1,0-5.149-6.82,4.273,4.273,0,1,0,5.149,6.82Z" transform="translate(-294.914 -638.781)" fill="#1a1a1a"/>
      <path id="Path_7092" data-name="Path 7092" d="M572.436,780.135a4.193,4.193,0,1,0,5.878.809A4.262,4.262,0,0,0,572.436,780.135Z" transform="translate(-232.235 -514.967)" fill="#1a1a1a"/>
      <path id="Path_7093" data-name="Path 7093" d="M579.4,721.466a4.169,4.169,0,0,0,5.882.716,4.147,4.147,0,1,0-5.179-6.478A4.167,4.167,0,0,0,579.4,721.466Z" transform="translate(-223.079 -591.267)" fill="#1a1a1a"/>
      <path id="Path_7094" data-name="Path 7094" d="M484.879,693.644a4.153,4.153,0,1,0-5.865-.763A4.152,4.152,0,0,0,484.879,693.644Z" transform="translate(-341.698 -624.936)" fill="#1a1a1a"/>
      <path id="Path_7095" data-name="Path 7095" d="M478.772,698.344a4.1,4.1,0,0,0-5.033-6.478,4.1,4.1,0,0,0,5.033,6.478Z" transform="translate(-348.807 -619.308)" fill="#1a1a1a"/>
      <path id="Path_7096" data-name="Path 7096" d="M546.011,684.571a4.1,4.1,0,0,0-5.118-6.408,4.1,4.1,0,1,0,5.118,6.408Z" transform="translate(-269.396 -635.553)" fill="#1a1a1a"/>
      <path id="Path_7097" data-name="Path 7097" d="M561.484,691.811a4.1,4.1,0,0,0,.718-5.6,4.056,4.056,0,0,0-5.7-.738,3.961,3.961,0,0,0-.711,5.675A4.005,4.005,0,0,0,561.484,691.811Z" transform="translate(-251.032 -626.862)" fill="#1a1a1a"/>
      <path id="Path_7098" data-name="Path 7098" d="M490.763,688.671a3.975,3.975,0,1,0-4.9-6.259,3.975,3.975,0,1,0,4.9,6.259Z" transform="translate(-334.5 -630.466)" fill="#1a1a1a"/>
      <path id="Path_7099" data-name="Path 7099" d="M513.523,680.514a3.982,3.982,0,0,0-4.844-6.323,3.983,3.983,0,0,0,4.844,6.323Z" transform="translate(-307.464 -640.126)" fill="#1a1a1a"/>
      <path id="Path_7100" data-name="Path 7100" d="M592.4,750.013a3.836,3.836,0,0,0-5.4-.713,3.8,3.8,0,0,0,4.669,5.993A3.846,3.846,0,0,0,592.4,750.013Z" transform="translate(-214.767 -551.381)" fill="#1a1a1a"/>
      <path id="Path_7101" data-name="Path 7101" d="M496.437,683.659a3.708,3.708,0,0,0,.644-5.256,3.662,3.662,0,0,0-5.245-.62,3.766,3.766,0,0,0-.674,5.149A3.8,3.8,0,0,0,496.437,683.659Z" transform="translate(-327.215 -635.93)" fill="#1a1a1a"/>
      <path id="Path_7102" data-name="Path 7102" d="M584.316,726.991a3.708,3.708,0,0,0,5.258.639,3.807,3.807,0,0,0,.561-5.3,3.763,3.763,0,0,0-5.158-.583A3.662,3.662,0,0,0,584.316,726.991Z" transform="translate(-217.234 -583.89)" fill="#1a1a1a"/>
      <path id="Path_7103" data-name="Path 7103" d="M578.49,775.557a3.663,3.663,0,0,0-.609,5.247,3.707,3.707,0,0,0,5.265.587,3.806,3.806,0,0,0,.613-5.169A3.763,3.763,0,0,0,578.49,775.557Z" transform="translate(-224.865 -520.328)" fill="#1a1a1a"/>
      <path id="Path_7104" data-name="Path 7104" d="M590.873,760.765a3.565,3.565,0,0,0-5.077-.685,3.6,3.6,0,0,0,4.461,5.657A3.591,3.591,0,0,0,590.873,760.765Z" transform="translate(-216.124 -538.598)" fill="#1a1a1a"/>
      <path id="Path_7105" data-name="Path 7105" d="M588.375,738.648a3.572,3.572,0,0,0,4.455,5.585,3.572,3.572,0,1,0-4.455-5.585Z" transform="translate(-213.081 -563.942)" fill="#1a1a1a"/>
      <path id="Path_7106" data-name="Path 7106" d="M556.092,685.159a3.5,3.5,0,0,0,.624-4.948,3.449,3.449,0,0,0-4.931-.637,3.556,3.556,0,0,0-.676,4.959A3.6,3.6,0,0,0,556.092,685.159Z" transform="translate(-256.361 -633.727)" fill="#1a1a1a"/>
      <path id="Path_7107" data-name="Path 7107" d="M529.65,676.311a3.467,3.467,0,0,0,.628-4.706,3.407,3.407,0,0,0-4.811-.615,3.318,3.318,0,0,0-.613,4.662A3.371,3.371,0,0,0,529.65,676.311Z" transform="translate(-287.356 -643.831)" fill="#1a1a1a"/>
      <path id="Path_7108" data-name="Path 7108" d="M540.274,677.505a3.3,3.3,0,0,0-4.012-5.252,3.3,3.3,0,0,0,4.012,5.252Z" transform="translate(-274.559 -642.248)" fill="#1a1a1a"/>
      <path id="Path_7109" data-name="Path 7109" d="M501.964,678.157a3.222,3.222,0,0,0-4.084-4.983,3.222,3.222,0,1,0,4.084,4.983Z" transform="translate(-319.81 -641.261)" fill="#1a1a1a"/>
      <path id="Path_7110" data-name="Path 7110" d="M575.868,698.092a3.188,3.188,0,1,0-3.75-5.156,3.188,3.188,0,0,0,3.75,5.156Z" transform="translate(-232.214 -617.727)" fill="#1a1a1a"/>
      <path id="Path_7111" data-name="Path 7111" d="M518.655,674.675a3.149,3.149,0,1,0-3.875-4.966,3.15,3.15,0,1,0,3.875,4.966Z" transform="translate(-299.91 -645.304)" fill="#1a1a1a"/>
      <path id="Path_7112" data-name="Path 7112" d="M580.637,704.071a3.15,3.15,0,1,0-3.79-5.031,3.149,3.149,0,1,0,3.79,5.031Z" transform="translate(-226.611 -610.594)" fill="#1a1a1a"/>
      <path id="Path_7113" data-name="Path 7113" d="M559.26,800.628a3.151,3.151,0,1,0,3.759,5.051,3.149,3.149,0,0,0-3.759-5.051Z" transform="translate(-247.497 -490.477)" fill="#1a1a1a"/>
      <path id="Path_7114" data-name="Path 7114" d="M565.239,795.923a3.148,3.148,0,1,0,3.737,5.066,3.148,3.148,0,1,0-3.737-5.066Z" transform="translate(-240.359 -496.079)" fill="#1a1a1a"/>
      <path id="Path_7115" data-name="Path 7115" d="M584.472,771.006a3.141,3.141,0,1,0,4.4.434A3.17,3.17,0,0,0,584.472,771.006Z" transform="translate(-217.396 -525.604)" fill="#1a1a1a"/>
      <path id="Path_7116" data-name="Path 7116" d="M589.176,732.3a3.047,3.047,0,0,0,4.346.567,3.092,3.092,0,1,0-4.346-.567Z" transform="translate(-211.298 -576.425)" fill="#1a1a1a"/>
      <path id="Path_7117" data-name="Path 7117" d="M571.174,791.258a3.023,3.023,0,0,0-.414,4.353,2.991,2.991,0,0,0,4.222.423,3.054,3.054,0,1,0-3.807-4.776Z" transform="translate(-233.162 -501.625)" fill="#1a1a1a"/>
      <path id="Path_7118" data-name="Path 7118" d="M585.213,709.861a2.978,2.978,0,1,0-3.646-4.711,2.979,2.979,0,1,0,3.646,4.711Z" transform="translate(-220.915 -603.372)" fill="#1a1a1a"/>
      <path id="Path_7119" data-name="Path 7119" d="M570.943,691.708a2.968,2.968,0,0,0-3.628-4.7,2.968,2.968,0,0,0,3.628,4.7Z" transform="translate(-237.691 -624.741)" fill="#1a1a1a"/>
      <path id="Path_7120" data-name="Path 7120" d="M550.489,678.211a2.842,2.842,0,1,0-3.454-4.514,2.842,2.842,0,0,0,3.454,4.514Z" transform="translate(-261.575 -640.473)" fill="#1a1a1a"/>
      <path id="Path_7121" data-name="Path 7121" d="M577.344,786.515a2.78,2.78,0,0,0-.567,3.883,2.748,2.748,0,0,0,3.768.465,2.648,2.648,0,0,0,.524-3.729A2.68,2.68,0,0,0,577.344,786.515Z" transform="translate(-225.831 -507.036)" fill="#1a1a1a"/>
      <path id="Path_7122" data-name="Path 7122" d="M589.642,715.481a2.646,2.646,0,0,0,.432-3.742,2.679,2.679,0,0,0-3.737-.528,2.786,2.786,0,0,0-.576,3.763A2.751,2.751,0,0,0,589.642,715.481Z" transform="translate(-215.142 -596.073)" fill="#1a1a1a"/>
      <path id="Path_7123" data-name="Path 7123" d="M507.223,672.529a2.552,2.552,0,1,0-3.236-3.947,2.552,2.552,0,0,0,3.236,3.947Z" transform="translate(-312.312 -646.502)" fill="#1a1a1a"/>
      <path id="Path_7124" data-name="Path 7124" d="M591.84,755.648a2.615,2.615,0,0,0-.408,3.615,2.644,2.644,0,0,0,3.622.408,2.554,2.554,0,0,0,.373-3.6A2.527,2.527,0,0,0,591.84,755.648Z" transform="translate(-208.506 -543.592)" fill="#1a1a1a"/>
      <path id="Path_7125" data-name="Path 7125" d="M478.349,685.494a2.646,2.646,0,0,0,.371-3.626,2.614,2.614,0,0,0-3.617-.366,2.514,2.514,0,0,0-.351,3.591A2.555,2.555,0,0,0,478.349,685.494Z" transform="translate(-346.454 -631.216)" fill="#1a1a1a"/>
      <path id="Path_7126" data-name="Path 7126" d="M565.587,685.122a2.571,2.571,0,0,0,.535-3.6,2.6,2.6,0,0,0-3.5-.447,2.51,2.51,0,0,0,2.967,4.047Z" transform="translate(-243.052 -631.627)" fill="#1a1a1a"/>
      <path id="Path_7127" data-name="Path 7127" d="M472.167,690.148a2.469,2.469,0,0,0-2.978-3.938,2.47,2.47,0,1,0,2.978,3.938Z" transform="translate(-353.551 -625.577)" fill="#1a1a1a"/>
      <path id="Path_7128" data-name="Path 7128" d="M484.273,680.465a2.4,2.4,0,0,0,.275-3.34,2.424,2.424,0,0,0-3.467-.253,2.4,2.4,0,0,0,3.192,3.593Z" transform="translate(-339.244 -636.745)" fill="#1a1a1a"/>
      <path id="Path_7129" data-name="Path 7129" d="M590.63,766.473a2.272,2.272,0,0,0-.4,3.035,2.24,2.24,0,0,0,3.15.384,2.195,2.195,0,0,0-2.753-3.419Z" transform="translate(-209.764 -530.712)" fill="#1a1a1a"/>
      <path id="Path_7130" data-name="Path 7130" d="M534.128,669.951a2.137,2.137,0,1,0-2.98-.545A2.159,2.159,0,0,0,534.128,669.951Z" transform="translate(-279.531 -648.749)" fill="#1a1a1a"/>
      <path id="Path_7131" data-name="Path 7131" d="M593.7,720.778a2.136,2.136,0,1,0-3-.419A2.154,2.154,0,0,0,593.7,720.778Z" transform="translate(-209.22 -588.622)" fill="#1a1a1a"/>
      <path id="Path_7132" data-name="Path 7132" d="M583.3,782.047a2.09,2.09,0,1,0,2.985.29A2.077,2.077,0,0,0,583.3,782.047Z" transform="translate(-218.384 -512.321)" fill="#1a1a1a"/>
      <path id="Path_7133" data-name="Path 7133" d="M523.3,668.476a2.066,2.066,0,0,0,.4-2.849,2.089,2.089,0,0,0-2.858-.375,2,2,0,0,0-.362,2.832A1.977,1.977,0,0,0,523.3,668.476Z" transform="translate(-292.222 -650.23)" fill="#1a1a1a"/>
      <path id="Path_7134" data-name="Path 7134" d="M489.717,675.338a1.98,1.98,0,0,0,.377-2.823,2,2,0,0,0-2.828-.408,2.088,2.088,0,0,0-.4,2.856A2.06,2.06,0,0,0,489.717,675.338Z" transform="translate(-331.898 -642.14)" fill="#1a1a1a"/>
      <path id="Path_7135" data-name="Path 7135" d="M560.07,678.228a1.914,1.914,0,0,0,.473-2.671,1.877,1.877,0,0,0-2.561-.351,1.775,1.775,0,0,0-.43,2.522A1.814,1.814,0,0,0,560.07,678.228Z" transform="translate(-248.311 -638.407)" fill="#1a1a1a"/>
      <path id="Path_7136" data-name="Path 7136" d="M544.552,670.656a1.728,1.728,0,0,0-2.081-2.758,1.728,1.728,0,1,0,2.081,2.758Z" transform="translate(-266.599 -647.021)" fill="#1a1a1a"/>
      <path id="Path_7137" data-name="Path 7137" d="M495.244,669.924a1.547,1.547,0,0,0-1.95-2.4,1.546,1.546,0,1,0,1.95,2.4Z" transform="translate(-324.496 -647.48)" fill="#1a1a1a"/>
      <path id="Path_7138" data-name="Path 7138" d="M512.1,666.4a1.529,1.529,0,0,0-1.918-2.376,1.574,1.574,0,0,0-.31,2.217A1.555,1.555,0,0,0,512.1,666.4Z" transform="translate(-304.627 -651.552)" fill="#1a1a1a"/>
      <path id="Path_7139" data-name="Path 7139" d="M589.472,777.408a1.4,1.4,0,1,0,1.708,2.2,1.352,1.352,0,0,0,.225-1.933A1.369,1.369,0,0,0,589.472,777.408Z" transform="translate(-210.873 -517.547)" fill="#1a1a1a"/>
      <path id="Path_7140" data-name="Path 7140" d="M584.5,696.859a1.31,1.31,0,1,0-1.575-2.092,1.311,1.311,0,0,0,1.575,2.092Z" transform="translate(-218.453 -615.176)" fill="#1a1a1a"/>
      <path id="Path_7141" data-name="Path 7141" d="M579.774,690.761a1.315,1.315,0,0,0,.281-1.8,1.294,1.294,0,0,0-1.8-.218,1.263,1.263,0,1,0,1.521,2.016Z" transform="translate(-224.061 -622.308)" fill="#1a1a1a"/>
      <path id="Path_7142" data-name="Path 7142" d="M563.96,807.256a1.263,1.263,0,1,0,1.663,1.9,1.291,1.291,0,0,0,.153-1.807A1.31,1.31,0,0,0,563.96,807.256Z" transform="translate(-240.869 -482.318)" fill="#1a1a1a"/>
      <path id="Path_7143" data-name="Path 7143" d="M570.009,802.513a1.286,1.286,0,0,0-.181,1.8,1.316,1.316,0,0,0,1.815.122,1.262,1.262,0,1,0-1.634-1.924Z" transform="translate(-233.734 -487.928)" fill="#1a1a1a"/>
      <path id="Path_7144" data-name="Path 7144" d="M554.614,671.194a1.209,1.209,0,0,0,.231-1.654,1.24,1.24,0,0,0-1.671-.148,1.151,1.151,0,0,0-.074,1.649A1.073,1.073,0,0,0,554.614,671.194Z" transform="translate(-253.532 -645.166)" fill="#1a1a1a"/>
      <path id="Path_7145" data-name="Path 7145" d="M589.16,702.647a1.154,1.154,0,1,0-1.536-1.721,1.164,1.164,0,0,0-.122,1.542A1.193,1.193,0,0,0,589.16,702.647Z" transform="translate(-212.784 -607.971)" fill="#1a1a1a"/>
      <path id="Path_7146" data-name="Path 7146" d="M576.062,797.76a1.156,1.156,0,1,0,1.5,1.756,1.123,1.123,0,0,0,.024-1.645A1.093,1.093,0,0,0,576.062,797.76Z" transform="translate(-226.523 -493.466)" fill="#1a1a1a"/>
      <path id="Path_7147" data-name="Path 7147" d="M574.967,684.658a5.932,5.932,0,0,0-.061-1.671c-.192-.493-1.076-.55-1.457-.155a.852.852,0,0,0-.039,1.329A5.274,5.274,0,0,0,574.967,684.658Z" transform="translate(-229.517 -629.287)" fill="#1a1a1a"/>
      <path id="Path_7148" data-name="Path 7148" d="M559.443,812.087a1.091,1.091,0,0,0-1.516-.1,1.155,1.155,0,1,0,1.5,1.756,1.124,1.124,0,0,0,.29-1.255c.037-.131.059-.233.109-.384C559.683,812.1,559.563,812.094,559.443,812.087Z" transform="translate(-247.956 -476.659)" fill="#1a1a1a"/>
      <path id="Path_7149" data-name="Path 7149" d="M569.927,678.17c-.057-.65.037-1.18-.144-1.3-.281-.192-.753-.109-1.143-.142-.031.358-.216.86-.05,1.041C568.81,678.007,569.306,678,569.927,678.17Z" transform="translate(-234.937 -636.198)" fill="#1a1a1a"/>
      <path id="Path_7150" data-name="Path 7150" d="M471.432,677.185a1.05,1.05,0,0,0,.172-1c-.2-.266-.687-.314-1.287-.545,0,.646-.12,1.049.015,1.333A.653.653,0,0,0,471.432,677.185Z" transform="translate(-351.05 -637.475)" fill="#1a1a1a"/>
      <path id="Path_7151" data-name="Path 7151" d="M538.89,663.5c-.059-.644.033-1.174-.153-1.3-.282-.192-.755-.1-1.146-.133-.026.358-.209.862-.041,1.041C537.773,663.348,538.268,663.337,538.89,663.5Z" transform="translate(-271.621 -653.521)" fill="#1a1a1a"/>
      <path id="Path_7152" data-name="Path 7152" d="M581.99,794.138a.992.992,0,0,0,.966.194c.266-.207.319-.687.591-1.379-.742.076-1.22,0-1.492.2A1,1,0,0,0,581.99,794.138Z" transform="translate(-219.139 -498.843)" fill="#1a1a1a"/>
      <path id="Path_7153" data-name="Path 7153" d="M527.832,661.971c.223-.218.236-.65.412-1.2-.57,0-1.021-.129-1.244.039a1.051,1.051,0,0,0-.266.964A.637.637,0,0,0,527.832,661.971Z" transform="translate(-284.359 -655.11)" fill="#1a1a1a"/>
      <path id="Path_7154" data-name="Path 7154" d="M500.223,664.2a.646.646,0,0,0,.205-1.1c-.216-.212-.657-.192-1.22-.334,0,.565-.131,1.023.041,1.226A1.053,1.053,0,0,0,500.223,664.2Z" transform="translate(-316.904 -652.697)" fill="#1a1a1a"/>
      <path id="Path_7155" data-name="Path 7155" d="M593.443,708.082a1.06,1.06,0,0,0-.015-1c-.164-.2-.639-.161-1.2-.268.028.576-.074,1.006.092,1.254A.647.647,0,0,0,593.443,708.082Z" transform="translate(-206.926 -600.639)" fill="#1a1a1a"/>
      <path id="Path_7156" data-name="Path 7156" d="M506.083,659.12c.02-.242.14-.55.033-.709s-.434-.155-.79-.262c.009.386-.079.718.046.851S505.836,659.087,506.083,659.12Z" transform="translate(-309.645 -658.149)" fill="#1a1a1a"/>
      <path id="Path_7157" data-name="Path 7157" d="M516.75,660.365c.148-.083.144-.434.253-.84-.41.061-.694.028-.868.153-.113.083-.151.526-.081.565A.864.864,0,0,0,516.75,660.365Z" transform="translate(-296.982 -656.523)" fill="#1a1a1a"/>
      <path id="Path_7158" data-name="Path 7158" d="M549.165,664.255a.7.7,0,0,0,.081-.689.7.7,0,0,0-.683-.1c-.148.087-.142.434-.24.807C548.709,664.277,549.045,664.375,549.165,664.255Z" transform="translate(-258.807 -651.922)" fill="#1a1a1a"/>
      <path id="Path_7159" data-name="Path 7159" d="M564.74,671.748c-.009-.38.076-.7-.046-.833s-.454-.107-.694-.151c-.035.242-.174.55-.074.709S564.363,671.635,564.74,671.748Z" transform="translate(-240.41 -643.241)" fill="#1a1a1a"/>
      <path id="Path_7160" data-name="Path 7160" d="M477.144,671.956c.148-.083.144-.434.253-.84-.41.061-.694.028-.868.153-.113.083-.151.526-.081.565A.856.856,0,0,0,477.144,671.956Z" transform="translate(-343.787 -642.825)" fill="#1a1a1a"/>
      <path id="Path_7161" data-name="Path 7161" d="M483.082,667.351l.458-.076c-.068-.258-.065-.589-.229-.748a.909.909,0,0,0-.718-.089.631.631,0,0,0-.109.552C482.6,667.163,482.874,667.235,483.082,667.351Z" transform="translate(-336.645 -648.391)" fill="#1a1a1a"/>
      <path id="Path_7162" data-name="Path 7162" d="M588.2,788.4a.966.966,0,0,0-.135.714.708.708,0,0,0,.563.1c.179-.111.253-.386.467-.755C588.653,788.414,588.315,788.287,588.2,788.4Z" transform="translate(-211.854 -504.279)" fill="#1a1a1a"/>
      <path id="Path_7163" data-name="Path 7163" d="M579.066,831.543c-.085.148-.148.3-.225.454-.144.3-.286.6-.4.9-.052.144-.092.292-.135.439a7.6,7.6,0,0,0,1.9,7.922,8.028,8.028,0,0,0,10.51.731,8.427,8.427,0,0,0,1.3-1.233c.017-.02.031-.042.048-.061a7.833,7.833,0,0,0,.853-1.213c.026-.046.046-.091.07-.137a7.717,7.717,0,0,0,.545-1.228c.033-.1.054-.192.085-.286a8.175,8.175,0,0,0,.246-1.093c.029-.188.044-.375.059-.565.02-.26.031-.521.024-.785a8.73,8.73,0,0,0-.07-.888c-.022-.151-.046-.3-.076-.447a7.833,7.833,0,0,0-.29-1.1c-.035-.1-.077-.2-.116-.3a7.651,7.651,0,0,0-.476-1.015c-.037-.072-.059-.146-.1-.216-.1-.181-.236-.325-.351-.5-.074-.1-.122-.218-.2-.321-.026-.033-.061-.057-.087-.089a7.213,7.213,0,0,0-5.116-2.869c-.053-.009-.1-.017-.157-.024-.231-.02-.467-.02-.7-.02a8.164,8.164,0,0,0-1.132.037l-.07.011a7.87,7.87,0,0,0-1.3.262,13.6,13.6,0,0,0-2.11.694c.246-.351.447-.655.652-.964a7.5,7.5,0,0,0,1.689-3.62l0-.022a10.49,10.49,0,0,0-.323-4.6,24.667,24.667,0,0,0,4.531,1.226,22.253,22.253,0,0,0,4.46-.482c-2.411,4.73-1.992,8.531,1.324,11.343a8.265,8.265,0,0,0,10.2.2,8.172,8.172,0,0,0,2.411-9.89c-1.844-4.023-5.238-5.289-11.127-4.089a9.22,9.22,0,0,0,1.6-8.755,9.366,9.366,0,0,0,8.771.681c-2.374,5.042-1.961,8.755,1.167,11.378a8.152,8.152,0,0,0,13.067-8.862,8.012,8.012,0,0,0-4.481-4.8,8.945,8.945,0,0,0-6.949.116,9.551,9.551,0,0,0,1.591-9.144,9.1,9.1,0,0,0,9.8.144c-3.316,4.141-3.336,8.539-.185,11.757a8.061,8.061,0,0,0,12.61-9.835c-2.21-3.816-6.44-4.876-11.234-2.815,2.743-3.929,2.924-4.926,1.774-10.224a9.31,9.31,0,0,0,5.908,1.846,8.214,8.214,0,0,0,3.129-15.547c-2.481-1.241-4.994-1.049-7.776.087,2.653-3.458,2.932-6.822,1.052-10.433,5.114,3.057,8.878,2.871,11.965-.521a8.071,8.071,0,0,0-9.652-12.55c-4.076,2.049-5.221,5.78-3.484,11.611-2.651-2.456-5.69-3.019-9.325-2.031a9.5,9.5,0,0,0,.868-8.891c5.116,2.289,8.8,1.813,11.432-1.34a8.171,8.171,0,0,0-8.635-13.086,8.019,8.019,0,0,0-4.2,2.972c-1.868,2.511-1.9,5.284-.975,8.415a9.461,9.461,0,0,0-8.749-1.455,9.366,9.366,0,0,0,.554-8.952c.735.4,1.215.674,1.706.923a8.135,8.135,0,1,0-4.241-5.4c.126.55.26,1.1.445,1.878a9.21,9.21,0,0,0-9.174-1.422c2.225-4.734,1.92-8.2-.888-11.066a8.076,8.076,0,0,0-10.11-1.333c-3.91,2.129-4.9,5.817-3.827,10.344a9.512,9.512,0,0,0-8.559-1.012c2.121-5.031,1.575-8.581-1.66-11.343a8.413,8.413,0,0,0-9.648-.711c-3.591,2.267-4.7,5.7-3.353,10.9a9.353,9.353,0,0,0-9.907-.916,8.913,8.913,0,0,0,2.071-5.969,7.7,7.7,0,0,0-2.788-5.762,8.018,8.018,0,1,0-8.908,13.2,8.862,8.862,0,0,0,7.839-.018,9.311,9.311,0,0,0-1.58,9.75,9.329,9.329,0,0,0-10.067-.652,8.438,8.438,0,0,1,.807-1.185,8,8,0,1,0-3.473,2.732c.406-.161.809-.332,1.213-.5a9.5,9.5,0,0,0-1.477,10.267c-.159-.094-.31-.155-.467-.24a8.415,8.415,0,0,0-9.48-.591,7.715,7.715,0,0,0-3.868,6.611c-.011.175-.022.347-.024.522s.015.382.028.576a7.062,7.062,0,0,0,.065.711,17.707,17.707,0,0,0,.445,2.487,9.349,9.349,0,0,0-9.907-.916,8.9,8.9,0,0,0,2.07-5.969,7.686,7.686,0,0,0-2.786-5.762,8.017,8.017,0,1,0-8.908,13.2,8.851,8.851,0,0,0,7.837-.02,9.319,9.319,0,0,0-1.577,9.752,9.329,9.329,0,0,0-10.067-.655,8.24,8.24,0,0,1,.807-1.183,8,8,0,1,0-3.473,2.732c.406-.161.807-.332,1.211-.5a9.5,9.5,0,0,0-1.475,10.267c-4.547-2.612-8.291-2.476-11.229.279a8.308,8.308,0,0,0-1.809,9.639,8.146,8.146,0,0,0,3.565,3.724,9,9,0,0,0,7.407.319,9.378,9.378,0,0,0-1.169,9.227c-4.78-2.418-8.568-1.94-11.443,1.283a8.365,8.365,0,0,0-.668,9.923c2.073,3.377,5.893,4.422,10.915,2.917-2.457,3.391-3,6.9-.626,10.4,2.559,3.785,6.24,4.486,10.64,3.146a9.019,9.019,0,0,0-.454,10.062c-4.874-3.172-8.886-3.072-11.821.133a8.012,8.012,0,0,0,9.8,12.454c3.772-2.04,4.831-6,2.871-11.55,2.991,2.849,6.255,3.34,10.08,2.014-2.457,4.1-2.5,7.841.617,11.247a8.064,8.064,0,0,0,9.5,1.713c4.287-2.2,5.526-5.871,4.379-10.71a9.592,9.592,0,0,0,8.627,1.1,9.156,9.156,0,0,0-.3,9.292c-5.14-2.849-9.172-2.686-11.744.312-2.731,3.179-2.982,7.289-.639,10.409a8.023,8.023,0,0,0,10.126,2.426,7.736,7.736,0,0,0,3.687-3.807,8.938,8.938,0,0,0-.133-7.536c3.469,2.6,7.11,3.159,10.7.737s4.37-6.017,3.264-9.947a24.679,24.679,0,0,0,4.534,1.228,22.2,22.2,0,0,0,4.457-.482c-2.409,4.73-1.99,8.531,1.327,11.343a8.259,8.259,0,0,0,10.193.2,8.171,8.171,0,0,0,2.413-9.89c-1.844-4.021-5.238-5.286-11.127-4.086a9.217,9.217,0,0,0,1.595-8.758,9.371,9.371,0,0,0,8.773.683c-2.376,5.04-1.961,8.755,1.165,11.378a8.153,8.153,0,0,0,13.069-8.862,8.021,8.021,0,0,0-4.481-4.8,8.946,8.946,0,0,0-6.949.118,9.551,9.551,0,0,0,1.591-9.144,10.641,10.641,0,0,0,2.828,1.206c.192.055.384.092.576.133.148.028.3.057.447.078a7.541,7.541,0,0,0,3.419-.238A11.55,11.55,0,0,0,580.4,829.5,13.182,13.182,0,0,0,579.066,831.543Zm-11.424-5.921a9.747,9.747,0,0,0-7.233-1.446,10.558,10.558,0,0,0,.932-6.728,9.928,9.928,0,0,0,6.993.308A9.444,9.444,0,0,0,567.643,825.622ZM554.183,835.85a9.374,9.374,0,0,0-6.744-1.292c.364-2.077.718-4.1,1.036-5.906l5.924.449A9.468,9.468,0,0,0,554.183,835.85Zm-12.94,10.808a9.213,9.213,0,0,0-8.308-1.115,9.9,9.9,0,0,0,1.449-7.337,10.562,10.562,0,0,0,7.143.781A9.492,9.492,0,0,0,541.243,846.658Zm-23.714-2.851a9.077,9.077,0,0,0-8.441-.9,24.977,24.977,0,0,0,1.4-3.8,25.862,25.862,0,0,0,.175-4.078,9.758,9.758,0,0,0,7.209.96A9.636,9.636,0,0,0,517.53,843.807Zm-10.924-13.76a9.31,9.31,0,0,0-8.216-.266,9.373,9.373,0,0,0,1.58-8.168,10.026,10.026,0,0,0,7.073,1.226A10.669,10.669,0,0,0,506.606,830.047Zm-17.537-22.479a9.523,9.523,0,0,0,8.079,1.577,10.019,10.019,0,0,0-.772,7.863,9.269,9.269,0,0,0-8.738-.218A9.036,9.036,0,0,0,489.069,807.568Zm2.821-23.731a9.55,9.55,0,0,0,8.264,1.5,10.042,10.042,0,0,0-1.089,7.778,9.551,9.551,0,0,0-8.2-.316A9.21,9.21,0,0,0,491.89,783.837ZM505.212,773.5a9.314,9.314,0,0,0,7.752,1.61,14.172,14.172,0,0,0-1.163,6.835,27.48,27.48,0,0,0-3.412-.644,26.953,26.953,0,0,0-3.545.227A9.234,9.234,0,0,0,505.212,773.5Zm13.907-6.259a25.283,25.283,0,0,0-.487-4.078,9.019,9.019,0,0,0,8.415,1.141,9.725,9.725,0,0,0-1.488,7.654,9.906,9.906,0,0,0-7.232-.764A24.022,24.022,0,0,0,519.118,767.242Zm12.107-6.905a8.95,8.95,0,0,0,.233-7.529,9.552,9.552,0,0,0,8.264,1.5,10.032,10.032,0,0,0-1.1,7.708,9.375,9.375,0,0,0-7.8-.594C530.982,761.044,531.1,760.7,531.225,760.337Zm26.975-28.2a9.027,9.027,0,0,0,8.415,1.141,9.719,9.719,0,0,0-1.486,7.651,9.906,9.906,0,0,0-7.233-.763,24.5,24.5,0,0,0,.792-3.951A25.256,25.256,0,0,0,558.2,732.138Zm23.775,3.085a9.267,9.267,0,0,0,8.43.82,9.489,9.489,0,0,0-1.562,7.623,10.274,10.274,0,0,0-7.115-.954A9.9,9.9,0,0,0,581.975,735.223Zm21.658,27.283a9.757,9.757,0,0,0,7.357.3,9.4,9.4,0,0,0-1.124,7.732,10.209,10.209,0,0,0-6.892-1.222A10.519,10.519,0,0,0,603.633,762.506Zm10,12.711a9.159,9.159,0,0,0,8.406.212,9.365,9.365,0,0,0-1.316,9.253,9.469,9.469,0,0,0-8.033-1.523,13.889,13.889,0,0,0,.943-7.942Zm-32.849-10.4c.1-1.289.2-2.559.3-3.868l4.429.371c-.238,1.353-.474,2.705-.72,4.108Zm10.68,14.075c.194-1.514.391-3.052.585-4.569l4.18.188c-.214,1.737-.421,3.445-.635,5.2C594.225,779.441,592.733,779.146,591.461,778.893Zm-13.143,6.6c1.309.107,2.673.22,4.027.334-.087,1.381-.177,2.76-.266,4.171-1.409-.22-2.871-.449-4.42-.694C577.882,788.022,578.091,786.815,578.318,785.493Zm9.726,12.131c1.872.142,3.866.295,5.923.45a9.474,9.474,0,0,0-.216,6.75,9.366,9.366,0,0,0-6.742-1.292C587.374,801.452,587.728,799.434,588.044,797.623Zm12.868-11.206a9.924,9.924,0,0,0,6.993.308,9.444,9.444,0,0,0-.694,7.868,9.738,9.738,0,0,0-7.231-1.446A10.572,10.572,0,0,0,600.912,786.418ZM600.1,749.86a10.026,10.026,0,0,0-1.106,6.419l-5.858-.951q.183-2.788.391-5.948A9.909,9.909,0,0,0,600.1,749.86Zm-25.219.177c-.19.818-.318,1.652-.476,2.483-1.5-.161-3.214-.343-4.848-.515.074-1.691.155-3.473.227-5.066,1.887.251,3.761.5,5.734.759C575.338,748.346,575.078,749.184,574.879,750.037Zm-71.7,48.6,5.651,1.1c-.21,1.691-.439,3.565-.652,5.3l-5.7-.246A9.233,9.233,0,0,0,503.178,798.64Zm17.945-4.715-4.479-.3c.131-1.7.262-3.41.388-5.031l4.789.862C521.6,790.893,521.361,792.407,521.123,793.925ZM518.754,813.6c-.126,1.545-.249,3.041-.371,4.525l-4.865-.3c.264-1.586.543-3.273.827-4.968Zm9.209-7.014c.179-1.257.347-2.446.515-3.641.884.133,1.975.294,3.076.458-.2,1.111-.39,2.2-.611,3.434Zm33.429-48.156-.7,4.464c-1.508-.1-3.048-.2-4.479-.3.131-1.7.264-3.41.388-5.031C558.147,757.848,559.777,758.14,561.392,758.433Zm-4.737,47.108c-.212,1.737-.421,3.445-.635,5.2l-4.128-.818c.194-1.516.391-3.052.585-4.569Zm-13.73-34.821a9.311,9.311,0,0,0,.05-1.353c0-.111-.013-.222-.022-.336a9.919,9.919,0,0,0-.2-1.418q2.962.579,5.644,1.1c-.207,1.693-.438,3.565-.652,5.3l-.137-.007a10.06,10.06,0,0,0-5.448-.264,11.061,11.061,0,0,0,.744-2.867C542.912,770.823,542.919,770.773,542.925,770.72Zm-1.715,25.127c.1-1.292.2-2.559.305-3.868,1.466.122,2.93.244,4.429.371-.238,1.353-.476,2.705-.72,4.106C543.831,796.245,542.513,796.046,541.211,795.847Zm1.566,21.008c-.087,1.379-.177,2.758-.266,4.172-1.412-.223-2.871-.452-4.42-.694.221-1.283.43-2.492.659-3.814Zm10.789-30.5c.083-1.276.172-2.633.264-4.025l.083-.5c1.39.236,2.869.482,4.409.742-.124,1.536-.247,3.022-.369,4.5Zm-2.042-38.9a26.65,26.65,0,0,0-.155,3.465,14.1,14.1,0,0,0-6.958-.419,9.227,9.227,0,0,0,.369-8.029,9.3,9.3,0,0,0,7.752,1.61A26.827,26.827,0,0,0,551.524,747.456Zm-16.213,33.61c-.192.818-.319,1.652-.476,2.481l-4.85-.515c.076-1.689.157-3.471.227-5.064l5.736.759C535.769,779.375,535.51,780.213,535.311,781.066Zm-10.488,45.147c.683.149,1.484.378,2.3.484.833.109,1.682.1,2.585.144-.074,1.767-.146,3.436-.214,5.04l-5.7-.591C524.1,829.78,524.457,828.037,524.823,826.213Zm46.3-53.837c-.2,1.113-.391,2.2-.609,3.434-.86-.072-1.992-.166-2.982-.251.179-1.257.347-2.444.517-3.639Zm3.052,37.9a16.141,16.141,0,0,0-.055-3.037,10.528,10.528,0,0,0,6.975.718,9.461,9.461,0,0,0-.325,7.514,9.389,9.389,0,0,0-7.654-1.285A26.458,26.458,0,0,0,574.175,810.278ZM563.781,800.3l-.351-.035a10.675,10.675,0,0,0,.9-4.754l.065-.33c.683.148,1.484.378,2.3.484.834.109,1.684.1,2.588.146l-.216,5.038-.543-.057A9.3,9.3,0,0,0,563.781,800.3Z" transform="translate(-347.543 -591.377)" fill="#1a1a1a"/>
      <path id="Path_7164" data-name="Path 7164" d="M506.23,782.285a7.984,7.984,0,1,0,11.168,1.383A7.944,7.944,0,0,0,506.23,782.285Z" transform="translate(-312.242 -513.412)" fill="#1a1a1a"/>
      <path id="Path_7165" data-name="Path 7165" d="M473.828,778.887a7.889,7.889,0,0,0,11.149,1.3,7.966,7.966,0,1,0-9.914-12.469A7.912,7.912,0,0,0,473.828,778.887Z" transform="translate(-348.914 -530.719)" fill="#1a1a1a"/>
      <path id="Path_7166" data-name="Path 7166" d="M482.812,752.217a7.9,7.9,0,0,0-11.151-1.337,7.951,7.951,0,1,0,9.846,12.486A7.883,7.883,0,0,0,482.812,752.217Z" transform="translate(-352.979 -550.589)" fill="#1a1a1a"/>
      <path id="Path_7167" data-name="Path 7167" d="M484.547,779.785a7.91,7.91,0,1,0,11.171,1.318A7.923,7.923,0,0,0,484.547,779.785Z" transform="translate(-337.657 -516.408)" fill="#1a1a1a"/>
      <path id="Path_7168" data-name="Path 7168" d="M500.725,738.335a7.884,7.884,0,0,0,2.592-3.5,7.628,7.628,0,0,0-1.036-7.468,7.893,7.893,0,1,0-1.556,10.963Z" transform="translate(-330.017 -580.103)" fill="#1a1a1a"/>
      <path id="Path_7169" data-name="Path 7169" d="M470.53,761.591a7.8,7.8,0,1,0,9.449,12.423,7.8,7.8,0,0,0-9.449-12.423Z" transform="translate(-354.44 -537.778)" fill="#1a1a1a"/>
      <path id="Path_7170" data-name="Path 7170" d="M471.626,751.077a7.815,7.815,0,1,0,1.564-11.1A7.81,7.81,0,0,0,471.626,751.077Z" transform="translate(-351.381 -563.254)" fill="#1a1a1a"/>
      <path id="Path_7171" data-name="Path 7171" d="M509.622,799.224a7.66,7.66,0,1,0-10.826-1.348A7.6,7.6,0,0,0,509.622,799.224Z" transform="translate(-319.208 -507.64)" fill="#1a1a1a"/>
      <path id="Path_7172" data-name="Path 7172" d="M532.431,791.021a7.654,7.654,0,1,0-9.4-12.078,7.654,7.654,0,0,0,9.4,12.078Z" transform="translate(-292.174 -517.291)" fill="#1a1a1a"/>
      <path id="Path_7173" data-name="Path 7173" d="M498.823,797.9a7.654,7.654,0,1,0-9.449-12.043,7.654,7.654,0,0,0,9.449,12.043Z" transform="translate(-331.918 -509.141)" fill="#1a1a1a"/>
      <path id="Path_7174" data-name="Path 7174" d="M526.32,795.769a7.616,7.616,0,1,0-10.706-1.4A7.7,7.7,0,0,0,526.32,795.769Z" transform="translate(-299.3 -511.68)" fill="#1a1a1a"/>
      <path id="Path_7175" data-name="Path 7175" d="M476.333,757.047a7.55,7.55,0,1,0-1.372,10.577A7.626,7.626,0,0,0,476.333,757.047Z" transform="translate(-359.889 -544.76)" fill="#1a1a1a"/>
      <path id="Path_7176" data-name="Path 7176" d="M467.019,744.924a7.52,7.52,0,1,0,10.54,1.287A7.538,7.538,0,0,0,467.019,744.924Z" transform="translate(-358.365 -557.5)" fill="#1a1a1a"/>
      <path id="Path_7177" data-name="Path 7177" d="M538.407,786.064a7.521,7.521,0,1,0-10.682-1.257A7.482,7.482,0,0,0,538.407,786.064Z" transform="translate(-284.995 -522.848)" fill="#1a1a1a"/>
      <path id="Path_7178" data-name="Path 7178" d="M520.163,800.25a7.463,7.463,0,0,0-9.209-11.747,7.463,7.463,0,1,0,9.209,11.747Z" transform="translate(-306.357 -506.001)" fill="#1a1a1a"/>
      <path id="Path_7179" data-name="Path 7179" d="M483.13,790.248a7.449,7.449,0,1,0-9.321-11.622,7.449,7.449,0,0,0,9.321,11.622Z" transform="translate(-350.162 -517.703)" fill="#1a1a1a"/>
      <path id="Path_7180" data-name="Path 7180" d="M480.3,724.733a7.458,7.458,0,1,0,10.5,1.261A7.384,7.384,0,0,0,480.3,724.733Z" transform="translate(-342.518 -581.398)" fill="#1a1a1a"/>
      <path id="Path_7181" data-name="Path 7181" d="M478.329,784.223a7.419,7.419,0,0,0-9.137-11.692,7.419,7.419,0,1,0,9.137,11.692Z" transform="translate(-355.755 -524.825)" fill="#1a1a1a"/>
      <path id="Path_7182" data-name="Path 7182" d="M483.519,741.1a7.421,7.421,0,1,0-9.294-11.57,7.421,7.421,0,0,0,9.294,11.57Z" transform="translate(-349.638 -575.776)" fill="#1a1a1a"/>
      <path id="Path_7183" data-name="Path 7183" d="M487.639,796.239a7.333,7.333,0,1,0-10.25-1.252A7.309,7.309,0,0,0,487.639,796.239Z" transform="translate(-344.51 -510.52)" fill="#1a1a1a"/>
      <path id="Path_7184" data-name="Path 7184" d="M485.183,730.323a7.284,7.284,0,0,0,9.015,1.95,7.511,7.511,0,0,0,1.3-.822,7.3,7.3,0,0,0,1.18-10.274,7.132,7.132,0,0,0-1.728-1.514,7.223,7.223,0,0,0-8.5.284A7.312,7.312,0,0,0,485.183,730.323Z" transform="translate(-335.321 -586.929)" fill="#1a1a1a"/>
      <path id="Path_7185" data-name="Path 7185" d="M473.41,778.032a7.293,7.293,0,1,0-10.285-1.263A7.367,7.367,0,0,0,473.41,778.032Z" transform="translate(-361.282 -531.886)" fill="#1a1a1a"/>
      <path id="Path_7186" data-name="Path 7186" d="M503.122,803.454a7.282,7.282,0,1,0-10.228-1.3A7.209,7.209,0,0,0,503.122,803.454Z" transform="translate(-326.124 -501.817)" fill="#1a1a1a"/>
      <path id="Path_7187" data-name="Path 7187" d="M467.061,744.418a7.206,7.206,0,0,0,10.237,1.226,7.281,7.281,0,1,0-10.237-1.226Z" transform="translate(-356.691 -570.096)" fill="#1a1a1a"/>
      <path id="Path_7188" data-name="Path 7188" d="M513.846,804.619a7.189,7.189,0,1,0-10.108-1.126A7.149,7.149,0,0,0,513.846,804.619Z" transform="translate(-313.352 -500.251)" fill="#1a1a1a"/>
      <path id="Path_7189" data-name="Path 7189" d="M460.864,749.862a7.127,7.127,0,1,0,9,11.051,7.127,7.127,0,0,0-9-11.051Z" transform="translate(-365.278 -551.677)" fill="#1a1a1a"/>
      <path id="Path_7190" data-name="Path 7190" d="M492.229,801.87a7.112,7.112,0,1,0-9.953-1.058A7.044,7.044,0,0,0,492.229,801.87Z" transform="translate(-338.769 -503.255)" fill="#1a1a1a"/>
      <path id="Path_7191" data-name="Path 7191" d="M536.415,796.263a7.018,7.018,0,1,0-9.822-1.209A6.98,6.98,0,0,0,536.415,796.263Z" transform="translate(-286.252 -509.837)" fill="#1a1a1a"/>
      <path id="Path_7192" data-name="Path 7192" d="M468.343,771.586a6.992,6.992,0,1,0-9.814-1.1A6.962,6.962,0,0,0,468.343,771.586Z" transform="translate(-366.741 -538.871)" fill="#1a1a1a"/>
      <path id="Path_7193" data-name="Path 7193" d="M462.3,739.027a6.993,6.993,0,1,0,9.809,1.167A6.977,6.977,0,0,0,462.3,739.027Z" transform="translate(-363.682 -564.346)" fill="#1a1a1a"/>
      <path id="Path_7194" data-name="Path 7194" d="M531.59,791.06a7.017,7.017,0,1,0-1.115,9.811A6.967,6.967,0,0,0,531.59,791.06Z" transform="translate(-293.371 -504.219)" fill="#1a1a1a"/>
      <path id="Path_7195" data-name="Path 7195" d="M542.416,791.348l.013-.013.006,0c.161-.129.288-.284.436-.421a6.8,6.8,0,0,0,1.715-7.414,7.363,7.363,0,0,0-.281-.711l-.018-.028a6.9,6.9,0,0,0-.689-1.093c-.015-.017-.035-.03-.05-.05l-.017-.026a6.894,6.894,0,0,0-9.772-1.089,6.94,6.94,0,0,0,8.657,10.85Z" transform="translate(-279.062 -515.39)" fill="#1a1a1a"/>
      <path id="Path_7196" data-name="Path 7196" d="M525.385,795.833a6.871,6.871,0,1,0-1.163,9.665A6.948,6.948,0,0,0,525.385,795.833Z" transform="translate(-300.419 -498.532)" fill="#1a1a1a"/>
      <path id="Path_7197" data-name="Path 7197" d="M476.158,794.289a6.8,6.8,0,0,0-8.136-10.891,6.8,6.8,0,1,0,8.136,10.891Z" transform="translate(-356.954 -511.758)" fill="#1a1a1a"/>
      <path id="Path_7198" data-name="Path 7198" d="M508.52,799.365a6.809,6.809,0,1,0-1.18,9.475A6.746,6.746,0,0,0,508.52,799.365Z" transform="translate(-320.268 -494.432)" fill="#1a1a1a"/>
      <path id="Path_7199" data-name="Path 7199" d="M475.59,718.873a6.8,6.8,0,1,0,8.524,10.592,6.8,6.8,0,0,0-8.524-10.592Z" transform="translate(-347.777 -588.186)" fill="#1a1a1a"/>
      <path id="Path_7200" data-name="Path 7200" d="M471.564,788.133a6.8,6.8,0,1,0-9.643-1.207A6.873,6.873,0,0,0,471.564,788.133Z" transform="translate(-362.541 -518.878)" fill="#1a1a1a"/>
      <path id="Path_7201" data-name="Path 7201" d="M497.645,797.926a6.835,6.835,0,0,0-9.53-1.054,6.8,6.8,0,0,0,8.4,10.706A6.873,6.873,0,0,0,497.645,797.926Z" transform="translate(-332.988 -495.944)" fill="#1a1a1a"/>
      <path id="Path_7202" data-name="Path 7202" d="M469.652,723.529a6.779,6.779,0,1,0,9.51,1.163A6.821,6.821,0,0,0,469.652,723.529Z" transform="translate(-354.894 -582.563)" fill="#1a1a1a"/>
      <path id="Path_7203" data-name="Path 7203" d="M480.492,723.415a6.709,6.709,0,0,0,9.377,1.324c.035-.026.074-.041.109-.07a6.694,6.694,0,0,0,2.407-6.678c-.022-.1-.024-.207-.05-.31-.007-.022-.017-.042-.022-.063A6.739,6.739,0,0,0,491.2,715.3a6.807,6.807,0,0,0-9.5-1.25A6.732,6.732,0,0,0,480.492,723.415Z" transform="translate(-340.584 -593.729)" fill="#1a1a1a"/>
      <path id="Path_7204" data-name="Path 7204" d="M480.934,800.064a6.687,6.687,0,1,0-9.482-1.124A6.646,6.646,0,0,0,480.934,800.064Z" transform="translate(-351.293 -504.566)" fill="#1a1a1a"/>
      <path id="Path_7205" data-name="Path 7205" d="M467.732,772.527a6.655,6.655,0,1,0-1.043,9.382A6.722,6.722,0,0,0,467.732,772.527Z" transform="translate(-368.072 -525.938)" fill="#1a1a1a"/>
      <path id="Path_7206" data-name="Path 7206" d="M462.435,737.627a6.655,6.655,0,1,0,1.178-9.353A6.676,6.676,0,0,0,462.435,737.627Z" transform="translate(-361.953 -576.89)" fill="#1a1a1a"/>
      <path id="Path_7207" data-name="Path 7207" d="M455.142,753.144a6.55,6.55,0,0,0,9.316,1.115,6.62,6.62,0,1,0-9.316-1.115Z" transform="translate(-370.605 -558.533)" fill="#1a1a1a"/>
      <path id="Path_7208" data-name="Path 7208" d="M453.856,764a6.716,6.716,0,0,0,9.246,1.145A6.651,6.651,0,1,0,453.856,764Z" transform="translate(-372.134 -545.799)" fill="#1a1a1a"/>
      <path id="Path_7209" data-name="Path 7209" d="M518.944,800.584a6.562,6.562,0,0,0-9.2-1.115,6.6,6.6,0,1,0,8.234,10.324A6.535,6.535,0,0,0,518.944,800.584Z" transform="translate(-307.417 -492.79)" fill="#1a1a1a"/>
      <path id="Path_7210" data-name="Path 7210" d="M486.474,796.7a6.5,6.5,0,1,0-1.1,9.161A6.433,6.433,0,0,0,486.474,796.7Z" transform="translate(-345.572 -497.319)" fill="#1a1a1a"/>
      <path id="Path_7211" data-name="Path 7211" d="M457.568,733.109a6.406,6.406,0,1,0,9.056,1.169A6.488,6.488,0,0,0,457.568,733.109Z" transform="translate(-368.943 -571.138)" fill="#1a1a1a"/>
      <path id="Path_7212" data-name="Path 7212" d="M453.709,765.493a6.37,6.37,0,1,0,7.854,10.032,6.37,6.37,0,1,0-7.854-10.032Z" transform="translate(-373.535 -532.928)" fill="#1a1a1a"/>
      <path id="Path_7213" data-name="Path 7213" d="M541.551,792.513a6.332,6.332,0,1,0-1.333,8.843A6.3,6.3,0,0,0,541.551,792.513Z" transform="translate(-280.321 -502.393)" fill="#1a1a1a"/>
      <path id="Path_7214" data-name="Path 7214" d="M534.175,806.1a6.312,6.312,0,1,0-8.845-1.3A6.265,6.265,0,0,0,534.175,806.1Z" transform="translate(-287.458 -496.789)" fill="#1a1a1a"/>
      <path id="Path_7215" data-name="Path 7215" d="M500.8,812.9a6.332,6.332,0,1,0-8.921-.984A6.378,6.378,0,0,0,500.8,812.9Z" transform="translate(-327.124 -488.554)" fill="#1a1a1a"/>
      <path id="Path_7216" data-name="Path 7216" d="M545.268,797.067a6.411,6.411,0,0,0,1-.628l.02-.015h0c.033-.026.072-.041.1-.068a6.084,6.084,0,0,0,1.512-1.807l0,0a6.057,6.057,0,0,0,.343-.779c.046-.116.109-.227.146-.345.05-.153.068-.31.1-.463a6.009,6.009,0,0,0,.153-.7,6.485,6.485,0,0,0,.022-.823c0-.113.017-.225.009-.338a6.167,6.167,0,0,0-1.257-3.38,5.929,5.929,0,0,0-1.377-1.27,6.17,6.17,0,0,0-7.394.059,6.243,6.243,0,0,0,5.533,10.977c.074-.02.142-.057.214-.081A6.031,6.031,0,0,0,545.268,797.067Z" transform="translate(-273.14 -507.949)" fill="#1a1a1a"/>
      <path id="Path_7217" data-name="Path 7217" d="M511.354,814.207a6.257,6.257,0,1,0-7.641-9.909,6.257,6.257,0,0,0,7.641,9.909Z" transform="translate(-314.356 -486.989)" fill="#1a1a1a"/>
      <path id="Path_7218" data-name="Path 7218" d="M528.2,810.54a6.219,6.219,0,1,0-8.742-1.006A6.261,6.261,0,0,0,528.2,810.54Z" transform="translate(-294.509 -491.107)" fill="#1a1a1a"/>
      <path id="Path_7219" data-name="Path 7219" d="M489.84,811.434a6.194,6.194,0,1,0-8.74-1.034A6.206,6.206,0,0,0,489.84,811.434Z" transform="translate(-339.784 -490.007)" fill="#1a1a1a"/>
      <path id="Path_7220" data-name="Path 7220" d="M450.224,748.719a6.163,6.163,0,0,0,7.719,9.611,6.164,6.164,0,0,0-7.719-9.611Z" transform="translate(-377.47 -552.662)" fill="#1a1a1a"/>
      <path id="Path_7221" data-name="Path 7221" d="M470.44,789.381a6.159,6.159,0,0,0-8.474-1.043,6.085,6.085,0,1,0,7.442,9.63A6.129,6.129,0,0,0,470.44,789.381Z" transform="translate(-363.685 -505.753)" fill="#1a1a1a"/>
      <path id="Path_7222" data-name="Path 7222" d="M469.944,721.554a6.155,6.155,0,0,0,8.474,1.021,6.077,6.077,0,1,0-8.474-1.021Z" transform="translate(-352.983 -594.922)" fill="#1a1a1a"/>
      <path id="Path_7223" data-name="Path 7223" d="M463.788,726.019a5.993,5.993,0,0,0,8.539,1.241,6.033,6.033,0,1,0-7.248-9.648A5.984,5.984,0,0,0,463.788,726.019Z" transform="translate(-360.103 -589.297)" fill="#1a1a1a"/>
      <path id="Path_7224" data-name="Path 7224" d="M464.679,791.844a6.033,6.033,0,1,0-7.479-9.469,6.033,6.033,0,1,0,7.479,9.469Z" transform="translate(-369.278 -512.87)" fill="#1a1a1a"/>
      <path id="Path_7225" data-name="Path 7225" d="M450.515,746.429a6.029,6.029,0,1,0,1.008-8.463A6.1,6.1,0,0,0,450.515,746.429Z" transform="translate(-375.878 -565.341)" fill="#1a1a1a"/>
      <path id="Path_7226" data-name="Path 7226" d="M447.891,767.942a6.029,6.029,0,1,0,1.089-8.452A6.095,6.095,0,0,0,447.891,767.942Z" transform="translate(-378.935 -539.865)" fill="#1a1a1a"/>
      <path id="Path_7227" data-name="Path 7227" d="M473.968,803.93a5.973,5.973,0,1,0-8.413-1.152A5.924,5.924,0,0,0,473.968,803.93Z" transform="translate(-358.037 -498.575)" fill="#1a1a1a"/>
      <path id="Path_7228" data-name="Path 7228" d="M521.773,814.972a5.93,5.93,0,0,0-7.228-9.4,5.931,5.931,0,1,0,7.228,9.4Z" transform="translate(-301.506 -485.365)" fill="#1a1a1a"/>
      <path id="Path_7229" data-name="Path 7229" d="M458.877,722.475a5.914,5.914,0,0,0,7.331,9.283,5.914,5.914,0,1,0-7.331-9.283Z" transform="translate(-367.151 -583.615)" fill="#1a1a1a"/>
      <path id="Path_7230" data-name="Path 7230" d="M459.785,785.628a5.9,5.9,0,0,0-7.4-9.19,5.9,5.9,0,1,0,7.4,9.19Z" transform="translate(-374.802 -519.928)" fill="#1a1a1a"/>
      <path id="Path_7231" data-name="Path 7231" d="M478.47,809.64a5.755,5.755,0,1,0-7.078-9.076,5.755,5.755,0,0,0,7.078,9.076Z" transform="translate(-352.302 -491.309)" fill="#1a1a1a"/>
      <path id="Path_7232" data-name="Path 7232" d="M504.783,818.288a5.836,5.836,0,0,0,1.019-8.164,5.772,5.772,0,0,0-8.029-.978,5.681,5.681,0,0,0-1,8.116A5.74,5.74,0,0,0,504.783,818.288Z" transform="translate(-321.222 -481.117)" fill="#1a1a1a"/>
      <path id="Path_7233" data-name="Path 7233" d="M494,816.858a5.716,5.716,0,0,0-7.106-8.956A5.716,5.716,0,0,0,494,816.858Z" transform="translate(-333.924 -482.617)" fill="#1a1a1a"/>
      <path id="Path_7234" data-name="Path 7234" d="M446.778,778.384a5.666,5.666,0,1,0,.94-7.97A5.609,5.609,0,0,0,446.778,778.384Z" transform="translate(-380.277 -526.927)" fill="#1a1a1a"/>
      <path id="Path_7235" data-name="Path 7235" d="M451.945,735.257a5.665,5.665,0,1,0,.962-7.966A5.609,5.609,0,0,0,451.945,735.257Z" transform="translate(-374.16 -577.88)" fill="#1a1a1a"/>
      <path id="Path_7236" data-name="Path 7236" d="M515.279,819.211a5.558,5.558,0,1,0-6.875-8.734,5.558,5.558,0,0,0,6.875,8.734Z" transform="translate(-308.421 -479.542)" fill="#1a1a1a"/>
      <path id="Path_7237" data-name="Path 7237" d="M544.207,806.21a5.519,5.519,0,1,0-6.868-8.64,5.519,5.519,0,1,0,6.868,8.64Z" transform="translate(-274.285 -494.825)" fill="#1a1a1a"/>
      <path id="Path_7238" data-name="Path 7238" d="M444.252,753.6a5.534,5.534,0,1,0,7.737.914A5.544,5.544,0,0,0,444.252,753.6Z" transform="translate(-384.263 -546.716)" fill="#1a1a1a"/>
      <path id="Path_7239" data-name="Path 7239" d="M444.641,750.6a5.512,5.512,0,1,0,1.025-7.8A5.466,5.466,0,0,0,444.641,750.6Z" transform="translate(-382.739 -559.454)" fill="#1a1a1a"/>
      <path id="Path_7240" data-name="Path 7240" d="M538.14,810.9a5.482,5.482,0,1,0-7.708-.8A5.448,5.448,0,0,0,538.14,810.9Z" transform="translate(-281.404 -489.205)" fill="#1a1a1a"/>
      <path id="Path_7241" data-name="Path 7241" d="M542.547,800.441l0,0,.009.011a5.724,5.724,0,0,0,.735.755l.037.026a5.318,5.318,0,0,0,4.846,1.054,5.424,5.424,0,0,0,.716-.262c.061-.028.124-.039.183-.07a5.226,5.226,0,0,0,1.023-.613,5.358,5.358,0,0,0,1.885-5.631,5.3,5.3,0,0,0-.978-2,5.471,5.471,0,0,0-7.555-.947,5.38,5.38,0,0,0-1.054,7.51C542.443,800.338,542.5,800.384,542.547,800.441Z" transform="translate(-267.079 -500.362)" fill="#1a1a1a"/>
      <path id="Path_7242" data-name="Path 7242" d="M482.84,815.221a5.41,5.41,0,1,0-6.615-8.563,5.41,5.41,0,0,0,6.615,8.563Z" transform="translate(-346.512 -483.987)" fill="#1a1a1a"/>
      <path id="Path_7243" data-name="Path 7243" d="M532.866,808.032a5.393,5.393,0,0,0-7.512-1.054,5.395,5.395,0,1,0,6.556,8.568A5.364,5.364,0,0,0,532.866,808.032Z" transform="translate(-288.462 -483.534)" fill="#1a1a1a"/>
      <path id="Path_7244" data-name="Path 7244" d="M446.8,732.186a5.267,5.267,0,0,0,6.606,8.206,5.268,5.268,0,1,0-6.606-8.206Z" transform="translate(-381.083 -572.067)" fill="#1a1a1a"/>
      <path id="Path_7245" data-name="Path 7245" d="M450.407,765.389a5.269,5.269,0,0,0-7.372-.988,5.3,5.3,0,1,0,6.5,8.378A5.289,5.289,0,0,0,450.407,765.389Z" transform="translate(-385.669 -533.857)" fill="#1a1a1a"/>
      <path id="Path_7246" data-name="Path 7246" d="M462.339,801.571a5.2,5.2,0,1,0-6.362-8.221,5.2,5.2,0,0,0,6.362,8.221Z" transform="translate(-370.353 -499.676)" fill="#1a1a1a"/>
      <path id="Path_7247" data-name="Path 7247" d="M466.335,707.116a5.2,5.2,0,1,0,6.351,8.227,5.2,5.2,0,1,0-6.351-8.227Z" transform="translate(-358.118 -601.58)" fill="#1a1a1a"/>
      <path id="Path_7248" data-name="Path 7248" d="M457.574,795.51a5.2,5.2,0,1,0-7.248-.9A5.245,5.245,0,0,0,457.574,795.51Z" transform="translate(-375.934 -506.793)" fill="#1a1a1a"/>
      <path id="Path_7249" data-name="Path 7249" d="M459.4,719.214a5.172,5.172,0,0,0,7.252.781,5.156,5.156,0,0,0-6.336-8.136A5.171,5.171,0,0,0,459.4,719.214Z" transform="translate(-365.234 -595.962)" fill="#1a1a1a"/>
      <path id="Path_7250" data-name="Path 7250" d="M498.852,814.922a5.1,5.1,0,0,0-7.215-.79,5.133,5.133,0,0,0,6.421,8.009A5.111,5.111,0,0,0,498.852,814.922Z" transform="translate(-328.006 -475.168)" fill="#1a1a1a"/>
      <path id="Path_7251" data-name="Path 7251" d="M466.929,807.55a5.133,5.133,0,0,0-6.113-8.245,5.132,5.132,0,1,0,6.113,8.245Z" transform="translate(-364.69 -492.496)" fill="#1a1a1a"/>
      <path id="Path_7252" data-name="Path 7252" d="M526.457,812.763a5.133,5.133,0,0,0-7.239-.855,5.077,5.077,0,0,0,6.307,7.957A5.1,5.1,0,0,0,526.457,812.763Z" transform="translate(-295.434 -477.762)" fill="#1a1a1a"/>
      <path id="Path_7253" data-name="Path 7253" d="M452.634,789.318a5.058,5.058,0,0,0-6.133-8.044,5.058,5.058,0,1,0,6.133,8.044Z" transform="translate(-381.466 -513.86)" fill="#1a1a1a"/>
      <path id="Path_7254" data-name="Path 7254" d="M454.207,716.646a5.057,5.057,0,1,0,6.249,7.952,5.057,5.057,0,0,0-6.249-7.952Z" transform="translate(-372.29 -590.287)" fill="#1a1a1a"/>
      <path id="Path_7255" data-name="Path 7255" d="M502.437,815.378a5.025,5.025,0,1,0,6.288,7.841,5.026,5.026,0,1,0-6.288-7.841Z" transform="translate(-315.289 -473.669)" fill="#1a1a1a"/>
      <path id="Path_7256" data-name="Path 7256" d="M487.889,813.706a4.908,4.908,0,0,0-6.921-.9,4.957,4.957,0,0,0,6.081,7.83A4.936,4.936,0,0,0,487.889,813.706Z" transform="translate(-340.649 -476.604)" fill="#1a1a1a"/>
      <path id="Path_7257" data-name="Path 7257" d="M472.3,806.328a4.874,4.874,0,0,0-6.936-.724,4.848,4.848,0,0,0,6.1,7.536A4.891,4.891,0,0,0,472.3,806.328Z" transform="translate(-358.955 -485.22)" fill="#1a1a1a"/>
      <path id="Path_7258" data-name="Path 7258" d="M438.659,754.421a4.812,4.812,0,0,0,6.883.99,4.848,4.848,0,1,0-5.841-7.739A4.8,4.8,0,0,0,438.659,754.421Z" transform="translate(-389.524 -553.498)" fill="#1a1a1a"/>
      <path id="Path_7259" data-name="Path 7259" d="M447.552,782.922a4.77,4.77,0,1,0-6.663-.9A4.838,4.838,0,0,0,447.552,782.922Z" transform="translate(-386.916 -520.836)" fill="#1a1a1a"/>
      <path id="Path_7260" data-name="Path 7260" d="M447.368,728.058a4.679,4.679,0,0,0,6.6.96,4.75,4.75,0,1,0-5.721-7.584A4.7,4.7,0,0,0,447.368,728.058Z" transform="translate(-379.27 -584.522)" fill="#1a1a1a"/>
      <path id="Path_7261" data-name="Path 7261" d="M444.963,759.345a4.748,4.748,0,0,0-6.637-.794,4.714,4.714,0,0,0,5.788,7.442A4.791,4.791,0,0,0,444.963,759.345Z" transform="translate(-390.974 -540.681)" fill="#1a1a1a"/>
      <path id="Path_7262" data-name="Path 7262" d="M440.92,736.988a4.638,4.638,0,0,0-.836,6.6,4.688,4.688,0,0,0,6.613.855,4.794,4.794,0,0,0,.857-6.646A4.746,4.746,0,0,0,440.92,736.988Z" transform="translate(-387.915 -566.157)" fill="#1a1a1a"/>
      <path id="Path_7263" data-name="Path 7263" d="M513.271,816.676a4.7,4.7,0,0,0,5.695,7.49,4.7,4.7,0,1,0-5.695-7.49Z" transform="translate(-302.352 -471.949)" fill="#1a1a1a"/>
      <path id="Path_7264" data-name="Path 7264" d="M542.119,803.824a4.547,4.547,0,0,0,5.616,7.152,4.547,4.547,0,1,0-5.616-7.152Z" transform="translate(-268.132 -487.146)" fill="#1a1a1a"/>
      <path id="Path_7265" data-name="Path 7265" d="M470.224,811.6a4.518,4.518,0,1,0,6.331.831A4.533,4.533,0,0,0,470.224,811.6Z" transform="translate(-353.145 -477.889)" fill="#1a1a1a"/>
      <path id="Path_7266" data-name="Path 7266" d="M536.122,808.54a4.518,4.518,0,0,0,5.559,7.123,4.518,4.518,0,0,0-5.559-7.123Z" transform="translate(-275.244 -481.525)" fill="#1a1a1a"/>
      <path id="Path_7267" data-name="Path 7267" d="M548.183,799.12a4.426,4.426,0,1,0,5.587,6.866,4.426,4.426,0,0,0-5.587-6.866Z" transform="translate(-260.936 -492.688)" fill="#1a1a1a"/>
      <path id="Path_7268" data-name="Path 7268" d="M447.5,733.206a4.358,4.358,0,1,0-5.369-6.864,4.358,4.358,0,0,0,5.369,6.864Z" transform="translate(-386.172 -578.694)" fill="#1a1a1a"/>
      <path id="Path_7269" data-name="Path 7269" d="M442.391,776.263a4.358,4.358,0,0,0-5.384-6.853,4.358,4.358,0,0,0,5.384,6.853Z" transform="translate(-392.288 -527.741)" fill="#1a1a1a"/>
      <path id="Path_7270" data-name="Path 7270" d="M496.56,820.215a4.311,4.311,0,1,0,5.195,6.881,4.311,4.311,0,1,0-5.195-6.881Z" transform="translate(-322.042 -467.682)" fill="#1a1a1a"/>
      <path id="Path_7271" data-name="Path 7271" d="M530.092,813.4a4.311,4.311,0,1,0,6.124.722A4.317,4.317,0,0,0,530.092,813.4Z" transform="translate(-282.298 -475.832)" fill="#1a1a1a"/>
      <path id="Path_7272" data-name="Path 7272" d="M485.7,819.09a4.273,4.273,0,1,0,5.4,6.622,4.273,4.273,0,1,0-5.4-6.622Z" transform="translate(-334.698 -469.119)" fill="#1a1a1a"/>
      <path id="Path_7273" data-name="Path 7273" d="M466.744,707.864a4.153,4.153,0,1,0-5.867-.761A4.154,4.154,0,0,0,466.744,707.864Z" transform="translate(-363.131 -608.129)" fill="#1a1a1a"/>
      <path id="Path_7274" data-name="Path 7274" d="M450.065,798.323a4.106,4.106,0,1,0,5.718.74A4.106,4.106,0,0,0,450.065,798.323Z" transform="translate(-376.898 -493.485)" fill="#1a1a1a"/>
      <path id="Path_7275" data-name="Path 7275" d="M460.634,712.565a4.1,4.1,0,0,0-5.031-6.478,4.1,4.1,0,0,0,5.031,6.478Z" transform="translate(-370.24 -602.501)" fill="#1a1a1a"/>
      <path id="Path_7276" data-name="Path 7276" d="M450.937,792.96a4.13,4.13,0,0,0-5.766-.578,4.1,4.1,0,0,0,5.188,6.351A4.16,4.16,0,0,0,450.937,792.96Z" transform="translate(-382.475 -500.598)" fill="#1a1a1a"/>
      <path id="Path_7277" data-name="Path 7277" d="M507.318,821.573a4.076,4.076,0,0,0,4.959,6.469,4.076,4.076,0,1,0-4.959-6.469Z" transform="translate(-309.165 -466.016)" fill="#1a1a1a"/>
      <path id="Path_7278" data-name="Path 7278" d="M524.043,818.228a3.962,3.962,0,0,0-.534,5.7,4.007,4.007,0,0,0,5.583.6,4.109,4.109,0,0,0,.681-5.729A4.066,4.066,0,0,0,524.043,818.228Z" transform="translate(-289.271 -470.067)" fill="#1a1a1a"/>
      <path id="Path_7279" data-name="Path 7279" d="M439.251,753.383a4.085,4.085,0,0,0-5.74-.65,4.022,4.022,0,1,0,5.74.65Z" transform="translate(-396.182 -547.427)" fill="#1a1a1a"/>
      <path id="Path_7280" data-name="Path 7280" d="M472.624,702.894a3.975,3.975,0,1,0-4.9-6.262,3.975,3.975,0,1,0,4.9,6.262Z" transform="translate(-355.932 -613.66)" fill="#1a1a1a"/>
      <path id="Path_7281" data-name="Path 7281" d="M454.757,804.444a3.975,3.975,0,1,0,4.957,6.214,3.974,3.974,0,1,0-4.957-6.214Z" transform="translate(-371.225 -486.28)" fill="#1a1a1a"/>
      <path id="Path_7282" data-name="Path 7282" d="M434.164,747.486a3.994,3.994,0,0,0,5.57.775,3.975,3.975,0,0,0-4.656-6.443A4,4,0,0,0,434.164,747.486Z" transform="translate(-394.657 -560.167)" fill="#1a1a1a"/>
      <path id="Path_7283" data-name="Path 7283" d="M475.013,817.76a3.982,3.982,0,0,0,4.846,6.321,3.982,3.982,0,0,0-4.846-6.321Z" transform="translate(-347.248 -470.463)" fill="#1a1a1a"/>
      <path id="Path_7284" data-name="Path 7284" d="M454.343,717.071a3.9,3.9,0,1,0-4.723-6.216,3.9,3.9,0,0,0,4.723,6.216Z" transform="translate(-377.282 -596.802)" fill="#1a1a1a"/>
      <path id="Path_7285" data-name="Path 7285" d="M445.955,787a3.865,3.865,0,0,0-5.417-.676,3.925,3.925,0,1,0,4.776,6.229A3.9,3.9,0,0,0,445.955,787Z" transform="translate(-387.987 -507.639)" fill="#1a1a1a"/>
      <path id="Path_7286" data-name="Path 7286" d="M432.321,763.561a3.763,3.763,0,0,0-.6,5.278,3.8,3.8,0,0,0,5.166.624,3.7,3.7,0,0,0,.674-5.252A3.662,3.662,0,0,0,432.321,763.561Z" transform="translate(-397.566 -534.546)" fill="#1a1a1a"/>
      <path id="Path_7287" data-name="Path 7287" d="M459.429,810.579a3.726,3.726,0,0,0,4.658,5.817,3.726,3.726,0,1,0-4.658-5.817Z" transform="translate(-365.468 -479.002)" fill="#1a1a1a"/>
      <path id="Path_7288" data-name="Path 7288" d="M435.54,736.339a3.664,3.664,0,0,0,5.227.755,3.726,3.726,0,1,0-4.575-5.882A3.686,3.686,0,0,0,435.54,736.339Z" transform="translate(-392.978 -572.755)" fill="#1a1a1a"/>
      <path id="Path_7289" data-name="Path 7289" d="M448.08,721.257a3.573,3.573,0,0,0-4.505-5.544,3.573,3.573,0,1,0,4.505,5.544Z" transform="translate(-384.239 -591.024)" fill="#1a1a1a"/>
      <path id="Path_7290" data-name="Path 7290" d="M440.823,781.037a3.528,3.528,0,0,0-5.073-.6,3.573,3.573,0,1,0,4.494,5.555A3.5,3.5,0,0,0,440.823,781.037Z" transform="translate(-393.414 -514.596)" fill="#1a1a1a"/>
      <path id="Path_7291" data-name="Path 7291" d="M518.037,823.056a3.545,3.545,0,0,0,4.475,5.5,3.545,3.545,0,1,0-4.475-5.5Z" transform="translate(-296.125 -464.19)" fill="#1a1a1a"/>
      <path id="Path_7292" data-name="Path 7292" d="M490.487,825.252a3.325,3.325,0,0,0-.554,4.673,3.372,3.372,0,0,0,4.8.6,3.456,3.456,0,0,0,.574-4.713A3.414,3.414,0,0,0,490.487,825.252Z" transform="translate(-328.654 -461.559)" fill="#1a1a1a"/>
      <path id="Path_7293" data-name="Path 7293" d="M501.307,826.5a3.3,3.3,0,1,0,4.566.556A3.352,3.352,0,0,0,501.307,826.5Z" transform="translate(-315.857 -459.976)" fill="#1a1a1a"/>
      <path id="Path_7294" data-name="Path 7294" d="M464.285,816.695a3.257,3.257,0,1,0,4.01,5.134,3.257,3.257,0,1,0-4.01-5.134Z" transform="translate(-359.625 -471.626)" fill="#1a1a1a"/>
      <path id="Path_7295" data-name="Path 7295" d="M479.838,823.975a3.189,3.189,0,0,0,3.827,5.1,3.248,3.248,0,0,0,.6-4.532A3.291,3.291,0,0,0,479.838,823.975Z" transform="translate(-341.22 -462.9)" fill="#1a1a1a"/>
      <path id="Path_7296" data-name="Path 7296" d="M541.124,814.851a3.151,3.151,0,1,0,3.759,5.051,3.149,3.149,0,0,0-3.759-5.051Z" transform="translate(-268.929 -473.672)" fill="#1a1a1a"/>
      <path id="Path_7297" data-name="Path 7297" d="M547.1,810.143a3.149,3.149,0,1,0,3.737,5.068,3.149,3.149,0,1,0-3.737-5.068Z" transform="translate(-261.792 -479.273)" fill="#1a1a1a"/>
      <path id="Path_7298" data-name="Path 7298" d="M431.221,774.376a3.055,3.055,0,0,0,3.506,5.005,3.056,3.056,0,1,0-3.506-5.005Z" transform="translate(-398.731 -521.441)" fill="#1a1a1a"/>
      <path id="Path_7299" data-name="Path 7299" d="M553.039,805.48a3.019,3.019,0,0,0-.417,4.351,2.989,2.989,0,0,0,4.222.423,3.052,3.052,0,1,0-3.805-4.774Z" transform="translate(-254.595 -484.819)" fill="#1a1a1a"/>
      <path id="Path_7300" data-name="Path 7300" d="M441.287,725.46a3.052,3.052,0,0,0,.537-4.348,3.013,3.013,0,0,0-4.215-.561,3.111,3.111,0,0,0-.576,4.361A3.144,3.144,0,0,0,441.287,725.46Z" transform="translate(-391.086 -585.134)" fill="#1a1a1a"/>
      <path id="Path_7301" data-name="Path 7301" d="M432.638,751.6a2.98,2.98,0,1,0-3.683-4.684,2.979,2.979,0,1,0,3.683,4.684Z" transform="translate(-401.25 -554.015)" fill="#1a1a1a"/>
      <path id="Path_7302" data-name="Path 7302" d="M534.939,819.706a2.966,2.966,0,1,0,4.1.452A2.971,2.971,0,0,0,534.939,819.706Z" transform="translate(-275.93 -467.945)" fill="#1a1a1a"/>
      <path id="Path_7303" data-name="Path 7303" d="M512.137,827.9a2.841,2.841,0,1,0,3.489,4.483,2.841,2.841,0,0,0-3.489-4.483Z" transform="translate(-302.873 -458.2)" fill="#1a1a1a"/>
      <path id="Path_7304" data-name="Path 7304" d="M433.708,740.591a2.8,2.8,0,0,0-3.366-4.468,2.8,2.8,0,1,0,3.366,4.468Z" transform="translate(-399.623 -566.657)" fill="#1a1a1a"/>
      <path id="Path_7305" data-name="Path 7305" d="M431.591,758.129a2.823,2.823,0,0,0-3.94-.369,2.8,2.8,0,1,0,3.569,4.307A2.82,2.82,0,0,0,431.591,758.129Z" transform="translate(-402.682 -541.181)" fill="#1a1a1a"/>
      <path id="Path_7306" data-name="Path 7306" d="M444.067,803.473a2.574,2.574,0,0,0,3.155,4.067,2.64,2.64,0,0,0,.454-3.615A2.614,2.614,0,0,0,444.067,803.473Z" transform="translate(-383.177 -487.031)" fill="#1a1a1a"/>
      <path id="Path_7307" data-name="Path 7307" d="M460.214,699.717a2.644,2.644,0,0,0,.369-3.626,2.615,2.615,0,0,0-3.617-.369,2.514,2.514,0,0,0-.349,3.593A2.555,2.555,0,0,0,460.214,699.717Z" transform="translate(-367.887 -614.41)" fill="#1a1a1a"/>
      <path id="Path_7308" data-name="Path 7308" d="M469.044,822.907a2.613,2.613,0,0,0-.417,3.613,2.644,2.644,0,0,0,3.619.417,2.549,2.549,0,0,0,.382-3.6A2.523,2.523,0,0,0,469.044,822.907Z" transform="translate(-353.628 -464.106)" fill="#1a1a1a"/>
      <path id="Path_7309" data-name="Path 7309" d="M439.2,797.535a2.51,2.51,0,0,0,3.236,3.835,2.509,2.509,0,1,0-3.236-3.835Z" transform="translate(-388.743 -494.127)" fill="#1a1a1a"/>
      <path id="Path_7310" data-name="Path 7310" d="M454.029,704.37a2.469,2.469,0,0,0-2.978-3.938,2.47,2.47,0,1,0,2.978,3.938Z" transform="translate(-374.983 -608.77)" fill="#1a1a1a"/>
      <path id="Path_7311" data-name="Path 7311" d="M528.963,824.6a2.469,2.469,0,1,0,3.12,3.825,2.468,2.468,0,0,0-3.12-3.825Z" transform="translate(-282.824 -462.094)" fill="#1a1a1a"/>
      <path id="Path_7312" data-name="Path 7312" d="M448.7,809.628a2.442,2.442,0,0,0,3.133,3.744,2.441,2.441,0,1,0-3.133-3.744Z" transform="translate(-377.499 -479.823)" fill="#1a1a1a"/>
      <path id="Path_7313" data-name="Path 7313" d="M466.135,694.686a2.4,2.4,0,0,0,.277-3.338,2.423,2.423,0,0,0-3.467-.253,2.4,2.4,0,1,0,3.19,3.591Z" transform="translate(-360.676 -619.939)" fill="#1a1a1a"/>
      <path id="Path_7314" data-name="Path 7314" d="M434.548,791.5a2.293,2.293,0,1,0,3.183.312A2.309,2.309,0,0,0,434.548,791.5Z" transform="translate(-394.228 -501.143)" fill="#1a1a1a"/>
      <path id="Path_7315" data-name="Path 7315" d="M447.663,708.924a2.3,2.3,0,1,0-3.148-.545A2.319,2.319,0,0,0,447.663,708.924Z" transform="translate(-381.993 -603.048)" fill="#1a1a1a"/>
      <path id="Path_7316" data-name="Path 7316" d="M426.479,768.6a2.2,2.2,0,1,0,2.692,3.465,2.2,2.2,0,0,0-2.692-3.465Z" transform="translate(-403.868 -528.11)" fill="#1a1a1a"/>
      <path id="Path_7317" data-name="Path 7317" d="M434.259,729.019a2.142,2.142,0,0,0,.46-2.991,2.164,2.164,0,0,0-3.111-.508,2.2,2.2,0,1,0,2.651,3.5Z" transform="translate(-397.75 -579.062)" fill="#1a1a1a"/>
      <path id="Path_7318" data-name="Path 7318" d="M495.344,831.6a2.09,2.09,0,1,0,2.978.334A2.076,2.076,0,0,0,495.344,831.6Z" transform="translate(-322.362 -453.739)" fill="#1a1a1a"/>
      <path id="Path_7319" data-name="Path 7319" d="M453.617,815.662a2.089,2.089,0,0,0-.428,2.852,2.067,2.067,0,0,0,2.847.406,1.982,1.982,0,0,0,.406-2.821A2,2,0,0,0,453.617,815.662Z" transform="translate(-371.682 -472.478)" fill="#1a1a1a"/>
      <path id="Path_7320" data-name="Path 7320" d="M484.565,830.328a2.059,2.059,0,0,0-.334,2.851,2.107,2.107,0,0,0,2.871.3,2.011,2.011,0,0,0,.292-2.845A1.966,1.966,0,0,0,484.565,830.328Z" transform="translate(-335.053 -455.223)" fill="#1a1a1a"/>
      <path id="Path_7321" data-name="Path 7321" d="M523.016,829.377a1.967,1.967,0,0,0,2.2,3.255,1.966,1.966,0,1,0-2.2-3.255Z" transform="translate(-289.653 -456.194)" fill="#1a1a1a"/>
      <path id="Path_7322" data-name="Path 7322" d="M429.82,785.594a1.839,1.839,0,0,0-.214,2.568,1.816,1.816,0,0,0,2.555.3,1.887,1.887,0,0,0,.255-2.7A1.915,1.915,0,0,0,429.82,785.594Z" transform="translate(-399.602 -508.046)" fill="#1a1a1a"/>
      <path id="Path_7323" data-name="Path 7323" d="M441.288,712.96a1.81,1.81,0,0,0,.205-2.559,1.772,1.772,0,0,0-2.542-.273,1.873,1.873,0,0,0-.362,2.557A1.9,1.9,0,0,0,441.288,712.96Z" transform="translate(-388.9 -597.213)" fill="#1a1a1a"/>
      <path id="Path_7324" data-name="Path 7324" d="M506.138,832.941a1.771,1.771,0,0,0,2.188,2.784,1.771,1.771,0,0,0-2.188-2.784Z" transform="translate(-309.427 -452.014)" fill="#1a1a1a"/>
      <path id="Path_7325" data-name="Path 7325" d="M426.279,743.594a1.509,1.509,0,0,0,.151-2.1,1.478,1.478,0,0,0-2.075-.3,1.59,1.59,0,0,0-.316,2.219A1.615,1.615,0,0,0,426.279,743.594Z" transform="translate(-406.055 -560.363)" fill="#1a1a1a"/>
      <path id="Path_7326" data-name="Path 7326" d="M422.991,752.018a1.5,1.5,0,0,0-.255,2.084,1.48,1.48,0,0,0,2.06.382,1.531,1.531,0,1,0-1.8-2.465Z" transform="translate(-407.584 -547.62)" fill="#1a1a1a"/>
      <path id="Path_7327" data-name="Path 7327" d="M458.267,821.932a1.5,1.5,0,0,0-.118,2.1,1.48,1.48,0,0,0,2.079.246,1.56,1.56,0,0,0,.275-2.217A1.577,1.577,0,0,0,458.267,821.932Z" transform="translate(-365.809 -465.075)" fill="#1a1a1a"/>
      <path id="Path_7328" data-name="Path 7328" d="M473.993,829.106a1.582,1.582,0,0,0-.419,2.2,1.552,1.552,0,0,0,2.214.273,1.473,1.473,0,0,0,.266-2.077A1.5,1.5,0,0,0,473.993,829.106Z" transform="translate(-347.47 -456.416)" fill="#1a1a1a"/>
      <path id="Path_7329" data-name="Path 7329" d="M425.246,779.576a1.388,1.388,0,0,0-.286,1.918,1.368,1.368,0,0,0,1.8.221,1.32,1.32,0,0,0,.257-1.783A1.346,1.346,0,0,0,425.246,779.576Z" transform="translate(-404.902 -514.88)" fill="#1a1a1a"/>
      <path id="Path_7330" data-name="Path 7330" d="M421.778,762.778a1.307,1.307,0,1,0,1.567,2.092,1.368,1.368,0,0,0,.229-1.8A1.394,1.394,0,0,0,421.778,762.778Z" transform="translate(-408.979 -534.747)" fill="#1a1a1a"/>
      <path id="Path_7331" data-name="Path 7331" d="M434.511,717.049a1.317,1.317,0,0,0,.286-1.776,1.344,1.344,0,0,0-1.772-.377,1.382,1.382,0,0,0-.31,1.911A1.362,1.362,0,0,0,434.511,717.049Z" transform="translate(-395.727 -591.308)" fill="#1a1a1a"/>
      <path id="Path_7332" data-name="Path 7332" d="M427.13,732.555a1.263,1.263,0,1,0-1.44-2.075,1.311,1.311,0,0,0-.349,1.785A1.29,1.29,0,0,0,427.13,732.555Z" transform="translate(-404.392 -572.963)" fill="#1a1a1a"/>
      <path id="Path_7333" data-name="Path 7333" d="M545.824,821.478a1.263,1.263,0,1,0,1.66,1.9,1.287,1.287,0,0,0,.153-1.807A1.3,1.3,0,0,0,545.824,821.478Z" transform="translate(-262.301 -465.511)" fill="#1a1a1a"/>
      <path id="Path_7334" data-name="Path 7334" d="M551.872,816.736a1.286,1.286,0,0,0-.179,1.8,1.317,1.317,0,0,0,1.815.122,1.263,1.263,0,1,0-1.636-1.924Z" transform="translate(-255.167 -471.121)" fill="#1a1a1a"/>
      <path id="Path_7335" data-name="Path 7335" d="M516.937,834.466a1.137,1.137,0,0,0-.087,1.634,1.155,1.155,0,0,0,1.647-.02,1.054,1.054,0,0,0,.057-1.505A1.078,1.078,0,0,0,516.937,834.466Z" transform="translate(-296.362 -450.155)" fill="#1a1a1a"/>
      <path id="Path_7336" data-name="Path 7336" d="M539.943,826.178a.864.864,0,0,0-.334,1.283.921.921,0,0,0,1.423.229,5.539,5.539,0,0,0,.541-1.545A5.017,5.017,0,0,0,539.943,826.178Z" transform="translate(-269.278 -459.676)" fill="#1a1a1a"/>
      <path id="Path_7337" data-name="Path 7337" d="M453.3,691.407a1.053,1.053,0,0,0,.172-1c-.2-.264-.689-.312-1.289-.543,0,.646-.12,1.047.015,1.333A.655.655,0,0,0,453.3,691.407Z" transform="translate(-372.484 -620.668)" fill="#1a1a1a"/>
      <path id="Path_7338" data-name="Path 7338" d="M499.909,837.73c.076.639,0,1.121.212,1.383a1.064,1.064,0,0,0,1.012.076.654.654,0,0,0,.063-1.119C500.954,837.87,500.535,837.883,499.909,837.73Z" transform="translate(-316.02 -445.928)" fill="#1a1a1a"/>
      <path id="Path_7339" data-name="Path 7339" d="M533.593,830.744c.013.774-.109,1.25.072,1.534a1.02,1.02,0,0,0,.993.146.985.985,0,0,0,.255-.945C534.739,831.2,534.272,831.1,533.593,830.744Z" transform="translate(-276.247 -454.183)" fill="#1a1a1a"/>
      <path id="Path_7340" data-name="Path 7340" d="M489.408,837.751a1.053,1.053,0,0,0,1-.039c.214-.174.188-.644.316-1.206-.578.048-.995-.033-1.261.131A.635.635,0,0,0,489.408,837.751Z" transform="translate(-328.79 -447.375)" fill="#1a1a1a"/>
      <path id="Path_7341" data-name="Path 7341" d="M437.982,809.734a.651.651,0,0,0,1.124.033c.188-.242.144-.661.251-1.25-.591.087-1.058.02-1.241.218A1.069,1.069,0,0,0,437.982,809.734Z" transform="translate(-389.288 -480.45)" fill="#1a1a1a"/>
      <path id="Path_7342" data-name="Path 7342" d="M463.181,829.227a1.054,1.054,0,0,0,1-.083c.207-.181.161-.648.271-1.22-.578.076-.995.017-1.259.192A.628.628,0,0,0,463.181,829.227Z" transform="translate(-359.815 -457.516)" fill="#1a1a1a"/>
      <path id="Path_7343" data-name="Path 7343" d="M433.435,802.671a.965.965,0,0,0-.135.713.707.707,0,0,0,.563.1c.177-.111.253-.386.467-.755C433.888,802.689,433.55,802.562,433.435,802.671Z" transform="translate(-394.749 -487.409)" fill="#1a1a1a"/>
      <path id="Path_7344" data-name="Path 7344" d="M427.568,720.659c.142-.1.12-.438.2-.814-.391.022-.726-.052-.842.074a.49.49,0,0,0,.644.74Z" transform="translate(-402.406 -585.242)" fill="#1a1a1a"/>
      <path id="Path_7345" data-name="Path 7345" d="M420.465,773.8c-.131.12-.118.48-.05.7a.62.62,0,0,0,.556.081c.168-.144.223-.423.4-.809C420.934,773.771,420.6,773.677,420.465,773.8Z" transform="translate(-410.022 -521.553)" fill="#1a1a1a"/>
      <path id="Path_7346" data-name="Path 7346" d="M420.522,735.453c-.436-.031-.775-.151-.89-.039a.937.937,0,0,0-.118.714.694.694,0,0,0,.565.09C420.251,736.1,420.321,735.824,420.522,735.453Z" transform="translate(-411.048 -566.895)" fill="#1a1a1a"/>
      <path id="Path_7347" data-name="Path 7347" d="M418.3,746.955a.683.683,0,0,0,.672,0c.14-.124.1-.454.157-.84-.4.063-.733.022-.847.162A.7.7,0,0,0,418.3,746.955Z" transform="translate(-412.583 -554.199)" fill="#1a1a1a"/>
      <path id="Path_7348" data-name="Path 7348" d="M478.645,835.384a.947.947,0,0,0-.116.713.68.68,0,0,0,.563.092c.175-.118.242-.393.445-.764C479.1,835.393,478.76,835.273,478.645,835.384Z" transform="translate(-341.306 -448.755)" fill="#1a1a1a"/>
      <path id="Path_7349" data-name="Path 7349" d="M434.928,705.4c.024-.432.111-.7.026-.9-.052-.122-.476-.238-.537-.174a.874.874,0,0,0-.266.661C434.193,705.14,434.546,705.208,434.928,705.4Z" transform="translate(-393.742 -603.599)" fill="#1a1a1a"/>
      <path id="Path_7350" data-name="Path 7350" d="M423.973,790.591c-.124.2-.238.537-.144.7.083.144.447.127.871.223a2.5,2.5,0,0,0-.168-.857C424.451,790.547,424.021,790.514,423.973,790.591Z" transform="translate(-405.97 -501.684)" fill="#1a1a1a"/>
      <path id="Path_7351" data-name="Path 7351" d="M440.815,700.5c.142-.181.281-.515.2-.678s-.432-.172-.833-.308a2.534,2.534,0,0,0,.081.881A.611.611,0,0,0,440.815,700.5Z" transform="translate(-386.603 -609.261)" fill="#1a1a1a"/>
      <path id="Path_7352" data-name="Path 7352" d="M415.65,767.753c0,.242-.081.556.039.707s.441.1.825.159c-.059-.393-.015-.729-.155-.846S415.894,767.751,415.65,767.753Z" transform="translate(-415.624 -528.669)" fill="#1a1a1a"/>
      <path id="Path_7353" data-name="Path 7353" d="M446.992,695.667a.6.6,0,0,0,.052-.556c-.148-.159-.428-.192-.812-.338.011.43-.076.777.05.9S446.776,695.752,446.992,695.667Z" transform="translate(-379.476 -614.869)" fill="#1a1a1a"/>
      <path id="Path_7354" data-name="Path 7354" d="M458.31,686.105c.037.022.09.033.133.052l0,.02a.606.606,0,0,0,.552.1.917.917,0,0,0,.2-.582c.02-.1.033-.194.065-.312-.161.024-.288.03-.41.041-.14-.037-.3-.072-.484-.133.007.109.007.185.007.277C458.277,685.693,458.247,686.068,458.31,686.105Z" transform="translate(-365.22 -626.068)" fill="#1a1a1a"/>
      <path id="Path_7355" data-name="Path 7355" d="M447.538,821.525c.118.146.454.12.694.17.044-.236.194-.53.1-.694s-.417-.194-.77-.334C447.541,821.063,447.425,821.386,447.538,821.525Z" transform="translate(-377.968 -466.091)" fill="#1a1a1a"/>
      <path id="Path_7356" data-name="Path 7356" d="M416.91,756.857c.011.43-.076.777.05.9s.493.083.709,0a.605.605,0,0,0,.052-.556C417.574,757.036,417.292,757,416.91,756.857Z" transform="translate(-414.127 -541.5)" fill="#1a1a1a"/>
      <path id="Path_7357" data-name="Path 7357" d="M464.349,681.3c.02.028.061.044.089.068.009.02,0,.063.015.076s.083.018.122.031c.12.063.251.122.369.188l.46-.078c-.05-.186-.081-.388-.146-.558a.246.246,0,0,0-.041-.14l-.026-.013c-.009-.009-.009-.026-.015-.035-.031-.028-.092-.031-.138-.048-.157-.076-.358-.135-.633-.242,0,.1,0,.183-.009.277A.655.655,0,0,0,464.349,681.3Z" transform="translate(-358.078 -631.676)" fill="#1a1a1a"/>
      <path id="Path_7358" data-name="Path 7358" d="M510.828,839.172c.033.373-.033.7.1.829s.456.079.7.107c.022-.244.142-.558.033-.715S511.21,839.261,510.828,839.172Z" transform="translate(-303.117 -444.223)" fill="#1a1a1a"/>
      <path id="Path_7359" data-name="Path 7359" d="M428.614,797.384a.694.694,0,0,0,.687.018c.14-.1.1-.443.168-.825-.395.046-.733-.011-.84.12A.7.7,0,0,0,428.614,797.384Z" transform="translate(-400.372 -494.56)" fill="#1a1a1a"/>
      <path id="Path_7360" data-name="Path 7360" d="M467.727,834.07c.094.406.087.687.22.853a.612.612,0,0,0,.559.041c.118-.2.216-.552.116-.7S468.166,834.151,467.727,834.07Z" transform="translate(-354.052 -450.253)" fill="#1a1a1a"/>
      <path id="Path_7361" data-name="Path 7361" d="M442.728,814.664c.074.419.039.775.179.866a.848.848,0,0,0,.7-.085.606.606,0,0,0-.015-.563C443.426,814.747,443.143,814.756,442.728,814.664Z" transform="translate(-383.595 -473.186)" fill="#1a1a1a"/>
      <path id="Path_7362" data-name="Path 7362" d="M421.572,725.42a.5.5,0,0,0-.6-.79c-.148.09-.142.436-.238.81C421.116,725.441,421.452,725.54,421.572,725.42Z" transform="translate(-409.589 -579.641)" fill="#1a1a1a"/>
      <path id="Path_7363" data-name="Path 7363" d="M527.751,835.854c-.122.12-.087.482,0,.694a.607.607,0,0,0,.554.052,2.713,2.713,0,0,0,.347-.833C528.22,835.8,527.886,835.721,527.751,835.854Z" transform="translate(-283.212 -448.247)" fill="#1a1a1a"/>
    </g>
    <g id="Group_5721" data-name="Group 5721">
      <g id="Group_5715" data-name="Group 5715" transform="translate(13.698 49.385)">
        <path id="Path_7364" data-name="Path 7364" d="M685.572,951.44c8.43,38.5,30.987,80.1,82.257,96.525-33.342-33.784-48.014-66.624-49.69-98.247,23.823-8.121,72.242-24.023,77.57-60.771s-20.467-37.016-20.467-37.016,52.729-83.4,22.636-141.085C767.89,653.364,638.5,609.266,506.753,749.983a.963.963,0,0,1-1.654-.474c-2.638-13.058-23.258-34.112-68.623-1.167C388.753,783,373.982,840.513,396.939,862.431a32.878,32.878,0,0,0,20.744,8.912c-14.65,22.924-21.383,40.95-14.421,61.369s27.652,37.118,40.792,34.987c-1.021,8.747,5.243,17.234,5.243,17.234s-15.53,13.974-1.5,32.131,39.027,16.165,54.932-1.808c23.432,8.247,123.435-4.955,134.966-98.38C649.678,952.042,685.572,951.44,685.572,951.44Z" transform="translate(-437.763 -805.47)" fill="#fff"/>
      </g>
      <g id="Group_5720" data-name="Group 5720">
        <g id="Group_5716" data-name="Group 5716" transform="translate(2.709 321.976)">
          <path id="Path_7365" data-name="Path 7365" d="M417.505,808.552c2.406,6.2-2.919,14.057-11.9,17.541s-18.207,1.281-20.615-4.924,2.919-14.057,11.9-17.541S415.1,802.348,417.505,808.552Z" transform="translate(-384.412 -801.975)" fill="#fff"/>
        </g>
        <g id="Group_5719" data-name="Group 5719">
          <g id="Group_5717" data-name="Group 5717" transform="translate(3.546)">
            <path id="Path_7366" data-name="Path 7366" d="M797.745,701.311a99.468,99.468,0,0,0-16.352-17.277,129.778,129.778,0,0,0-19.609-13.08c-3.517-1.728-6.971-3.6-10.617-5.025-1.813-.726-3.571-1.6-5.432-2.2l-5.537-1.916a157.5,157.5,0,0,0-45.893-7.381,175.261,175.261,0,0,0-45.891,5.509,222.548,222.548,0,0,0-43.181,15.822c-27.536,13.5-52.345,31.736-74.836,52.223-5.522,5.24-11.129,10.4-16.37,15.916l-3.995,4.078-.91.927c-.367.015-.731.055-1.1.083l-.135-.478c-.369-.958-.8-1.889-1.2-2.832-.484-.894-1.032-1.756-1.549-2.633-.55-.857-1.237-1.612-1.855-2.419a27.847,27.847,0,0,0-9.713-7.169,31.8,31.8,0,0,0-11.72-2.443c-7.992-.205-15.685,1.979-22.826,4.948l-5.286,2.424c-1.726.866-3.371,1.874-5.062,2.806-3.432,1.793-6.53,4.069-9.75,6.174a141.312,141.312,0,0,0-17.875,14.59,128.384,128.384,0,0,0-27.106,37.367,99.1,99.1,0,0,0-7.49,22.158,74.033,74.033,0,0,0-1.562,11.755,56.236,56.236,0,0,0,.552,12.037,44.506,44.506,0,0,0,3.517,11.838,35.171,35.171,0,0,0,7.3,10.388,36.215,36.215,0,0,0,10.584,7.143,37.289,37.289,0,0,0,5.4,1.883,117.97,117.97,0,0,0-10.966,22.564,62.4,62.4,0,0,0-3.34,16.125,52.44,52.44,0,0,0,1.582,16.594,63.122,63.122,0,0,0,16.389,28.223,57.953,57.953,0,0,0,13.147,10.1c1.2.731,2.577,1.252,3.864,1.876a42.167,42.167,0,0,0,4.189,1.429,25.234,25.234,0,0,0,4.324.768,28.415,28.415,0,0,0,1.292,5.943,37.487,37.487,0,0,0,2.02,4.837c.253.5.506.969.766,1.438l0,0a31.45,31.45,0,0,0-2.06,2.963,27.871,27.871,0,0,0-3.02,6.635,25.317,25.317,0,0,0-.157,14.733,33.9,33.9,0,0,0,6.894,12.338,35.711,35.711,0,0,0,10.771,8.854,33.909,33.909,0,0,0,13.446,4.075,40.179,40.179,0,0,0,13.848-1.257,46.981,46.981,0,0,0,12.443-5.7,50.644,50.644,0,0,0,8.254-6.827,53.2,53.2,0,0,0,9.833,1.218,98.4,98.4,0,0,0,12.187-.314,133.783,133.783,0,0,0,23.648-4.183,136.7,136.7,0,0,0,43.262-19.928,109.384,109.384,0,0,0,32.024-35,112.99,112.99,0,0,0,9.32-21.835,116.228,116.228,0,0,0,3.886-17.358,13.178,13.178,0,0,0,.89,2.075,48.5,48.5,0,0,0,3.942,7.171,50.334,50.334,0,0,0,5.04,6.558c.938,1.021,1.985,1.933,2.983,2.906a27.787,27.787,0,0,0,3.2,2.679,54.948,54.948,0,0,0,14.624,8.081c1.324.441,2.646.914,3.988,1.322,1.355.347,2.7.779,4.08,1.049,1.372.31,2.758.578,4.167.783.317.057.646.085.971.124.2,1.065.406,2.127.628,3.188.013.1.015.2.031.3l.124.644.164.58.046.218.013,0,.048.17c.822,2.729,1.508,5.5,2.448,8.195a152.7,152.7,0,0,0,6.19,15.982,132.1,132.1,0,0,0,18.006,29.277,116.189,116.189,0,0,0,25.542,23.186,127.524,127.524,0,0,0,31.046,14.908l16.963,5.568-12.4-13-.007,0c-13.066-12.995-24.944-27.274-33.9-43.275a124.36,124.36,0,0,1-15.857-49.748c11.317-3.718,22.714-7.719,33.636-13.021,11.563-5.64,22.911-12.608,31.858-22.682a56.065,56.065,0,0,0,6.039-8.121c.936-1.422,1.68-2.967,2.487-4.472.683-1.571,1.455-3.107,1.987-4.745a47.26,47.26,0,0,0,2.483-9.977l.548-4.988a50.321,50.321,0,0,0,.161-5.083c-.013-.855.061-1.7-.029-2.561l-.268-2.6c-.1-.868-.159-1.732-.308-2.6l-.609-2.609a29.942,29.942,0,0,0-4.425-10.045,25.594,25.594,0,0,0-8.452-7.566,18.079,18.079,0,0,0-2.557-1.246c-.506-.229-1.036-.384-1.558-.565,2.828-4.942,5.4-9.905,7.885-15q5.066-10.394,9.183-21.235a191.157,191.157,0,0,0,11.5-45.045c1.815-15.482,1.327-31.712-3.833-46.969A78.111,78.111,0,0,0,797.745,701.311Zm2.341,24.224c4.442,13.618,5.049,28.444,3.29,42.972-1.741,14.578-5.79,28.937-10.939,42.869-2.6,6.962-5.5,13.832-8.723,20.55-2.954,6.177-6.183,12.357-9.613,18.141a35.232,35.232,0,0,0-14.2,8.062,43.789,43.789,0,0,0-10.248,14.365,41.511,41.511,0,0,1,12.855-10.708,28.287,28.287,0,0,1,14.011-3.423l.48.046h0a16.112,16.112,0,0,1,1.615.175,18.4,18.4,0,0,1,1.848.43,11.531,11.531,0,0,1,1.8.613,10.321,10.321,0,0,1,1.719.794,16.853,16.853,0,0,1,5.662,4.857c3.011,4.126,4.261,9.772,4.414,15.554a42.3,42.3,0,0,1-.048,4.4l-.4,4.453a39.235,39.235,0,0,1-1.911,8.439c-.408,1.388-1.052,2.695-1.588,4.039-.672,1.289-1.263,2.62-2.049,3.859a48.576,48.576,0,0,1-5.125,7.189c-7.723,9.1-18.211,15.966-29.2,21.584-11.053,5.649-22.806,9.97-34.742,14.131l0,0-2.082.679.1,2.256a123.776,123.776,0,0,0,4.615,28.454,139.823,139.823,0,0,0,10.763,26.737,186.368,186.368,0,0,0,21.045,31.341,110.48,110.48,0,0,1-11.234-6.545,107.131,107.131,0,0,1-23.574-21.4,123.168,123.168,0,0,1-16.776-27.292,143.59,143.59,0,0,1-5.83-15.056c-.892-2.546-1.536-5.175-2.319-7.758l-.657-2.42c-.247-.894-.521-1.787-.816-2.672-.118-.417-.249-.833-.356-1.252-.436-2.073-1.106-4.117-1.433-6.22l-.6-3.144-.456-3.172c-.371-2.117-.469-4.252-.679-6.4a97.1,97.1,0,0,1,.1-12.966,72.531,72.531,0,0,1,2.06-13.051,48.2,48.2,0,0,0-5.406,12.432,72.848,72.848,0,0,0-2.507,13.494,81.46,81.46,0,0,0-.092,13.824l0,.028c-.866-.063-1.732-.122-2.6-.231-1.217-.111-2.413-.38-3.628-.561-1.2-.242-2.389-.545-3.593-.812a48.3,48.3,0,0,1-13.5-5.832,23.218,23.218,0,0,1-3.054-2.088c-.96-.777-1.983-1.492-2.908-2.319a45.679,45.679,0,0,1-5.1-5.461,44.542,44.542,0,0,1-4.27-6.238,24.376,24.376,0,0,1-1.732-3.4l-1.625-3.48-1.985-4.259-.772,4.542,0,.011a129.686,129.686,0,0,1-5.317,22.387,108.788,108.788,0,0,1-9.656,20.727,104.183,104.183,0,0,1-31.583,32.34,130.033,130.033,0,0,1-41.733,17.587,125.655,125.655,0,0,1-22.394,3.212,89.9,89.9,0,0,1-11.142-.072,50.775,50.775,0,0,1-5.557-.679,54.585,54.585,0,0,0,3.238-21.735,36.64,36.64,0,0,0-1.514-8.875,35.576,35.576,0,0,1-.724,8.725,50.936,50.936,0,0,1-2.4,8.277,45.308,45.308,0,0,1-7.833,13.366l-.3.308,0,0a45.7,45.7,0,0,1-8.4,7.285,38.1,38.1,0,0,1-9.923,4.56c-6.96,1.85-14.48,1.414-20.633-2.068a26.75,26.75,0,0,1-8.171-6.737,25.085,25.085,0,0,1-5.127-9.028,16.248,16.248,0,0,1,.107-9.609A18.941,18.941,0,0,1,451.1,994.1c.316-.528.689-1.021,1.054-1.518a68,68,0,0,0,7.675,3.41,65.047,65.047,0,0,0,12.133,3.3,62.715,62.715,0,0,1-9.857-7.171,57.222,57.222,0,0,1-6.7-6.9l-.687-.973a28,28,0,0,1-1.942-3.3,28.651,28.651,0,0,1-1.521-3.635,17.085,17.085,0,0,1-.932-7.11l.035-.338a36.733,36.733,0,0,1,3.63-10.915,28.665,28.665,0,0,1,9.209-9.6,30.965,30.965,0,0,0-12.691,6.768,39.952,39.952,0,0,0-7.23,9.2,22.191,22.191,0,0,1-9.92-3.078,48.963,48.963,0,0,1-11.051-8.522,54.157,54.157,0,0,1-14.079-24.15c-2.42-9.05-1.593-18.523,1.56-27.584,3.092-9.094,8.142-17.759,13.485-26.236a82.3,82.3,0,0,1,17.114-17.114,184.17,184.17,0,0,1,21.63-13.957,186.4,186.4,0,0,0-24.039,10.165,90.541,90.541,0,0,0-20.085,13.845,27.873,27.873,0,0,1-16.221-6.955c-4.913-4.39-7.963-10.789-9.292-17.666a49.426,49.426,0,0,1-.884-10.612,62.212,62.212,0,0,1,1.052-10.8,93.2,93.2,0,0,1,6.554-20.98c12.039-27.01,34.616-49.48,61.469-62.13,6.759-2.9,13.957-5.057,21.174-4.872a28.232,28.232,0,0,1,10.4,2.093,24.305,24.305,0,0,1,8.448,6.17c.53.7,1.139,1.344,1.612,2.079.443.755.921,1.492,1.346,2.256.308.733.641,1.459.943,2.193a30.93,30.93,0,0,0-8.227,2.81,41.253,41.253,0,0,0-15.076,13.311,39.374,39.374,0,0,0-7.1,18.054,133.325,133.325,0,0,1,12.432-13.461,60.425,60.425,0,0,1,13.747-9.868,32.454,32.454,0,0,1,15.543-3.637c5.531.059,11.227,1.822,17.3,4.058a28.637,28.637,0,0,0-16.285-11.046,26.067,26.067,0,0,0-3.081-.561l2.732-2.815c5.151-5.526,10.76-10.584,16.245-15.763,11.258-10.032,22.86-19.736,35.408-28.09a273.842,273.842,0,0,1,39.211-22.182c27.272-12.41,57.114-19.459,86.782-18.394a149.661,149.661,0,0,1,43.426,7.837,142.435,142.435,0,0,1,20.14,8.808,120.979,120.979,0,0,1,18.069,12.264,90.63,90.63,0,0,1,14.7,15.781A68.935,68.935,0,0,1,800.086,725.535Z" transform="translate(-430.094 -758.313)" fill="#1a1a1a"/>
          </g>
          <g id="Group_5718" data-name="Group 5718" transform="translate(0 319.252)">
            <path id="Path_7367" data-name="Path 7367" d="M397.38,802.591c-10.525,4.084-16.424,13.322-13.433,21.03s13.577,10.547,24.1,6.463,16.427-13.322,13.435-21.03S407.9,798.506,397.38,802.591Zm8.72,22.468c-7.451,2.891-15.3,1.339-17.131-3.388s2.91-11.164,10.361-14.055,15.294-1.342,17.129,3.386S413.551,822.167,406.1,825.058Z" transform="translate(-383.17 -800.727)" fill="#1a1a1a"/>
          </g>
        </g>
      </g>
    </g>
  </g>
</svg>
