
<svg width="1688" height="849" xmlns="http://www.w3.org/2000/svg" baseProfile="tiny-ps" version="1.2">
 <title>Canvas</title>
 <defs>
  <clipPath id="cp1" clipPathUnits="userSpaceOnUse">
   <path id="svg_1" d="m-152.1,828.79l-1.54,-841.73l1841.09,3.07c0,0 -216.5,338.35 -574.04,840.79c6.51,-3.9 -1265.51,-2.13 -1265.51,-2.13z"/>
  </clipPath>
  <radialGradient r="735.608" cy="408.992" cx="351.78" gradientUnits="userSpaceOnUse" id="grd1">
   <stop stop-color="#f990a1" offset="0"/>
   <stop stop-color="#d81c5c" offset="1"/>
  </radialGradient>
 </defs>
 <g>
  <title>Layer 1</title>
  <g id="Canvas">
   <g id="Shape">
    <path stroke-width="10" stroke="#262262" fill="url(#grd1)" d="m-152.1,828.79l-1.54,-841.73l1841.09,3.07c0,0 -216.5,338.35 -574.04,840.79c6.51,-3.9 -1265.51,-2.13 -1265.51,-2.13z" class="shp0" id="Shape"/>
    <g clip-path="url(#cp1)" id="Clip">
     <path fill="#d22666" opacity="0.749" d="m465.35,1284.22l80.58,-556.44l6.52,559.4l-87.1,-2.96zm318.76,-27.21l-110.87,-484.18l198.02,484.86l-87.15,-0.68zm-524.01,-12.9l226.5,-502.12l-139.4,505.07l-87.1,-2.95zm-153.49,-69.19l308.08,-423.54l-223.29,443.69l-84.79,-20.15zm645.72,-389.21l231.19,360.49l-80.36,24.83l-150.83,-385.32zm-145.1,-34.04l69.24,392.99l-61.98,8.95l-7.26,-401.94zm457.94,368.21l-256.85,-393.23l344,393.91l-87.15,-0.68zm-1039.77,-89.76l310.59,-294.85l-238.48,338.15l-72.11,-43.3zm833.57,-359.33l372.81,310.17l-64.94,15.17l-307.87,-325.34zm-975.36,296.06l428.12,-300.36l-343.33,320.51l-84.79,-20.15zm999.08,-365.06l425.89,234.3c0,0 -36.44,47.16 -38.99,50.14c-0.02,0.02 -0.04,0.02 -0.07,0.02c-6.47,-0.01 -386.83,-284.46 -386.83,-284.46zm-1042.9,210.52l436.09,-212.16l-376.66,242.4l-59.43,-30.24zm1076.1,-258.07l422.24,110.42l-13.04,53.28l-409.2,-163.7zm-1090.2,157.05c-1.76,-3.5 -25.89,-58 -25.89,-58l469.52,-125.81c0,0 -433.7,183.86 -443.46,183.86c-0.1,0 -0.15,-0.01 -0.17,-0.05zm1087.6,-235.27l466.28,36.74l-13.03,53.29l-453.25,-90.03zm-1101.24,3.74l436.39,-6.38l-436.45,61.24l0.06,-54.86zm1112.78,-62.69l456.67,-74.16l7.38,93.07l-464.05,-18.91zm-1116.82,-39.85l0.07,-54.85l461.56,75.67l-461.63,-20.82zm1558.24,-207.33c1.77,3.5 25.89,58 25.89,58l-455.68,120.36c0,0 428.02,-181.87 429.79,-178.36zm-1548.87,75.69l29.39,-88.61l425.75,181.07l-455.14,-92.46zm1450.94,-195.64l84.79,20.15l-461.45,222.25l376.66,-242.4zm-1404.42,-7.21c0,0 36.44,-47.15 38.99,-50.14c2.56,-2.98 374.77,275.84 374.77,275.84l-413.76,-225.7zm1361.05,-151.12l84.79,20.15l-455.18,324.52l370.39,-344.67zm-1285.46,7.21l87.15,0.68l307.87,325.34l-395.02,-326.02zm79.92,-143.39l87.15,0.68l277.37,423.15l-364.52,-423.83zm649.34,-150.12l85.29,17.94l-139.92,541.65l54.63,-559.59zm119.36,156.02l58.05,23.49l-167,373.15l108.95,-396.64zm286.92,36.4l72.11,43.3l-310.59,294.86l238.48,-338.16zm-95.07,-111.92l84.79,20.15l-308.08,423.54l223.29,-443.69zm-519.75,-106.98l85.29,17.94l14.75,523.75l-100.04,-541.69zm-169.75,33.32l87.15,0.69l110.87,484.17l-198.02,-484.86zm-112.26,111.49l80.36,-24.83l150.83,385.32l-231.19,-360.49z" class="shp1" id="Shape"/>
     <path stroke-width="20" paint-order="stroke fill markers" stroke="#262262" fill="#fff8e5" d="m29.06,242.81c-4.01,-0.31 -7.99,-0.93 -11.96,-1.64c-3.93,-0.82 -7.85,-1.77 -11.64,-3.15c-0.01,0 -0.05,-0.02 -0.05,-0.02l0,-163.4c0.05,0.03 0.09,0.05 0.15,0.07c2.97,1.56 6.68,2.56 10.25,2.56c3.6,0.06 7.16,-0.71 10.41,-1.99c3.27,-1.27 6.27,-3.05 8.99,-5.11c2.73,-2.09 5.23,-4.44 7.39,-7.15c1.09,-1.35 2.11,-2.77 3.01,-4.36c0.15,-0.28 0.3,-0.57 0.45,-0.85c0.63,0.42 1.28,0.78 1.93,1.15c2.03,1.12 4.17,2.04 6.43,2.7c4.47,1.36 9.59,1.53 14.1,-0.19c2.24,-0.86 4.28,-2.11 6.06,-3.57c1.74,-1.5 3.27,-3.19 4.52,-5.02c0.67,-0.88 1.18,-1.87 1.77,-2.79c0.52,-0.96 1,-1.94 1.48,-2.92c0.4,-1 0.85,-1.97 1.21,-2.98c0.34,-1.03 0.69,-2.04 1,-3.07c-2.25,3.64 -4.69,7.11 -7.58,9.99c-0.72,0.71 -1.45,1.4 -2.25,2.01c-0.74,0.66 -1.59,1.18 -2.38,1.74c-1.66,1.02 -3.43,1.75 -5.22,2.18c-3.6,0.9 -7.35,0.42 -10.88,-0.92c-1.76,-0.68 -3.47,-1.55 -5.11,-2.55c-0.83,-0.53 -1.62,-1.06 -2.39,-1.64c-0.75,-0.57 -1.58,-1.23 -2.15,-1.76l-4.66,-4.35l-0.8,6.5c-0.06,0.57 -0.6,1.91 -1.31,3.02c-0.69,1.16 -1.52,2.33 -2.44,3.44c-1.85,2.22 -3.95,4.3 -6.25,6.1c-4.57,3.59 -9.93,6.21 -15.44,6.56c-1.38,0.11 -2.76,0.02 -4.12,-0.19c-1.36,-0.19 -2.67,-0.61 -4.1,-1.12c-0.72,-0.21 -1.4,-0.48 -2.07,-0.77l0,-63.14l301.65,0c-0.21,5 -2.08,9.54 -4.87,13.16c-0.68,0.91 -1.47,1.74 -2.24,2.57c-0.86,0.76 -1.64,1.57 -2.57,2.24c-0.89,0.78 -1.8,1.25 -2.67,1.8c-0.43,0.28 -0.95,0.4 -1.41,0.61c-0.47,0.2 -0.93,0.41 -1.44,0.5c-3.95,1.11 -8.41,0.59 -12.59,-0.8c-2.11,-0.66 -4.13,-1.66 -6.02,-2.73c-0.94,-0.54 -1.83,-1.16 -2.59,-1.79c-0.38,-0.32 -0.78,-0.63 -1.02,-0.93c-0.11,-0.13 -0.36,-0.33 -0.36,-0.4c-0.06,-0.1 -0.13,-0.18 -0.21,-0.27l-4.05,-3.81l-1.82,3.66c-0.24,0.48 -0.67,1.18 -1.04,1.77c-0.39,0.61 -0.82,1.21 -1.27,1.79c-0.9,1.14 -1.87,2.22 -2.94,3.16c-2.13,1.87 -4.59,3.2 -7.33,3.55c-1.37,0.19 -2.8,0.13 -4.25,-0.12c-1.44,-0.31 -2.91,-0.73 -4.35,-1.36c-2.88,-1.25 -5.63,-3.07 -8.34,-5.03c1.88,2.76 4.11,5.36 6.95,7.41c1.4,1.06 2.97,1.94 4.67,2.63c1.72,0.66 3.59,1.05 5.52,1.1c3.88,0.12 7.74,-1.37 10.75,-3.59c1.52,-1.1 2.89,-2.36 4.11,-3.74c0.22,-0.25 0.42,-0.52 0.63,-0.77c0.01,0.01 0.02,0.02 0.03,0.03c1.12,0.96 2.26,1.76 3.45,2.47c2.36,1.43 4.84,2.54 7.45,3.34c0.63,0.25 1.31,0.36 1.97,0.53c0.67,0.17 1.33,0.33 2.02,0.42l2.05,0.3l2.09,0.1c2.54,0 5.15,-0.26 7.64,-1.16l1,2c0.69,1.37 1.38,3.02 1.98,4.59c0.6,1.6 1.17,3.21 1.65,4.86c0.99,3.28 1.77,6.62 2.29,10c1.07,6.76 1.12,13.64 0.19,20.34c-0.97,6.71 -3,13.22 -5.9,19.32c-2.97,6.08 -6.85,11.72 -11.35,16.83c-4.47,5.13 -9.65,9.53 -15.36,12.9c-5.71,3.38 -12,5.64 -18.53,6.53c-6.54,0.89 -13.26,0.5 -19.78,-0.99c-3.26,-0.74 -6.47,-1.75 -9.6,-2.98c-1.56,-0.61 -3.1,-1.29 -4.6,-2.02c-0.75,-0.36 -1.49,-0.74 -2.21,-1.14c-0.71,-0.37 -1.49,-0.83 -2.03,-1.17l-5.15,-3.25l-1.05,6.1c-0.11,0.59 -0.28,1.47 -0.49,2.23c-0.19,0.8 -0.43,1.59 -0.67,2.38c-0.5,1.58 -1.1,3.13 -1.78,4.64c-1.38,3 -3.07,5.87 -5.16,8.35c-2.1,2.49 -4.47,4.71 -7.17,6.47c-0.66,0.48 -1.4,0.81 -2.09,1.22c-0.7,0.4 -1.4,0.82 -2.16,1.09l-2.23,0.95c-0.75,0.3 -1.57,0.46 -2.35,0.71c-0.8,0.21 -1.58,0.48 -2.39,0.65l-2.43,0.42l-1.22,0.21c-0.41,0.06 -0.82,0.06 -1.23,0.1l-2.46,0.16c-3.27,-0.05 -6.57,-0.25 -9.76,-1.15c-3.19,-0.82 -6.32,-1.99 -9.27,-3.56c-1.46,-0.8 -2.9,-1.65 -4.26,-2.61c-0.69,-0.47 -1.36,-0.96 -2,-1.48c-0.62,-0.49 -1.31,-1.08 -1.75,-1.5l-2.67,-2.5c0.44,-0.3 0.89,-0.61 1.31,-0.93l2.01,-1.86c0.33,-0.32 0.68,-0.62 0.99,-0.95l0.89,-1.05c2.43,-2.73 4.21,-5.99 5.45,-9.33c2.46,-6.72 2.65,-13.99 0.62,-20.46c-0.76,6.67 -2.46,12.95 -5.45,18.29c-1.49,2.66 -3.2,5.13 -5.34,7.19l-0.77,0.8c-0.26,0.25 -0.56,0.48 -0.84,0.72l-1.69,1.43l-1.84,1.25c-0.11,0.07 -0.22,0.14 -0.33,0.22l-0.01,-0.01l0,0.01c-0.5,0.35 -1,0.69 -1.54,0.93l-1.93,1.02c-0.63,0.36 -1.35,0.51 -2.01,0.79c-1.32,0.62 -2.77,0.81 -4.17,1.2c-2.87,0.47 -5.85,0.58 -8.89,0.27c-6.09,-0.74 -12.25,-2.82 -18.31,-5.73c4.39,5.17 10.43,8.99 17.29,10.95c3.46,0.91 7.14,1.19 10.83,0.85c1.82,-0.32 3.68,-0.56 5.42,-1.23c0.87,-0.32 1.79,-0.55 2.61,-0.98l1.64,-0.84l0.4,3.07c0.1,0.77 0.2,1.79 0.25,2.72c0.06,0.94 0.09,1.91 0.11,2.87c0.03,1.93 0.01,3.87 -0.11,5.81c-0.2,3.87 -0.68,7.75 -1.41,11.57c-1.45,7.66 -3.94,15.1 -7.36,22.1c-1.7,3.51 -3.73,6.85 -5.9,10.08c-2.2,3.23 -4.67,6.27 -7.29,9.18c-5.29,5.75 -11.43,10.86 -17.94,15.19c-0.41,0.27 -0.8,0.56 -1.22,0.82l-1.31,0.68l-2.62,1.38c-1.75,0.91 -3.47,1.88 -5.26,2.74l-5.48,2.33l-2.74,1.17l-2.83,0.95l-5.65,1.91l-5.79,1.48c-0.97,0.24 -1.93,0.52 -2.9,0.71l-2.95,0.52l-2.95,0.52c-0.98,0.19 -1.97,0.36 -2.96,0.43l-5.97,0.63l-6,0.26c-0.84,0.01 -1.68,0.02 -2.52,0.02c-3.16,0 -6.34,-0.11 -9.5,-0.4zm299.3,-203.71c-1.07,-0.06 -2.14,-0.17 -3.2,-0.25l-1.6,-0.13l-1.59,-0.23c-8.48,-1.2 -16.74,-3.82 -24.56,-7.41l-0.38,-0.17c0.18,-0.11 0.37,-0.21 0.54,-0.34c1.15,-0.88 2.32,-1.76 3.17,-2.76c1.87,-1.9 3.47,-4.1 4.66,-6.49c2.39,-4.75 3.21,-10.32 1.66,-15.14l81.12,0c-4.71,7.47 -10.86,13.92 -17.69,19.31c-6.89,5.34 -14.74,9.35 -23.04,11.59c-2.07,0.59 -4.18,0.96 -6.29,1.36c-2.13,0.25 -4.24,0.58 -6.39,0.62c-0.85,0.07 -1.7,0.1 -2.56,0.1c-1.28,0 -2.57,-0.05 -3.85,-0.06zm59.82,-32.92c0,0 -0.01,0 -0.01,0c0,0 0,0 0.01,0zm-0.05,0.09c0,0 0,0 0,0c0,0 0,0 0,0zm0,0c0,0 0,0 0,0c0,0 0,0 0,0zm0,0c0,0 0,0 0,0c0,0 0,0 0,0zm0,-0.01c0,0 0,0.01 0,0.01c0,0 0,-0.01 0,-0.01zm0.01,-0.01c0,0.01 -0.01,0.01 -0.01,0.01c0,0 0.01,0 0.01,-0.01zm0,0c0,0 0,0 0,0c0,0 0,0 0,0zm0,0c0,0 0,0 0,0c0,0 0,0 0,0zm0,-0.01c0,0 0,0.01 0,0.01c0,0 0,-0.01 0,-0.01zm0,0c0,0 0,0 0,0c0,0 0,0 0,0zm0.01,0c0,0 -0.01,0 -0.01,0c0,0 0.01,0 0.01,0zm0.01,-0.03c0,0.01 -0.01,0.02 -0.01,0.03c0,-0.01 0.01,-0.02 0.01,-0.03zm0.01,-0.01c0,0 -0.01,0 -0.01,0.01c0,-0.01 0.01,-0.01 0.01,-0.01zm0,-0.01c0,0 0,0.01 0,0.01c0,0 0,-0.01 0,-0.01zm0,0c0,0 0,0 0,0c0,0 0,0 0,0zm0,0c0,0 0,0 0,0c0,0 0,0 0,0zm0,0c0,0 0,0 0,0c0,0 0,0 0,0zm0,-0.01c0,0.01 0,0.01 0,0.01c0,0 0,0 0,-0.01z" class="shp2" fill-rule="evenodd" id="Shape"/>
    </g>
   </g>
   <path fill="#d22666" d="m541.87,654.27c-44.43,-6.63 -90.1,4.61 -133.5,17.65c-17.98,5.4 -31.01,11.01 -46.79,20.89c34.98,-42.33 48.7,-99.21 36.28,-150.38c-12.43,-51.17 -50.74,-95.57 -101.3,-117.39c92.9,-19.55 154.12,-126.79 118.91,-208.28c37.12,31.19 87.65,51.63 137.73,43.79c50.09,-7.84 96.17,-49.72 95.36,-97.14c27.43,39.15 62.91,76.12 110.58,90.72c47.67,14.6 109.17,-0.34 132.63,-43.06c-1.31,38.1 3.8,78.31 28.15,108.1c24.35,29.79 108.23,30.52 152.31,-0.14c-74.42,47.29 -107.94,183.48 -44.01,233.59c-42.48,-14.77 -94.34,-4.34 -127.93,25.72c-33.59,30.07 -47.22,78.25 -33.62,118.87c-20.35,-37.41 -75.82,-48.82 -117.87,-31.91c-42.05,16.92 -70.96,55.51 -86.03,96c-7.54,-41.62 -76.47,-100.41 -120.9,-107.03z" class="shp3" id="Shape"/>
   <path stroke-width="5" stroke="#262262" fill="#ffffff" d="m575.91,643.29c-47.29,-5.07 -96.29,8.66 -143.2,24.29c-19.52,6.51 -33.71,13.02 -50.93,24.2c38.13,-46.32 53.09,-106.98 39.66,-160.65c-13.48,-53.84 -55.34,-99.99 -111.03,-122.03c102.28,-22.99 168.6,-137.63 130.54,-223.81c40.18,32.86 94.5,54.04 147.95,45.33c53.03,-8.64 101.57,-52.68 100.88,-102.18c28.53,40.77 65.26,79.02 114.41,93.79c48.76,14.66 111.28,-1.2 135.17,-45.08c-1.52,38.98 3.4,80.05 27.69,110.17c24.17,29.99 107.33,29.46 150.8,-2.08c-73.53,48.84 -107.59,187.46 -44.72,236.2c-41.82,-13.61 -93.42,-1.47 -127.19,30.14c-33.93,31.76 -47.92,81.37 -34.42,122.15c-20.34,-37.24 -76.6,-46.68 -119.7,-27.62c-43.37,19.17 -73.44,60.26 -89.23,102.77c-7.71,-42.64 -79.72,-100.55 -126.68,-105.59z" class="shp4" id="Shape"/>
   <path fill="#ffffff" d="m1448.68,648.56c10.66,-5.24 19.07,-14.17 23.71,-25.02c6.21,10.03 15.87,17.61 27.19,21.19c-10.66,5.23 -19.07,14.18 -23.7,25.03c-6.21,-10.03 -15.87,-17.62 -27.2,-21.2zm58.37,-46.12c11.49,-5.64 20.56,-15.27 25.57,-26.96c6.68,10.81 17.09,18.98 29.3,22.84c-11.49,5.64 -20.56,15.28 -25.55,26.97c-6.69,-10.81 -17.1,-18.99 -29.32,-22.85zm-91.12,-32.97c6.86,-3.37 12.27,-9.11 15.26,-16.09c3.99,6.45 10.2,11.33 17.48,13.63c-6.86,3.36 -12.27,9.12 -15.24,16.1c-3.99,-6.46 -10.21,-11.34 -17.5,-13.64z" class="shp5" id="Shape"/>
   <path fill="#ffffff" d="m184.54,607.41c6.5,-9.41 9.49,-20.93 8.27,-32.38c8.79,7.42 19.99,11.42 31.43,11.32c-6.5,9.4 -9.48,20.92 -8.26,32.36c-8.79,-7.42 -20,-11.41 -31.44,-11.3zm-58.45,-33.76c6.03,-8.73 8.81,-19.42 7.67,-30.05c8.15,6.89 18.55,10.6 29.16,10.51c-6.03,8.72 -8.79,19.41 -7.66,30.03c-8.15,-6.89 -18.56,-10.59 -29.17,-10.49zm56.11,-66.22c3.88,-5.61 5.66,-12.49 4.93,-19.32c5.24,4.43 11.93,6.81 18.75,6.75c-3.88,5.62 -5.65,12.49 -4.92,19.32c-5.25,-4.43 -11.94,-6.81 -18.76,-6.75z" class="shp5" id="Shape"/>
   <path fill="#262262" d="m389.11,756.99c62.45,-105.7 0,0 62.45,-105.7c-9.99,37.82 -25.49,75.15 -38.32,112.24c-8.04,-2.18 -16.09,-4.36 -24.13,-6.54zm-120.15,-39.83c130.4,-81.56 0,0 130.4,-81.56c-32.91,36.3 -71.67,68.89 -107.32,102.75c-7.7,-7.07 -15.39,-14.13 -23.08,-21.19zm540.04,-697.68c7.66,7.09 15.32,14.19 22.98,21.29c-30.87,38.27 -60.22,79.53 -93.75,115.27c70.77,-136.56 0,0 70.77,-136.56zm-94.82,5.59c7.99,2.37 15.98,4.74 23.97,7.1c-8.55,38.31 -14.96,78.21 -26.3,115.65c2.33,-122.75 0,0 2.33,-122.75z" class="shp6" id="Shape"/>
   <path fill="#ffffff" d="m387.85,171.06c5.98,-9.97 8.14,-21.8 6.18,-33.18c10.43,4.96 22.4,6.08 33.62,3c-5.98,9.97 -8.15,21.79 -6.2,33.17c-10.43,-4.96 -22.39,-6.06 -33.6,-2.99zm101.79,-31.89c3.57,-5.95 4.86,-13.01 3.69,-19.8c6.22,2.96 13.37,3.63 20.06,1.79c-3.57,5.95 -4.86,13 -3.7,19.8c-6.22,-2.96 -13.36,-3.62 -20.05,-1.79zm-77.14,-34.25c5.55,-9.24 7.55,-20.22 5.74,-30.78c9.67,4.6 20.78,5.64 31.19,2.79c-5.55,9.24 -7.56,20.21 -5.75,30.77c-9.68,-4.6 -20.78,-5.62 -31.18,-2.78z" class="shp5" id="Shape"/>
  </g>
 </g>
</svg>