<svg xmlns="http://www.w3.org/2000/svg" width="573" height="804.042" viewBox="0 0 573 804.042">
  <path id="Union_41" data-name="Union 41" d="M409.242,586.739l2.886-1.935,148.6,215.341q-2.889,1.969-5.814,3.9Zm59.9,217.3L377.762,604l3.149-1.439,95.273,201.486Zm-74.232,0-50.844-188.1,3.215-.881,54.006,188.986Zm-67.948,0L308.918,622.309l3.048-.323,21.111,182.056Zm-65.474,0,11-181.007,3.253.17-8.27,180.837Zm-66.952,0,42.288-186,3.094.667L200.83,804.042Zm-72.282,0L202.59,607.413l3.041,1.2L129.181,804.042Zm-82.636,0L170.6,591.462l2.646,1.57L47.947,804.042ZM0,733.987,141.133,570.252l2.64,2.212L0,743.838ZM437.715,564.455l2.4-2.238L573,700.5v8.9ZM0,641.941l115.789-97.02,2.056,2.379L0,649.207ZM462.067,538.152l2.005-2.592L573,617.264v6.654ZM0,572.231l94.811-56.376,1.674,2.722L0,577.932Zm481.872-63.954,1.621-2.981L573,552.269V557.7ZM0,514.9l78.8-31.152,1.286,3.145L0,519.81Zm496.57-39.314,1.053-3.034L573,497.632v4.674ZM0,464.658,68.366,449.81l.746,3.28L0,469.1Zm505.622-23.279.592-3.481L573,448.7v4.439ZM0,417.872l63.567-3.325.2,3.223L0,422.05Zm509.055-12.356.02-3.256H573v4.187ZM0,375.814v-4.1L64.477,378.6l-.3,3.011Zm506.984-4.1L573,362.6v4.222l-65.6,8.052ZM0,328.438V324l71.166,19.423-.825,3.067Zm499.213,8.44L573,314.2v4.531l-72.866,21.192ZM0,276.872v-5.106l83.567,37.991-1.443,3.169Zm485.867,26.951L573,260.669v5.1l-85.8,40.76ZM0,217.178V211.15l101.165,67.624-1.881,2.811Zm467.206,56L573,197.628V203.9L469.1,275.824ZM0,143.264v-7.751L123.671,250.826l-2.24,2.4ZM443.765,245.848,573,117.894v8.021L446.372,248.472ZM0,43.642V32.274L150.226,226.936l-2.4,1.859ZM416.265,222.634,568.006,14.119c1.673,1.2,3.339,2.416,4.994,3.634v1.6L418.856,224.517ZM60.413,0h7.71L180.631,207.358l-2.881,1.565Zm325,204.136L488.287,0h7.325L388.535,205.709ZM139.779,0h6.79l66.875,193.078-2.965,1.035ZM352.165,190.9,411.706,0h6.621L355.252,191.874ZM210.5,0h6.11l31.682,184.24-3.313.585ZM317.034,183.172,342.707,0h6.1L320.249,183.636ZM276.869,0h5.88l1.6,181.093-3.463.052Z" fill="#040505" opacity="0.2"/>
</svg>
