<svg id="_Path_" data-name="&lt;Path&gt;" xmlns="http://www.w3.org/2000/svg" width="117.489" height="193.248" viewBox="0 0 117.489 193.248">
  <path id="Union_49" data-name="Union 49" d="M106.508,133.1a22.225,22.225,0,0,0-6.126-2.86,38.176,38.176,0,0,0,4.965-5.816A37.384,37.384,0,0,0,95.185,71.889a38.9,38.9,0,0,0-25.63-6.351A24.522,24.522,0,0,0,47.887,52.674a24.937,24.937,0,0,0-5.8.684A44.642,44.642,0,0,0,22.861,7.709,46.18,46.18,0,0,0,0,0V192.393H91.7a54.229,54.229,0,0,0,6.367-20.088,22.028,22.028,0,0,0,14.262-9.112A21.413,21.413,0,0,0,106.508,133.1Z" transform="translate(0 0.854)" fill="#fff"/>
  <path id="Union_50" data-name="Union 50" d="M0,2.178A8.388,8.388,0,0,1,4.12.151,7.406,7.406,0,0,1,8.89.737a6.386,6.386,0,0,1,1.894,1.534,12.025,12.025,0,0,1,1.327,1.921c.766,1.309,1.425,2.624,2.059,3.988l-.611-.331a14.871,14.871,0,0,1,4.99-1,13.951,13.951,0,0,1,2.609.2,9.559,9.559,0,0,1,2.572.807,8.16,8.16,0,0,1,3.826,3.822,9.162,9.162,0,0,1,.786,5.055l-.229.027a16.106,16.106,0,0,0-2.157-4.11A8.8,8.8,0,0,0,22.662,10.1a13.239,13.239,0,0,0-4.207-1.151c-.377-.037-.757-.076-1.14-.094s-.769-.047-1.159-.067a15.435,15.435,0,0,0-2.341.047l-.532.058L13.2,8.5a8.186,8.186,0,0,0-1.787-3.81A6.565,6.565,0,0,0,9.826,3.382a9.3,9.3,0,0,0-1.763-.815A10.331,10.331,0,0,0,4.3,1.9,22.391,22.391,0,0,0,.113,2.38Z" transform="translate(34.388 142.735)" fill="#1a1818"/>
  <path id="Union_51" data-name="Union 51" d="M95.88,126.716A36.787,36.787,0,0,0,66.437,63.763,23.371,23.371,0,0,0,40.2,51.913,43.789,43.789,0,0,0,21.835,7.5,43.569,43.569,0,0,0,0,0V15.457S38.727,42.467,25.479,61.713c0,0,24.3,1.175,30.406,15.68,0,0,29.753-.063,25.059,25.34,0,0,28.357,3.147,5.493,26.011Z" transform="translate(5.208 0.854)" fill="#040505" opacity="0.1" style="mix-blend-mode: multiply;isolation: isolate"/>
  <path id="Union_52" data-name="Union 52" d="M115.968,143.206a25.071,25.071,0,0,0-3.411-5.978,25.942,25.942,0,0,0-5.062-4.771,3.352,3.352,0,0,0-.363-.281c-.144-.059-.3-.105-.444-.158q-.447-.148-.9-.279c-.6-.172-1.2-.325-1.8-.442a19.271,19.271,0,0,0-3-.341,15.084,15.084,0,0,0,4.279-3.484,21.317,21.317,0,0,0,1.8-2.445c.287-.418.562-.843.813-1.282s.528-.865.768-1.311a38.314,38.314,0,0,0,1.11-35.078,38.166,38.166,0,0,0-3.047-5.284,38.523,38.523,0,0,0-8.4-8.856,39.244,39.244,0,0,0-5.132-3.364,39.816,39.816,0,0,0-23-4.67A25.5,25.5,0,0,0,50.253,52.248a26.167,26.167,0,0,0-6.428.192,45.954,45.954,0,0,0-.2-14.251A46.873,46.873,0,0,0,37.992,22.88a46.032,46.032,0,0,0-10.677-12.4A47.433,47.433,0,0,0,12.972,2.493,47.459,47.459,0,0,0,0,0V1.785A45.843,45.843,0,0,1,12.269,4.4a45.175,45.175,0,0,1,13.516,7.868,43.82,43.82,0,0,1,9.956,11.869,44.249,44.249,0,0,1,5.129,14.5,45.881,45.881,0,0,1-.218,15.326l-.4,2.161,2.158-.519a23.166,23.166,0,0,1,7.579-.535,23.665,23.665,0,0,1,7.367,1.847A23.637,23.637,0,0,1,68.48,66.943l.4.684.765-.074.02,0a40,40,0,0,1,11.433.759,37.656,37.656,0,0,1,10.622,4.083,37.07,37.07,0,0,1,15.211,16.26,36.2,36.2,0,0,1,2.961,21.9,35.829,35.829,0,0,1-3.663,10.608,54.4,54.4,0,0,1-3,4.808,50.88,50.88,0,0,0-3.021,5.014l-.142.281.214.007h0a25.158,25.158,0,0,1,2.736,2.038c.421.361.827.726,1.211,1.109q.288.287.562.58c.092.1.179.2.273.293a2.427,2.427,0,0,0,.344.182,22.491,22.491,0,0,1,4.473,3.876,21.869,21.869,0,0,1,3.151,5.017,22.119,22.119,0,0,1,1.534,5.744,20.02,20.02,0,0,1-2.244,11.649,28.29,28.29,0,0,1-1.623,2.58,22.747,22.747,0,0,1-2,2.32,21.27,21.27,0,0,1-10.82,5.768l-.541.108-.08.548,0,.013A54.446,54.446,0,0,1,90.4,193.248h2.468a54.562,54.562,0,0,0,5.842-19.458,23.1,23.1,0,0,0,11.43-5.674,25.045,25.045,0,0,0,2.311-2.464,30.392,30.392,0,0,0,1.918-2.781,23.868,23.868,0,0,0,2.518-6.262,24.164,24.164,0,0,0,.553-6.749A24.994,24.994,0,0,0,115.968,143.206Z" transform="translate(0)" fill="#1a1818"/>
  <path id="Union_53" data-name="Union 53" d="M45.665,25.123c-.118-.622-.186-1.23-.274-1.831-.117-.6-.2-1.191-.334-1.764A16.322,16.322,0,0,0,43.99,18.3a8.243,8.243,0,0,0-1.859-2.479,9.352,9.352,0,0,0-2.638-1.582A15.692,15.692,0,0,0,32.7,13.059a18.366,18.366,0,0,0-6.931,1.894l-.556.274-.36-.66a36.376,36.376,0,0,0-4.394-6.307l-.62-.692-.667-.633a7.283,7.283,0,0,0-.685-.6c-.237-.187-.458-.4-.7-.566a16.1,16.1,0,0,0-3.067-1.749A14.917,14.917,0,0,0,7.7,2.873a27.235,27.235,0,0,0-7.534,1.7L0,4.323A14.79,14.79,0,0,1,3.378,1.937a15.644,15.644,0,0,1,1.913-.865A15.044,15.044,0,0,1,7.322.438a13.981,13.981,0,0,1,8.661.548,13.671,13.671,0,0,1,3.77,2.327c.285.231.536.5.8.742a8.02,8.02,0,0,1,.753.783l.71.812.641.856a20.132,20.132,0,0,1,1.159,1.772c.355.605.638,1.246.951,1.866l.755,1.93.639,1.95-.916-.386c2.465-.666,4.853-1.171,7.318-1.663a31.879,31.879,0,0,1,3.784-.573,11.708,11.708,0,0,1,3.99.336,8.377,8.377,0,0,1,3.648,2.118,8.969,8.969,0,0,1,2.183,3.6,11.959,11.959,0,0,1,.469,3.945,17.574,17.574,0,0,1-.2,1.911c-.134.625-.287,1.24-.468,1.844Z" transform="translate(27.11 75.947)" fill="#1a1818"/>
</svg>
