<svg id="_Path_" data-name="&lt;Path&gt;" xmlns="http://www.w3.org/2000/svg" width="63.234" height="222.009" viewBox="0 0 63.234 222.009">
  <path id="Union_54" data-name="Union 54" d="M61.395,0a58.046,58.046,0,0,0-7.533,8.537A24.038,24.038,0,0,0,35.849,9.886,22.345,22.345,0,0,0,25.677,40.415,22.689,22.689,0,0,0,29.9,46.063a41.85,41.85,0,0,0-7.64,2.9C2.161,58.932-5.791,82.8,4.5,102.265A40.243,40.243,0,0,0,25.1,120.732a25.026,25.026,0,0,0,13.526,22.5,26.528,26.528,0,0,0,5.755,2.227A45.948,45.948,0,0,0,38.638,196.9a47.5,47.5,0,0,0,17.308,18.351l5.632,2.465Z" transform="translate(1.656 1.333)" fill="#fff"/>
  <path id="Union_55" data-name="Union 55" d="M28.138,22.906a22.813,22.813,0,0,1,3.313-5.373,23.225,23.225,0,0,1,4.817-4.23,31.138,31.138,0,0,1,2.85-1.572,25.056,25.056,0,0,1,3.068-1.147,23.165,23.165,0,0,1,13.078.032l.561.167.358-.464.009-.012a59,59,0,0,1,6.859-7.615V0a57.866,57.866,0,0,0-7.86,8.948,25.134,25.134,0,0,0-13.6-.418A27.384,27.384,0,0,0,38.16,9.655a33.38,33.38,0,0,0-3.23,1.61,25.916,25.916,0,0,0-5.594,4.516,25.7,25.7,0,0,0-4.014,5.932,25.94,25.94,0,0,0-2.072,6.845,25.535,25.535,0,0,0,.081,7.178,26.276,26.276,0,0,0,2.247,6.882,3.492,3.492,0,0,0,.193.438c.1.126.222.243.333.364q.341.356.691.7c.47.454.949.889,1.452,1.3a20.064,20.064,0,0,0,2.621,1.792,16.531,16.531,0,0,0-5.8,1.094,23.348,23.348,0,0,0-2.948,1.359c-.484.244-.96.5-1.423.778s-.941.535-1.4.826a41.847,41.847,0,0,0-9.745,8.409A40.244,40.244,0,0,0,.086,82.966a38.894,38.894,0,0,0,.1,6.36,39.067,39.067,0,0,0,3.238,12.281,39.8,39.8,0,0,0,3.042,5.624A41.345,41.345,0,0,0,25.5,122.865a25.471,25.471,0,0,0,5.323,15.641,26.884,26.884,0,0,0,6.556,6.076,27.657,27.657,0,0,0,6.092,2.993,47.243,47.243,0,0,0-9.883,30.051,46.671,46.671,0,0,0,3.527,16.665A48.333,48.333,0,0,0,46.344,208.7c3.152,3.385,12.9,10.92,16.89,13.305v-2.961c-3.749-2.352-12.32-8.5-15.246-11.753a46,46,0,0,1-8.524-13.9,44.451,44.451,0,0,1-3.13-15.82,45.541,45.541,0,0,1,2.733-15.86,48.512,48.512,0,0,1,8.147-13.983l1.494-1.788-2.281-.587a25.257,25.257,0,0,1-13.256-8.574A23.98,23.98,0,0,1,28,122.084l-.013-.823-.752-.309-.02-.009a41.948,41.948,0,0,1-10.267-6.335,38.645,38.645,0,0,1-7.787-8.991,37.477,37.477,0,0,1,2.836-44.038,38.8,38.8,0,0,1,8.913-7.947,59.672,59.672,0,0,1,5.287-2.942,55.581,55.581,0,0,0,5.417-3.121l.278-.188-.2-.113h0A25.534,25.534,0,0,1,30.2,44.045c-.205-.54-.4-1.075-.555-1.616q-.12-.405-.224-.81c-.035-.135-.062-.273-.1-.4a2.574,2.574,0,0,0-.227-.337,22.78,22.78,0,0,1-2.161-5.769,22.305,22.305,0,0,1-.337-6.166A22.9,22.9,0,0,1,28.138,22.906Z" transform="translate(0 0)" fill="#1a1818"/>
  <path id="Union_56" data-name="Union 56" d="M22.745,34.757a15.588,15.588,0,0,1-1.1-1.9c-.149-.288-.254-.6-.386-.9a7.768,7.768,0,0,1-.348-.921l-.313-.943-.237-.974a37.962,37.962,0,0,1-.927-8.225v-.809l-.688-.029a20.963,20.963,0,0,1-7.77-1.786,17.359,17.359,0,0,1-5.994-4.619,10,10,0,0,1-1.731-2.856,8.62,8.62,0,0,1-.493-3.3,17.016,17.016,0,0,1,.68-3.6c.175-.61.409-1.216.613-1.839.234-.613.491-1.224.707-1.872L4.478,0C3.981.477,3.5.979,3.04,1.5A18.832,18.832,0,0,0,1.824,3.2,12.616,12.616,0,0,0,.18,7.17a9.361,9.361,0,0,0,.214,4.523,8.978,8.978,0,0,0,2.431,3.883,13.037,13.037,0,0,0,3.715,2.375,35.969,35.969,0,0,0,4,1.41c2.4.727,4.756,1.406,7.216,2.005L17.458,22.9l-.292,2.215c-.025.746-.09,1.5-.066,2.253a20.934,20.934,0,0,0,.187,2.273l.169,1.139.26,1.134a8.334,8.334,0,0,0,.318,1.128c.13.371.233.751.388,1.117A14.6,14.6,0,0,0,20.861,38.3a13.635,13.635,0,0,0,1.883,1.858Z" transform="translate(40.306 86.858)" fill="#1a1818"/>
  <path id="Union_57" data-name="Union 57" d="M61.395,148.512c-5.138-12.113-14.334-39,0-49.241V96.056c-5.962-4.138-20.146-15.472-18.745-28.821,0,0-29.061-15.289-10.95-36.87,0,0-25.989-17.6,8.5-27.41L29.9,0a41.85,41.85,0,0,0-7.64,2.9C2.161,12.869-5.791,36.733,4.5,56.2A40.243,40.243,0,0,0,25.1,74.669a25.026,25.026,0,0,0,13.526,22.5A26.528,26.528,0,0,0,44.376,99.4a45.948,45.948,0,0,0-5.738,51.438,47.5,47.5,0,0,0,17.308,18.351l5.632,1.751Z" transform="translate(1.656 47.396)" fill="#040505" opacity="0.1" style="mix-blend-mode: multiply;isolation: isolate"/>
</svg>
