<svg xmlns="http://www.w3.org/2000/svg" width="321.747" height="464.167" viewBox="0 0 321.747 464.167">
  <path id="Union_43" data-name="Union 43" d="M160.668,464.167a166.5,166.5,0,0,1-39.881-4.964l-4.855-1.346-2.428-.673-2.393-.789-4.785-1.586c-1.577-.578-3.137-1.2-4.707-1.806l-2.351-.91c-.787-.3-1.541-.67-2.313-1l-4.611-2.045c-1.532-.693-3.016-1.487-4.527-2.226-1.5-.758-3.026-1.474-4.476-2.33l-4.4-2.473c-.742-.4-1.448-.857-2.161-1.3l-2.139-1.342c-2.892-1.73-5.614-3.717-8.388-5.63-.7-.468-1.372-.977-2.036-1.495l-2.006-1.538L60.2,429.17l-1-.773-.966-.816-3.863-3.266-.965-.818-.926-.862-1.852-1.724-1.853-1.725-.926-.862-.886-.9L43.427,413.8l-.885-.906-.845-.944-1.682-1.894-1.682-1.9c-.566-.628-1.124-1.262-1.643-1.929-2.112-2.637-4.29-5.227-6.228-8l-1.5-2.05c-.5-.683-1.007-1.36-1.458-2.076l-2.787-4.242c-.959-1.4-1.78-2.878-2.646-4.332-.845-1.466-1.749-2.9-2.547-4.395-1.55-3.01-3.23-5.959-4.591-9.066-.706-1.54-1.448-3.066-2.123-4.62l-1.907-4.716c-.312-.788-.644-1.569-.939-2.364l-.834-2.4-1.665-4.809-1.426-4.886-.712-2.444c-.224-.819-.4-1.649-.6-2.473L3.544,338.4c-.369-1.657-.639-3.334-.961-5-.68-3.33-1.042-6.709-1.492-10.076-.259-1.68-.322-3.38-.476-5.071-.122-1.693-.3-3.384-.374-5.08L.1,308.077.025,305.53l-.01-2.515L0,292.961l.019-20.109c-.01-13.407.089-26.813.143-40.219l.3-40.219L.656,172.3l.092-10.055.024-2.514L.858,157.2l.173-5.068a164.386,164.386,0,0,1,7.332-39.744l1.657-4.78.824-2.391c.292-.791.62-1.568.929-2.352l1.88-4.694c.664-1.549,1.394-3.069,2.088-4.6,1.337-3.1,2.994-6.038,4.52-9.04.786-1.49,1.678-2.921,2.512-4.385.855-1.451,1.655-2.935,2.6-4.332l2.735-4.249c.442-.717.941-1.4,1.431-2.081L31,67.424c1.9-2.782,4.043-5.384,6.121-8.034.51-.671,1.06-1.308,1.617-1.94L40.4,55.545l1.657-1.906.832-.949.873-.913,3.485-3.656.872-.914.913-.873,1.825-1.745,1.826-1.746.913-.872.952-.829L58.36,37.83,59.313,37l.989-.785,1.984-1.563L64.27,33.09c.658-.526,1.321-1.044,2.016-1.521,2.746-1.949,5.452-3.958,8.319-5.73l2.122-1.373c.708-.456,1.407-.926,2.145-1.334L83.242,20.6c1.44-.877,2.956-1.614,4.449-2.4,1.5-.761,2.979-1.577,4.5-2.293l4.6-2.1c.771-.34,1.524-.723,2.31-1.028l2.348-.936c1.568-.619,3.123-1.272,4.7-1.872l4.78-1.655,2.392-.824,2.428-.708,4.859-1.417a161.545,161.545,0,0,1,80.276-.6l4.9,1.348,2.45.675,2.415.791,4.829,1.591c1.592.581,3.167,1.208,4.751,1.814l2.372.918c.794.3,1.554.676,2.333,1.009l4.649,2.066c1.543.7,3.037,1.51,4.558,2.261,1.512.77,3.046,1.5,4.505,2.365l4.429,2.509c.747.4,1.457.87,2.175,1.322L247.4,24.8c2.909,1.755,5.641,3.774,8.423,5.72.7.477,1.375,1,2.041,1.522l2.01,1.565,2.009,1.565,1,.786.966.829,3.866,3.319.965.83.926.875,1.852,1.75,1.852,1.75.925.876.885.916,3.531,3.675.881.92.842.957,1.674,1.921,1.674,1.922c.563.636,1.119,1.279,1.635,1.955,2.1,2.672,4.265,5.3,6.188,8.1l1.483,2.074c.495.691,1,1.376,1.447,2.1l2.766,4.285c.952,1.41,1.766,2.9,2.626,4.371.838,1.479,1.735,2.926,2.525,4.432,1.534,3.034,3.2,6.007,4.541,9.135.7,1.551,1.43,3.087,2.1,4.652l1.887,4.742c.309.792.639,1.577.932,2.376l.826,2.414,1.65,4.831a165.635,165.635,0,0,1,7.163,40.11l.145,5.105.072,2.553.01,2.515.02,10.055.007,20.11v40.219l-.1,40.219-.051,20.11-.044,10.055-.016,2.515-.078,2.55-.157,5.1c-.083,1.7-.261,3.391-.387,5.086-.158,1.693-.225,3.394-.489,5.076-.458,3.369-.829,6.751-1.518,10.083-.326,1.668-.6,3.346-.971,5l-1.19,4.957c-.2.824-.384,1.655-.609,2.473l-.717,2.445-1.436,4.887L312.305,358l-.838,2.4c-.3.795-.63,1.576-.943,2.364l-1.916,4.715c-.679,1.554-1.423,3.079-2.132,4.619-1.367,3.106-3.053,6.054-4.608,9.063-.8,1.493-1.707,2.927-2.555,4.392-.87,1.453-1.693,2.934-2.655,4.329l-2.792,4.241c-.451.716-.96,1.393-1.459,2.076l-1.5,2.051c-1.938,2.775-4.117,5.366-6.229,8-.519.668-1.077,1.3-1.643,1.93l-1.682,1.9-1.682,1.895-.845.944-.885.906-3.54,3.624-.886.9-.927.863-1.853,1.725-1.853,1.724-.926.862-.966.818-3.865,3.266-.966.816-1,.773-2.008,1.538-2.007,1.538c-.664.517-1.335,1.027-2.037,1.5-2.775,1.914-5.5,3.9-8.391,5.631l-2.14,1.342c-.714.446-1.419.906-2.162,1.3l-4.4,2.473c-1.45.855-2.975,1.572-4.477,2.33-1.512.739-3,1.533-4.528,2.226l-4.612,2.044c-.773.331-1.527.7-2.314,1l-2.352.91c-1.57.6-3.13,1.227-4.708,1.8l-4.786,1.584-2.394.788-2.429.673-4.857,1.345A166.388,166.388,0,0,1,160.668,464.167Zm0-.49a163.321,163.321,0,0,0,39.705-5.15l4.816-1.4,2.407-.7,2.371-.816,4.738-1.638c1.561-.595,3.1-1.239,4.656-1.855l2.324-.935c.778-.3,1.523-.686,2.286-1.025l4.549-2.1c1.507-.718,2.965-1.537,4.449-2.3,1.475-.783,2.972-1.522,4.393-2.4l4.314-2.539c.728-.408,1.418-.878,2.116-1.335l2.093-1.371c2.828-1.771,5.488-3.789,8.187-5.742.682-.479,1.333-1,1.978-1.527L258,429.274l1.945-1.568.97-.787.934-.83,3.735-3.317.933-.83.893-.873,1.785-1.745,1.785-1.744.892-.872.851-.913,3.4-3.653.85-.913.808-.949,1.609-1.905,1.609-1.9c.541-.63,1.075-1.267,1.569-1.936,2.013-2.645,4.089-5.239,5.925-8.01l1.418-2.047c.472-.682.955-1.357,1.38-2.071l2.634-4.224c.909-1.388,1.679-2.86,2.5-4.3.8-1.455,1.649-2.878,2.4-4.358,1.448-2.983,3.027-5.9,4.286-8.968.655-1.521,1.346-3.026,1.971-4.559l1.772-4.639c.292-.774.6-1.541.879-2.321l.773-2.359,1.548-4.714,1.311-4.785.656-2.391c.2-.8.364-1.613.548-2.419l1.071-4.841c.334-1.617.566-3.256.856-4.882.635-3.244.955-6.536,1.365-9.813.239-1.635.282-3.29.418-4.935.1-1.648.259-3.293.321-4.943l.1-4.953.049-2.476-.012-2.512-.044-10.055-.051-20.11-.1-40.219V192.413l.007-20.11.02-10.055.006-2.512-.056-2.473-.109-4.946a160.7,160.7,0,0,0-6.7-38.909l-1.572-4.693-.786-2.348c-.279-.776-.595-1.538-.891-2.309l-1.8-4.612c-.637-1.522-1.34-3.016-2.007-4.526-1.283-3.045-2.884-5.938-4.353-8.895-.757-1.467-1.621-2.876-2.425-4.318-.826-1.429-1.606-2.887-2.524-4.261l-2.661-4.179c-.429-.706-.916-1.374-1.393-2.048L287.849,69.2c-1.851-2.74-3.941-5.3-5.966-7.912-.5-.661-1.033-1.289-1.577-1.911l-1.618-1.878-1.616-1.878-.812-.937-.853-.9L272,50.177l-.853-.9-.894-.859L268.468,46.7l-1.787-1.719-.893-.86-.933-.816-3.735-3.264-.933-.816-.969-.774-1.943-1.541-1.943-1.542c-.644-.519-1.294-1.031-1.975-1.5-2.692-1.921-5.342-3.906-8.154-5.652l-2.08-1.354c-.694-.45-1.38-.914-2.1-1.316l-4.287-2.5c-1.412-.866-2.9-1.594-4.365-2.364-1.474-.751-2.923-1.558-4.42-2.265l-4.513-2.076c-.756-.336-1.495-.715-2.266-1.016l-2.305-.926c-1.539-.611-3.067-1.254-4.614-1.847l-4.7-1.632L207.2,10.1l-2.386-.7L200.045,8a157.492,157.492,0,0,0-78.911-.6A155.84,155.84,0,0,0,84.052,22.05l-4.346,2.476c-.733.4-1.429.857-2.133,1.3L75.461,27.17c-2.854,1.73-5.531,3.725-8.258,5.644-.69.47-1.348.982-2,1.5l-1.969,1.543L61.265,37.4l-.982.775-.946.818L55.55,42.265l-.946.818-.906.862-1.813,1.723-1.813,1.724-.906.862-.865.9-3.454,3.621-.862.907-.821.944-1.635,1.894-1.634,1.894c-.55.627-1.093,1.26-1.595,1.927-2.047,2.633-4.16,5.216-6.033,7.98l-1.446,2.041c-.481.68-.974,1.354-1.409,2.066l-2.692,4.216c-.927,1.387-1.72,2.856-2.552,4.3-.81,1.458-1.678,2.883-2.439,4.366-1.477,2.989-3.086,5.913-4.375,8.99-.669,1.526-1.376,3.036-2.015,4.574l-1.808,4.66c-.3.778-.614,1.549-.894,2.333l-.788,2.371-1.565,4.744a161.988,161.988,0,0,0-6.531,39.275l-.081,4.984-.041,2.491.02,2.513L3.746,172.3l.19,20.109.3,40.219c.053,13.406.153,26.812.142,40.219l.02,20.109-.015,10.054-.006,2.513.055,2.479.109,4.959c.066,1.652.226,3.3.334,4.948.14,1.647.188,3.3.432,4.94.419,3.28.748,6.574,1.392,9.82.293,1.627.528,3.266.865,4.884l1.08,4.843c.186.806.347,1.619.553,2.419l.66,2.392L11.182,352l1.557,4.715.778,2.359c.276.78.59,1.546.883,2.321l1.782,4.638c.628,1.532,1.322,3.037,1.979,4.558,1.265,3.067,2.85,5.983,4.3,8.965.75,1.479,1.606,2.9,2.4,4.355.819,1.442,1.592,2.913,2.5,4.3l2.64,4.222c.425.713.908,1.389,1.38,2.071l1.418,2.048c1.836,2.772,3.912,5.367,5.926,8.013.494.669,1.028,1.306,1.569,1.937l1.61,1.9,1.61,1.905.808.95.849.913,3.4,3.655.851.913.893.872,1.786,1.744L53.9,421.1l.894.873.933.83,3.737,3.317.935.83.97.787,1.946,1.568,1.947,1.569c.646.529,1.3,1.049,1.979,1.528,2.7,1.954,5.361,3.971,8.191,5.742l2.093,1.372c.7.456,1.389.926,2.117,1.335l4.315,2.539c1.422.878,2.92,1.617,4.394,2.4,1.485.763,2.943,1.581,4.451,2.3l4.551,2.1c.764.339,1.508.72,2.287,1.024l2.326.934c1.553.616,3.1,1.26,4.658,1.855l4.739,1.636,2.371.815,2.408.7,4.817,1.4A163.238,163.238,0,0,0,160.668,463.677Z" fill="#fff"/>
</svg>
