<svg id="_Path_" data-name="&lt;Path&gt;" xmlns="http://www.w3.org/2000/svg" width="141.571" height="109.447" viewBox="0 0 141.571 109.447">
  <path id="Union_58" data-name="Union 58" d="M0,0V101.141a41.525,41.525,0,0,0,55.315-9.477,42.46,42.46,0,0,0,8.963-27.6A26.869,26.869,0,0,0,80.131,41.321a27.218,27.218,0,0,0-.314-6.406,49.5,49.5,0,0,0,51.864-17.5A50.341,50.341,0,0,0,140.482,0Z" transform="translate(0 0)" fill="#fff"/>
  <path id="Union_59" data-name="Union 59" d="M139.371,0a49.322,49.322,0,0,1-2.262,6.139,49.468,49.468,0,0,1-9.718,14.207,48.323,48.323,0,0,1-13.864,9.988,49.119,49.119,0,0,1-16.4,4.488,51.112,51.112,0,0,1-16.906-1.441l-2.356-.609.408,2.408a25.3,25.3,0,0,1,.014,8.355,25.839,25.839,0,0,1-2.6,7.935,25.989,25.989,0,0,1-11.92,11.415l-.785.379.023.845v.023A43.656,43.656,0,0,1,61.3,76.613,41.343,41.343,0,0,1,36.865,103.35a40.238,40.238,0,0,1-35.84-3.32Q.507,99.7,0,99.358v3.585a42.617,42.617,0,0,0,38.082,3.62,42.271,42.271,0,0,0,6.066-2.928A40.883,40.883,0,0,0,49.7,99.8a40.586,40.586,0,0,0,4.872-4.676,42.9,42.9,0,0,0,4.105-5.365,43.48,43.48,0,0,0,6.909-24.864A28.144,28.144,0,0,0,81.66,36.981a51.206,51.206,0,0,0,15.751.9A52.027,52.027,0,0,0,114.744,32.9a50.737,50.737,0,0,0,14.507-10.737A51.952,51.952,0,0,0,139.163,7.06,50.759,50.759,0,0,0,141.571,0Z" transform="translate(0 0)" fill="#1a1818"/>
  <path id="Union_60" data-name="Union 60" d="M.224,14.293c.463.353.885.728,1.316,1.085.447.336.872.691,1.316,1a14.928,14.928,0,0,0,2.713,1.549,7.5,7.5,0,0,0,2.79.541,8.507,8.507,0,0,0,2.766-.561,14.37,14.37,0,0,0,5.335-3.426,17.056,17.056,0,0,0,3.533-5.624l.209-.535.651.228a33.078,33.078,0,0,0,6.872,1.585l.848.088.843.018a6.656,6.656,0,0,0,.835-.016c.276-.019.555-.014.827-.051a14.615,14.615,0,0,0,3.16-.714A13.671,13.671,0,0,0,39.7,5.87,25.274,25.274,0,0,0,43.762,0l.273.067a13.824,13.824,0,0,1-.82,3.745A14.428,14.428,0,0,1,42.451,5.6a14.084,14.084,0,0,1-.987,1.7,12.845,12.845,0,0,1-6.213,5.029,12.416,12.416,0,0,1-3.993.755c-.336.019-.669-.006-1-.008a7.237,7.237,0,0,1-.993-.067l-.984-.114-.963-.187a18.251,18.251,0,0,1-1.88-.492c-.614-.194-1.2-.457-1.8-.687l-1.7-.853L20.3,9.738l.859-.306c-1.262,2-2.569,3.832-3.938,5.708a29.455,29.455,0,0,1-2.213,2.754,10.723,10.723,0,0,1-2.913,2.26,7.6,7.6,0,0,1-3.781.823,8.142,8.142,0,0,1-3.7-1.1,10.989,10.989,0,0,1-2.752-2.413A16.369,16.369,0,0,1,.82,16.021c-.3-.511-.57-1.03-.82-1.557Z" transform="translate(13.858 26.762)" fill="#1a1818"/>
  <path id="Union_61" data-name="Union 61" d="M116.927,0C105.8,11.362,84.587,29.089,69.87,17.225c0,0-3.27,27.793-20.217,33.632,0,0-2.3,34.152-30.754,26.717,0,0-3.973,21.952-18.9,13.891v9.675a41.525,41.525,0,0,0,55.315-9.477,42.46,42.46,0,0,0,8.963-27.6A26.869,26.869,0,0,0,80.131,41.321a27.218,27.218,0,0,0-.314-6.406,49.5,49.5,0,0,0,51.864-17.5A50.341,50.341,0,0,0,140.482,0Z" transform="translate(0 0)" fill="#040505" opacity="0.1" style="mix-blend-mode: multiply;isolation: isolate"/>
</svg>
