<svg xmlns="http://www.w3.org/2000/svg" xmlns:xlink="http://www.w3.org/1999/xlink" width="210.525" height="104.285" viewBox="0 0 210.525 104.285">
  <defs>
    <filter id="BUY_IT_" x="9.065" y="0" width="201.46" height="104.285" filterUnits="userSpaceOnUse">
      <feOffset dx="28.579" dy="16.5" input="SourceAlpha"/>
      <feGaussianBlur result="blur"/>
      <feFlood/>
      <feComposite operator="in" in2="blur"/>
      <feComposite in="SourceGraphic"/>
    </filter>
  </defs>
  <g id="Group_1" data-name="Group 1" transform="translate(-145.917 -188.38)">
    <g id="burst" transform="translate(146 209.117) rotate(-3)">
      <g id="burst-2" data-name="burst" transform="translate(0 0)">
        <path id="Path_28530" data-name="Path 28530" d="M316.569,2928.9l-8.439-7.748-7.156,9.939-6.94-9.567L278.2,2934.351l2.223-13.608-13,6.418.456-8.32-27.1,9.838,16.182-12.776-19.6,3.927,10.784-7.771-33.671,5.148,27.339-9.734-34.808,2.41,31.232-7.535-34.419-.432,53.348-2.088-32.536-3.255,15.246-5.184-29.221-5.937,46.086.825-24.636-8.359,29.45,5.736L242.59,2873.24l20.229,3.494-12.473-12.018L274.7,2873.2l-5.435-13.094,18.647,10.513,4.931-5.869,12.114,12.088,3.907-15.635,7.1,7.534L331.8,2855.9l-2.223,13.608,21.947-11.586-9.408,13.487,21.5-6.566-10.59,9.5,31.064-7.661-22.244,11.505,22.775-2.014-16.445,6.6,34.808-2.411-31.232,7.535,20.717,3.05-20.066,2.391,22.228,5.438-24.517.08,18.477,6.621-23.618-1.266,12.911,8.116-32.393-3.4,30.694,10.659-29.011-6.073,12.473,12.018L335.3,2917.06l5.437,13.094-18.649-10.513Z" transform="translate(-203.822 -2855.904)" fill="#fff" stroke="#1a1818" stroke-miterlimit="10" stroke-width="1"/>
      </g>
      <path id="Color_Overlay" data-name="Color Overlay" d="M76.6,64.839l-13,6.418.456-8.319-27.1,9.838L53.146,60l-19.6,3.927,10.784-7.771-33.67,5.148L38,51.571,3.187,53.982l31.232-7.536L0,46.015l53.347-2.088L20.812,40.672l15.246-5.184L6.837,29.551l46.086.825L28.287,22.017l29.45,5.736L38.768,17.336,59,20.831,46.524,8.813l24.357,8.478L65.445,4.2,84.093,14.709l4.931-5.869,12.114,12.088,3.907-15.636,7.1,7.534L127.976,0l-2.223,13.608L147.7,2.022l-9.408,13.487,21.5-6.566-10.59,9.5,31.064-7.661L158.028,22.29,180.8,20.277l-16.444,6.6,34.808-2.411L167.935,32l20.717,3.05-20.066,2.391,22.228,5.438-24.517.08,18.477,6.621-23.618-1.266,12.911,8.116-32.393-3.4,30.694,10.66-29.011-6.072,12.473,12.018-24.357-8.478L136.91,74.25,118.262,63.738,112.748,73l-8.439-7.748-7.156,9.94-6.94-9.567L74.378,78.447Z" transform="translate(0)" fill="#fff60b" style="mix-blend-mode: darken;isolation: isolate"/>
    </g>
    <g transform="matrix(1, 0, 0, 1, 145.92, 188.38)" filter="url(#BUY_IT_)">
      <text id="BUY_IT_2" data-name="BUY IT!" transform="matrix(0.99, -0.12, 0.12, 0.99, 98, 65.25)" font-size="52" font-family="SegoeUI, Segoe UI"><tspan x="-82.189" y="0">BUY IT!</tspan></text>
    </g>
    <path id="Color_Overlay-2" data-name="Color Overlay" d="M1.531,17.331q1.585-.441,5.894-2.069a53.378,53.378,0,0,1,6.018-1.879q.9-.156,1.759-.257,6.658-.777,7.161,3.97.783,6.708-6.705,14.382Q20.811,30.52,22,33.7a7.01,7.01,0,0,1,.322,1.445q.442,3.783-2.736,8.091a27.789,27.789,0,0,1-6.247,6.047A22.89,22.89,0,0,1,2.41,53.323q-1.009.118-2.023.185.76-10.57,1.093-28.3Q1.608,20.185,1.531,17.331Zm7.8,20.358q-.18,1.964-.251,5.3,6.859-3,6.535-5.773-.118-1.009-1.883-.8A19.619,19.619,0,0,0,9.327,37.689Zm1.2-13.841q-.209,1.712-.368,3.417l-.317,3.411a14.061,14.061,0,0,0,4.633-5.858,2.432,2.432,0,0,0,.229-1.1q-.1-.857-1.412-.7A11.455,11.455,0,0,0,10.523,23.847Zm14.545-9.418L33.5,11.808q-1.937,13.621-2.377,24.307l4.556-2.577,1.187-20.487,8.437-2.621a263.946,263.946,0,0,0-2.716,35.85L34.78,49.442l.355-5.716q-4.019,2.361-12.158,7.094Zm34.513-4.8,8.286.464a306.975,306.975,0,0,0-13.21,36.615l-7.826.4,4.033-11.872-6.6-19.782,9.306-5.688q.12,2.338.475,5.824a53.99,53.99,0,0,0,1.166,6.919ZM77.222,8.34l8.487-2.627a252.646,252.646,0,0,0-2.767,35.856l-7.761,3.156Zm28.553-5.481.793,9.417q-3.507.614-6.649,1.288a195.627,195.627,0,0,0-1.492,26.2l-8.265,3.215L91.669,15.6q-1.338.361-2.671.772l-2.614.816L84.677,7.828Zm3.949,29.448a4.891,4.891,0,0,1,3.186.139,2.673,2.673,0,0,1,1.908,2.333,5.436,5.436,0,0,1-1.977,4.525,8.534,8.534,0,0,1-3.974,2.3,5.29,5.29,0,0,1-3.174-.038,2.68,2.68,0,0,1-1.858-2.339,5.628,5.628,0,0,1,1.87-4.564A8.359,8.359,0,0,1,109.724,32.307ZM111.761.269,122.509.8q-3.309,8-4.781,12.471a100.321,100.321,0,0,0-3.275,13.113l-7.046.516Z" transform="translate(190.492 216.186)" fill="red"/>
  </g>
</svg>
