<svg xmlns="http://www.w3.org/2000/svg" xmlns:xlink="http://www.w3.org/1999/xlink" width="1920" height="1080" viewBox="0 0 1920 1080">
  <defs>
    <radialGradient id="radial-gradient" cx="0.5" cy="0.5" r="0.872" gradientTransform="translate(0.216) scale(0.568 1)" gradientUnits="objectBoundingBox">
      <stop offset="0" stop-color="#f9ed40"/>
      <stop offset="0.778" stop-color="#f9ae40"/>
      <stop offset="1" stop-color="#f9ae40"/>
    </radialGradient>
    <clipPath id="clip-path">
      <path id="Shape" d="M-215.886,1268.159V216.5H1675.837s4.816,193,0,1051.657C1688.467,1261.038-215.886,1268.159-215.886,1268.159Z" transform="translate(11046.092 -1151.429)" stroke="#262262" stroke-width="15" fill="url(#radial-gradient)"/>
    </clipPath>
    <clipPath id="clip-introduction">
      <rect width="1920" height="1080"/>
    </clipPath>
  </defs>
  <g id="introduction" clip-path="url(#clip-introduction)">
    <g id="Mask_Group_22" data-name="Mask Group 22" transform="translate(-10813.717 951)" clip-path="url(#clip-path)">
      <path id="Shape-2" data-name="Shape" d="M1272.365,2197.394l-11.029-602.833,112.7,663.158Zm-430.682-43.168L1068.9,1552.388,943.356,2214.551Zm203-12.024,107.444-521.753,5.095,549.724Zm438.178-9.738-120.927-563.958,208.25,591.863Zm-42.213-622.7,326.458,545.724s-77.51,26.324-82.706,27.816a.076.076,0,0,1-.021,0C1678.568,2083.25,1440.653,1509.76,1440.653,1509.76Zm-992.768,456.1,505-549.463L547.826,2028.622ZM719.1,1925.923l288.023-441.665-208.75,474.317Zm795.551-445.134,413.58,408.641-54.6,48.974Zm-1277.8,301.169,635.994-390.683L336.788,1844.718ZM1569.32,1394.031l519.564,358.706-54.6,48.977ZM107.938,1601.852,781.6,1352.317l-589.115,329.4Zm1518.4-263.989,590.112,231.656-60.009,106.158ZM119.558,1389l581.668-108-529.07,204.348ZM1676.74,1269.045s635.994,95.042,635.482,100.062-12.436,80.718-12.436,80.718ZM0,1223.326l723.524-33.637-638.978,113.5Zm1679.463-43.646,620.432-5.853,84.546,79.862ZM62.637,1025.464l667.8,67.637L110,1098.953Zm2303.226-53.3,84.547,79.862L1677.33,1093.4ZM120.637,906.076c.514-5.018,12.436-80.717,12.436-80.717l643.281,184.308S120.126,911.1,120.637,906.076ZM2259.349,767.668l52.6,96.348-581.667,108ZM234.912,704.753,275.456,645.2,791.795,936.613ZM2230.458,581.072,2315,660.933,1641.343,910.468ZM346.374,531.031l40.544-59.557L872.23,869.252ZM1924.993,280.85l86.764,77.794L1448.1,851.473Zm113.162,197.1,50.729,65.213L1617.791,834.4ZM454.471,394.414,554.3,318.232l365.574,487.8ZM1700.033,109.5,1786.8,187.3l-369.11,579.119ZM658.666,205.829s77.513-26.323,82.707-27.817,235.878,555.91,235.878,555.91Zm194.8-104.678,101.672,60.325,120.927,563.958ZM1052.95,0l101.672,60.325,13.006,649.365Zm423.487,29.648,101.671,60.325L1350.888,691.809ZM1262.565,74.027,1375.1,102,1267.661,623.75Z" transform="translate(10552.816 -1480.41)" fill="#88e145"/>
    </g>
    <path id="Shape-3" data-name="Shape" d="M84.286,129.351a60.572,60.572,0,0,0,8.81-41.1,60.5,60.5,0,0,0,41.749,4.8,60.5,60.5,0,0,0-8.787,41.1A60.506,60.506,0,0,0,84.286,129.351ZM0,67.814a38.959,38.959,0,0,0,5.666-26.43,38.908,38.908,0,0,0,26.85,3.086A38.916,38.916,0,0,0,26.864,70.9,38.91,38.91,0,0,0,0,67.814ZM115.778,44.292A65.28,65.28,0,0,0,125.274,0a65.208,65.208,0,0,0,45,5.17,65.215,65.215,0,0,0-9.471,44.3A65.212,65.212,0,0,0,115.778,44.292Z" transform="translate(566.602 80.723)" fill="#fff"/>
    <path id="Shape-4" data-name="Shape" d="M83.16,139.128a58.621,58.621,0,0,0-2.794-40.649,58.707,58.707,0,0,0,40.719,1.11,58.614,58.614,0,0,0,2.793,40.627A58.645,58.645,0,0,0,83.16,139.128ZM2.592,122.344A54.388,54.388,0,0,0,0,84.628a54.474,54.474,0,0,0,37.78,1.029,54.382,54.382,0,0,0,2.591,37.694A54.411,54.411,0,0,0,2.592,122.344ZM42.283,24.256A34.98,34.98,0,0,0,40.616,0a35.032,35.032,0,0,0,24.3.662A34.975,34.975,0,0,0,66.581,24.9,35,35,0,0,0,42.283,24.256Z" transform="translate(428.815 574.715)" fill="#fff"/>
    <path id="Shape-5" data-name="Shape" d="M0,501.158a59.235,59.235,0,0,0,7.539-40.447,59.21,59.21,0,0,0,40.992,3.657,59.3,59.3,0,0,0-7.561,40.443A59.207,59.207,0,0,0,0,501.158Zm124.112-38.88a35.355,35.355,0,0,0,4.5-24.135,35.326,35.326,0,0,0,24.46,2.182,35.386,35.386,0,0,0-4.512,24.134A35.333,35.333,0,0,0,124.112,462.278Zm-94.054-41.75A54.958,54.958,0,0,0,37.053,383a54.936,54.936,0,0,0,38.034,3.392,55.019,55.019,0,0,0-7.016,37.525A54.929,54.929,0,0,0,30.058,420.528Z" transform="translate(1245.398 261.822)" fill="#fff"/>
    <path id="Shape-6" data-name="Shape" d="M0,918.123c39.925-49,77.659-101.654,121.3-147.617L32.117,943.615Zm127.356,6.559c9.729-48.054,16.484-98.012,30.038-145.1l2.741,152.886ZM697.039,25.99l32.246,25.353L556.764,158.617C599.553,111.982,650.427,69.706,697.039,25.99ZM531.844,0l32.968,7.074L485.387,141.393C497.092,93.883,516.265,46.732,531.844,0Z" transform="translate(869.646 -31.675) rotate(25)" fill="#fff"/>
  </g>
</svg>
