<svg xmlns="http://www.w3.org/2000/svg" width="872.095" height="672.43" viewBox="0 0 872.095 672.43">
  <path id="Shape" d="M729.137,790.875C746,745.484,778.1,701.621,824.408,681.145c46.01-20.346,106.085-10.266,127.8,29.494-14.421-43.544.52-96.508,36.749-130.42,36.057-33.75,91.151-46.706,135.8-32.179C1057.629,496,1094,347.994,1172.5,295.853c-46.415,33.678-135.2,34.24-161.012,2.217-25.925-32.161-31.179-76-29.558-117.626-25.508,46.852-92.26,63.784-144.324,48.134-52.473-15.773-91.69-56.608-122.147-100.134.729,52.847-51.089,99.87-107.71,109.091-57.073,9.295-115.063-13.309-157.972-48.4,40.64,92.021-30.166,214.413-139.374,238.957,59.46,23.539,104.159,72.815,118.544,130.29,14.343,57.307-1.625,122.068-42.342,171.532,18.388-11.939,33.538-18.892,54.377-25.838,50.083-16.694,102.4-31.349,152.9-25.933C644.014,683.519,720.9,745.352,729.137,790.875Z" transform="translate(-305.408 -123.445)" fill="#fff" stroke="#262262" stroke-linejoin="round" stroke-width="10"/>
</svg>
