<svg xmlns="http://www.w3.org/2000/svg" width="410.878" height="257.032" viewBox="0 0 410.878 257.032">
  <g id="Shape" transform="translate(406.287 253.213) rotate(180)" fill="#fff8e5">
    <path d="M 38.5630989074707 248.2126922607422 C 34.95658493041992 248.2126922607422 31.70719528198242 248.0755920410156 28.6299991607666 247.7936248779297 C 24.99317359924316 247.5055847167969 21.16156578063965 246.9800109863281 16.21283721923828 246.0905914306641 L 16.14441680908203 246.0782623291016 L 16.076416015625 246.0641174316406 C 12.63952159881592 245.3472747802734 8.13199520111084 244.3194274902344 3.746100664138794 242.7206420898438 L 3.623205900192261 242.6758422851562 L 3.514548063278198 242.6296234130859 L 3.491889953613281 242.6202087402344 L 0.4091005325317383 241.3402709960938 L 0.4089952707290649 238.0023193359375 L 0.4089952707290649 74.60458374023438 L 0.4089952707290649 66.51442718505859 L 0.4089952707290649 6.181215763092041 L 0.4089952707290649 1.18121600151062 L 5.408995151519775 1.18121600151062 L 307.0610961914062 1.18121600151062 L 312.2818908691406 1.18121600151062 L 388.1754150390625 1.18121600151062 L 397.2314758300781 1.18121600151062 L 392.5048217773438 8.689189910888672 L 392.481689453125 8.730111122131348 L 392.479736328125 8.729020118713379 L 392.40673828125 8.845005035400391 C 387.6513671875 16.39868927001953 381.3182067871094 23.3189525604248 373.5830993652344 29.41358375549316 L 373.5690002441406 29.42469024658203 L 373.5547790527344 29.43574142456055 C 369.8505859375 32.31147766113281 365.8793640136719 34.82611083984375 361.7515258789062 36.90979385375977 C 357.5668640136719 39.02219772338867 353.2075500488281 40.69826126098633 348.7938842773438 41.89176940917969 C 346.7460327148438 42.47951507568359 344.7395935058594 42.85469055175781 342.798828125 43.21758270263672 C 342.5623779296875 43.26179504394531 342.3259887695312 43.30600357055664 342.0897216796875 43.3505859375 L 341.9209289550781 43.38242721557617 L 341.7503662109375 43.40258407592773 C 341.3178405761719 43.45374298095703 340.8893127441406 43.5076904296875 340.4356384277344 43.56479644775391 C 338.7097778320312 43.78207397460938 336.9266662597656 44.00653457641602 335.03466796875 44.05687713623047 C 334.1802978515625 44.12415313720703 333.2788391113281 44.15558624267578 332.2138366699219 44.15558624267578 C 331.4907836914062 44.15558624267578 330.78125 44.14121627807617 330.0950927734375 44.1273193359375 C 329.4863586425781 44.11495208740234 328.9114074707031 44.10332107543945 328.3418884277344 44.10137557983398 L 328.2072143554688 44.1009521484375 L 328.0727233886719 44.09321594238281 C 327.3312683105469 44.05074310302734 326.6131591796875 43.99005889892578 325.9186706542969 43.93137359619141 C 325.5257873535156 43.89816284179688 325.1547241210938 43.86679458618164 324.784423828125 43.83895111083984 L 324.7697448730469 43.83784866333008 L 324.7550048828125 43.83663558959961 L 323.1566162109375 43.70700454711914 L 322.9910583496094 43.69358444213867 L 322.8267211914062 43.66916275024414 L 321.2586059570312 43.4364013671875 C 314.5199279785156 42.48667144775391 307.6540222167969 40.64570236206055 300.77978515625 37.9490966796875 C 301.4349365234375 39.68828582763672 301.9782409667969 41.29224014282227 302.4371643066406 42.84188461303711 C 303.5074157714844 46.39345169067383 304.3261108398438 49.97552108764648 304.8707885742188 53.48947906494141 L 304.8707885742188 53.48947906494141 C 306.0130615234375 60.7083740234375 306.0819396972656 68.04700469970703 305.0755615234375 75.30152893066406 L 305.0734252929688 75.31684875488281 L 305.0711975097656 75.33216094970703 C 304.0425109863281 82.42479705810547 301.9089050292969 89.40626525878906 298.729736328125 96.08263397216797 L 298.7196350097656 96.10389709472656 L 298.7092590332031 96.12506103515625 C 295.6497802734375 102.3972396850586 291.5831298828125 108.4326858520508 286.6218872070312 114.0642547607422 C 281.7057800292969 119.699462890625 276.1314697265625 124.3776321411133 270.0540466308594 127.968376159668 C 266.9190368652344 129.8247222900391 263.6100158691406 131.3739624023438 260.2188415527344 132.5730590820312 C 256.7752685546875 133.7906951904297 253.2210998535156 134.6562652587891 249.6550445556641 135.1457366943359 L 249.6516265869141 135.1462097167969 L 249.6482543945312 135.1466827392578 C 247.1283569335938 135.4890594482422 244.533935546875 135.6626892089844 241.9370422363281 135.6627349853516 C 237.3557434082031 135.662841796875 232.6973266601562 135.1283264160156 228.0904693603516 134.0738525390625 L 228.0904693603516 134.0738525390625 C 224.6687774658203 133.2949523925781 221.1978302001953 132.2177429199219 217.7740020751953 130.8722686767578 C 216.0655975341797 130.2020874023438 214.3977203369141 129.4701080322266 212.8190002441406 128.6974639892578 C 212.024658203125 128.3155975341797 211.2144165039062 127.9005661010742 210.4102783203125 127.4637222290039 C 210.0310974121094 127.2605514526367 209.6309356689453 127.0375747680664 209.2469024658203 126.8162689208984 C 209.1559295654297 127.2455673217773 209.044189453125 127.732795715332 208.9154357910156 128.2174072265625 C 208.6868743896484 129.1409912109375 208.4208831787109 130.0199737548828 208.1856231689453 130.7972106933594 L 208.1740417480469 130.8355255126953 L 208.1618347167969 130.8736419677734 C 207.5956268310547 132.6419525146484 206.9276733398438 134.3817443847656 206.1766204833984 136.0446929931641 L 206.171630859375 136.0557403564453 L 206.1665802001953 136.0667877197266 C 204.4974212646484 139.7150115966797 202.5174102783203 142.9107360839844 200.2815704345703 145.5651702880859 C 197.7720489501953 148.5431060791016 195.0243377685547 151.0238037109375 192.1123504638672 152.9408569335938 C 191.4716339111328 153.3936004638672 190.8549957275391 153.7265167236328 190.3542633056641 153.9968414306641 C 190.1353149414062 154.1150512695312 189.9285278320312 154.2266845703125 189.7705688476562 154.3214721679688 L 189.7190551757812 154.3524322509766 L 189.6667785644531 154.3821105957031 C 189.5890502929688 154.42626953125 189.5114135742188 154.4706420898438 189.4337921142578 154.5150604248047 C 188.7459716796875 154.9085540771484 187.8978881835938 155.3936920166016 186.8805389404297 155.7752532958984 L 184.7645263671875 156.6715850830078 L 184.7191467285156 156.6907958984375 L 184.6734161376953 156.7091064453125 C 183.9215698242188 157.0102691650391 183.2003173828125 157.2043151855469 182.6207275390625 157.3602752685547 C 182.3691558837891 157.4279479980469 182.1314697265625 157.4918975830078 181.9374237060547 157.5521087646484 L 181.8468322753906 157.5802154541016 L 181.7553100585938 157.6048431396484 C 181.5208435058594 157.6679992675781 181.2659454345703 157.7433166503906 180.99609375 157.8231048583984 C 180.4474639892578 157.9852752685547 179.82568359375 158.1690521240234 179.1428375244141 158.3187408447266 L 179.0286865234375 158.3437347412109 L 178.9134674072266 158.3634338378906 L 176.4859161376953 158.7777709960938 L 175.2827911376953 158.9892120361328 L 175.1956329345703 159.0045318603516 L 175.1080017089844 159.0167388916016 C 174.6380004882812 159.0823211669922 174.2307281494141 159.10400390625 173.9035186767578 159.1213684082031 C 173.785888671875 159.1276397705078 173.6747894287109 159.1335906982422 173.5959930419922 159.1399993896484 L 173.5571594238281 159.1431579589844 L 173.518310546875 159.1457366943359 L 171.0595245361328 159.3076934814453 L 170.8617248535156 159.3206939697266 L 170.66357421875 159.3180084228516 C 167.4007415771484 159.2740783691406 163.5447998046875 159.0829925537109 159.6680450439453 158.0021820068359 C 155.9808349609375 157.0404663085938 152.5108642578125 155.7001037597656 149.3537292480469 154.0179595947266 L 149.337890625 154.0094757080078 L 149.3220977783203 154.0009460449219 C 147.5222320556641 153.0252685546875 145.9748229980469 152.0801086425781 144.5924987792969 151.1121063232422 C 143.9290618896484 150.6591186523438 143.2617340087891 150.1703338623047 142.6045227050781 149.6560821533203 C 142.6643524169922 150.6404266357422 142.7032165527344 151.6457061767578 142.7200469970703 152.6459503173828 L 142.7201080322266 152.650634765625 L 142.7201538085938 152.6553192138672 C 142.7550659179688 154.9915466308594 142.7186889648438 156.9510192871094 142.6056976318359 158.8191833496094 C 142.3957061767578 162.8548583984375 141.8943634033203 166.9696197509766 141.1155700683594 171.0500640869141 C 139.59130859375 179.0916137695312 136.9758453369141 186.946533203125 133.3419036865234 194.3959045410156 C 131.717529296875 197.7406463623047 129.6729888916016 201.2359008789062 127.0913619995117 205.0815887451172 L 127.0795211791992 205.0992736816406 L 127.0675201416016 205.1167907714844 C 124.8873672485352 208.3055267333984 122.3699951171875 211.4775848388672 119.3716812133789 214.8141174316406 L 119.3519439697266 214.8360595703125 L 119.3319931030273 214.8577423095703 C 113.9451370239258 220.7118682861328 107.6052322387695 226.0806427001953 100.488410949707 230.8150024414062 L 100.4884185791016 230.8150024414062 C 100.3729934692383 230.8921051025391 100.2487869262695 230.9774780273438 100.1173095703125 231.0677947998047 C 99.82830810546875 231.2664337158203 99.50078582763672 231.4914855957031 99.13573455810547 231.7190551757812 L 98.97952270507812 231.8164215087891 L 98.81662750244141 231.9020080566406 L 97.50804901123047 232.5896301269531 L 94.89125823974609 233.9663696289062 L 94.8734130859375 233.9757385253906 L 94.85552215576172 233.9850006103516 C 94.24946594238281 234.2976379394531 93.65004730224609 234.6171569824219 93.01547241210938 234.9553680419922 C 91.87683868408203 235.5623168945312 90.69941711425781 236.1898956298828 89.46841430664062 236.7817993164062 L 89.36509704589844 236.8314208984375 L 89.25962829589844 236.8763275146484 L 83.77773284912109 239.2091674804688 L 81.03815460205078 240.3781585693359 L 80.85578155517578 240.4559478759766 L 80.66778564453125 240.5191040039062 L 77.85335540771484 241.4644012451172 L 77.85336303710938 241.4644317626953 L 72.19773101806641 243.376953125 L 72.01894378662109 243.4373779296875 L 71.83609771728516 243.4842224121094 L 66.04999542236328 244.9655914306641 L 66.01720428466797 244.9739532470703 L 65.98431396484375 244.9819030761719 C 65.68614959716797 245.053955078125 65.37531280517578 245.1353149414062 65.04620361328125 245.2214813232422 C 64.39225769042969 245.3926391601562 63.65110015869141 245.5866394042969 62.8681526184082 245.7402191162109 L 62.82099533081055 245.7494812011719 L 62.77362823486328 245.7578430175781 L 59.82788848876953 246.2771148681641 L 56.91461181640625 246.7919769287109 C 55.99148559570312 246.9675445556641 54.78100967407227 247.1786193847656 53.50671768188477 247.2810211181641 L 47.60494232177734 247.8998413085938 L 47.45436477661133 247.9156341552734 L 47.30304718017578 247.9222717285156 L 41.30362701416016 248.1859588623047 L 41.23604965209961 248.1889495849609 L 41.16836547851562 248.1901092529297 C 40.27867889404297 248.2050628662109 39.402099609375 248.2126922607422 38.5630989074707 248.2126922607422 Z" stroke="none"/>
    <path d="M 38.56308746337891 243.2128295898438 C 39.40396881103516 243.2128295898438 40.24426651000977 243.2048950195312 41.08396911621094 243.1907806396484 L 47.08338165283203 242.92724609375 L 53.04867553710938 242.3016662597656 C 54.04397201538086 242.2251892089844 55.02956008911133 242.0613708496094 56.01161575317383 241.8740081787109 L 61.90573501586914 240.8337249755859 C 62.88308715820312 240.6419525146484 63.84161758422852 240.3557739257812 64.80985260009766 240.1219482421875 L 70.59603118896484 238.6404876708984 L 79.07573699951172 235.7793121337891 L 87.30191040039062 232.2754821777344 C 89.08573150634766 231.4178314208984 90.80809020996094 230.4469604492188 92.56308746337891 229.5413665771484 L 96.49073791503906 227.4757690429688 C 96.9066162109375 227.2166595458984 97.30338287353516 226.9295959472656 97.71044158935547 226.6578369140625 C 104.2245559692383 222.3251953125 110.3607330322266 217.2231292724609 115.6527938842773 211.4722442626953 C 118.2698516845703 208.5596008300781 120.7360305786133 205.5187225341797 122.9401473999023 202.2948913574219 C 125.1142654418945 199.0557708740234 127.142204284668 195.7166595458984 128.8448486328125 192.2101898193359 C 132.2604370117188 185.2101898193359 134.7542572021484 177.7651824951172 136.2042694091797 170.1125335693359 C 136.9339752197266 166.2884216308594 137.4127960205078 162.4148864746094 137.6136779785156 158.5366516113281 C 137.7316131591797 156.5981292724609 137.7495574951172 154.6578369140625 137.7207336425781 152.7298889160156 C 137.7045593261719 151.7660675048828 137.6666107177734 150.8049011230469 137.6072082519531 149.8554840087891 C 137.5551452636719 148.9284210205078 137.4586791992188 147.9051818847656 137.3598480224609 147.138427734375 L 136.9610290527344 144.0728302001953 L 135.3195648193359 144.9098968505859 C 134.4995574951172 145.3384246826172 133.5807342529297 145.565185546875 132.7122039794922 145.8890075683594 C 130.9707336425781 146.5596008300781 129.1122131347656 146.7998962402344 127.291618347168 147.1240081787109 C 123.6042785644531 147.4631500244141 119.919563293457 147.1804962158203 116.4610290527344 146.2660675048828 C 109.5983810424805 144.3069458007812 103.557502746582 140.4854888916016 99.17279052734375 135.3166656494141 C 105.2307357788086 138.2293090820312 111.3939743041992 140.3072509765625 117.4751434326172 141.0516662597656 C 120.5207443237305 141.3557434082031 123.4980926513672 141.2531433105469 126.3698501586914 140.7816619873047 C 127.7730865478516 140.3919525146484 129.2157287597656 140.2028350830078 130.5369110107422 139.5810699462891 C 131.2027893066406 139.3010711669922 131.9166107177734 139.1507720947266 132.551025390625 138.7898864746094 L 134.476318359375 137.7657775878906 C 135.0216217041016 137.5316619873047 135.5227966308594 137.1904754638672 136.0225067138672 136.8440093994141 L 136.0207366943359 136.8269500732422 L 136.0313262939453 136.8378295898438 C 136.1392669677734 136.7631225585938 136.2483825683594 136.6910705566406 136.3563232421875 136.6172485351562 L 138.1969146728516 135.365478515625 L 139.888671875 133.9381256103516 C 140.1678009033203 133.6957702636719 140.4683837890625 133.4745941162109 140.7322082519531 133.216064453125 L 141.4980926513672 132.4169464111328 C 143.6380920410156 130.3648986816406 145.3519134521484 127.8881301879883 146.8430938720703 125.2322463989258 C 149.8266143798828 119.8881301879883 151.5322113037109 113.6134262084961 152.2916107177734 106.9425430297852 C 154.3213195800781 113.4054794311523 154.1304473876953 120.6837158203125 151.6707305908203 127.4004821777344 C 150.4330902099609 130.7431335449219 148.6492614746094 133.9954833984375 146.2157287597656 136.7269592285156 L 145.3327941894531 137.7793121337891 C 145.0225067138672 138.1131286621094 144.6739654541016 138.4093017578125 144.3445587158203 138.72607421875 L 142.3295593261719 140.5890045166016 C 141.9057312011719 140.9148864746094 141.4627990722656 141.2172393798828 141.0245513916016 141.5248870849609 L 143.68603515625 144.0234222412109 C 144.1286773681641 144.4393005371094 144.8154449462891 145.0340118408203 145.4380950927734 145.5228424072266 C 146.0816192626953 146.0357818603516 146.7460327148438 146.5290069580078 147.4354400634766 146.9987182617188 C 148.7986755371094 147.9554748535156 150.2386779785156 148.8104858398438 151.7048492431641 149.6051940917969 C 154.6524963378906 151.17578125 157.7807312011719 152.3457794189453 160.9704437255859 153.1746063232422 C 164.1572113037109 154.0693054199219 167.4595642089844 154.2743072509766 170.7310333251953 154.3184204101562 L 173.1895599365234 154.1563720703125 C 173.598388671875 154.1231231689453 174.0104370117188 154.1213684082031 174.4172058105469 154.0646057128906 L 178.0722045898438 153.4346008300781 C 178.8769073486328 153.2584228515625 179.6598510742188 152.9910736083984 180.4554443359375 152.7769470214844 C 181.2383880615234 152.5337219238281 182.0636749267578 152.3681335449219 182.8142700195312 152.0675354003906 L 185.0410308837891 151.1243133544922 C 185.8013305664062 150.8516540527344 186.4954376220703 150.4331359863281 187.1972045898438 150.0346069335938 C 187.8883819580078 149.6195983886719 188.6336822509766 149.2884216308594 189.2863159179688 148.8148956298828 C 191.9880828857422 147.0493011474609 194.3648529052734 144.8272399902344 196.4575042724609 142.3440093994141 C 198.5533752441406 139.8554840087891 200.2436828613281 136.9943084716797 201.6198577880859 133.9866638183594 C 202.301025390625 132.4781341552734 202.8951416015625 130.92578125 203.400146484375 129.3490142822266 C 203.6392669677734 128.5578308105469 203.8777923583984 127.7657775878906 204.0722045898438 126.9737167358398 C 204.276611328125 126.2125396728516 204.4548492431641 125.3257751464844 204.5574951171875 124.739013671875 L 205.6148529052734 118.643424987793 L 210.7592620849609 121.8943023681641 C 211.2983856201172 122.2343063354492 212.0830841064453 122.6881256103516 212.7860260009766 123.0643081665039 C 213.5077972412109 123.456657409668 214.2504425048828 123.8381271362305 215.0019073486328 124.1990127563477 C 216.5013275146484 124.9334259033203 218.0404357910156 125.6057739257812 219.6027984619141 126.2187194824219 C 222.7266235351562 127.4463653564453 225.9386749267578 128.4560699462891 229.200439453125 129.1987152099609 C 235.7207489013672 130.6916656494141 242.4436645507812 131.0796356201172 248.9751434326172 130.1922454833984 C 255.5054473876953 129.2957763671875 261.8045654296875 127.0431289672852 267.5107421875 123.6637191772461 C 273.2228088378906 120.2887191772461 278.398681640625 115.8875427246094 282.8681030273438 110.7610702514648 C 287.3736877441406 105.6475448608398 291.2498474121094 100.0125427246094 294.2154541015625 93.93312835693359 C 297.1216125488281 87.83018493652344 299.150146484375 81.32225036621094 300.1230773925781 74.61460113525391 C 301.0536804199219 67.90577697753906 301.0013122558594 61.02812957763672 299.9322204589844 54.27077484130859 C 299.4092712402344 50.89224624633789 298.6333923339844 47.54607009887695 297.6445617675781 44.26636505126953 C 297.1583862304688 42.62489318847656 296.5951538085938 41.00754165649414 295.9874877929688 39.41283416748047 C 295.3945617675781 37.8431282043457 294.7013244628906 36.19077682495117 294.013671875 34.8237190246582 L 293.0075073242188 32.82312774658203 C 290.5245666503906 33.7210693359375 287.9080810546875 33.97665786743164 285.3674926757812 33.98312759399414 L 283.2769165039062 33.87960052490234 L 281.2292785644531 33.57812881469727 C 280.5398559570312 33.4925422668457 279.8783874511719 33.32695388793945 279.2142639160156 33.16312789916992 C 278.5545654296875 32.98960113525391 277.8704528808594 32.87518692016602 277.2351379394531 32.63312911987305 C 274.6278076171875 31.83224678039551 272.1457214355469 30.71518898010254 269.78662109375 29.28871726989746 C 268.6030883789062 28.57959938049316 267.4583740234375 27.78107070922852 266.3377990722656 26.81901168823242 C 266.3280944824219 26.80930519104004 266.3180847167969 26.8001880645752 266.3072204589844 26.79018783569336 C 266.0957336425781 27.04489326477051 265.8995666503906 27.31224632263184 265.6819152832031 27.56165885925293 C 264.4622192382812 28.93871688842773 263.0880737304688 30.19577598571777 261.5660400390625 31.30195236206055 C 258.5601501464844 33.5213623046875 254.7000122070312 35.00985336303711 250.8183898925781 34.89489364624023 C 248.8939666748047 34.83548355102539 247.0183868408203 34.44930648803711 245.3030853271484 33.78783416748047 C 243.6039733886719 33.09665679931641 242.0289764404297 32.22283554077148 240.6348571777344 31.16254043579102 C 237.7942657470703 29.11401176452637 235.5607299804688 26.50665855407715 233.6851501464844 23.74548149108887 C 236.3860321044922 25.71401214599609 239.1389770507812 27.52842330932617 242.0216217041016 28.77665901184082 C 243.4554443359375 29.41460037231445 244.9339752197266 29.83136367797852 246.3713226318359 30.14107131958008 C 247.8248443603516 30.38577651977539 249.2522277832031 30.44784164428711 250.6204376220703 30.25518798828125 C 253.3589630126953 29.91342353820801 255.8222045898438 28.58136367797852 257.9507446289062 26.70754051208496 C 259.0180969238281 25.77254104614258 259.9874877929688 24.68959999084473 260.8936767578125 23.54842376708984 C 261.3357238769531 22.96724700927734 261.7669067382812 22.37489318847656 262.1583862304688 21.76018905639648 C 262.5310363769531 21.1707763671875 262.9636840820312 20.46518898010254 263.200439453125 19.98989486694336 L 265.0231018066406 16.33401107788086 L 269.0666198730469 20.14371681213379 C 269.1539611816406 20.22577667236328 269.2225036621094 20.31018829345703 269.2754516601562 20.40577697753906 C 269.2801513671875 20.48312950134277 269.5328063964844 20.67842292785645 269.6427917480469 20.81165885925293 C 269.8839721679688 21.10783576965332 270.2807312011719 21.42165946960449 270.66162109375 21.73577690124512 C 271.4236755371094 22.36577606201172 272.3121948242188 22.98607063293457 273.2542724609375 23.52783584594727 C 275.1433715820312 24.60136413574219 277.1595458984375 25.60048294067383 279.2710266113281 26.26018905639648 C 283.4539794921875 27.65165519714355 287.9100952148438 28.1672477722168 291.8566284179688 27.06018829345703 C 292.3730773925781 26.97401237487793 292.833984375 26.7613639831543 293.3027954101562 26.56165885925293 C 293.763671875 26.34842300415039 294.2828063964844 26.22695350646973 294.7130737304688 25.94695281982422 C 295.5780944824219 25.39518737792969 296.4886779785156 24.92724609375 297.377197265625 24.15430641174316 C 298.3095703125 23.48371696472168 299.0889587402344 22.6728343963623 299.947509765625 21.9113655090332 C 300.7160339355469 21.08342361450195 301.5098571777344 20.25460052490234 302.1895446777344 19.33548164367676 C 304.9766235351562 15.72489356994629 306.8451538085938 11.17812919616699 307.06103515625 6.181070327758789 L 5.408970355987549 6.181070327758789 L 5.408970355987549 69.3216552734375 C 6.083970546722412 69.60518646240234 6.759852886199951 69.87519073486328 7.475440979003906 70.09107208251953 C 8.906323432922363 70.60489654541016 10.21691131591797 71.02342224121094 11.58044147491455 71.21342468261719 C 12.94485282897949 71.415771484375 14.32249546051025 71.51049041748047 15.69955921173096 71.40254211425781 C 21.20926475524902 71.05048370361328 26.57161712646484 68.42960357666016 31.13544082641602 64.83518981933594 C 33.44485473632812 63.03783416748047 35.53838348388672 60.95695114135742 37.38867568969727 58.74224853515625 C 38.30661773681641 57.6334228515625 39.1436767578125 56.45871734619141 39.83308792114258 55.29607009887695 C 40.53514862060547 54.18812942504883 41.07514572143555 52.85077667236328 41.14250183105469 52.2828369140625 L 41.94014739990234 45.78401184082031 L 46.59838104248047 50.13460159301758 C 47.16632461547852 50.66195297241211 48.00338363647461 51.32342529296875 48.74573516845703 51.89136505126953 C 49.51544189453125 52.47165679931641 50.31279373168945 52.99930572509766 51.13632202148438 53.52577590942383 C 52.78396987915039 54.52548217773438 54.48514556884766 55.40401077270508 56.25455856323242 56.07989501953125 C 59.77985763549805 57.41813278198242 63.53368377685547 57.90430450439453 67.125732421875 56.99871826171875 C 68.92191314697266 56.56577682495117 70.69132232666016 55.8360710144043 72.35191345214844 54.82254028320312 C 73.13573455810547 54.2554817199707 73.98632049560547 53.7425422668457 74.72956085205078 53.0801887512207 C 75.52632141113281 52.47165679931641 76.25514984130859 51.78342437744141 76.98426818847656 51.06695175170898 C 79.87514495849609 48.18871688842773 82.3060302734375 44.71636581420898 84.56044006347656 41.08136367797852 C 84.24985504150391 42.10930633544922 83.89897155761719 43.12253952026367 83.56132507324219 44.14871597290039 C 83.19691467285156 45.16195297241211 82.75131988525391 46.13489532470703 82.34632110595703 47.13489532470703 C 81.87308502197266 48.10783386230469 81.38690948486328 49.09401321411133 80.87397003173828 50.05342483520508 C 80.27896881103516 50.97254180908203 79.76691436767578 51.95871734619141 79.10456085205078 52.83724594116211 C 77.84896850585938 54.67401123046875 76.32279205322266 56.36342239379883 74.58132171630859 57.86283493041992 C 72.79838562011719 59.32254028320312 70.75897216796875 60.56548309326172 68.51691436767578 61.43048095703125 C 64.00632476806641 63.14666366577148 58.88779830932617 62.98372268676758 54.41838073730469 61.61930465698242 C 52.16308975219727 60.95695114135742 50.0157356262207 60.03901290893555 47.98985290527344 58.91754150390625 C 47.34191131591797 58.55224609375 46.69367599487305 58.18783569335938 46.05838394165039 57.76930618286133 C 45.90985107421875 58.05283355712891 45.76132202148438 58.3360710144043 45.61279296875 58.61959838867188 C 44.70838165283203 60.214599609375 43.69514846801758 61.63283538818359 42.60161590576172 62.98371887207031 C 40.44073486328125 65.68636322021484 37.94220733642578 68.03724670410156 35.21426391601562 70.13166046142578 C 32.48632431030273 72.18548583984375 29.48838233947754 73.97018432617188 26.21955871582031 75.23989105224609 C 22.9654426574707 76.52254486083984 19.41395378112793 77.29385375976562 15.80749988555908 77.22547912597656 C 12.24279403686523 77.22547912597656 8.528382301330566 76.22636413574219 5.557499885559082 74.67224884033203 C 5.503382205963135 74.64518737792969 5.463088035583496 74.63166046142578 5.408970355987549 74.60459899902344 L 5.408970355987549 238.0022430419922 C 5.408970355987549 238.0022430419922 5.446029186248779 238.0175476074219 5.458382129669189 238.0231323242188 C 9.248382568359375 239.4046020507812 13.17073535919189 240.3504791259766 17.09720611572266 241.1693115234375 C 21.06808853149414 241.8831329345703 25.04985237121582 242.4960632324219 29.05838203430176 242.8119506835938 C 32.22103118896484 243.1028289794922 35.39514541625977 243.2128295898438 38.56308746337891 243.2128295898438 M 332.2139587402344 39.15548324584961 C 333.0671997070312 39.15548324584961 333.9201354980469 39.13371658325195 334.7713317871094 39.06195449829102 C 336.916015625 39.01577758789062 339.0328063964844 38.68930435180664 341.1630859375 38.43724822998047 C 343.2672119140625 38.04018783569336 345.3839721679688 37.67136383056641 347.450439453125 37.07548141479492 C 355.7457275390625 34.83813095092773 363.6036682128906 30.83136367797852 370.4886779785156 25.48607063293457 C 377.3251342773438 20.09959983825684 383.4739685058594 13.64930534362793 388.1754455566406 6.181070327758789 L 307.06103515625 6.181070327758789 C 308.6145629882812 11.00430583953857 307.78662109375 16.57254028320312 305.401611328125 21.32195281982422 C 304.2124938964844 23.71489334106445 302.6069030761719 25.91195297241211 300.7360229492188 27.81283569335938 C 299.8854370117188 28.80901145935059 298.71630859375 29.68548202514648 297.5716247558594 30.56754112243652 C 297.403076171875 30.70077705383301 297.2142639160156 30.80165863037109 297.0316162109375 30.91224670410156 L 297.4069213867188 31.08430480957031 C 305.2330932617188 34.66901016235352 313.4916076660156 37.29430389404297 321.9721984863281 38.48754119873047 L 323.5607299804688 38.72342300415039 L 325.1592712402344 38.85313034057617 C 326.224853515625 38.93312835693359 327.2904357910156 39.04018783569336 328.3586730957031 39.10136413574219 C 329.6413269042969 39.10577774047852 330.9281005859375 39.15548324584961 332.2139587402344 39.15548324584961 M 388.128662109375 6.270482063293457 C 388.128662109375 6.270482063293457 388.1289672851562 6.269599914550781 388.1298522949219 6.268129348754883 C 388.1289672851562 6.269599914550781 388.128662109375 6.270482063293457 388.128662109375 6.270482063293457 M 388.1298522949219 6.268129348754883 L 388.1298522949219 6.267835140228271 L 388.1298522949219 6.268129348754883 M 388.1298522949219 6.267835140228271 C 388.1301574707031 6.267246723175049 388.1304321289062 6.266658782958984 388.1307373046875 6.266070365905762 C 388.1304321289062 6.266658782958984 388.1301574707031 6.267246723175049 388.1298522949219 6.267835140228271 M 388.1307373046875 6.266070365905762 C 388.1313171386719 6.265188217163086 388.1318969726562 6.264011859893799 388.1327819824219 6.262540817260742 C 388.1318969726562 6.264011859893799 388.1313171386719 6.265188217163086 388.1307373046875 6.266070365905762 M 388.1327819824219 6.262540817260742 C 388.1337585449219 6.260788917541504 388.1348876953125 6.258643627166748 388.1361083984375 6.256203651428223 C 388.1347961425781 6.2586989402771 388.1335754394531 6.260758876800537 388.1327819824219 6.262540817260742 M 388.1361083984375 6.256203651428223 C 388.1367492675781 6.254992961883545 388.1374206542969 6.253688335418701 388.1380920410156 6.252246856689453 C 388.1373901367188 6.253639221191406 388.13671875 6.254957675933838 388.1361083984375 6.256203651428223 M 388.1380920410156 6.252246856689453 C 388.138671875 6.251070499420166 388.1395568847656 6.249894142150879 388.14013671875 6.24842357635498 C 388.1395568847656 6.249599933624268 388.138671875 6.251070499420166 388.1380920410156 6.252246856689453 M 388.14013671875 6.24842357635498 C 388.14013671875 6.248129367828369 388.1404418945312 6.248129367828369 388.1404418945312 6.247835159301758 C 388.1404418945312 6.248129367828369 388.14013671875 6.248129367828369 388.14013671875 6.24842357635498 M 388.1404418945312 6.247835159301758 C 388.1413269042969 6.246364593505859 388.1422119140625 6.24459981918335 388.1430969238281 6.243129253387451 C 388.1422119140625 6.24459981918335 388.1413269042969 6.246364593505859 388.1404418945312 6.247835159301758 M 388.1430969238281 6.243129253387451 C 388.1430969238281 6.242540836334229 388.1433715820312 6.242247104644775 388.1436767578125 6.241658687591553 C 388.1433715820312 6.242247104644775 388.1430969238281 6.242540836334229 388.1430969238281 6.243129253387451 M 388.1436767578125 6.241658687591553 C 388.1445617675781 6.240188121795654 388.1454467773438 6.238423347473145 388.1463317871094 6.236658573150635 C 388.1454467773438 6.238423347473145 388.1445617675781 6.240188121795654 388.1436767578125 6.241658687591553 M 388.1463317871094 6.236658573150635 C 388.1507263183594 6.228423595428467 388.1560363769531 6.218423366546631 388.1622009277344 6.206364631652832 C 388.1571960449219 6.215776443481445 388.151611328125 6.226658821105957 388.1463317871094 6.236658573150635 M 388.1622009277344 6.206364631652832 C 388.1629943847656 6.204903125762939 388.1637268066406 6.203506469726562 388.1644287109375 6.202137470245361 C 388.1636657714844 6.203567028045654 388.1629028320312 6.204967021942139 388.1622009277344 6.206364631652832 M 388.1644287109375 6.202137470245361 C 388.165283203125 6.200559139251709 388.1661376953125 6.198944568634033 388.1669006347656 6.19724702835083 C 388.1661071777344 6.198859214782715 388.165283203125 6.20047664642334 388.1644287109375 6.202137470245361 M 388.1669006347656 6.19724702835083 C 388.1675109863281 6.196070671081543 388.1680908203125 6.194893836975098 388.1686706542969 6.193717479705811 C 388.1680908203125 6.194893836975098 388.1675109863281 6.196070671081543 388.1669006347656 6.19724702835083 M 388.1686706542969 6.193717479705811 C 388.1690063476562 6.193284511566162 388.1692810058594 6.192803382873535 388.1695556640625 6.192305564880371 C 388.1692810058594 6.192758560180664 388.1689758300781 6.193219661712646 388.1686706542969 6.193717479705811 M 388.1695556640625 6.192305564880371 C 388.1701049804688 6.191420078277588 388.170654296875 6.190572261810303 388.1710205078125 6.189599990844727 C 388.1704711914062 6.190529346466064 388.1700134277344 6.191450119018555 388.1695556640625 6.192305564880371 M 388.1710205078125 6.189599990844727 C 388.1713256835938 6.189011573791504 388.1719055175781 6.188129425048828 388.1722106933594 6.187246799468994 C 388.171630859375 6.188129425048828 388.1713256835938 6.189011573791504 388.1710205078125 6.189599990844727 M 388.1722106933594 6.187246799468994 C 388.1722106933594 6.186952590942383 388.1724853515625 6.18665885925293 388.1724853515625 6.18665885925293 C 388.1724853515625 6.18665885925293 388.1722106933594 6.186952590942383 388.1722106933594 6.187246799468994 M 388.1724853515625 6.18665885925293 C 388.173095703125 6.185776233673096 388.1733703613281 6.185188293457031 388.1736755371094 6.18489408493042 C 388.173095703125 6.185482025146484 388.1727905273438 6.186070442199707 388.1724853515625 6.18665885925293 M 388.1736755371094 6.18489408493042 C 388.1741943359375 6.183843612670898 388.1747131347656 6.182781219482422 388.1752624511719 6.181521415710449 C 388.1749877929688 6.182121753692627 388.1744689941406 6.183297157287598 388.1736755371094 6.18489408493042 M 388.1752624511719 6.181521415710449 C 388.1753845214844 6.18123722076416 388.1754455566406 6.181070327758789 388.1754455566406 6.181070327758789 C 388.1753845214844 6.181228160858154 388.1753234863281 6.181370258331299 388.1752624511719 6.181521415710449 M 38.56308746337891 253.2128295898438 C 35.08985137939453 253.2128295898438 31.60985374450684 253.0887145996094 28.14249992370605 252.7698974609375 C 23.93485260009766 252.4393005371094 19.62514686584473 251.7840118408203 15.32779407501221 251.0116577148438 C 11.45485305786133 250.2078399658203 6.720441341400146 249.1266632080078 2.033676385879517 247.4184265136719 L -4.541617870330811 245.0216522216797 L -4.591029644012451 238.0022430419922 L -4.591029644012451 -3.818929433822632 L 406.2872009277344 -3.818929433822632 L 396.6380920410156 11.50871753692627 C 391.5777893066406 19.54665946960449 384.8622131347656 26.89224624633789 376.677490234375 33.34077453613281 C 368.6413269042969 39.58048248291016 359.4545593261719 44.19518661499023 350.0545654296875 46.73048400878906 C 348.0836791992188 47.30018997192383 345.9036865234375 47.72371673583984 343.7251586914062 48.13106918334961 L 342.3380737304688 48.36783599853516 L 341.0619201660156 48.52548217773438 C 339.0419006347656 48.7798957824707 337.0239562988281 49.01577758789062 334.9866027832031 49.05960083007812 C 334.4807434082031 49.12195205688477 333.3475036621094 49.15548324584961 332.2139587402344 49.15548324584961 L 328.3242797851562 49.10136413574219 L 322.7519226074219 48.69077682495117 L 320.5033874511719 48.37901306152344 C 316.5215759277344 47.81893157958984 312.4867553710938 46.95920181274414 308.4282531738281 45.80758666992188 C 308.9940490722656 48.12145614624023 309.4590454101562 50.44427108764648 309.8145446777344 52.74106979370117 C 311.0283813476562 60.41371917724609 311.1022033691406 68.24636077880859 310.0283813476562 75.98842620849609 C 308.9186706542969 83.639892578125 306.6389770507812 91.10312652587891 303.2439575195312 98.2325439453125 C 299.9463195800781 104.9937210083008 295.6289672851562 111.4046020507812 290.3710327148438 117.371955871582 C 285.1336669921875 123.3796005249023 279.1422119140625 128.4063720703125 272.5978088378906 132.2731323242188 C 265.6436767578125 136.3916625976562 258.1504516601562 139.0263671875 250.3351440429688 140.0993041992188 C 242.6315460205078 141.1457977294922 234.7620086669922 140.7308349609375 226.9686737060547 138.9466552734375 C 223.31396484375 138.1143035888672 219.601318359375 136.9625396728516 215.9451446533203 135.5257720947266 C 214.7431335449219 135.0542297363281 213.5507049560547 134.5508422851562 212.3750152587891 134.0160217285156 C 211.870849609375 135.4372100830078 211.3291931152344 136.7831573486328 210.7336730957031 138.1019592285156 C 208.8560333251953 142.2063598632812 206.6330871582031 145.7854766845703 204.1063232421875 148.7857818603516 C 201.2551422119141 152.1690063476562 198.1101531982422 154.9945983886719 194.7566223144531 157.1860656738281 C 194.3901519775391 157.4666595458984 193.5677947998047 157.9440155029297 192.7301483154297 158.3963623046875 C 190.7889709472656 159.4998931884766 189.638671875 160.0990142822266 188.4166107177734 160.5372467041016 L 186.7145538330078 161.2754821777344 C 185.6951446533203 161.6857757568359 184.8125 161.9481353759766 183.9227905273438 162.1878356933594 L 179.5792694091797 153.0281219482422 L 182.4133758544922 162.6181335449219 C 181.6842651367188 162.8337249755859 180.9527893066406 163.040771484375 180.2107391357422 163.203125 L 175.5516204833984 164.0184173583984 L 171.388671875 164.2966613769531 C 166.9954376220703 164.2690124511719 162.7148590087891 164.0510711669922 158.2675018310547 162.80224609375 C 154.5980682373047 161.8508148193359 150.9660339355469 160.4754028320312 147.6178283691406 158.7526702880859 C 147.6106414794922 158.8830871582031 147.6030883789062 159.0136108398438 147.5951538085938 159.1440124511719 C 147.3792572021484 163.3237152099609 146.849853515625 167.6751861572266 146.0269165039062 171.9869537353516 C 144.4219055175781 180.4587249755859 141.6639709472656 188.7425384521484 137.8319091796875 196.5954895019531 C 136.1145629882812 200.1325378417969 133.9566192626953 203.8254852294922 131.2430877685547 207.8678283691406 C 128.8904418945312 211.3096008300781 126.2398529052734 214.6516571044922 123.0913238525391 218.1557769775391 C 117.3513259887695 224.3943023681641 110.7022094726562 230.0266571044922 103.2483825683594 234.9842987060547 L 101.7789688110352 235.963134765625 L 95.37162017822266 239.365478515625 C 94.13603210449219 240.0240173339844 92.89897155761719 240.6801910400391 91.63514709472656 241.287841796875 L 83.00014495849609 244.9769592285156 L 73.799560546875 248.1134185791016 L 67.29014587402344 249.8096008300781 L 63.77838134765625 240.3848876953125 L 66.30985260009766 250.0593109130859 C 65.48779296875 250.2743072509766 64.66397094726562 250.4831237792969 63.83102798461914 250.6466522216797 L 57.75132369995117 251.7213592529297 C 56.53691101074219 251.9540100097656 55.18161773681641 252.1672515869141 53.81485366821289 252.2722473144531 L 48.12632369995117 252.8728332519531 L 41.52279281616211 253.1810760498047 L 38.56308746337891 253.2128295898438 Z" stroke="none" fill="#262262"/>
  </g>
</svg>
