<svg xmlns="http://www.w3.org/2000/svg" xmlns:xlink="http://www.w3.org/1999/xlink" width="375" height="812" viewBox="0 0 375 812">
  <defs>
    <radialGradient id="radial-gradient" cx="0.5" cy="0.5" r="0.872" gradientTransform="translate(0.216) scale(0.568 1)" gradientUnits="objectBoundingBox">
      <stop offset="0" stop-color="#f9ed40"/>
      <stop offset="0.778" stop-color="#f9ae40"/>
      <stop offset="1" stop-color="#f9ae40"/>
    </radialGradient>
    <clipPath id="clip-path">
      <rect id="Rectangle_2700" data-name="Rectangle 2700" width="375" height="812" transform="translate(4955 817)" fill="#fff"/>
    </clipPath>
    <clipPath id="clip-path-2">
      <path id="Shape" d="M-215.886,816.359V216.5H882.287s2.8,110.088,0,599.857C889.619,812.3-215.886,816.359-215.886,816.359Z" transform="translate(11046.092 -1151.429)" stroke="#262262" stroke-width="15" fill="url(#radial-gradient)"/>
    </clipPath>
  </defs>
  <g id="Mask_Group_24" data-name="Mask Group 24" transform="translate(-4955 -817)" clip-path="url(#clip-path)">
    <g id="Mask_Group_23" data-name="Mask Group 23" transform="translate(4570.501 -10134.158) rotate(90)" clip-path="url(#clip-path-2)">
      <path id="Shape-2" data-name="Shape" d="M738.627,1253.376l-6.4-343.851,65.424,378.26ZM488.61,1228.753l131.9-343.283-72.882,377.692Zm117.847-6.858,62.373-297.6,2.958,313.558Zm254.369-5.555-70.2-321.677,120.892,337.594ZM836.32,861.155l189.514,311.276s-45,15.015-48.012,15.866l-.012,0C974.434,1188.269,836.32,861.155,836.32,861.155ZM260,1121.312,553.161,807.9l-235.14,349.207Zm157.445-22.781,167.2-251.922L463.467,1117.155Zm461.829-253.9,240.089,233.085-31.695,27.935ZM137.493,1016.414,506.7,793.572,195.51,1052.212Zm773.521-221.27,301.614,204.6-31.7,27.936ZM62.66,913.683,453.73,771.35,111.74,959.236ZM944.111,763.106,1286.68,895.24l-34.836,60.551ZM69.405,792.275l337.667-61.6L99.939,847.231Zm903.967-68.422s369.2,54.211,368.907,57.075-7.219,46.041-7.219,46.041ZM0,697.775l420.017-19.187L49.08,743.328Zm974.953-24.9,360.17-3.338,49.08,45.552ZM36.362,584.916,424.028,623.5,63.857,626.834Zm1337.057-30.4,49.081,45.552-448.785,23.6ZM70.032,516.818c.3-2.862,7.219-46.041,7.219-46.041L450.685,575.906S69.735,519.682,70.032,516.818Zm1241.554-78.947,30.534,54.956-337.667,61.6ZM136.37,401.985l23.536-33.97L459.649,534.236Zm1158.444-70.547,49.08,45.552L952.824,519.324ZM201.075,302.9l23.536-33.971,281.731,226.89Zm916.412-142.7,50.368,44.373L840.646,485.673Zm65.693,112.426,29.449,37.2L939.152,475.934Zm-919.352-47.65,57.952-43.454L534,459.753ZM986.894,62.46l50.367,44.373L822.987,437.158ZM382.365,117.4s45-15.015,48.013-15.867S567.309,418.623,567.309,418.623ZM495.45,57.7,554.472,92.1l70.2,321.677ZM611.253,0l59.022,34.409,7.55,370.393ZM857.093,16.911,916.115,51.32,784.211,394.6ZM732.938,42.224l65.331,15.954L735.9,355.782Z" transform="translate(10669.176 -1246.066)" fill="#88e145"/>
    </g>
  </g>
</svg>
