
<svg xmlns="http://www.w3.org/2000/svg" xmlns:xlink="http://www.w3.org/1999/xlink" width="1920" height="1080" viewBox="0 0 1920 1080">
  <defs>
    <linearGradient id="linear-gradient" x1="0.5" y1="1" x2="0.5" gradientUnits="objectBoundingBox">
      <stop offset="0" stop-color="#feee1f"/>
      <stop offset="0.309" stop-color="#feee1f"/>
      <stop offset="1" stop-color="#ffaf32"/>
    </linearGradient>
    <clipPath id="clip-path">
      <path id="Shape" d="M0,1067.584,256.43,0,2433.143,10.328l-256.43,1067.584Z" stroke="#231c64" stroke-linecap="round" stroke-width="10" fill="url(#linear-gradient)"/>
    </clipPath>
    <clipPath id="clip-Web_1920_1">
      <rect width="1920" height="1080"/>
    </clipPath>
  </defs>
  <g id="Web_1920_1" data-name="Web 1920 – 1" clip-path="url(#clip-Web_1920_1)">
    <g id="Shape-2" data-name="Shape" transform="matrix(1, -0.017, 0.017, 1, -107.034, -14.38)">
      <g id="Clip" transform="translate(-143.639 33)" clip-path="url(#clip-path)">
        <path id="Shape-3" data-name="Shape" d="M1605.527,1195.433l66.929,493.718-104.58,7Zm-361.848,480.881L1490.487,1200.1l-71.114,496.051ZM917.391,1637.8c-6.276-2.335,439.235-434.193,439.235-434.193L1021.97,1672.813S923.665,1640.13,917.391,1637.8Zm836.637-429.525,217.528,456.368-104.575,7Zm98.307-29.179s459.1,445.863,452.824,448.2-104.578,35.015-104.578,35.015ZM711.366,1518.16l549.043-369.413-530.219,462.2Zm1277.967-355.407,549.045,369.414-43.923,67.114ZM419.588,1451.631l742.52-349.571-723.7,442.362Zm1687.919-335.565,690.226,323.894-18.824,92.791ZM275.268,1297.326l699.639-210.093L341.153,1379.612ZM2233.005,1081.4l699.639,210.093-65.885,82.287ZM83.886,1181.775l897.295-180.331-878.47,273.121ZM2245.555,995.608l897.3,180.33-18.824,92.792ZM14.486,1005.261l994.932-83.186L0,1098.295Zm2196.553-84.936,994.933,83.185,14.486,93.034Zm-40.784-61.278,1064.777-79.028,14.486,93.034ZM16.8,780.019l1064.777,79.028L2.314,873.053ZM2934.737,666.461l31.373,64.779-764.483,59.526ZM272.129,725.989l31.375-64.78,749.838,129.558ZM3105.2,444.7l18.825,92.791-897.295,180.33ZM83.886,531.652l18.824-92.792,878.47,273.121Zm2782.873-192,65.885,82.287L2233.005,632.03ZM275.268,416.1l65.885-82.286,633.754,292.38Zm144.32-171.576,18.824-92.791,723.7,442.364ZM2778.908,163.4l18.824,92.791L2107.507,580.089ZM711.366,177.995,730.19,85.2l530.219,462.2ZM2494.455,96.876l43.923,67.113L1989.333,533.4ZM2200.58,33.849s98.3,32.681,104.578,35.016-452.824,448.2-452.824,448.2ZM1567.876,0l104.58,7-66.929,493.719Zm-324.2,19.842L1419.374,0l71.114,496.054ZM917.391,58.36c6.274-2.335,104.58-35.016,104.58-35.016l334.656,469.208S911.115,60.694,917.391,58.36Zm949.59-33.85,104.575,7L1754.028,487.883Z" transform="translate(-470.139 -355.405)" fill="rgba(245,159,37,0.75)"/>
      </g>
    </g>
  </g>
</svg>
