
<svg xmlns="http://www.w3.org/2000/svg" xmlns:xlink="http://www.w3.org/1999/xlink" width="428" height="812" viewBox="0 0 428 812">
  <defs>
    <linearGradient id="linear-gradient" x1="0.5" y1="1" x2="0.5" gradientUnits="objectBoundingBox">
      <stop offset="0" stop-color="#feee1f"/>
      <stop offset="0.309" stop-color="#feee1f"/>
      <stop offset="1" stop-color="#ffaf32"/>
    </linearGradient>
    <clipPath id="clip-path">
      <rect id="Rectangle_2611" data-name="Rectangle 2611" width="428" height="812" transform="translate(3458 1440)" fill="#fff" stroke="#707070" stroke-width="1"/>
    </clipPath>
    <clipPath id="clip-path-2">
      <path id="Path_28703" data-name="Path 28703" d="M5188.517,1h837.768V1088.5L5020.3,1077.449Z" transform="translate(-5020.298 -1)" fill="#fff" stroke="#707070" stroke-width="1"/>
    </clipPath>
    <clipPath id="clip-path-3">
      <path id="Shape" d="M0,1075.892,172.8,0,1639.577,10.409,1466.781,1086.3Z" stroke="#231c64" stroke-linecap="round" stroke-width="10" fill="url(#linear-gradient)"/>
    </clipPath>
  </defs>
  <g id="Mask_Group_18" data-name="Mask Group 18" transform="translate(-3458 -1440)" clip-path="url(#clip-path)">
    <g id="Mask_Group_17" data-name="Mask Group 17" transform="translate(3242.956 1367.07)" clip-path="url(#clip-path-2)">
      <g id="Shape-2" data-name="Shape" transform="translate(-0.526 0)">
        <g id="Shape-3" data-name="Shape" stroke-linecap="round" fill="url(#linear-gradient)">
          <path d="M 1462.525146484375 1081.270263671875 L 5.860372543334961 1070.933471679688 L 177.0515441894531 5.0303053855896 L 1633.71630859375 15.36705875396729 L 1462.525146484375 1081.270263671875 Z" stroke="none"/>
          <path d="M 1458.268432617188 1076.240234375 L 1627.85546875 20.3253231048584 L 181.3081665039062 10.06027030944824 L 11.72120761871338 1065.975219726562 L 1458.268432617188 1076.240234375 M 1466.781005859375 1086.30078125 L 0.0001482599473092705 1075.89208984375 L 172.7956085205078 -0.0001859907642938197 L 1639.576538085938 10.40845012664795 L 1466.781005859375 1086.30078125 Z" stroke="none" fill="#231c64"/>
        </g>
        <g id="Clip" clip-path="url(#clip-path-3)">
          <path id="Shape-4" data-name="Shape" d="M1081.887,1204.736l45.1,497.56-70.471,7.058ZM838.055,1689.36l166.312-479.917-47.92,499.911Zm-219.87-38.817c-4.229-2.353,295.979-437.572,295.979-437.572l-225.508,472.86S622.413,1652.894,618.185,1650.543Zm563.769-432.867L1328.536,1677.6l-70.468,7.058Zm66.244-29.406s309.365,449.333,305.136,451.687-70.47,35.287-70.47,35.287Zm-768.843,341.7,369.974-372.288-357.289,465.8Zm861.16-358.173L1710.49,1544.09l-29.6,67.636ZM282.74,1462.928l500.348-352.292-487.663,445.8Zm1137.407-338.177,465.11,326.414-12.685,93.514ZM185.49,1307.422l471.453-211.728L229.886,1390.349Zm1319.224-217.61,471.453,211.728-44.4,82.927ZM56.527,1190.972,661.17,1009.238,69.212,1284.485Zm1456.644-187.616,604.644,181.733-12.685,93.514ZM9.762,1013.084,680.2,929.251,0,1106.842Zm1480.15-85.6,670.437,83.833,9.761,93.758Zm-27.483-61.755,717.5-79.643,9.761,93.758ZM11.321,786.089l717.5,79.643L1.559,879.847ZM1977.577,671.648l21.141,65.283-515.148,59.99Zm-1794.2,59.99,21.142-65.284L709.8,796.921Zm1909.07-283.48,12.685,93.513L1500.486,723.4ZM56.527,535.789l12.685-93.514L661.17,717.522Zm1875.243-193.5,44.4,82.928L1504.714,636.949ZM185.49,419.338l44.4-82.927L656.942,631.067Zm97.25-172.911,12.685-93.513L783.088,598.721Zm1589.832-81.751,12.685,93.513L1420.146,584.6ZM479.355,179.38,492.04,85.867l357.289,465.8ZM1680.892,97.63l29.6,67.635L1340.515,537.554ZM1482.864,34.112s66.242,32.935,70.47,35.288S1248.2,521.088,1248.2,521.088ZM1056.516,0l70.471,7.058-45.1,497.561ZM838.055,20,956.447,0l47.92,499.915ZM618.185,58.814c4.228-2.353,70.471-35.288,70.471-35.288L914.164,496.385S613.956,61.167,618.185,58.814ZM1258.068,24.7l70.468,7.059L1181.954,491.68Z" transform="translate(-316.804 -358.171)" fill="rgba(245,159,37,0.75)"/>
        </g>
      </g>
    </g>
  </g>
</svg>
