<svg xmlns="http://www.w3.org/2000/svg" width="707.658" height="168.633" viewBox="0 0 707.658 168.633">
  <g id="Group_11410" data-name="Group 11410" transform="translate(-4868.913 -2037.512)">
    <path id="Shape_copy_3" data-name="Shape copy 3" d="M736.537,192.145H220.125c-13.8,0-25.051-11.933-25.121-26.653,0,0,.178-1.517.1-18.415-.534-2.872-131.3,26.735-131.334,26.179C63.709,173,195.929,98.842,195.512,97.741c-.056-11.9-1.008-37.575-1.008-37.575-.07-14.72,11.064-26.653,24.869-26.653H735.786c13.8,0,25.051,11.933,25.121,26.653l.5,105.326C761.475,180.212,750.341,192.145,736.537,192.145Z" transform="translate(4810.166 2009)" fill="#fff" stroke="#231c64" stroke-width="10"/>
    <text id="Lorem_ipsum_dolor_sit_amet_consectetur_adipiscing_elit_sed_do_eiusmod_tempor_incididunt_ut_labore_et_dolore_magna_aliqua._Quis_ipsum_suspendisse_ultrices_gravida._Risus_commodo_viverra_maecenas_accumsan_lacus_vel_facilisis._" data-name="Lorem ipsum dolor sit amet, consectetur adipiscing elit, sed do eiusmod tempor incididunt ut labore et dolore magna aliqua. Quis ipsum suspendisse ultrices gravida. Risus commodo viverra maecenas accumsan lacus vel facilisis. " transform="translate(5049.067 2063.135)" fill="#231c64" font-size="27.928" font-family="SegoeUI, Segoe UI"><tspan x="0" y="30">Lorem ipsum dolor sit amet, </tspan><tspan x="0" y="64.329">consectetur adipiscing elit, sed do </tspan><tspan x="0" y="98.658">eiusmod tempor incididunt ut labore et </tspan></text>
  </g>
</svg>
