<svg xmlns="http://www.w3.org/2000/svg" xmlns:xlink="http://www.w3.org/1999/xlink" width="859.109" height="750.88" viewBox="0 0 859.109 750.88">
  <defs>
    <filter id="FAQs" x="140.514" y="265.358" width="544" height="323" filterUnits="userSpaceOnUse">
      <feOffset dy="22" input="SourceAlpha"/>
      <feGaussianBlur result="blur"/>
      <feFlood flood-opacity="0.251"/>
      <feComposite operator="in" in2="blur"/>
      <feComposite in="SourceGraphic"/>
    </filter>
  </defs>
  <g id="Group_1" data-name="Group 1" transform="translate(-965.193 -156.361)">
    <path id="Shape" d="M1428.579,369.017c13.188,36.094,38.494,70.5,75.3,85.578s85.37,4.9,103.18-28.446c-11.9,36.212.026,79.168,29.43,105.97s74.8,36.1,111.983,22.928c-55.96,44.673-26.616,166.079,38.526,208.239-38.585-27.337-112.015-26.685-133.33-.125s-25.783,62.4-24.642,96.364c-20.532-38.078-74.363-51.4-116.094-38.383s-72.785,45.974-96.8,80.874c.7-42.274-39.631-79.606-83.474-86.6s-88.071,11.231-120.57,39.038c30.827-72.648-22.763-168.247-104.085-185.679,44.251-19.446,77.793-59.032,88.668-104.646s-1.138-96.324-31.757-134.056c13.815,8.808,25.224,13.8,40.958,18.618,38,11.629,77.969,21.643,116.861,15.741S1421.971,406.125,1428.579,369.017Z" fill="#fcb911"/>
    <path id="Shape-2" data-name="Shape" d="M1354.988,242.2c15.831,44.7,46.207,87.3,90.391,105.976s102.474,6.073,123.853-35.226c-14.288,44.844.031,98.039,35.326,131.229s89.783,44.7,134.418,28.393c-67.171,55.321-31.949,205.666,46.245,257.875-46.315-33.853-134.457-33.046-160.042-.155s-30.949,77.278-29.579,119.333c-24.646-47.155-89.262-63.651-139.353-47.532s-87.367,56.933-116.19,100.151c.845-52.351-47.571-98.582-100.2-107.237s-105.716,13.908-144.726,48.344c37-89.964-27.323-208.351-124.938-229.938,53.117-24.082,93.378-73.1,106.432-129.59s-1.365-119.285-38.119-166.009c16.583,10.907,30.278,17.092,49.164,23.055,45.609,14.4,93.59,26.8,140.274,19.493S1347.057,288.149,1354.988,242.2Z" fill="#fff" stroke="#231c64" stroke-linejoin="round" stroke-width="10"/>
    <path id="Shape-3" data-name="Shape" d="M1745.571,891.447a37.914,37.914,0,0,0,3.523-26.071,37.859,37.859,0,0,0,26.281,1.011,37.878,37.878,0,0,0-3.508,26.072A37.857,37.857,0,0,0,1745.571,891.447Zm-55.55-34.405a24.385,24.385,0,0,0,2.266-16.767,24.343,24.343,0,0,0,16.9.65,24.353,24.353,0,0,0-2.256,16.768A24.35,24.35,0,0,0,1690.021,857.042Zm71.113-20.185a40.864,40.864,0,0,0,3.8-28.1,40.8,40.8,0,0,0,28.326,1.088,40.822,40.822,0,0,0-3.781,28.1A40.8,40.8,0,0,0,1761.134,836.857Z" fill="#fff"/>
    <path id="Shape-4" data-name="Shape" d="M1704.229,583.748l93.143,19.873q-4.852,12.76-9.7,25.519C1760,614.286,1730.73,601.573,1704.229,583.748Zm118.588-101.9,1.485,34.466c-38.174,12.663-77.111,29-115.417,37.614ZM1007.932,260.542l19.619-22.639c23.927,37.853,50.342,74.392,71.949,114.854Zm27.033-90.055q8.791-6.772,17.584-13.541c13.983,35.762,30.02,71.052,41.931,108.361Z" fill="#231c64"/>
    <path id="Shape-5" data-name="Shape" d="M1060.38,741.467a40.8,40.8,0,0,0,9.469-26.734,40.865,40.865,0,0,0,25.7,11.982,40.8,40.8,0,0,0-9.464,26.72A40.819,40.819,0,0,0,1060.38,741.467Zm-46.809-33.025a37.856,37.856,0,0,0,8.786-24.8,37.913,37.913,0,0,0,23.844,11.117,37.858,37.858,0,0,0-8.78,24.791A37.876,37.876,0,0,0,1013.571,708.442Zm52.5-51.656a24.346,24.346,0,0,0,5.651-15.953,24.384,24.384,0,0,0,15.334,7.15,24.348,24.348,0,0,0-5.647,15.944A24.363,24.363,0,0,0,1066.075,656.786Z" fill="#231c64"/>
    <path id="Shape-6" data-name="Shape" d="M1206.72,255.273a24.346,24.346,0,0,0-.388-16.91,24.354,24.354,0,0,0,16.875,1.224,24.346,24.346,0,0,0,.388,16.919A24.39,24.39,0,0,0,1206.72,255.273Zm21.57-58.239a37.853,37.853,0,0,0-.6-26.294,37.879,37.879,0,0,0,26.239,1.9,37.857,37.857,0,0,0,.6,26.307A37.92,37.92,0,0,0,1228.29,197.034ZM1170.807,184.7a40.8,40.8,0,0,0-.651-28.338,40.822,40.822,0,0,0,28.28,2.05,40.8,40.8,0,0,0,.65,28.355A40.865,40.865,0,0,0,1170.807,184.7Z" fill="#fff"/>
    <g transform="matrix(1, 0, 0, 1, 965.19, 156.36)" filter="url(#FAQs)">
      <text id="FAQs-2" data-name="FAQs" transform="translate(412.51 482.36)" fill="#f42168" stroke="#fff" stroke-linejoin="round" stroke-width="13" font-size="202.263" font-family="Nunito-BlackItalic, Nunito" font-weight="800" font-style="italic"><tspan x="-258.189" y="0">FAQs</tspan></text>
    </g>
  </g>
</svg>
