<svg xmlns="http://www.w3.org/2000/svg" width="707.589" height="168.65" viewBox="0 0 707.589 168.65">
  <g id="Group_11410" data-name="Group 11410" transform="translate(-5443.84 -2309.958)">
    <path id="Shape_copy_2" data-name="Shape copy 2" d="M218.138,230.958H734.5c13.8,0,25.049,11.934,25.119,26.656,0,0-.178,1.517-.1,18.416.534,2.872,131.288-26.737,131.321-26.181.059.261-132.148,74.422-131.731,75.524.056,11.9,1.007,37.579,1.007,37.579.07,14.722-11.063,26.656-24.866,26.656H218.889c-13.8,0-25.049-11.934-25.118-26.656l-.5-105.337C193.2,242.893,204.335,230.958,218.138,230.958Z" transform="translate(5255.569 2084)" fill="#fff" stroke="#231c64" stroke-width="10"/>
    <text id="Lorem_ipsum_dolor_sit_amet_consectetur_adipiscing_elit_sed_do_eiusmod_tempor_incididunt_ut_labore_et_dolore_magna_aliqua._Quis_ipsum_suspendisse_ultrices_gravida._Risus_commodo_viverra_maecenas_accumsan_lacus_vel_facilisis._" data-name="Lorem ipsum dolor sit amet, consectetur adipiscing elit, sed do eiusmod tempor incididunt ut labore et dolore magna aliqua. Quis ipsum suspendisse ultrices gravida. Risus commodo viverra maecenas accumsan lacus vel facilisis. " transform="translate(5481.69 2336.352)" fill="#231c64" font-size="27.928" font-family="SegoeUI, Segoe UI"><tspan x="0" y="30">Lorem ipsum dolor sit amet, </tspan><tspan x="0" y="64.329">consectetur adipiscing elit, sed do </tspan><tspan x="0" y="98.658">eiusmod tempor incididunt ut labore et </tspan></text>
  </g>
</svg>
