<svg xmlns="http://www.w3.org/2000/svg" width="324.483" height="77.647" viewBox="0 0 324.483 77.647">
  <g id="Group_11327" data-name="Group 11327" transform="translate(-43.301 -441)">
    <path id="Shape_copy_3" data-name="Shape copy 3" d="M308.1,72.647H71.6c-6.322,0-11.472-5.465-11.5-12.206,0,0,.082-.695.045-8.433C59.9,50.693.015,64.251,0,64c-.027-.119,60.524-34.078,60.333-34.583-.026-5.449-.461-17.208-.461-17.208C59.84,5.465,64.939,0,71.26,0H307.754c6.322,0,11.472,5.465,11.5,12.206l.228,48.235C319.519,67.182,314.42,72.647,308.1,72.647Z" transform="translate(365.288 516.147) rotate(180)" fill="#fff" stroke="#231c64" stroke-width="5"/>
    <text id="Lorem_ipsum_dolor_sit_amet_consectetur_adipiscing_elit_sed_do_eiusmod_tempor_incididunt_ut_labore_et_dolore_magna_aliqua._Quis_ipsum_suspendisse_ultrices_gravida._Risus_commodo_viverra_maecenas_accumsan_lacus_vel_facilisis._" data-name="Lorem ipsum dolor sit amet, consectetur adipiscing elit, sed do eiusmod tempor incididunt ut labore et dolore magna aliqua. Quis ipsum suspendisse ultrices gravida. Risus commodo viverra maecenas accumsan lacus vel facilisis. " transform="translate(69.126 448)" fill="#231c64" font-size="15" font-family="ComicSansMS, Comic Sans MS"><tspan x="0" y="17">Lorem ipsum dolor sit amet, </tspan><tspan x="0" y="35">consectetur adipiscing elit, sed </tspan><tspan x="0" y="53">do eiusmod tempor incididunt ut </tspan></text>
  </g>
</svg>
