<svg xmlns="http://www.w3.org/2000/svg" width="324.483" height="77.647" viewBox="0 0 324.483 77.647">
  <g id="Group_11328" data-name="Group 11328" transform="translate(-7.216 -345)">
    <path id="Shape_copy_3" data-name="Shape copy 3" d="M371.867,106.159H135.372c-6.322,0-11.472-5.465-11.5-12.206,0,0,.082-.695.045-8.433-.245-1.315-60.13,12.243-60.145,11.989-.027-.119,60.524-34.078,60.333-34.583-.026-5.449-.461-17.208-.461-17.208-.032-6.741,5.067-12.206,11.389-12.206H371.522c6.322,0,11.472,5.465,11.5,12.206l.228,48.235C383.287,100.694,378.188,106.159,371.867,106.159Z" transform="translate(-54.056 313.988)" fill="#fff" stroke="#231c64" stroke-width="5"/>
    <text id="Lorem_ipsum_dolor_sit_amet_consectetur_adipiscing_elit_sed_do_eiusmod_tempor_incididunt_ut_labore_et_dolore_magna_aliqua._Quis_ipsum_suspendisse_ultrices_gravida._Risus_commodo_viverra_maecenas_accumsan_lacus_vel_facilisis._" data-name="Lorem ipsum dolor sit amet, consectetur adipiscing elit, sed do eiusmod tempor incididunt ut labore et dolore magna aliqua. Quis ipsum suspendisse ultrices gravida. Risus commodo viverra maecenas accumsan lacus vel facilisis. " transform="translate(92.674 352)" fill="#231c64" font-size="15" font-family="ComicSansMS, Comic Sans MS"><tspan x="0" y="17">Lorem ipsum dolor sit amet, </tspan><tspan x="0" y="35">consectetur adipiscing elit, sed </tspan><tspan x="0" y="53">do eiusmod tempor incididunt ut </tspan></text>
  </g>
</svg>
